<svg 
          width="23.720428466796875" 
          height="113.74798583984375" fill="none" 
          xmlns="http://www.w3.org/2000/svg">
          <path d="M 22.35476408022383 107.04036408160972 L 22.327950357680233 107.34728550907671 L 22.830029332034485 107.54751064207584 L 22.89802127134146 109.16583087806201 L 23.720428466796875 110.37312698191904 L 23.25629569800655 110.35796445690117 L 23.688427565785023 110.96785707505416 L 23.31315515429319 111.09035431664589 L 23.027461324810837 111.70818730974243 L 23.094814842152488 112.93854641217928 L 22.827435742800358 113.21713785869181 L 22.393987129718404 112.89637065180062 L 22.065798338169195 113.74798583984375 L 21.76442326916358 113.60705415994082 L 21.9108613074597 112.89505390620697 L 21.51472047797635 112.68956179083321 L 21.435596055649043 111.87218198822518 L 20.90410976951707 111.39268708522587 L 20.94923822219089 110.88354545567847 L 20.245777019149845 110.14916052685246 L 19.823460889088224 110.26639078606956 L 19.74437636813375 108.98404018337408 L 19.98298657767348 108.80552140197948 L 19.721472980127764 108.62899768966618 L 20.139878775651777 107.73588506473205 L 20.78971253360563 107.77407068694811 L 21.158401218580064 107.39863858722933 L 21.732422368151727 107.57847411421758 L 21.792553737010653 107.13385301875938 L 22.35476408022383 107.04032418022811 L 22.35476408022383 107.04036408160972 Z M 20.507290616695563 104.23258365935334 L 21.092404347914727 105.38980352926977 L 19.622118561774265 107.01007893295562 L 19.24947964088939 106.10112545951598 L 19.40509499493704 105.24160979791091 L 20.51906152168122 104.93468837044394 L 20.507290616695563 104.23258365935334 L 20.507290616695563 104.23258365935334 Z M 15.94939669938556 96.19971731317592 L 16.35471484462044 96.44407337425336 L 16.390027559577405 97.06849009531821 L 16.633186525620065 96.98749029061749 L 17.112402013341164 97.51043779820748 L 17.066635138702022 98.30870483901667 L 16.53123851803244 97.82593802272403 L 15.626434987677436 98.07951130295709 L 15.43814040927978 97.66521525753461 L 15.649338375683424 97.34971503301806 L 15.0903600436697 97.46103988775451 L 15.219800097139077 96.50799538761818 L 15.94939669938556 96.19971731317592 L 15.94939669938556 96.19971731317592 Z M 18.238817768409152 96.15430954088556 L 18.724537179901983 96.6575058645707 L 18.652634906057404 97.53417912027493 L 17.690293596077602 96.75366819428929 L 18.03611879441888 96.19644539988259 L 18.286539810317098 96.59426217469353 L 18.238817768409152 96.15430954088556 L 18.238817768409152 96.15430954088556 Z M 18.66763782224251 94.80935367041893 L 18.85788756790897 96.0199216875693 L 18.43166110330974 94.90946623691849 L 18.66763782224251 94.80935367041893 Z M 17.954400782857448 93.34190055836055 L 18.21200404586556 93.80555461285435 L 17.634072561756284 94.49185837682107 L 18.253182262628936 95.320450467666 L 18.27999598517253 96.04234626404309 L 18.0106617185516 95.86582255172978 L 17.706653158939023 96.07394815829085 L 17.603348504675083 96.58045629665094 L 17.39087369434079 95.92707117252566 L 17.669385276713253 95.97910257416592 L 17.743921041164793 95.59644832437284 L 17.839365124980684 95.89215746360293 L 18.000845980834747 95.45352157538862 L 17.38764168314134 95.82364679135114 L 17.447773052000265 95.27568111748165 L 17.03786624888962 94.85148952941596 L 16.962053640507435 94.14016759916974 L 17.954400782857448 93.34190055836055 L 17.954400782857448 93.34190055836055 Z M 13.969211269815629 92.86699431424823 L 14.02607072610227 93.48610415155682 L 13.761963539322426 93.15089264451703 L 13.969211269815629 92.86699431424823 L 13.969211269815629 92.86699431424823 Z M 12.477338840972658 91.61756235139418 L 12.712038715974781 91.74728174306021 L 12.479294008241462 92.71748383729572 L 13.550805474291614 93.55924338407722 L 13.478903200447034 93.85958108357592 L 12.437477369512761 93.48678247504446 L 11.943258965606558 92.81432449050196 L 12.045885296532342 91.84938937864108 L 12.477338840972658 91.61756235139418 L 12.477338840972658 91.61756235139418 Z M 11.349646241974021 89.99070321974006 L 11.535945751730042 90.46425281687708 L 11.231298770152142 90.33317677823577 L 11.349646241974021 89.99070321974006 L 11.349646241974021 89.99070321974006 Z M 19.17889411234829 88.6022548433011 L 19.541038972178153 90.05721882291054 L 19.32533215064441 90.07565326122175 L 19.273021450860703 90.70729213236088 L 19.17889411234829 88.6022548433011 L 19.17889411234829 88.6022548433011 Z M 7.844909159211115 79.3054723327394 L 8.345032966296563 79.97597514958223 L 8.758211681979489 79.7961795239756 L 8.362030951123305 80.02804645260412 L 8.430661312395602 80.76965353150443 L 7.868450969182426 81.07198630008443 L 7.078084576111695 80.96856191890991 L 6.929013047208612 79.73030234291112 L 7.556621740494635 79.70723934433131 L 7.655337736882811 79.14079933076901 L 7.844909159211115 79.3054723327394 L 7.844909159211115 79.3054723327394 Z M 4.123148509610985 56.30033075628528 L 4.321238875039077 56.75217400181778 L 4.343463939706908 56.476854468598574 L 4.704990328257865 56.779147335796935 L 4.733100845418524 57.64528662675191 L 5.10637818826872 57.84419501415738 L 5.230591161897011 59.358412545481386 L 4.453950841080739 60.27263300129566 L 4.856655446395075 60.745544176326675 L 4.084583832768151 61.68147098374548 L 3.012453895439091 61.17165103071043 L 2.3358263656280593 61.39561748577701 L 2.818273864548607 60.24625818804089 L 2.267176053669346 59.51055651362122 L 2.2096382740445484 57.91928941437746 L 2.5025343013232084 58.21368180801388 L 3.3157841317135106 56.80683889464536 L 3.8989227449774546 56.39780983159752 L 4.049929490462924 56.69814753109621 L 4.123148509610985 56.30033075628528 Z M 5.8418402923216135 47.74651197159916 L 6.449159137522193 48.774650871955586 L 5.950352075740225 49.185635102703095 L 6.554418959054936 49.462909803621976 L 6.518467822132646 49.70136046021878 L 5.301196641124529 50.03924535982751 L 5.017477929597396 49.752075116265395 L 5.097879195855349 49.279842264722014 L 5.588845637875684 49.21133159247022 L 5.46136075167511 48.24902997179665 L 5.8418402923216135 47.74651197159916 L 5.8418402923216135 47.74651197159916 Z M 5.236476614389839 47.30588101430356 L 5.050815526599143 47.406632002909134 L 5.17241496030689 46.80659502601777 L 5.236476614389839 47.30588101430356 Z M 0.06013136885892527 46.59715267386304 L 0.7694580737063802 46.712427765380475 L 0.7570287960689845 47.5732601725792 L 0 47.47645942075459 L 0.06013136885892527 46.59715267386304 L 0.06013136885892527 46.59715267386304 Z M 4.450678928508456 46.443691960129556 L 4.857313819046815 46.64591216220998 L 4.319942080422013 47.13131246968993 L 4.450678928508456 46.443691960129556 Z M 11.034545100713947 43.08527247143475 L 11.737327980416834 43.1939638349839 L 11.433319420804258 43.52063644635573 L 10.965236416103494 43.295393147077114 L 11.034545100713947 43.08527247143475 L 11.034545100713947 43.08527247143475 Z M 10.332400642976383 40.4210572202686 L 10.509562738353708 40.28271913017136 L 10.878291324700973 40.627866081236014 L 11.488223709822096 42.24814148492186 L 11.333286679112602 42.540578710858604 L 10.754078351072682 41.58948937842194 L 10.399115738352709 41.614507544701425 L 9.730328828303309 40.951266779314516 L 10.270314106848655 40.19581392098999 L 10.332400642976383 40.4210572202686 L 10.332400642976383 40.4210572202686 Z M 10.601774810970149 39.45085512603309 L 10.650135274843418 40.281402384577696 L 10.227180722816472 39.880952118579444 L 10.197095087700594 39.40608577584875 L 10.601774810970149 39.45085512603309 L 10.601774810970149 39.45085512603309 Z M 11.129350762564515 38.692768776521255 L 11.371871306641854 40.256384218298216 L 10.844295355047487 39.830237462532835 L 10.848205689585095 39.389606505237225 L 10.1415124753446 38.89957763748866 L 10.543558708007195 38.81658276370664 L 10.818798377807372 39.19464835461273 L 11.129350762564515 38.692768776521255 Z M 11.688289193205408 37.931370612334455 L 12.049795631069948 38.89626582281371 L 11.770645626732165 39.72022935339003 L 11.258112492695737 39.023391624674055 L 11.688289193205408 37.931370612334455 L 11.688289193205408 37.931370612334455 Z M 6.655090122711916 37.59085222153841 L 6.69431317220649 38.574860193816505 L 7.3271489453336 38.472114136129626 L 6.945372610070033 39.82165866548325 L 7.78741128095915 40.2353162887997 L 7.491901713759946 40.604803082656204 L 7.180710907037478 40.31962790817538 L 7.144759770115188 40.66936351812703 L 7.5847123069688775 40.905819105642536 L 6.903516069968497 41.43076168231382 L 6.976096667151235 42.98515990493519 L 7.282060394032615 41.842384335167345 L 7.799820607910129 41.78775934372139 L 7.854724896927967 42.27515472028264 L 7.405595044322749 45.05859529974719 L 7.2376102646969525 44.911718313981986 L 7.199664059133026 45.22917370619822 L 6.668177773001052 44.991401373089055 L 6.755122864403572 45.509081898304416 L 6.1798248709012595 45.73632026666432 L 6.28181277986172 46.13744885615022 L 6.474017692796984 45.92206119813322 L 6.568145031309395 46.172362565072945 L 7.0512708535680995 45.66190418993189 L 6.936235195691337 45.283200176919784 L 7.416049204004924 45.574959079368895 L 6.796979404505106 48.20557736720597 L 6.6191389857896255 47.78932615408383 L 5.9157176841214145 47.58052222403512 L 5.920944763962503 46.87710076735086 L 5.518898531299907 47.010810297179496 L 5.386844937909985 46.21449842406997 L 5.767982851208229 46.27315345506015 L 5.881721714467928 45.98334972031071 L 5.709148276966368 45.77917435053062 L 5.384889770641181 46.0083678865902 L 5.111625218796224 44.84189089613653 L 4.752053997514071 45.16992015448365 L 4.54023755983152 43.20122588643982 L 4.220567711382097 43.33557383837447 L 4.091127657912718 43.021390359451566 L 4.759894617275703 41.64219910354985 L 5.093310488666001 42.467479379719826 L 5.297286306586921 42.333131427785176 L 5.331920698205731 42.87850351184896 L 5.426067987404559 42.69539607156737 L 5.5986613755925365 39.452850195114394 L 6.655090122711916 37.59089212292004 L 6.655090122711916 37.59085222153841 Z M 7.145398192080512 37.83452995912822 L 7.387320215565358 37.825991063460265 L 7.3081957932380535 38.30548596645957 L 6.964325762165579 38.24683093546939 L 7.145398192080512 37.83452995912822 L 7.145398192080512 37.83452995912822 Z M 9.404095204022902 37.30695389126962 L 9.56493763791164 37.7647424426644 L 9.266834481478309 37.61455364222424 L 9.202074553370787 37.90699086816099 L 9.094899465942072 37.50917409335005 L 9.404095204022902 37.30695389126962 L 9.404095204022902 37.30695389126962 Z M 11.813140588799023 37.22136542768191 L 11.93539839515851 37.5677892229586 L 12.199505581938354 37.245705270473756 L 12.128241730059097 38.03475509212735 L 11.616386919360828 37.68106924539473 L 11.813140588799023 37.22136542768191 L 11.813140588799023 37.22136542768191 Z M 9.947352395140532 36.95721828131798 L 9.683245208360686 37.65672940260289 L 9.40082329145062 36.85315547803744 L 9.746648489791896 36.96053009599293 L 9.851908311324639 36.53965032260218 L 9.947352395140532 36.95721828131798 L 9.947352395140532 36.95721828131798 Z M 7.691927295770425 36.54360055938315 L 8.527422141514975 36.78600145276093 L 8.920330959798875 36.60879941695999 L 9.234115355755469 37.16538378926067 L 8.817026305534934 37.44792547255418 L 9.113174294699462 38.15860898069437 L 8.649041525909137 38.12237852617798 L 8.706539404161102 38.68287323387801 L 8.320174411021771 38.574860193816505 L 8.041702730022143 39.05962207919044 L 8.18223536513902 39.3935567420182 L 7.527852850682236 40.00544442925248 L 7.1787557397686745 39.56481347195687 L 7.599755124526817 37.57373452882087 L 7.221889123800857 37.45187570933515 L 7.332376025174688 37.05537568011787 L 7.526536105378756 37.19566893791478 L 7.761235980380878 36.89728640611577 L 7.691927295770425 36.54360055938315 L 7.691927295770425 36.54360055938315 Z M 22.24036684431239 36.39604525013031 L 22.726764579143378 36.85515054711874 L 22.801260442222087 37.57636802000818 L 22.061888003631587 37.46109292849075 L 21.8997687258122 36.89465291492845 L 22.24036684431239 36.39604525013031 L 22.24036684431239 36.39604525013031 Z M 10.138918886110472 35.07941936061811 L 9.823817744850396 35.85398498074148 L 9.645977326134917 35.78220239519636 L 9.79959761154093 35.07351395613747 L 10.138918886110472 35.079379459236485 L 10.138918886110472 35.07941936061811 Z M 6.793707491932823 29.262955059618555 L 6.886518085141755 30.810091230783993 L 6.568823354647552 29.705541184613836 L 6.793707491932823 29.262955059618555 L 6.793707491932823 29.262955059618555 Z M 9.365510576493651 28.043129921930966 L 9.680651619126559 28.093206155871563 L 9.449862078662045 28.47717715125829 L 9.763646474618639 28.493656421869815 L 10.121242577945573 29.57187155616683 L 9.847997976787033 30.03883742533558 L 10.482110593844789 30.938573679619623 L 10.174870023032762 31.88240096060036 L 10.31671940345312 33.9294615421576 L 9.819867508939957 34.15338809584255 L 9.806141436685497 34.36219202589127 L 10.173553277729283 34.335857114018125 L 9.589756291813599 34.672425268033194 L 9.578663710166099 35.20327324918513 L 8.425434232554515 34.89635182171815 L 9.30865112020701 36.40661911626119 L 8.45488144570507 36.652331824313926 L 7.621980189194648 36.41188609863582 L 7.392547295406446 36.749132576138535 L 6.922469222064045 36.6839337185617 L 6.635498548651045 36.28811201283205 L 6.74530712668672 32.52198020668307 L 6.430884308764802 32.36520767827462 L 6.700218575385734 32.374424897430224 L 7.372915819972743 31.485262509277064 L 7.027729043596788 31.17107903035416 L 7.274199823584566 30.758778054012993 L 6.970231165344823 29.290008196360965 L 7.160441009638451 29.525785460388832 L 8.172459528795002 28.257240735735934 L 8.599324415359556 28.598437450019617 L 9.009909541808355 28.50095837470737 L 9.365510576493651 28.043169823312592 L 9.365510576493651 28.043129921930966 Z M 6.584504594170816 26.97349358468354 L 6.91596529829231 27.164501498527066 L 6.938190362960141 28.429095986398995 L 6.660357103925836 29.0923367517859 L 6.306671335136511 29.166792729899964 L 6.492970844892531 29.435488633769257 L 6.207277015410178 29.915661860256204 L 5.933354090913482 28.81111181408605 L 6.226270068878558 27.39764527136762 L 6.584504594170816 26.97349358468354 L 6.584504594170816 26.97349358468354 Z M 10.841023442475203 26.90302774473207 L 10.469062844928487 27.323867616741197 L 10.51482971956763 27.780339422542315 L 10.092513589506007 27.695349479678995 L 10.199050254969398 27.015629443680563 L 10.369668525202155 27.29294404598107 L 10.841023442475203 26.90302774473207 L 10.841023442475203 26.90302774473207 Z M 11.151575827232346 18.788483270366285 L 11.364689059531962 19.465569815177403 L 11.223478101076926 20.73415444121193 L 11.36859939406957 21.176102144101197 L 11.588894873479076 20.933701250723416 L 11.718374828321286 21.14513867195944 L 11.505221694648839 21.481706825974516 L 11.988347516907544 22.133096881018506 L 11.649066143710833 22.595474091300268 L 11.197302800498656 22.001382420271174 L 10.793979723905414 21.887424074347397 L 10.561873438137418 22.231892701924412 L 10.341577958727912 21.79062332252279 L 10.072243692106978 22.020455280688388 L 10.878291324700973 22.35702343470346 L 10.919469541464352 22.967594376344085 L 11.3797318770899 22.893178299611645 L 11.375143219214136 23.213945506502835 L 11.66083704869649 23.026209505952636 L 11.189482131423441 24.34415214105849 L 11.226071690311056 25.721388229260537 L 10.802478716318785 26.458406649273865 L 10.281406688496153 26.367511301929902 L 10.402387650924993 26.67906128966549 L 9.855180223896923 26.003291490448028 L 9.603482364068057 26.099453820166623 L 9.403456782057578 26.553930556886442 L 9.907490923680633 27.263935741538987 L 9.549216497015545 27.611716183790957 L 9.47535905590216 27.070972659995785 L 9.137354526636097 27.103252877731197 L 8.756256514710685 27.88045198904188 L 9.009909541808355 28.501556895431758 L 8.599324415359556 28.59903597074401 L 7.931854250613635 28.063559429323465 L 7.931215828648312 27.062433764327828 L 8.261359787466326 27.046592915822316 L 8.354848704013413 26.681694780852805 L 7.852131307693839 26.60269004523338 L 7.9658502202671215 25.602202802343758 L 8.31562565451884 25.50472372703151 L 8.148239395485534 25.075265156591175 L 8.661450852860117 24.902691681058844 L 8.144329060947927 24.707095108328332 L 8.391438262901028 23.531400898719067 L 8.756894936676009 23.242275487457274 L 8.319535989056448 22.960372226269783 L 8.589548579015537 22.612591784017813 L 8.307765084070791 22.50262357625663 L 8.550963951486287 21.587086374848706 L 8.927513206908767 21.43562073019652 L 8.600641160663036 21.20112031038068 L 8.939284111894422 21.20112031038068 L 9.163529827214369 20.813837500318996 L 8.992233233643455 20.226329557258186 L 9.783277950052343 19.79954437938679 L 9.619841926929478 19.31079235585026 L 10.266403772311048 19.19687391130811 L 10.597186153094386 19.43133442974232 L 10.582143335536445 18.7931118306349 L 10.887428739079668 19.231787620230836 L 11.151575827232346 18.78852317174791 L 11.151575827232346 18.788483270366285 Z M 10.965236416103494 17.340142920106757 L 11.129350762564515 18.0337087355294 L 10.430478217399235 17.637847128418134 L 10.965236416103494 17.340142920106757 Z M 19.52667447795837 0 L 19.123311499992298 0.9490942633553686 L 19.137037572246754 0.4089891616662124 L 19.52667447795837 0 L 19.52667447795837 0 Z" fill="rgb(0,0,0)"/>
        </svg>