<svg 
          width="109.48973846435547" 
          height="93.29714965820312" fill="none" 
          xmlns="http://www.w3.org/2000/svg">
          <path d="M 75.8094815715771 35.18284317588442 L 75.80818477669622 35.1874318346976 L 75.8094815715771 35.18284317588442 Z M 76.2357280735773 35.15716663722111 L 75.98141662209139 36.78534248828005 L 75.48915328530911 36.07992597386096 L 75.47869912350018 35.55498340563326 L 76.2357280735773 35.15716663722111 L 76.2357280735773 35.15716663722111 Z M 75.8094815715771 35.18284317588442 L 75.72973866174819 34.77251732453374 L 75.55191815754374 35.06232105462175 L 74.72689725432751 35.12618321488691 L 74.68897099173437 34.64802501586314 L 74.09994680614793 35.028065719046836 L 75.23550020660888 35.52928691627945 L 75.22045738599066 36.2083485685585 L 75.51726380818852 36.29990228722667 L 75.95069255875976 37.28061837974602 L 70.95150839158413 39.745925203852785 L 67.88414958311107 40.95980501615312 L 65.42867845150892 40.260992180286905 L 63.39881539981175 40.502714746288994 L 61.65396791224168 41.37541780048421 L 59.95488730862145 45.12377348082735 L 60.019607348522634 45.75738746016543 L 58.11852600384216 47.784038452422756 L 57.94004712685204 48.08832638380802 L 58.19108666510005 48.65739987940421 L 57.57133841618197 49.20341037679155 L 55.59049421098211 49.472146177719914 L 55.024353467370595 48.51052289600149 L 55.19497177231353 48.001381274643514 L 55.4388290619905 48.00531156067046 L 55.362338114709026 47.625929230272995 L 53.7397285076798 47.05553898910433 L 51.69482263536443 47.45205896263449 L 50.23828257584983 48.15218854407318 L 48.98767354341906 48.98207741647238 L 48.03386095784091 50.054347227659896 L 47.08724059617903 52.99388196476349 L 45.699340887243956 55.20824900386083 L 44.99655786456857 58.50541981872551 L 45.90919222500615 63.41233204663444 L 47.06108524096619 65.44690346301712 L 46.11446487930431 72.03861160160153 L 47.688025713800535 76.3020342583788 L 47.574276852056826 78.83716849920785 L 48.65360920675898 81.74111120447357 L 46.68060562291583 78.13506379941045 L 46.31189691224576 77.96707898546711 L 46.23606433774996 79.21587250612859 L 45.83270127772467 78.8088385187091 L 46.06477768467611 78.40575476800704 L 45.80262561183348 78.35500021139518 L 45.038404437840065 79.56492978697808 L 46.55182391589914 80.95401656317989 L 47.57754876529474 80.97775788486547 L 48.61111423604705 81.89987879940956 L 48.61177260883273 82.64675284867121 L 48.11753415369342 82.36883973011649 L 47.49255882387087 81.13321366517978 L 46.421725463311105 81.10488368468103 L 45.290750746314195 80.27696993064053 L 44.25978884066888 80.38961152915884 L 44.20553293792189 80.6649310579496 L 44.7880132970325 80.78148299180435 L 44.83312180819667 81.02583904895138 L 44.42061135658855 80.97975295391467 L 44.27678682895366 81.37824804580355 L 43.81786109595525 81.49352313546682 L 43.836824227251824 81.96380081174621 L 43.41580480615608 82.15476882113643 L 43.70411223421155 82.58027714795159 L 43.320360702923274 83.11707042633158 L 42.30313484767006 83.57481906898195 L 41.60689565147051 83.5623299367339 L 41.326438820116984 83.8758350871265 L 40.97472809773169 83.58407618937028 L 40.5256081291018 84.01417317499862 L 41.39639591626788 84.70047692792629 L 40.842016104691425 85.10224393305587 L 40.547174825505365 84.72353992613513 L 40.08040847115025 84.92703696915439 L 40.1804312578471 84.55423836661932 L 39.86925036316194 84.6168037320025 L 39.803871950475084 83.87846857827147 L 38.595757888756246 84.39287718191935 L 38.16428430585156 84.08659418148488 L 37.98711219908756 83.46816267761128 L 36.52403828844236 83.29163896813732 L 35.781383810852525 83.5807643747486 L 36.471737553361926 83.88636905170632 L 36.27757743365839 84.86052136705378 L 36.62340270235353 84.61153674971258 L 36.752194384715445 84.79532251052565 L 36.42532227197164 84.91123602228465 L 36.454739565077155 85.20762348023506 L 35.41463026784902 85.55077535669889 L 35.50746083062959 86.01905796392907 L 34.86940782320063 86.48079674467786 L 34.314379614183736 85.8576967792291 L 33.6429890029709 85.93741973843547 L 33.64233063018523 86.3826393474568 L 33.240284315731294 86.65400863953013 L 32.74473909036587 87.74144097549163 L 31.600038298322094 87.64527864731978 L 30.375574645758924 86.76860540571666 L 29.48321018684404 86.89178096881477 L 29.196867901800367 87.35084635703763 L 29.62376280124102 87.58271328193662 L 29.03866890167817 87.56755075716264 L 28.958257643718337 86.6329008089895 L 27.178765782138278 87.20660286477985 L 26.58254937263557 87.0557756446597 L 26.463563454642156 87.78357683381091 L 25.879776325305425 87.59320734513545 L 25.367243087000464 88.14189123504873 L 25.8189765960826 88.982972444814 L 25.53198591359849 88.98033895366903 L 24.933155963643543 91.0656250252826 L 24.434997197825883 91.44301228663085 L 24.463766093490957 92.26238714514072 L 24.145392974889536 92.34538201758778 L 24.030327367574476 92.01013061455882 L 23.955801563304792 92.03451035834014 L 23.72176001334156 92.01076903665457 L 23.65508480577382 92.57457554996084 L 23.23211021701152 92.58909965263908 L 23.2589139696648 93.21874344456923 L 22.00961170746015 93.29714965820312 L 20.944005427804854 92.72017568917207 L 20.58771602195553 92.17348686830799 L 19.567218253464404 92.32168059728319 L 20.078444721543246 91.84613593871389 L 19.988886072000586 91.32055494839044 L 20.26868453056843 89.98876655528188 L 21.11724724854526 89.9920384685226 L 21.6964656697632 88.85452989942596 L 22.146892408619216 89.31690710227049 L 22.933348627147108 89.23985753559006 L 22.753572955276105 88.28481798173402 L 23.236030527689874 88.35991238074622 L 23.14908541859945 87.40024426669602 L 23.874741907904518 87.1019016410774 L 23.838132390882734 86.69550607575366 L 24.19442179673206 86.47485143891122 L 23.93161135110375 86.16134628851862 L 24.75729062710566 85.64230912467657 L 24.3722423009365 85.21025697138 L 24.75206354620119 84.97116789652287 L 24.872356234420717 84.15773834377964 L 24.573594644556305 83.63147902997947 L 24.09701255048745 84.24863368966157 L 23.425621939274617 83.51225370359877 L 22.935962167599342 83.64664155475346 L 22.77841156491759 83.35484275561623 L 22.32405454003798 83.57154715574124 L 21.991955346389698 83.34103687779572 L 22.40773771123573 83.16778508156246 L 21.82982606024391 82.84769620330748 L 22.31752068890739 79.70594126737612 L 20.085636945459516 79.57817704546483 L 19.477659603921744 80.0122242678106 L 19.624097672008876 79.16982631247285 L 19.16647870923659 79.06771867853438 L 19.10110029654973 78.71139934634576 L 18.074717074368454 78.89977376597201 L 17.768114863147332 78.45319750999721 L 17.846560978095372 78.15417656090186 L 18.41205332426645 78.2075247072777 L 18.466967599799123 77.84330490165422 L 18.132254865698602 77.51527564858338 L 18.587908685459094 76.90211112699969 L 18.52384701834359 76.00041971951948 L 17.53276654295798 75.35361833376614 L 17.48700963435337 75.83179648348039 L 16.766580225952776 75.70798249828651 L 16.501156239872234 76.29349536284819 L 16.210893644150207 76.29676727608889 L 16.18213472383037 75.44579052383955 L 16.66917097970817 75.26072791883499 L 16.510313606800295 74.4532436718584 L 15.75980853250851 75.20606302688668 L 15.423130655396196 74.72656813159995 L 14.483054120210143 74.67453673079659 L 14.319618063838238 75.04534026428246 L 14.611835827226823 75.72310512167951 L 13.904484096432647 76.07152398043327 L 13.937831675561753 76.39624141888241 L 13.039581762956718 76.71170173694324 L 12.983360717197925 77.5258096131632 L 12.802926672541247 77.12140911688867 L 12.367532778958207 77.25049008437244 L 12.456443031060427 76.89417075218384 L 12.16748720556452 76.91787217248843 L 11.638614351760465 77.20572073490821 L 11.998165695502465 77.49089590480206 L 11.786359190073714 77.60158233565214 L 11.435296865128862 77.37302722537483 L 10.893994731158829 77.75568146901298 L 10.395845940686405 77.3690769886574 L 10.295164781203884 78.18972869135875 L 9.953908220627536 77.89202448783588 L 9.89376686419039 78.27404030937831 L 9.43940983931078 78.32934362342236 L 9.544669682257334 76.61885122339308 L 8.877189406377619 76.58792765313035 L 9.09423296805608 76.08141952291734 L 8.203833652152989 75.9325873718464 L 7.6638482637543115 76.2138123050228 L 7.484720989323751 75.76923111809721 L 6.711990845842719 76.02017090310665 L 6.484493122355313 75.23770482200712 L 6.179187706015071 75.71061598943147 L 6.088970683686732 75.43198464601903 L 5.7313745076112905 75.73300066416358 L 5.707184295410248 74.92024943489709 L 5.418886842700018 75.16855572876156 L 5.508445492242679 75.77318135481464 L 4.979572638438623 75.88051606966205 L 5.504525181564325 76.28495646731757 L 5.564018140561031 77.21625469948803 L 4.587980485793635 77.12867116822778 L 4.106171310820307 77.43954282747544 L 3.644622062024429 76.97983901715685 L 3.4400077805119467 77.52584951454419 L 3.1817760183476707 77.38751142667208 L 2.850983594925507 76.37453506762702 L 3.5197606656861034 75.26008949673924 L 3.847939548656031 75.20283101502696 L 3.773413744386347 74.80501424661482 L 2.339747151501427 73.43368358495096 L 2.940542244468168 72.8330081956153 L 2.283526105742635 71.95769160096563 L 1.6905816094778403 71.90366513111307 L 1.7964898498648345 71.50848185384588 L 2.4201584094612616 71.41100278010155 L 2.484230051922 71.08037993726676 L 3.55440503969609 71.31420202983398 L 3.3968544370143356 72.36867582510256 L 3.607364147562206 73.00230975513114 L 4.940349580964604 73.15904237963694 L 5.299252527266164 73.87303769096762 L 7.572972868640294 73.40407676026071 L 8.124080766978834 74.00343540402389 L 8.049554962709148 75.21468172517926 L 8.625501470689171 75.19888077830953 L 8.64511299942618 75.4504589854147 L 9.13150085786354 75.03616294665609 L 8.861508163664201 74.65678061625863 L 9.175302598801592 74.19576006036756 L 8.422842356843246 74.19053297945864 L 8.52875059723024 73.65110620993369 L 7.746214689380704 73.431089995187 L 8.694141821268705 72.29362132747134 L 8.615695706320667 72.08022874196801 L 7.997254227628711 72.39836245255478 L 8.041055968566763 71.99855061509342 L 8.437226804675783 71.9247729616537 L 8.615047308880225 71.42025990048988 L 10.129763581820182 71.62248009931764 L 10.07289413862095 69.91525961252907 L 9.504139854557197 69.90935420814341 L 9.334818344495142 69.37782791205333 L 8.558816287776196 69.16379690445426 L 8.413036592474741 69.58399834759852 L 8.97002994450343 70.76100928386948 L 8.533329280694273 71.04554603166757 L 8.144999065941962 70.50544093866588 L 8.197958173808077 69.9502132222712 L 7.1081616819517395 69.85405089409936 L 7.129738353700545 69.07553504971727 L 6.4563825994759165 69.35939347403864 L 5.364630939953021 68.9820062126904 L 4.814171439054922 69.6926498080184 L 4.720692478833907 70.74253494447382 L 4.313409108130263 70.79783825851787 L 3.961688410399734 70.37105308751121 L 2.431929316841562 70.36315261407636 L 2.254767185422798 69.90999263023916 L 2.599944056677499 69.60107613865974 L 1.6284751100288974 68.86010749378376 L 1.6833893855615718 68.2403193429567 L 2.093286296717452 67.91101324569436 L 2.482923281695882 68.1092433064237 L 2.512998947587074 67.46443698971956 L 2.918317175278922 66.9948376369169 L 1.5062272541428077 67.13381414688476 L 0.9224301494608402 66.36056528479259 L 0.5413021339700342 66.29468810478772 L 0 65.2428478006641 L 0.5184186919951106 63.36437058669147 L 0.27587814788948967 62.731414980139625 L 1.2120443477424268 62.38104095371766 L 1.4271227664090917 60.11264744476776 L 0.9270088329248725 60.29707162767658 L 0.049687194628201765 60.02965257232069 L 0.33406433666007807 59.366411817601865 L 0.19285334947741914 58.589851140888 L 0.5033858467221333 58.31453161209725 L 1.5951375062450286 59.19579351251357 L 3.0333728072487434 59.455990417911316 L 3.2916045694130194 59.18330438026552 L 3.9237721231518328 59.18853146117445 L 3.8433608651919986 59.52573803187164 L 4.361131159746669 59.602827499933056 L 5.390117947034944 57.892295198522795 L 5.090049586944412 57.57747330255771 L 5.440463514448823 57.48857302572499 L 5.446997365579414 56.851667182455714 L 4.93707766772669 56.462389309574185 L 5.5293737665510445 55.924957609098435 L 5.307093148622873 55.5475304463692 L 4.862551863457006 55.488236994226725 L 4.784105748508968 54.95607227604089 L 4.125782839557316 55.033121842721314 L 3.6583581124165256 53.42274200758132 L 2.878435745019225 52.630380383997725 L 2.8993540439823526 52.41104249272776 L 3.647893975262343 52.50127946582345 L 3.684503492284126 50.59780403666426 L 4.398389074208892 50.327093117377174 L 4.874322770837307 50.722296345334854 L 4.9946054837116005 50.239509586116924 L 3.876050071535427 49.16590307866643 L 4.159120443341186 47.90328372949394 L 3.5897077864917546 47.78010816639582 L 4.18788933900626 46.81784646258164 L 5.248258562411844 46.2290018327078 L 6.691730919665269 45.98464577556076 L 10.257248493955982 46.51090508936094 L 11.583700076227789 46.640664380321454 L 12.303471111842706 47.142543950340304 L 13.085997044347005 46.99895883086878 L 14.22285721503407 47.30194996737205 L 15.434253165336056 46.86592762666756 L 16.996701465237656 47.38887512584606 L 17.46739810561636 46.77832414471683 L 17.841992269976576 47.59767905253621 L 18.470239513037036 47.84532697361444 L 18.69251015561997 47.53511368715303 L 19.224006525221498 47.534455314366795 L 19.433857862983693 46.80138714292568 L 20.226847932642173 46.393674832029454 L 20.482466154354213 44.936755708154564 L 21.29768129320194 44.967739130488766 L 22.52214494576511 44.228745603971504 L 24.62197506895839 44.579139581083965 L 25.414306765831192 43.97251888598167 L 26.736828062079407 45.00265283884991 L 27.57689178591386 45.04546702064592 L 28.41826227997442 44.13587513973085 L 28.436567038485315 43.1466002009904 L 28.779778766728217 43.19863160179375 L 28.913149132554167 43.811177651972194 L 29.4309094517636 43.88164349079023 L 29.36226910118407 42.78762742696634 L 29.63684047884744 42.496506951305854 L 31.079654463315187 41.87739712395552 L 33.07291797333579 42.28574785694749 L 33.648874456661055 41.96498065521577 L 33.739091478989394 38.129041443612365 L 34.297381625898964 37.36764329167249 L 36.49331422511073 37.06730559700467 L 37.459546115509625 36.3809818933865 L 39.52407349190724 35.929816978598524 L 41.25976361254925 34.96358508737642 L 41.74352795518914 35.522782991179035 L 42.449572915757194 35.41213646170994 L 43.00003241665529 36.276260718993555 L 43.76752550388661 36.2156704719691 L 44.995909467128136 34.74095533217526 L 45.29401268420687 33.76155598522839 L 44.79325035328221 33.204991572570734 L 44.22645123688502 33.05087248851939 L 44.47160532144287 32.420550373112505 L 44.96844734168918 31.588686382354584 L 46.1726510680749 31.301516143411536 L 46.832929144693104 30.44724752723101 L 47.0944328200953 30.903021051522657 L 47.92795271745391 30.939251505456284 L 48.46401779517424 31.723034332128275 L 48.70852348229166 32.93954763557356 L 49.247860473249894 33.16941949142335 L 49.44398573596523 33.79710811568528 L 49.81008090618306 33.243855517649315 L 50.533772252476325 33.736517868660826 L 50.586082962902005 34.098782506616075 L 52.042623022416606 34.487382056020884 L 52.60744702045677 34.13104277314178 L 51.92952255811335 33.60083322262417 L 52.07203034017689 32.96721924328608 L 52.3701535079461 32.89739182656379 L 52.33484078580519 32.14391409874927 L 51.06396185185174 31.833042439501625 L 51.01623980023533 32.273673389709785 L 49.24328178978586 31.51161686498367 L 49.660370924858015 30.889853595797884 L 49.36291610521972 30.280599409550636 L 49.74732600929367 29.97960334209657 L 50.09577479378629 30.7350761389603 L 50.44748551617158 30.847039414001873 L 50.939748852953855 30.37017800986009 L 51.12999863732428 29.544239374178325 L 52.006671878180505 29.11216727019127 L 53.32722803141692 29.83338473148009 L 53.093844854239364 30.30102891661453 L 54.27253164750745 30.16534427057787 L 55.73300199304565 30.723225428808 L 56.093870082359004 30.362277536425225 L 56.250762312255084 28.99362026728731 L 56.839148075746316 28.998847348196236 L 56.729957946776175 28.205827351826407 L 57.905392777496814 28.51540221619207 L 58.66178330547875 28.02603172911175 L 60.25299052570019 27.757295928183385 L 60.50991551763835 26.47029683522957 L 61.6814200623354 26.50259700313625 L 62.468534653648966 25.48894232061447 L 63.11312151220852 25.969095588687445 L 63.712599859603905 25.905233428422285 L 64.77690934437832 24.65312809313912 L 64.886079522658 23.351664749578543 L 65.19072656621256 22.915642408874056 L 64.90634942418068 22.62649705157229 L 65.8398821328909 21.216980768306588 L 65.91441791250583 20.667020034201812 L 68.73009876063567 19.14356535753582 L 68.87260654269922 18.847177899585425 L 68.40061310743963 18.259011593188312 L 68.98570700700247 17.643173679078675 L 71.0482692403883 16.836327854197833 L 72.0458835669045 15.888550351680912 L 73.90251477320648 16.094700836535612 L 74.13589795038403 16.570903867891154 L 75.01584310447818 17.015485054816743 L 75.3655986591969 16.9193227266449 L 75.36166837317332 16.027526861648766 L 75.7853013347213 15.829915272324678 L 75.88990280488217 16.178354081768916 L 76.22200199853046 16.140168460167068 L 76.2710407957182 14.670061929876908 L 76.60248161658082 14.91970492000435 L 76.70642471395601 14.709584247741725 L 75.89840179902455 13.902100000765136 L 76.26383859645671 13.612296270677131 L 76.31940126942982 12.884495081525923 L 76.79795848185572 12.770536737435142 L 77.08756270479206 12.303570875777433 L 76.28540529286028 12.149431841035597 L 76.96989353237001 11.39924597715227 L 76.65281720864947 10.809742974492186 L 78.19566395515929 8.975416638578547 L 78.53953405618788 9.483241514364043 L 78.86770296381256 9.451599719243598 L 78.96380543983105 10.457353928330514 L 79.28674726655127 10.40923286286361 L 79.03245576575583 11.104115412702878 L 79.92676541699203 11.405111480156943 L 80.07452023065052 11.725858731198171 L 79.59793813658166 12.298244041416048 L 79.6567727227927 12.828433641243167 L 80.28829187909106 13.425178744551879 L 80.72499254290022 12.59002288986277 L 82.20637121205631 11.947171740826853 L 82.5652841337031 11.025729149759483 L 82.33190095652554 10.668093071998394 L 82.6456854163177 10.383556324200297 L 83.27197749171161 10.811019818683679 L 83.8152347933482 10.768185686197176 L 83.91395080981893 11.430788018820255 L 84.47225093207373 11.654734519593893 L 85.62873260684304 11.176556369879634 L 86.1249262296489 11.3089491519851 L 86.19160143721665 10.532408425961732 L 85.9065659223991 10.678607085887721 L 85.60453241929676 10.310437043546811 L 86.6165311936455 8.958897466851102 L 85.83857396926 8.81465397459334 L 85.76208302197851 8.525508617291571 L 86.13276685100561 8.257431189149445 L 85.50386123515948 8.22912115934118 L 85.55224165956156 7.497369733472538 L 86.09156867517456 7.2787101656793025 L 87.21339600058865 5.566881069387057 L 88.15415085925086 6.004220155664021 L 88.19989779251023 6.385577604420198 L 88.3960330305708 5.6630433975589005 L 89.03539280822588 5.790169197374457 L 89.21909876612048 5.317916402736347 L 90.26900385237188 5.166430809829956 L 90.30495499660798 4.704711979771667 L 90.81684981281774 4.723146417786352 L 91.0221224671159 4.3082119569319985 L 90.13695023211729 3.3301094048671103 L 90.59653433790136 3.382160756360956 L 90.12452095195131 2.892790269280639 L 89.89506806079734 3.474372847815366 L 89.57080948850577 2.4198791018562904 L 90.13236157330802 2.1274418806233295 L 90.98812649054635 2.3263502648294025 L 91.62682789541576 3.0587600634842818 L 91.53138379218295 2.276293982384765 L 91.8883215954727 2.2664183905911837 L 91.93408847942256 1.9634472047784026 L 91.67977702793664 1.2606641815042676 L 91.86936843952138 1.1434339241727847 L 92.14851850064878 1.5010700019338743 L 92.30934101656845 1.3318083437990376 L 92.42244148087171 1.9114158039750488 L 92.14720175507743 1.8824474013805435 L 92.17269873750459 2.1103441388716138 L 92.66432365219165 2.1926606878419506 L 92.87025467927549 1.2000938851703018 L 93.31284079677481 1.548512743924049 L 93.66389314637442 0.9919483312663941 L 93.52529569964399 0.5256408423949254 L 93.92213488388393 0.04285408317699547 L 94.93150016708996 2.0319578759282177 L 95.28975471595108 2.0991518015055552 L 95.05114445786904 2.4857762325516424 L 95.59899041831491 3.457275106063651 L 96.06771194033658 3.6081023261838023 L 95.51334210410536 2.583893728391709 L 96.1631560435694 2.1498465060459395 L 97.30068456238737 4.901665196309516 L 98.2531903777394 5.217823788537563 L 99.44757836441138 5.136804034449212 L 100.1967666931318 5.969346348683859 L 100.76029389629109 5.917953369976252 L 101.14861413569817 5.520136601564106 L 103.62433521813254 5.284997763424409 L 103.67598755577254 4.2028523604433055 L 104.0368556450859 4.430090725148137 L 104.16172701676946 4.196268632580917 L 103.88648729097517 3.9644216583724146 L 104.38204249168584 4.044104716197796 L 104.07607870255991 3.775388865959923 L 104.52127836051146 3.922265849362642 L 104.95341031620183 3.5231323353780186 L 104.76447727740276 3.1701048671206 L 105.10703063285999 2.7518585916445604 L 104.75793345092693 2.071480193793035 L 105.53198033997933 2.5450297833131303 L 105.77515930618014 1.9693925105450436 L 106.82442597033635 1.3298332254403211 L 107.11925727417716 2.08464764951781 L 107.46183058032487 1.4780269544155178 L 108.03385677762654 1.5149157811353804 L 108.02926811881727 1.0979862512318181 L 107.55857147843857 1.1638434805461861 L 107.17547831993596 0.4768813548322731 L 108.12471222205008 0.5058298067362864 L 108.17702293247575 0 L 108.68432908987624 0.0810197540883513 L 108.57122862557297 0.539426769524955 L 108.91575709938724 0.8825786459887921 L 109.48973846435547 1.2382595560816576 L 107.05258206660943 4.065152694666945 L 106.65771800072652 5.276399015822321 L 105.45221747945993 6.425738344380762 L 103.95056890878115 8.68818654756402 L 100.7962450405272 11.653417774021415 L 100.78120221990898 12.26331038236441 L 95.23485041576365 15.084298116564039 L 93.22785085535094 16.4621726047093 L 92.6388266697645 17.45475935807144 L 91.00446610604544 18.975580543592475 L 91.00446610604544 19.45573381166545 L 90.10688454157133 20.68212270690432 L 88.31299825681349 22.6126113709898 L 80.02220952022483 26.845728928909594 L 76.74891968466795 29.392035556414218 L 75.78007425381682 30.62239463906101 L 75.42638841307449 31.939678880181813 L 75.1145591209489 32.09052605099246 L 75.21327513741963 32.71887304804063 L 75.97357600073468 33.38345049902242 L 76.5554179377501 33.22075261805948 L 76.39982250273489 34.846953350759705 L 75.8094815715771 35.182863126574915 L 75.8094815715771 35.18284317588442 Z" fill="rgb(0,0,0)"/>
        </svg>