<svg 
          width="80.34848022460938" 
          height="43.64055633544922" fill="none" 
          xmlns="http://www.w3.org/2000/svg">
          <path d="M 63.141278936466755 1.2639864620925807 L 63.52437231900852 1.8719241387407821 L 63.487104407406186 2.4258452999149416 L 64.31541765896169 3.5916444006389177 L 64.9913873489565 3.5811204073194136 L 65.95173434729158 2.797327301069756 L 66.35769123448873 3.2557444697880564 L 65.72162294877909 4.5987257215461845 L 64.54289556479135 4.76931416681333 L 63.52241715019855 5.798780171141418 L 62.54834406878937 6.065530981906211 L 63.039290947113905 6.449522070855014 L 63.51128465840299 7.469760877248941 L 62.96934378540203 8.26342957912543 L 63.26026492404509 8.758077215840355 L 64.38013773671221 8.17978627677089 L 65.72685003274044 6.777531500553527 L 66.9460773420776 6.693878222849867 L 68.16921498903471 6.039844457927327 L 67.51547038122675 7.376890376960237 L 67.65408785971337 7.826748696135282 L 68.0816314066288 7.738496782488219 L 68.33660138001093 9.099912479416435 L 69.41134570443155 10.75244876500475 L 69.0008001557416 11.643606553811585 L 67.45142862734907 12.165905858281644 L 67.74362661092925 12.947713870056816 L 66.84017901510481 13.745342785533158 L 66.46885654682717 13.633369491683458 L 66.54662438377893 14.106280842670232 L 65.8347035285232 14.160277407446038 L 65.43852248537593 14.575222004708037 L 66.08640158675396 15.308300436041714 L 64.59129596818924 16.45763023537185 L 65.35879947961418 16.8824604036098 L 66.05827109673294 16.755344529798958 L 66.44790830957746 17.53122718419803 L 66.76891510705153 17.430446232058742 L 67.25399647894614 16.36608645651584 L 67.96460058786045 16.38060058948255 L 68.91385499580426 15.68243588006192 L 70.07686122650364 15.640270079340079 L 71.26013737057987 16.3272424470503 L 71.57914909783968 17.070844871703482 L 72.644756000679 17.159765133741452 L 73.27954744145151 16.88576224416786 L 73.65282507853912 17.52333668304568 L 74.61907748470841 17.97187825613715 L 75.93374895309566 17.13868722105509 L 77.04707793546002 18.23928743994373 L 78.52714072460924 18.594290164355588 L 80.1484544849279 19.77392507430625 L 79.64246477718785 19.836490463974428 L 79.19333457055417 20.357482997710026 L 79.30577672782972 21.033253048360717 L 78.87887160338286 21.693212170659358 L 79.77840886158738 21.799918480174746 L 79.82680926498527 22.28402217287193 L 80.34848022460938 22.517176007807254 L 79.84117377052792 23.106669263936247 L 79.99088383940583 24.500365190610356 L 79.06193924624316 24.607061524776626 L 78.89128094011555 23.97937265687476 L 78.17740491604987 24.296179769513742 L 76.06973293889946 26.09757818999017 L 75.98669811658206 26.771373121515495 L 75.0577535234194 26.783862258611247 L 74.36933459528763 27.98061486764842 L 73.87770939309026 28.049115590041815 L 73.26582135837742 28.770991704315964 L 73.81430606168114 30.175221599658695 L 73.46062001409754 31.21720666712989 L 77.01699227662901 36.2466180868463 L 76.67052838322103 36.77024411274905 L 76.15276776121686 36.48636562754863 L 75.64609972960399 36.672765001167825 L 74.45695807909783 35.78556742596084 L 72.96508447428022 35.371939574782424 L 72.79709956223971 34.97609777108142 L 73.16187820021459 34.704070000633195 L 73.09452462978125 34.22457491922853 L 72.77487448005289 34.15410905305889 L 71.96224248038143 32.88950411932099 L 70.73319942559013 32.48377674464404 L 70.54885493779271 32.71825730101206 L 69.36426204737506 32.658963825854585 L 68.1299919086224 33.82279778280231 L 67.4239764612009 33.537592576169196 L 64.18857109473919 33.963739490490724 L 61.48078199714008 35.333724012311315 L 60.1092111262422 37.53754796690663 L 59.30116778806355 38.03812096099766 L 58.353270027865435 38.03877933403945 L 57.297438969075976 40.084523931161606 L 56.51166061448844 39.73544656412585 L 55.665710942238896 41.10345596682107 L 54.587694702666894 40.94998522064044 L 53.16580816096543 42.96478628479853 L 51.43727932733257 43.64055633544922 L 50.54883465951933 43.17554546096391 L 50.25531992959774 42.422725813725684 L 50.648229057593646 41.623780152165764 L 50.24095542405508 41.45451842833132 L 50.15201519390347 40.65030578243709 L 49.82187097484811 40.432952900504695 L 50.49720224237434 40.03316085855296 L 49.97225936759886 37.692325483821726 L 50.69399596830872 37.887942080025965 L 52.06748210661229 36.740587399821194 L 53.56131088023988 36.26438418362548 L 53.588124623919505 35.06564648011382 L 54.360815317901505 34.214020999861674 L 55.3721962123173 34.81734008986824 L 58.3310449456786 33.85769155401712 L 59.07237313589248 33.81951589294248 L 59.53064076410747 34.30032772043073 L 59.70125916883079 33.85574636093911 L 61.23363269899784 32.68203680836455 L 60.67796574292278 31.637428224075318 L 60.5446152498018 31.813283653676773 L 60.29618910672243 31.489882835270784 L 59.84378698493735 31.518851249109492 L 59.518231427374786 32.092523601537316 L 59.45810001111706 31.505015439882808 L 59.167178872474004 31.921276783228386 L 58.920707898204604 31.717759710522678 L 59.471147770318304 30.544718506339024 L 59.358067190574175 29.81690705933966 L 58.79058941883072 29.610098121425008 L 58.57619917360659 29.046949762316686 L 58.06889271952514 28.73080102271949 L 58.265008121586675 28.334959219018486 L 57.94990673194681 27.973362788839623 L 58.196337804811925 27.72965503453744 L 57.67271167637785 27.063112181820912 L 58.07803014110644 26.893840482637344 L 57.97799732056356 26.642890624875484 L 58.561794766659645 25.851865390515268 L 59.98695322351249 24.6419353452932 L 60.67337708142999 23.380622276764246 L 58.59906267826198 23.242962458935665 L 55.60035244201981 23.547260483780658 L 54.35758330415441 24.72689539373132 L 52.55651371753113 25.344050292964564 L 51.62816764543275 24.892216854664152 L 47.724653165620424 26.38668375812843 L 45.3920968739189 26.933362815842912 L 45.098582143997305 27.490575842226015 L 44.49583153086577 27.574877517622348 L 43.95648424914335 28.063589821612055 L 43.04581449914328 28.053724201334337 L 42.9516870864346 28.325741996433443 L 39.903259700453134 29.74775793925359 L 39.50971214998866 29.045642991582223 L 38.64089897308372 29.453345485384546 L 37.68968939632994 29.027198571063018 L 37.388952512232734 29.196470270246586 L 37.06339695467016 28.46010994905308 L 36.50118616829234 28.92576922123106 L 37.121573202117915 29.75236655054611 L 37.15688594491028 30.291145131759126 L 35.76308999182557 30.979424270203808 L 34.44514660828693 32.748542460934345 L 33.01671623628271 33.810937092700996 L 30.850868011684558 36.241351102511985 L 31.22286880383505 36.516002389778244 L 31.353585804273212 37.199014543888616 L 30.497181964100957 37.394631140092855 L 29.17464991906953 38.7988710107847 L 26.62311472065108 39.29944400487573 L 24.688016317033973 38.91939317882854 L 20.190928547075707 39.63336881660122 L 18.80104293161094 38.90425059886739 L 18.786000102195437 38.590076978395565 L 18.180655897785368 38.23572265167638 L 15.259075076026402 37.760836181564244 L 14.987107104418794 38.068426071618184 L 15.074052264356144 38.54660440693927 L 14.250327674293427 38.9404710915149 L 12.530976163646146 38.918704879739394 L 11.711840235076222 39.48843696926561 L 11.073138456683765 39.34551016710272 L 10.023871178899215 39.854642010736995 L 7.7174702577066085 39.987024868882145 L 7.655363721936767 38.23503435258724 L 6.703515722714421 37.35573725388172 L 6.560987906607852 35.85336987391598 L 7.19512097420966 34.908215520333336 L 6.783258679178301 34.24430615978397 L 7.632480266579231 34.20612052336021 L 7.892018950752014 33.921583665118 L 7.0460692785024674 33.30970572556818 L 6.986576284713303 32.18408733109156 L 6.497584575198742 30.953727770875805 L 5.411707758982565 31.249466946177545 L 4.3663707695201035 30.9175072782283 L 2.40970565688687 31.098629692164067 L 1.999818481367627 30.59805669807304 L 1.4160210352715408 30.876668198939154 L 0.31250779836132514 29.4796804070561 L 0.44063120752095425 28.964623206045722 L 0.18893314929020358 28.576023505804397 L 1.0924206465189428 27.452370255104025 L 1.3094643351280373 26.534877544625637 L 1.1525520627766697 25.982273129535056 L 0.7511638863701643 25.67204974731396 L 0.29485142696514455 25.757678144142986 L 0 25.13393951449185 L 1.6147499793137496 25.09177371377001 L 2.266539418311738 25.78928005014885 L 3.835522486910416 25.834717765381402 L 4.333033146239857 26.972855223001126 L 5.129285619452245 27.311388646019143 L 6.020343829246159 26.460431514157904 L 6.99964399461669 26.62904484029968 L 9.12040363237262 25.080561421361363 L 9.854549569815164 25.09704069810432 L 10.565832002602319 26.332657267305272 L 11.439233841000052 26.072490186958365 L 11.809259513638425 25.652936978403847 L 12.466914459066333 25.944715940105734 L 13.102364273009549 25.351930818767794 L 13.914956371276709 25.66939630444857 L 14.521637272730331 24.792742673259326 L 15.399607821918714 24.44234856013999 L 16.361271566595207 23.05589473692556 L 15.313979408322773 21.91578216018047 L 15.642806881036726 20.93637245772657 L 17.184357734189362 19.74686195214908 L 17.55109154097421 20.217129835619577 L 18.49312379474241 19.709973111110664 L 19.44106145634481 18.819483670694737 L 19.93136991220078 19.302270617308345 L 20.388360695478646 18.799064131050162 L 20.249743216992023 18.174677103706358 L 22.92289789567162 17.699122285203313 L 23.094833046736348 16.655172073955868 L 22.426045609512887 16.042635761364263 L 23.70281074382924 15.03095580451359 L 24.10421887093789 14.071965641704265 L 24.030361371606066 13.551631481010457 L 24.41082126146501 13.41464001157278 L 24.536989501814666 12.916700509648912 L 26.024912867608055 12.356195618056864 L 26.41586682679399 12.706599706525317 L 26.647294971647884 12.232371609454965 L 27.23240916408538 12.624921547947023 L 28.412413393010237 12.642707595424442 L 29.93824309287452 12.149376704793095 L 30.535128199576135 12.474094269282663 L 31.477160453344336 11.86550819494179 L 32.60094360363141 12.422711245975776 L 33.631237763678364 10.799811722617077 L 33.41026378674719 10.443492252121644 L 33.54233743493104 9.769697320596318 L 35.73499940320882 7.992668678015197 L 36.550224994158796 5.964041779979544 L 37.549156650437624 4.958287180504973 L 38.49577756569862 4.888469712027998 L 38.7062574733028 4.297669685164544 L 39.512345642671484 3.7220122382622334 L 41.246061658861414 3.689063660125435 L 42.208363826006476 1.8066554294616213 L 43.34264104562054 2.503493417449557 L 44.250038880469226 3.49738732682281 L 44.53242111859526 4.699426870892529 L 45.542485266669644 4.390520234755011 L 47.60897899459776 5.233586865463904 L 47.26311362225405 4.567692410440045 L 48.64318349226467 5.026767952200134 L 48.96287354339732 5.458840223897761 L 50.727991964759674 5.5596112006879315 L 50.943698956325214 6.378966426543307 L 52.90952144124189 6.748473308572755 L 53.5142272231834 6.703683991032874 L 53.90649792871074 6.167548877336133 L 54.08888724769818 5.081442840715965 L 54.779899767108475 5.264550349126217 L 54.65500837169595 3.9235442164934553 L 55.3133416409967 3.860978826825276 L 55.490503876022785 3.1713729669479003 L 56.0285344114038 3.360405832734252 L 57.938774240151254 1.6841481669433 L 58.196337804811925 1.9996485088478242 L 59.35088493780285 1.1322121002436254 L 60.3949051809239 1.2705302911139975 L 62.08417103274017 0 L 63.141278936466755 1.2639864620925807 Z" fill="rgb(0,0,0)"/>
        </svg>