<svg 
          width="86.54135131835938" 
          height="58.57597351074219" fill="none" 
          xmlns="http://www.w3.org/2000/svg">
          <path d="M 2.4025021678136036 37.374843406580844 L 2.537169335214426 38.21921688391393 L 2.196571130493413 38.410883259093836 L 2.4025021678136036 37.374843406580844 Z M 33.02585593614353 16.74408386555244 L 35.33159725034321 16.61103264705814 L 36.380863966656015 16.10190075766462 L 37.01956540327379 16.244827572673348 L 37.83872084420865 15.67509543194133 L 39.55807143481648 15.697520018774078 L 40.38243400622419 15.30365329879889 L 40.295488892811925 14.825474920500577 L 40.56677839537731 14.517885002801384 L 43.48903597728369 14.99277151559489 L 44.094379857768985 15.347115898812362 L 44.109422679134944 15.661299522871184 L 45.49930755086023 16.39041780613596 L 49.99639291438903 15.676442104193297 L 51.93149028251871 16.056482989048295 L 54.482385693462284 15.555909949967276 L 55.80491703079569 14.151679928416591 L 56.661320412699055 13.956063314630919 L 56.531241904335594 13.27304112378346 L 56.15924131124586 12.998389811832368 L 58.325088376880416 10.567985558933096 L 59.75419630802941 9.506249204782575 L 61.072138986325456 7.7371308550490205 L 62.465934193578235 7.0481833062929065 L 62.430621469682016 6.509414652006109 L 61.81019486644783 5.682817248398976 L 62.37244525336486 5.21714795901893 L 62.69800063671992 5.953518321744299 L 62.99869745850735 5.7842466073471 L 63.9499065262609 6.210383584619414 L 64.81875913963954 5.8026810541740215 L 65.2123064795134 6.504796064949364 L 68.26069233287282 5.082789969672719 L 68.355498018723 4.810103801674498 L 69.26616728141602 4.820627795939867 L 69.80551427452919 4.3319154480261695 L 70.4082645651238 4.2476137650530585 L 70.7017791379832 3.6910590616902863 L 73.0336957593873 3.1437215817409747 L 76.93784657252314 1.6492545439585105 L 77.86615224647281 2.1010880228683515 L 79.6672208693286 1.483933068167081 L 80.90935092005085 0.30429805219438566 L 83.90873787516783 0 L 85.98305116835277 0.13765983020103334 L 85.29662767774644 1.3989730120930086 L 83.870791659998 2.608903166059946 L 83.28703442767977 3.4005868446160914 L 83.38638887118438 3.650878351831608 L 82.98170904547204 3.820150066228806 L 83.50537479509231 4.486692978852201 L 83.2589039527116 4.730400755058103 L 83.57336675161112 5.09198724238615 L 83.3772514544926 5.488497430115199 L 83.88455763711009 5.80398782502593 L 84.0989477676122 6.3671362347483305 L 84.66574691218366 6.573945191250346 L 84.77950575492729 7.301756703663216 L 84.22838785384872 8.47413964017532 L 84.47485869622942 8.677666706522544 L 84.76577967919813 8.261395350414636 L 84.82591106327904 8.848913540222627 L 85.15150634801702 8.275231160884841 L 85.60386832633499 8.246272719792552 L 85.85229433647943 8.56966359191482 L 85.98568465962639 8.393808146508007 L 86.54135131835938 9.438416824683515 L 85.00897860817828 10.612126482747557 L 84.83836029475431 11.057366255297769 L 84.38009291176218 10.57655438459561 L 83.63872521685632 10.61473004910136 L 80.67987806679986 11.575037044303757 L 79.66853761496542 10.971717900072692 L 78.89580743307376 11.823343456866374 L 78.86899370374239 13.022081268116967 L 77.37520563085808 13.498284527112396 L 76.00104190400862 14.645649285787965 L 75.27930568950607 14.45002269665228 L 74.10975625434 15.620440489211514 L 72.89639510071285 16.259321756244514 L 72.40804207498881 16.36931994085515 L 71.62094739524107 15.848327360294311 L 71.04696600174157 16.150650293185812 L 69.89700814559588 18.093648969023295 L 68.31495821366248 19.22191093242097 L 67.51740937158614 19.436630341484538 L 67.18658700568386 19.119823200371883 L 66.78322392560833 19.860802174803982 L 66.37790567776905 19.55585572485865 L 65.32279340885648 20.18683651468011 L 65.24825762553655 20.714392875550534 L 64.50102442733946 21.038452096123777 L 64.38531041683208 22.29646343716093 L 63.723705586410446 22.659386621390933 L 63.24975695992542 23.359516537513375 L 62.93988282006326 23.086191947114223 L 62.88366177150985 21.808409462348195 L 62.70518288564796 21.889429255166515 L 61.470913407363625 23.396405381867247 L 61.320564996469905 25.17672604966716 L 60.396808080174665 25.449412217665383 L 58.98473803953831 27.790886225184785 L 58.79712173698463 29.32750909212881 L 58.30090813882267 30.32404655858412 L 58.63691768450632 31.661082622436677 L 57.76746655038367 32.14915654794944 L 57.31374792504597 32.78540432257859 L 56.760674856203664 32.53051417900636 L 56.12392858734964 33.266216193280755 L 55.90558821993711 32.77947896466994 L 56.15924131124586 31.813246611558892 L 55.812777603233606 30.954368975304618 L 55.52313346451877 31.406850851965405 L 54.64450501232141 31.81785522326562 L 54.888382264811426 32.74456523961896 L 53.07881464739078 34.082279627272506 L 52.07465644448438 35.66895880058963 L 51.08422431730713 36.05029648094652 L 49.77346388793913 37.33729618912601 L 50.65145391800956 38.59333241086028 L 51.55426260826467 39.0405672534134 L 51.7778300568415 39.87243164182823 L 51.417640273100105 40.41383378851887 L 51.72033216403422 40.943385219392205 L 50.55337631875882 41.90435058769557 L 49.8290465143656 44.17799221511591 L 49.4027800404862 44.90250188667395 L 48.903972852433554 44.87680538503643 L 48.63922717666927 45.3437914206184 L 48.824888311459205 46.364030318708316 L 48.517607761487724 46.55306320148438 L 48.69935856075017 46.85537615902586 L 48.36857609623082 47.48306508334252 L 47.93185546002282 47.7979070805023 L 47.93448895129643 48.48091929599975 L 47.326511579537524 48.80563688967395 L 46.91201601362352 48.351818316111206 L 46.73553219690831 48.50396235453339 L 46.7002194730121 49.52882981503007 L 46.27135940924201 50.005033074025505 L 46.66622349475269 50.533267758696915 L 46.26549390595078 51.72739695824078 L 46.69758598173848 51.91838500961969 L 46.06933870744931 52.05011948191207 L 46.227547690780945 52.256928438414086 L 45.72287499943706 53.22316079152514 L 45.76928030778881 54.51608585761328 L 45.239749054877315 54.63531124098739 L 44.35326003024203 54.751883181257625 L 44.02247756572268 54.49040930667578 L 43.93553245231041 54.76836245948169 L 43.35632397764661 54.69260965147107 L 42.89215118998031 55.01996073754912 L 42.02006656458405 52.8648661697019 L 40.99954879467489 55.36574627045409 L 40.09021622831013 55.699022714440794 L 39.91630605079414 56.8924935408837 L 39.082786112003184 57.0044568694472 L 38.82129239894799 58.03391299095058 L 38.19631703805937 58.26246821048436 L 38.12832508154055 58.57597351074219 L 37.522302877545386 58.410003637199814 L 37.3274843753722 56.895765455688476 L 35.60683698981902 56.91617502181828 L 34.46017099776535 56.95304391547212 L 35.27669294742661 54.99619945381442 L 34.70989380285515 53.775735330232095 L 34.70859700790981 53.11708291947023 L 34.981203256112 50.81050268630178 L 35.62906206011303 49.611764875051186 L 34.83867551627327 47.15503567346347 L 35.631017227876775 46.83953530320273 L 36.90450976558481 47.8986381649494 L 37.46346828840983 47.8656995592013 L 37.69423793660617 47.485658674346304 L 38.27803507030733 47.53441818521751 L 38.45519721053242 47.07601095064807 L 38.24403909204793 46.3205377926448 L 37.96161710364407 46.500353452007396 L 37.73411936884828 46.33436362776499 L 38.03026743298129 46.27906028728423 L 37.85049175217406 45.99057316486294 L 37.41115757538391 46.044579709841805 L 37.37586480217916 45.1481548561327 L 37.88710127101562 45.06781338711537 L 38.174730389892304 43.994206366447514 L 38.977546214515876 44.121990600134126 L 38.72714508591621 43.510102630240546 L 40.054245131595515 43.84798768593398 L 40.673354989192894 42.94894929052106 L 42.555463320786785 42.308072953485144 L 42.0115675700192 41.85361595752148 L 42.388116920763366 41.31023869152795 L 42.28158022833072 40.59231275097952 L 41.95534652146579 40.55079534421888 L 41.633701473638226 39.852620596699296 L 41.37482130116518 39.94812459773877 L 40.767482351533204 39.30858495760481 L 40.58050447110646 39.411331062754854 L 40.50074160662224 39.031948551000816 L 39.882968445353136 39.317143807917304 L 39.733258456586356 38.48001243469479 L 39.31291733807259 38.54387462548805 L 40.370004725440374 37.48082152513561 L 40.49028744429364 36.64829876361982 L 39.794068164177126 37.1771918213922 L 39.38286446235515 37.131105704324895 L 39.1788885927987 36.34730255228026 L 38.41336061052656 36.18133267873788 L 37.91716696305607 35.27569060161532 L 37.46151312064608 35.14595119932585 L 37.475239196375234 34.5301129908265 L 36.81690627935415 34.19354468133499 L 36.11216805398131 34.624958618765014 L 34.681124905760036 34.76196007586508 L 33.746933777827664 35.43641344105003 L 33.6429906752857 33.291852842818194 L 34.009085863701266 32.416515879039885 L 34.63340285177148 31.854684215519406 L 33.787453632196716 31.782243223713614 L 33.68744081587371 31.279026716878736 L 35.616632779329215 29.229331697285435 L 34.84783288365652 29.482246721554784 L 33.9874992155342 29.223406339376783 L 33.3697260542651 29.736478492026055 L 32.27078211619999 29.936065295117523 L 31.425491269443626 29.81091455383476 L 30.48212282343653 30.444528836060066 L 29.770860721954055 29.640974490986583 L 29.847990095164658 28.94545318657087 L 29.074621491146072 28.624685831502433 L 27.86975933208378 29.533619774129807 L 27.718752548371658 31.138075021172895 L 27.02251331756367 31.880380717156932 L 26.226261270432676 31.3541211517884 L 26.593653253793587 30.974080266933402 L 26.513910340000834 30.096109810751248 L 25.743135325872927 29.932753478912687 L 24.72786458781953 31.64721688591643 L 25.13449958129561 31.602447515051047 L 24.359814231640215 32.40203167081873 L 24.811557738522705 32.459310130602375 L 25.111616138183205 32.12076670180798 L 25.052781549047644 32.376315218481174 L 23.944041821472343 32.861735700890065 L 23.59494462218648 32.65293167438514 L 22.427350354784146 32.8953127290391 L 21.634350270362237 34.29493413888306 L 20.926360082280315 34.652590338305366 L 20.48965939676378 34.55906145656878 L 20.324248213812638 33.847060873928996 L 20.55110752648149 32.58707441358896 L 18.728472206150094 33.17589937424886 L 18.545404661250842 33.04615997195939 L 18.93765520617937 32.684553533931314 L 18.534950498922246 32.74255021891601 L 17.87336561919207 33.14695090850658 L 18.26300262353845 32.14448808414262 L 17.41771177678209 32.15763559546183 L 17.079068739824823 31.236850937017145 L 16.711656805772446 31.304024944015243 L 16.755468524233514 31.759160263779904 L 16.261230044526762 31.172968795523854 L 15.628414061891698 31.37977775202587 L 15.260343755020918 31.16702348691517 L 14.824959815141192 31.836209867292425 L 14.31176817854099 31.730830269738533 L 14.405915491572767 31.088657137200727 L 13.56649014810764 31.188111376845967 L 12.72840150097079 31.97979505540211 L 12.478020323062594 31.77561959130394 L 12.78591934446954 31.391628467843177 L 12.148534653488582 31.050451546644933 L 11.192098504570742 32.01931739215983 L 11.491518482104304 31.07678647068339 L 10.709630932829397 30.204082999308927 L 10.043477344753327 30.603895027892797 L 9.603504745836242 30.22056227753299 L 9.172031141484007 30.27919738491862 L 8.615686159241143 30.82786158641987 L 6.674723287820224 31.284293701686426 L 5.800663543968754 31.02808681191227 L 4.241497055147766 32.28741489915135 L 4.476835411690003 32.48764012464375 L 4.290515904081666 32.77283538156024 L 3.418431278685407 33.11335392965752 L 3.5642109812332308 33.875410818670396 L 3.266766122154881 34.33052618773503 L 2.707807599329868 34.476086495147605 L 4.414070536335487 36.496813098298595 L 2.399888627231454 37.37809537068559 L 2.6064780373700493 36.07659150358492 L 1.9141690927810218 34.74350567833813 L 2.0364069793980346 33.97025644660891 L 1.6389293533052076 33.22862907442586 L 2.6770835344710138 31.34951254008167 L 2.144938740977364 31.25466691214316 L 2.00829645512133 30.987906102053593 L 2.4724492920961643 30.802165084782345 L 1.98214109860837 30.27853901181766 L 1.9847745898819862 30.72774897367367 L 1.754643363812581 30.66845549318708 L 1.4957631913395335 29.83722952717319 L 1.1381669974888167 29.874756793927993 L 1.4872641967746816 29.558598050566285 L 1.40620453734512 29.123233874530495 L 0.8799451978341731 28.773498103019755 L 1.038134230474339 28.492253084709034 L 0.7674831500358864 28.062155893480934 L 0.32753050181026666 27.902769750948174 L 0.538030247476352 27.7657682938481 L 0 27.55040048703359 L 0.508602977562839 27.195377780015125 L 0.03267923262259955 27.119644922704527 L 0.4634944641564302 26.79887756763609 L 0.13598391303763036 26.314773831429125 L 0.41513398804093493 26.49063925218595 L 0.5831387608827608 26.296997757703164 L 0.3144428482080534 25.767446326829827 L 0.8727429982146625 26.017727858695327 L 0.7616176467446506 25.525723645276823 L 1.1767316840941187 25.381480084066176 L 1.1924328782784812 25.03898641666601 L 2.2227264870063723 24.561466411468658 L 2.079560325040698 24.28153813935986 L 1.8121811580027989 24.377700513500294 L 2.405115708395753 23.40685954868251 L 2.1593231895249185 22.97939584985826 L 2.2867881573062303 21.598208886841228 L 2.4992630214275278 21.50072976649887 L 2.2187962007874154 20.900054090021666 L 2.482923405116228 20.499583688336834 L 2.217499405842074 19.666402553720086 L 2.291376816343592 19.15661229122561 L 3.59689021385583 19.36869820788533 L 6.173302559185429 18.881302606173556 L 6.757099692886594 18.640238297721517 L 6.693038022586736 18.038894272793335 L 7.1146958867373105 17.363124161406464 L 8.300584938214685 17.447425844379577 L 9.033433687864227 16.711065457004224 L 9.781325258879727 16.622145186974368 L 11.837343767989616 18.172593889038584 L 13.922131174194613 18.686344365488846 L 18.598373747095167 18.503895213722405 L 19.18217088079633 17.884775115068265 L 21.450005881209112 18.112003613050103 L 22.462643127988898 18.50126172131856 L 23.44848659612878 17.6423940604143 L 24.604309955565707 18.345815842041553 L 26.396879583856652 17.861063708083638 L 27.265712246543824 18.110028493747215 L 28.834694475566472 17.388152314593015 L 29.598925662893272 16.43509739885121 L 30.13891107813337 16.40279721550404 L 31.34768357272315 17.292628362853517 L 32.16813580860336 17.457291465543985 L 32.76238710463312 17.25047253369195 L 33.02585593614353 16.74397413670228 L 33.02585593614353 16.74408386555244 Z" fill="rgb(0,0,0)"/>
        </svg>