<svg 
          width="68.06980895996094" 
          height="49.247650146484375" fill="none" 
          xmlns="http://www.w3.org/2000/svg">
          <path d="M 65.51825499466057 15.052027603751808 L 65.5293675305982 15.10405900361858 L 65.51825499466057 15.052027603751808 Z M 10.97373896722819 0.05400651818993566 L 11.428096047019505 0.005965256349756469 L 11.40130226647328 0.48413342211158983 L 12.180556379917075 0.7357415507234751 L 12.21782427422858 1.1539778433258823 L 12.842141306717805 1.0064424897926079 L 13.384760251837864 2.053025768132741 L 17.847211532475555 2.7630508792748243 L 18.81932899405067 4.667194622290316 L 18.59183124306883 6.506129534606211 L 18.159699235152793 7.248424887038365 L 19.72084095350137 7.935396975731808 L 19.937884541410813 7.706183496794176 L 20.224236836407073 8.044726757660454 L 20.71911377345035 7.6791802376992075 L 21.56440468034761 8.444518637234935 L 22.533250228289383 8.58811372946695 L 22.752907356966926 8.899643755893194 L 22.605830849009536 9.269150487845836 L 23.87343802292281 9.71966699708338 L 23.353044149678023 10.200478629287831 L 25.724183999208098 10.028563532412074 L 25.46987251698715 10.868996329608281 L 25.923571223913218 11.68637610435585 L 27.62135523783968 11.951810061229878 L 28.624196766459608 11.187788407242925 L 29.25439925335028 11.329388430461643 L 31.731437380720532 9.946237009578395 L 33.10103249666828 11.118629339897003 L 33.072263597526316 13.288207039786524 L 34.237902780098 14.082523816740384 L 34.69617019569502 13.975169153134901 L 34.679830578221186 14.60549125719579 L 36.02456713083267 13.918529143847413 L 36.19193349345537 13.338263321330134 L 37.124827892816135 13.102466114648623 L 38.63104535364888 13.681415191617127 L 38.59902449156646 14.025883807452898 L 39.36650769620737 13.90007475547442 L 39.709739416622305 14.303836822385362 L 40.18761836332651 13.86386425288309 L 41.21007142305361 13.825678631968595 L 44.15192079328757 15.070521893505067 L 44.54287457108641 15.702160743114732 L 46.74205939862995 16.84886655988715 L 47.210142555127 16.290985411699054 L 48.14172020875726 16.59329821928387 L 48.97198824391119 16.240929130155443 L 48.93994743113588 15.872100721667325 L 49.46229647228351 15.81809420347739 L 49.501519534497874 15.401184631768825 L 50.6318459906609 15.16670417063609 L 51.03650589447258 14.320994415899712 L 51.405214649703254 14.344077364383553 L 51.673910581495186 16.420126228929735 L 52.647324838107906 17.127517848974268 L 53.92931646159216 17.019504812594395 L 54.06139004849909 17.589875092805727 L 54.69877478482881 17.62806071372022 L 55.089070189762396 17.989008599605818 L 55.47084664883356 17.06690765235032 L 56.808420902698884 16.57225024119359 L 58.71604630440285 17.482500478510108 L 59.34429362339067 17.28951745285394 L 59.698617929050364 16.648003011628457 L 60.46414596578842 17.070857888996645 L 60.91195921831305 17.00037210075688 L 61.23099074825697 16.130302553368153 L 62.037716965805124 16.63152374157863 L 62.5777024194642 15.862225130051508 L 63.107233710050885 16.91079350205987 L 63.994381170623484 17.304660026664862 L 64.079351171626 17.725539785709884 L 64.51998217471159 17.72685653125866 L 64.58340542739695 17.311902127183128 L 65.40776805745654 16.61175260765686 L 65.52741236269534 15.108069092335306 L 66.06478427558632 15.4854762975806 L 66.37793035112881 15.081075808585405 L 67.2395608754999 14.857129311842874 L 67.26898814750712 15.158125373878914 L 66.52502680977908 15.798343020245754 L 66.7270275752523 16.082859812231966 L 67.17156891414358 16.01768090756757 L 67.20949518132034 16.463598782729466 L 67.7416400126751 16.85219832513935 L 67.22910671242751 17.27766674291496 L 67.32716436796339 17.562203485591304 L 67.73705135331127 17.47328325966868 L 68.06980895996094 17.890212782067376 L 67.00747446515423 18.995421163363226 L 66.05235499391819 19.436710478414277 L 65.03056030705633 20.615038139047442 L 64.58731576320265 20.5847529914256 L 64.25389978368774 21.147242749034408 L 63.58317743954512 20.977302770481817 L 63.638740119233304 22.056176240802152 L 63.224922847386836 22.008773401046227 L 63.132092273387144 22.245228980502127 L 62.88300787270239 21.90866083795901 L 61.91416232476062 22.618685949101096 L 61.74745433500317 24.281755527894905 L 61.38919974284489 24.6374364315854 L 61.650055052332526 25.257224571256085 L 62.85489734642567 25.557562260517738 L 62.47834796889071 25.91058972242055 L 62.849670264889475 26.120710390900932 L 62.68491744303488 26.807014131474922 L 63.14909026372622 26.783272810216694 L 63.540682463697415 27.493956294133167 L 64.73963930338913 28.012973497942244 L 64.56181877769403 28.831011645464198 L 64.81808542781783 28.891601891398015 L 64.36308992585415 29.589776292601115 L 64.56443231846212 30.353129598468612 L 65.07173853717353 30.85173724627167 L 65.03840092936062 31.20739819927203 L 64.4526485862205 31.121769837221347 L 64.17806720002713 30.753599801507615 L 64.13361705627658 31.001906090902494 L 63.89305160145425 30.871488429503305 L 63.884552606284714 30.534281864875933 L 63.06344193916558 30.3610500224514 L 62.693416438204416 30.84581189130218 L 62.422765338509635 30.66797143945693 L 62.20703849633068 31.436611678209665 L 61.80172021965375 31.449100810232903 L 61.45785007706645 31.910799681289973 L 61.0838942896067 31.752071990592103 L 60.77926715992664 32.353425692579926 L 60.870122615330594 32.764409909319006 L 61.186540604506426 32.85135501691846 L 61.1198653888806 33.455322259313704 L 62.112252754428134 34.28457269469039 L 61.65135184737013 34.94320482804996 L 61.84094328186811 35.47475106526254 L 61.16954261416734 35.152667123755954 L 61.11070802084581 34.76340920857167 L 60.077142425181066 34.60863175452013 L 59.75354218656619 33.793885470870116 L 58.697073195468036 33.77479266041287 L 58.32968118596786 33.21361964835284 L 57.88252630630848 33.47840520779755 L 57.77726645064065 34.22661593985413 L 56.98035597399253 34.02112383148459 L 57.17451611716146 34.51707803749996 L 56.85941487371612 34.84442896120164 L 56.85221267358419 35.544558530037776 L 55.75261028446597 35.04662920569924 L 55.45255186345687 35.38714758488869 L 54.81710234433712 35.11382313006707 L 54.37387775117633 37.141132458618415 L 53.818849475081024 36.89017272743585 L 53.28277435722765 37.13650389850757 L 52.39891876098128 38.12448202458212 L 52.55385584193585 40.221618768598844 L 52.456436608572325 40.63260298533792 L 51.95633258999285 40.67607553913765 L 51.464707615890035 41.17929179636142 L 51.712475270844294 41.493455313885214 L 51.08031761605077 44.432331625301856 L 49.43286920027631 43.88829625606604 L 48.994871688651706 44.73729787467436 L 49.17333063651916 45.459173695755425 L 48.697406857717816 45.02775997232019 L 48.39930360461156 45.281991616684564 L 48.15871819909635 45.01391419336792 L 47.656000639748775 45.069237457106624 L 47.73117485054414 44.61805259974963 L 47.33826590484246 44.23669515785801 L 46.97871451764657 44.26368844160791 L 46.71526561808372 44.89995585132842 L 45.850363180079285 45.12914937957592 L 44.95471672433714 44.45866653627737 L 44.18525840110049 45.51511543088826 L 43.62434467060375 45.77595075368664 L 43.390323043048106 47.172937978177096 L 43.07847376254323 47.21968244515863 L 42.8921542416786 48.02124132263076 L 42.390733477368634 47.86251363193289 L 41.503605967488916 46.89099482521804 L 40.523647883609506 46.61503687929887 L 40.97930175843843 45.91488735977261 L 40.864246112563464 45.16470150939286 L 41.121829508417754 44.77544359420859 L 40.31837520450295 44.89925757717377 L 39.678356976712244 44.357855699035504 L 39.37175472843645 44.75898427484889 L 38.52776061657679 44.481689632690816 L 38.40616114343514 42.94835939183167 L 37.887742388786094 42.3279128793866 L 37.23792837078825 42.40300727704708 L 37.39547899251092 41.82537494562735 L 36.02327033579507 42.54196383382318 L 35.030224597382286 41.5125082229622 L 33.65474402703309 41.53289782827809 L 33.100374123803036 41.17460338418017 L 32.55123130210917 42.82384713471184 L 31.906644365647526 43.22166389596316 L 32.11387221265694 44.80768390946346 L 30.9077131728333 44.489570155293336 L 30.794612694861183 45.059940435504664 L 30.363797432675636 45.059282062730276 L 30.110144323319933 45.67314484743147 L 29.674760352463434 45.27796157727771 L 26.88327935451309 45.64020625802195 L 26.87541878151591 46.08414901486068 L 25.078938689881202 46.60182952243085 L 25.335205340005004 47.10504577965462 L 24.240830032422988 47.86181535777824 L 23.912661085137163 47.747876966428876 L 24.05909917092219 46.94763483450553 L 23.74595309537971 47.320413479639974 L 22.88561936604622 47.363886033439705 L 22.586199367209474 47.909896520998686 L 21.621284105766293 47.96789317721521 L 21.376788364445375 46.60186942381112 L 20.75049621336041 46.75664687786266 L 20.72631597358228 45.86812294210094 L 20.21573784123753 45.59743197837687 L 18.622555310113647 46.69934849580078 L 18.33949487944362 47.64251737183669 L 17.165356701702404 47.36193086580668 L 17.073184500567955 47.78939435259558 L 16.46847899918591 47.905327812958234 L 16.522724933143603 48.45923877380987 L 16.085365843691367 49.247650146484375 L 15.551265844433734 48.47108948374885 L 15.043959625722328 48.58043921636763 L 15.113248382116254 48.162192948420156 L 14.561492019654295 47.70244924499612 L 13.927359246265036 47.610257105891684 L 13.642323696999272 47.193985956267376 L 13.85218503546967 47.077414073820464 L 13.342923648855411 46.781665043289394 L 13.356649725561146 46.330500136622526 L 13.79726077795384 45.99919897627451 L 13.340310108087312 45.046154508622784 L 13.015393123741946 45.0724894195983 L 13.164444750295074 45.258230344736205 L 12.850640301887346 45.577002471680714 L 12.547309967244894 45.23911758358882 L 12.308041307460174 45.510486870777406 L 11.908608485184686 45.20619894486943 L 11.697450351676682 45.33001292783461 L 11.78505384414018 45.88328546660199 L 11.330696764348863 45.43277893270951 L 11.248320353421562 45.967577132413766 L 10.834503081575093 46.32062454500671 L 9.972214184338752 44.34798010741969 L 9.225639305842623 43.959380565009795 L 8.353534667706247 45.318162217895626 L 7.525900124013311 45.54474220573571 L 5.45483864618523 45.9656020140906 L 2.464608845702126 45.63300405888395 L 3.055588270378439 44.13787938962943 L 2.45545147766734 43.75323008386587 L 2.677083724940622 43.307970581478365 L 2.22599855878265 42.93716705466708 L 2.2135692771145203 42.45372193136508 L 1.8474740626519468 42.52221265059155 L 0.939418275934561 41.75357241183881 L 0.9884570790489482 41.01523727139805 L 0.49030822837232724 40.44813890436853 L 0.35171076489159164 38.33322609544333 L 0 38.22982166848417 L 0.5360751178533705 36.61152143834873 L 0.23469995111377187 35.74540212760633 L 0.4301568893203022 35.47931977330298 L 0.9590298070417387 35.35682253588658 L 1.2466788970756015 34.715946516745355 L 1.9448932960154752 34.67508750335304 L 3.0281361169669676 33.67920890398584 L 3.3661208051528235 33.82345239364717 L 4.163031281800945 33.49941328450756 L 4.544169318699747 32.9158356474282 L 5.075017355016921 32.86512099311021 L 4.886742666249439 32.757088006040206 L 5.15150831154278 32.4883721606393 L 5.2802900341234835 32.639199378044516 L 5.669927066191824 32.2683759005431 L 6.072631802100656 32.61284451637887 L 6.585165102348258 32.26245054557361 L 6.517173140991939 31.9489454008242 L 7.11926510160589 31.86858402096862 L 6.7342167289013855 31.42795307869196 L 7.293813713667637 31.30938612723175 L 8.19598404598358 30.02109026258568 L 10.378190833880925 28.81904123138442 L 10.284043514150742 27.935804228507937 L 10.62334494806709 27.558397023262643 L 11.359465663490827 27.397035841467222 L 11.990326523246742 27.816598854963473 L 12.107995709889806 28.330329125887314 L 13.239618961090441 28.454163059542626 L 13.212166807678969 28.216390734537953 L 13.690704127248413 28.29543536884476 L 13.86525273931016 27.19022698754891 L 14.531426325474726 27.12766162329193 L 14.830846324311473 27.876530728122898 L 15.472819720005024 27.647975621959652 L 16.014780292259836 28.20519839737336 L 16.51031560216836 28.106402579834917 L 16.664594310257684 27.464888138609435 L 16.603146176168053 27.977301663984502 L 16.889478520471425 28.111011189255635 L 16.93458703708722 27.314060921204224 L 17.960312010447673 27.437216531395013 L 17.5491082793693 26.94521256202597 L 17.818442633333593 26.436070949832708 L 16.946357945890103 25.774805325375592 L 16.54233646425078 25.823564812060557 L 16.565219908991303 25.162279236913307 L 15.12372249588153 24.93835269086091 L 14.918449816774968 24.344919412855873 L 14.139834125503533 23.918114298841356 L 13.386715419740716 24.106468764386676 L 12.09295288745358 23.289108940329243 L 11.605916572714596 23.427407124330955 L 11.619642649420332 22.909068243986397 L 10.5769196857208 21.82426941869657 L 10.002279878518321 21.77616830478599 L 9.579305238637065 21.081944140229215 L 9.488449783233111 19.62173317870739 L 10.416755523230036 19.919437376871493 L 10.876998057422792 19.297015746103256 L 11.511130830812052 19.542030171626195 L 11.817733079087846 18.45393948246443 L 11.675863701973766 17.58257314021706 L 10.316742699791295 17.421850380505894 L 9.481247583101178 16.441792678414135 L 9.084428301593789 16.65386851452755 L 7.994641653375608 16.414121071199713 L 7.993324907645117 15.374789868722912 L 8.819004283435202 15.520350103933023 L 8.97787165088836 15.162694081919364 L 9.985281888179241 14.985512002848504 L 10.461205666980586 14.124679624991339 L 10.450751503908194 13.461418931520925 L 13.056571353859153 14.128629861637666 L 15.00278139560512 13.702483120397538 L 14.836073405847667 13.026713344213755 L 13.78812336061194 12.826488218039321 L 13.410257237346483 11.767385881640752 L 12.716631497770447 12.135565892699551 L 12.533583890539159 11.978144972205392 L 12.405440590130816 11.708102405910648 L 12.783965086261519 10.915092399160496 L 12.6309831732098 10.089153778345887 L 12.194940829488058 9.957429346742988 L 11.6431844670261 10.517934010683566 L 11.133264707546594 10.192568180650111 L 11.258774516493954 9.701870981484776 L 10.708334899762487 9.498353991438401 L 10.563193609015064 9.862583765850873 L 10.042819686463169 9.638637269108344 L 9.98332672027639 9.021492595880277 L 9.671497390464399 8.8541960837703 L 9.968942270705407 8.558467003929364 L 9.889179400546205 7.284645364974763 L 9.204072606832593 6.916465353915964 L 9.613959592180471 6.502827695389206 L 8.50128949922177 6.5410133163037 L 9.039978157843239 4.885175862683089 L 8.707220551193577 4.3510160850630895 L 7.933831941458338 3.9749256253665703 L 8.313014810454288 3.2846616728011884 L 8.190098591582139 2.957979097218957 L 7.340897348879173 3.1759902636469293 L 6.989186583987581 2.9974914390272933 L 7.393846487799263 2.5621374542908026 L 8.076998113610022 2.0477288599024384 L 7.6232994066839534 1.9298302565616832 L 7.5553273960205205 1.3647169832003894 L 8.416957920391617 1.041974668919418 L 9.73294552455403 1.2856823242386493 L 10.665839923914788 0.4228548773681885 L 10.697222363824851 0 L 10.97373896722819 0.053996542844869176 L 10.97373896722819 0.05400651818993566 Z" fill="rgb(0,0,0)"/>
        </svg>