<svg 
          width="56.75025939941406" 
          height="92.74642944335938" fill="none" 
          xmlns="http://www.w3.org/2000/svg">
          <path d="M 42.169132116603414 0 L 43.56226941144234 0.2641072368770905 L 43.86691657082011 0.8838953786525621 L 44.6762565390243 1.0979662845062546 L 45.169816858333185 3.048206103696935 L 45.62612922436386 3.25567333109419 L 45.42151486505944 3.57709890091794 L 47.25853524103759 4.211371243779133 L 47.72334660444187 5.198691000432211 L 47.522642581957236 6.280178014832673 L 48.34570863042678 7.523046162266735 L 50.54032531843421 8.068398278903333 L 50.576296427036574 7.179894290814404 L 51.52225877555635 7.031700564003478 L 51.73668887830634 8.348984785886215 L 51.009066969356326 9.677481295661753 L 50.958731358150686 10.785981544593986 L 51.51571494659264 11.210133218261227 L 52.020407755419065 10.893336208564044 L 52.387819810893916 11.551309971383688 L 51.88769571192326 14.409186490565784 L 53.19779820143603 15.257509788590466 L 53.45145137657218 17.009499599256625 L 54.0254529104594 16.1183621200612 L 54.39743367579002 16.822461878624903 L 55.14073683341527 16.637379325632853 L 55.23879451438067 17.04838349445782 L 56.49724464661584 16.842871434700236 L 56.75025939941406 17.38361494190047 L 56.48810722690431 18.488823326949582 L 55.93569234831813 18.56260097931183 L 55.33032831708042 19.992526798067818 L 54.905378448400235 19.998392300986826 L 54.511172605430666 20.41202996091829 L 54.445814118585766 21.396696275774673 L 53.47760674172898 21.90912975358009 L 52.52641731031745 21.87748795892175 L 51.495464988061634 22.87202986542749 L 51.46081062553124 23.595242385203477 L 51.15420829774358 23.577446369544436 L 51.09928402598411 23.871858704836416 L 51.99556913633423 24.436981955461924 L 51.4843324985441 25.866907774217907 L 49.525074195551696 26.22125198287284 L 48.04367501249488 27.71703502998139 L 47.22519762457916 27.67749276200357 L 46.57863540184735 27.987047671157892 L 45.39340433149276 29.77460956245193 L 45.95693174889842 30.341707931407306 L 45.10902708134405 30.491876776548104 L 45.064576926066145 31.850020011961906 L 45.31364144064847 32.31303563014014 L 45.95888691730831 32.62853584497428 L 45.56272590592885 33.204193060025766 L 45.74054647773855 33.62110263315015 L 45.01096940037865 33.79367610338635 L 45.08418846225922 34.35484911735212 L 44.46050969020235 34.05054123972058 L 44.13495419925759 34.520160536355256 L 44.36702071909271 35.1280979681515 L 43.4857784350799 36.11013079190139 L 44.37290617502044 36.83859034320017 L 43.93752209125481 37.13892803348176 L 43.77997142867418 36.4888547439816 L 42.95167829731289 37.02762313285196 L 42.320797323256315 38.75525315078304 L 42.53458900366838 39.51467617327333 L 43.13013729146051 40.1706748177631 L 43.25173679613684 40.92153899415728 L 42.87059866039663 41.04666972309618 L 41.43694149779764 40.530305959321225 L 41.2192394805658 41.45240690970816 L 41.499048020858744 41.84561506287409 L 40.72958949807669 42.220388778294556 L 40.34322427944474 44.0527399690892 L 39.381560731551666 44.5592281412148 L 38.297000883608355 44.29709602266758 L 37.13988034682045 43.46521209336829 L 36.08931648837155 43.85383158778805 L 35.17537501023824 43.714196707073235 L 34.85177468770337 43.99739675447241 L 34.35165058873272 43.6964006914142 L 32.759784390517105 43.84854465488486 L 32.883997436639305 44.547377431235574 L 32.39566420022217 44.997883966657966 L 32.572826398995886 45.505708835027015 L 31.62359213599425 46.90269606426161 L 30.703106828897223 47.45989889087743 L 30.338328265566304 48.62833101317262 L 29.742760027076113 48.589506970042024 L 29.54991657962716 48.061930918374266 L 28.79941122000221 47.74776739978358 L 28.642518930457562 49.58604394556784 L 29.09555938200638 51.556054898747426 L 28.490833773106598 52.58419376755117 L 29.263564210370504 53.22834170206172 L 29.36750734726364 54.06680935912725 L 29.66824416982163 53.76315985427234 L 29.9297379692954 54.45804239396331 L 29.44531506969804 55.77796010695254 L 29.93039634233138 56.54594197553894 L 29.600252190832798 56.82982034640494 L 29.71660466191932 57.7249080622601 L 29.241997505767532 58.567325955985375 L 29.405433624275894 59.80756061231294 L 32.24463741590719 60.886414135606906 L 32.70226652800983 60.67631341710316 L 33.738445933157394 60.819220211010894 L 33.64300179363786 62.23268671035128 L 33.87572668650896 62.560696007941274 L 33.67306749561443 63.1403034596525 L 32.893154807048894 63.22262000742066 L 32.06290650727772 64.0143232466557 L 31.87397339664854 63.26611251205822 L 32.17862055602631 62.65224972527236 L 30.110172082550967 62.0910767113066 L 29.377323090709208 62.40063162046092 L 28.701991961374727 63.15544603351484 L 27.21277210467835 60.705281819274596 L 26.49887627599369 60.99706066346008 L 24.848833842234825 59.94917061135763 L 24.390546357096202 60.53075318139873 L 23.25369572953736 59.185138979430974 L 22.229925658583184 60.151370856541895 L 21.82983435968588 61.405431341178556 L 21.99849756108599 62.01797738241117 L 23.51389273363722 62.79451809709367 L 23.78454390352058 63.65403373232096 L 24.874989207391618 63.838457912536384 L 24.57034204801385 64.99108908819261 L 24.687352892136353 67.39712237570886 L 24.3630941965655 67.93194052791948 L 25.316258747084973 67.81536864507669 L 25.6895363077895 69.064820520277 L 26.561641172090773 69.15635428691787 L 26.332826616039455 69.90656009053544 L 25.983729301383775 69.96519516903534 L 26.56295791816274 70.57839958304459 L 26.132780966590804 71.36547426215306 L 26.50280656351153 72.91328870930508 L 26.24260955941167 73.38290800593975 L 26.78979735510611 73.51332566778184 L 26.959118929542203 73.90390032984128 L 26.712648005707692 74.3438729008377 L 27.1369395013519 75.00581685100728 L 27.334371609354676 76.5147673536483 L 26.420430131221366 76.73410524171499 L 26.261562722568765 78.24503086268588 L 25.822906724321285 78.7271592420764 L 25.1704789963598 78.75351410383155 L 25.13189434631156 79.38646970113949 L 24.51803131770026 79.2889906288188 L 23.613905583012517 79.69734135584706 L 23.33671058416545 80.59111232614897 L 22.48750912123717 80.27958229866479 L 22.52868736203322 80.70441229579885 L 23.43412984279293 81.20036650349847 L 23.329528332863813 81.59886158956759 L 22.805882360880293 81.52508393720534 L 22.644401410781818 82.04278439722374 L 22.112256441424694 82.26473582570672 L 20.800837205839954 83.73484233452695 L 20.565498771522982 84.68724838332878 L 19.376995786686535 84.77485186400013 L 19.38549478406014 85.18188584547515 L 18.49182321515589 85.32349584451984 L 17.596196477841755 85.93207169840251 L 17.27912003357254 87.01884564570615 L 17.522977415961176 87.40086146166948 L 17.332069186224054 88.33678824036552 L 16.8561452840003 89.2575724451992 L 16.90322893142214 90.1006487117011 L 16.354724389655733 91.45548013254158 L 15.761131270273493 91.32308735236963 L 15.639531765597166 92.45399222639726 L 13.847619917932908 92.3742892190454 L 12.555173796203325 91.79138990345105 L 11.378421772524279 92.74642944335938 L 10.815552728154598 92.69699163304199 L 9.604824665679196 88.50078291381541 L 10.011439842842153 87.24472736015868 L 8.482996913759612 87.75584409241084 L 8.294063803130438 86.81925894093818 L 8.55817114405008 86.68026248230979 L 8.039093881922325 86.29299963482367 L 7.605664966566589 87.27174059469044 L 6.7388071358551205 87.19335433289183 L 6.721150768071929 86.5136343177534 L 7.471656127696879 86.00517102729793 L 6.876087889206689 85.31028848760695 L 6.4884258752008295 84.14514822919489 L 6.628978543034255 83.76839939544455 L 6.142580524328947 83.61888892308038 L 6.250453948739923 83.37782473338513 L 5.5921407648507095 82.85419891837711 L 5.344373045642292 82.18106263100492 L 3.3020599866256832 80.60162633988476 L 1.3643683882362538 81.20429678946802 L 0.34714214624578965 79.30147976088443 L 0 78.69683419297131 L 0.4706968193320066 78.62305654060906 L 1.4552338425509923 77.76749114204152 L 0.34910729000470975 76.24864509706094 L 0.3497556876916631 75.40032179903625 L 1.094375591388882 74.13109878984704 L 1.1316335200161238 73.16486691273613 L 1.977583019160605 72.47592967872497 L 1.9318161178107291 71.74812850020281 L 2.6666302534114075 71.42999479426219 L 3.1948449352506905 70.35509150762796 L 4.457225355003699 69.3987352221664 L 5.035795598746681 70.7601703214633 L 5.881086724855179 70.47958381448043 L 6.109242907870515 71.10398056569227 L 6.939491207641695 71.05657772577537 L 8.250252070190452 69.98035769358789 L 7.469681008588928 69.02400140812632 L 8.894200751476392 68.45690303917095 L 8.716380179666695 67.68102069726507 L 8.2554791530822 67.53414371600739 L 8.012300094427607 67.0474067271805 L 7.174849592656729 66.96507022872214 L 6.553145939707804 66.3821709131278 L 5.675155619478797 66.32555085433816 L 5.798071870227091 65.16172734147933 L 4.07151850940773 63.962331747992636 L 4.109444786419986 63.31160008571585 L 3.1066029977308554 63.23321382391724 L 3.2288409247451058 63.994611964737395 L 2.877788441679536 63.696249392785674 L 2.087411611981471 63.6718496986702 L 2.1266346843676334 63.35571106174964 L 2.59341119153083 63.442656169644366 L 3.494265011736714 62.590362684269735 L 3.2916058208421894 62.15104848604995 L 2.265232183791168 62.04896080429288 L 2.2462690452850405 61.66167800611657 L 2.7581441054130993 61.36726567082459 L 3.2615401188656143 61.73016872557562 L 3.8074111684880885 61.685379426075016 L 4.151939773288005 60.864049411891905 L 4.160438770661608 59.71868028746874 L 4.081334252853301 59.074512402268 L 3.501467213736411 58.65036072860076 L 2.0756407001260104 58.57526633068526 L 1.9684256487510179 58.30126355146861 L 2.3515189529011127 57.900813297759825 L 1.9265890349189823 57.14863237581239 L 3.676654293402174 56.74094002156074 L 4.104217703528239 56.19690465047739 L 5.1403971086758 55.80501324286471 L 4.7056514472480995 54.899371611893365 L 5.2025036317369 51.851803930282856 L 4.450043103702061 51.72667320134396 L 3.6916971197394917 52.12646508227613 L 3.2765629945048715 51.6581824818849 L 3.6328625111602486 51.10820180512174 L 4.625250134065885 50.68337180798767 L 4.151939773288005 49.48531291074442 L 4.101604162082365 47.014060816962015 L 2.9209418015835382 47.04041567871716 L 2.4848793940838703 45.902927076923284 L 2.8084797166187387 45.505110314320994 L 2.616294642205768 44.617264699008686 L 2.9444636745963995 43.50415584064009 L 5.380324203546597 42.36732561162284 L 5.895471178156513 41.65993398917602 L 5.671245282659017 41.181755846445235 L 6.679314154239894 39.10175673818909 L 6.392323362645315 37.41101554643914 L 6.5191499502133885 35.56681364566526 L 6.853862811567734 34.885776884973595 L 7.787415825894127 35.04055433955075 L 8.067862788524993 34.19418620916574 L 8.134538021441855 32.2617224549439 L 7.886770302233439 31.948875681906458 L 8.260726186672006 31.88826548507668 L 9.151125841094396 29.54810937660319 L 9.694383349270998 29.639004721157654 L 9.870887175008727 30.44780570189472 L 10.359240362123925 30.40106123475444 L 10.42200525822101 29.877435419746423 L 9.97221677045599 29.614644928422578 L 10.587396545139262 29.34724582766237 L 10.637073783308917 27.918636754459634 L 11.530086979177181 27.65911817632871 L 11.928881482700577 26.95306325012534 L 11.876570752386987 24.77887693343161 L 12.835620758834192 24.05107575490946 L 13.359925103853694 24.622104409834378 L 14.141154538491202 23.912757619747886 L 14.530771720906952 24.17554811107173 L 14.79031035197083 23.543909259317033 L 15.554541791861128 23.82581251185316 L 15.798399174249766 24.77558506954849 L 16.17951735929191 24.212436937252857 L 16.502479259488855 24.3889606441488 L 16.36583692847521 23.994435745429623 L 16.93786334325448 24.004291386388775 L 17.474596973165426 23.31140391571788 L 18.79842554294355 23.325928018184 L 18.904982221282562 22.950495929986907 L 19.248852453046496 22.88132688706102 L 19.356067504421485 21.945400108364993 L 20.04707988243121 21.68324803912757 L 20.264781899663053 21.288723140408393 L 20.50534741687177 21.706969409776224 L 20.809336203213558 21.475780811730317 L 20.588382222197918 20.54117077858753 L 21.10418756984382 19.944425683993888 L 20.783839211092747 18.938033067508925 L 20.900211632877326 18.355113801224377 L 22.090689736821723 18.096273546560276 L 22.14036697499138 17.737320728468976 L 23.23865290320004 17.110290486150646 L 22.940549572785986 15.86149698372697 L 23.20924557425945 15.312833052517055 L 24.385977647240438 15.278577717442424 L 24.975002056766915 14.731250482475957 L 25.642472611065717 14.925550254340738 L 26.123623596181215 14.359110258161984 L 26.00595437902273 13.07805648968375 L 26.649244687272684 12.229054868192241 L 26.600205871440952 11.619162268756325 L 25.94255106058772 11.075106946982775 L 25.573842209738963 11.164685545983994 L 25.40452063530287 10.540288794772158 L 24.682125809244603 10.836017875617385 L 24.255220772154523 10.685849030476588 L 24.275490681383587 10.154981114925711 L 23.729619631761114 10.309758569502874 L 22.91178066618332 8.53141389708157 L 21.691236860262347 8.841647129702718 L 21.382679364064796 8.325921788014186 L 20.443899266846653 8.002521099860564 L 19.856191603392144 8.661831558923657 L 19.328615343890785 8.53867594831463 L 18.968405490415627 9.155152275516784 L 18.678781206677115 8.908162730831908 L 18.660486416556 8.256114323001878 L 18.268894115032303 8.189578771182486 L 18.168222892621024 7.68572409016338 L 18.619308175759947 7.515145688947251 L 18.763771180413155 6.60290037951947 L 19.17236147668406 6.612775971168825 L 19.777087085583837 5.698575494101374 L 19.595994599292283 5.210521759721236 L 19.125297779960277 4.953656623387006 L 19.000426360802095 4.059207329618265 L 18.56111198951863 3.7160554581659335 L 18.72652322713494 2.9171300690782247 L 19.425376229482286 2.6378603076485896 L 20.265420322000974 3.637010823590693 L 20.211812796313477 3.9149638394670814 L 21.081962492204863 4.343085700484266 L 22.043606089399884 4.156686401938967 L 22.913097412255283 3.4269101050869435 L 23.38181911247934 3.7285844916119837 L 24.066307612223408 3.574445459121245 L 24.677557099388842 4.212687989332379 L 26.278560717315976 4.221905208205111 L 26.846676795275464 3.7265894225919123 L 26.783253526142396 4.0420896374260495 L 27.151323954653233 4.41752172562314 L 27.55009850747857 4.192916855343469 L 28.548371586311937 4.466261261783492 L 30.35139597279567 4.350327801027126 L 31.120854495577717 4.757381733192353 L 31.507878087245654 4.608529633604804 L 31.273178075266603 4.159998216512286 L 32.075315841471095 4.178432654257749 L 32.97944157615884 3.6738996497718186 L 33.040909676882016 2.903942662855551 L 34.294132726225435 2.6879165893621884 L 35.11065494573127 2.0760289209062006 L 36.90388353946749 3.3834375511395813 L 38.92722348462894 3.3491822160649503 L 40.33538365510712 2.7050342815544033 L 40.69820705002815 1.6808256987201993 L 41.51931793008781 1.172362408264728 L 41.697138501897506 0.42676521408353546 L 42.169132116603414 0 Z" fill="rgb(0,0,0)"/>
        </svg>