<svg 
          width="6.879364013671875" 
          height="7.4407501220703125" fill="none" 
          xmlns="http://www.w3.org/2000/svg">
          <path d="M 4.815482987013342 0.27731498632354534 L 5.231924137821537 0.7712947749113858 L 4.952773799732177 1.3976675310706685 L 5.332595421840899 1.51754142282067 L 6.15696874552739 2.6932272851626387 L 6.684545327891243 2.6398790640526273 L 6.516530421357542 3.7543062454229092 L 6.858435718599281 4.312836583525126 L 6.2785683246193456 4.970831228412669 L 6.879364013671875 5.872513923692223 L 5.578408123070101 6.25320355761544 L 5.3469798839451315 6.574629582411026 L 5.55094597038428 7.122625941176636 L 4.526526874826575 7.440750122070312 L 3.876712290642146 6.911198202502984 L 3.73158084878744 6.108301489581778 L 3.2497711957815767 5.695989966930299 L 2.925512301773117 5.77503471339173 L 2.3410662197863568 5.344937125250508 L 2.3338739887342403 5.787543813853951 L 1.8265673280040915 5.582709787624897 L 0.6073295466657552 5.871197176275147 L 0.03596115526058255 5.122975407240249 L 0 4.5855130278112455 L 0.271309708953488 4.57099888014575 L 0.587717998470941 3.8636162317586433 L 1.35325667757299 3.8629578580501054 L 1.129020669500137 3.556684403910112 L 1.6363273302302856 2.8045123926239865 L 1.4683124236965848 0.9998202792885836 L 2.6895053746413216 0.7482117936756777 L 3.2955281497844315 0 L 4.017265044490026 0.29967974169539385 L 4.163044884428488 0.6711621190583014 L 4.815482987013342 0.27731498632354534 Z" fill="rgb(0,0,0)"/>
        </svg>