<svg 
          width="4.155853271484375" 
          height="4.495880126953125" fill="none" 
          xmlns="http://www.w3.org/2000/svg">
          <path d="M 3.9917636427908127 3.487494215541016 L 3.57532741772283 4.495880126953125 L 2.9411989851725773 4.037473924703282 L 1.8618653990670175 3.821428280617303 L 1.754650266132983 4.279854433522246 L 1.1715108689374303 3.6561171524525213 L 1.270880383891132 3.2978033868431225 L 0.8845148713491678 3.6152781614612945 L 0.6648575186130826 3.3590718486575133 L 0.8492120842768243 2.7675947768856948 L 0.6269411881067312 2.168237196349082 L 0 1.1987151610732263 L 0.2922230844562783 0.9833278886055719 L 0.8139092972044807 1.300802663223744 L 0.9008594931683357 1.0024406161920865 L 1.3120636436899935 1.0195582782685266 L 1.3029112539926566 0.6329345330711688 L 1.6363225859261055 1.0169247917952282 L 1.7226144083531492 0.5512765017438152 L 2.2756830930226832 0.4953149141862224 L 2.5012259061635955 0 L 2.5764051813177966 0.8147448530042676 L 3.240614301750686 0.6362463418178926 L 3.479229819739947 1.0847969204479664 L 3.196812510839508 1.0261619451068735 L 2.543067539499268 1.8790923519739693 L 2.083482909378609 1.9127092058187263 L 2.1599689562498137 2.9823436283901255 L 2.3109858800950267 2.7294291736779677 L 2.7411531835481697 2.9810268851534762 L 3.085672075076152 2.7452300925177586 L 3.026184035882617 2.2466233202399133 L 3.904165048646765 2.3869163269083593 L 4.155853271484375 2.6385339890389687 L 3.7132716367196945 3.225382508827414 L 3.9917636427908127 3.487494215541016 Z" fill="rgb(0,0,0)"/>
        </svg>