<svg 
          width="9.053062438964844" 
          height="12.815948486328125" fill="none" 
          xmlns="http://www.w3.org/2000/svg">
          <path d="M 0 1.040649909703542 L 2.0919874451265166 0.8503000163257024 L 2.536534340793936 0 L 2.768611072894655 0.6849882862629438 L 3.629594301966015 0.7969517703459997 L 3.95646687267207 2.180774147924211 L 4.359172124118708 2.6530278242838006 L 4.758610445422945 2.7465568359340797 L 6.101403524503534 2.0964623724903206 L 6.750574963716282 2.0714242091752393 L 6.979384765674599 1.6597808436931132 L 7.29514478621688 2.114238470907641 L 7.546179688502745 1.8652733394264482 L 7.8704387150948785 2.0404806304487924 L 8.052179784604572 2.6754125408093152 L 7.857366006845663 3.2971769708607117 L 8.308446762797887 3.8636180328860363 L 7.885476569109142 4.382616264343024 L 8.243726632221078 5.042586338018628 L 8.245686790306518 5.817153391839113 L 8.871321369455151 6.1207835173309215 L 9.053062438964844 7.177274304860897 L 7.901821195180366 7.678476487172824 L 8.574524506777623 8.167867838662017 L 8.782410992785746 8.723774916440043 L 8.340482628911854 9.304021882062209 L 8.18685212166564 9.97520426472831 L 8.515031464428656 10.7701609623002 L 7.958695705735804 11.46703988229684 L 8.073756486583246 11.808875651412855 L 7.276186616031734 12.451049675943398 L 6.732923565588097 12.030807546804857 L 6.777378753922799 12.627573714996654 L 6.284451366070188 12.464217156252523 L 5.70981082322067 12.815948486328125 L 4.964541761025234 12.492547189644887 L 5.109019876193115 11.929378046969102 L 3.9231242345011412 10.40067348453502 L 3.1706679259924195 10.144466238883806 L 3.6727427182437564 9.265157864422545 L 2.939239592240574 6.625955894463327 L 2.6463630457339278 6.081261125675801 L 2.2011627640380285 6.219599471832592 L 1.4029395074580364 5.509573022254567 L 2.691471620097111 5.703214785709688 L 2.9647366103901307 5.4456708412998225 L 2.3109914689780204 4.916777048883248 L 1.4709265681772479 4.7824288482746775 L 1.714120838121348 4.308200049868719 L 1.1558249213430538 4.312110392505975 L 0.7642322200601895 2.6095152870804603 L 0 1.0406100082480598 L 0 1.040649909703542 Z" fill="rgb(0,0,0)"/>
        </svg>