<svg 
          width="86.1144790649414" 
          height="68.00054931640625" fill="none" 
          xmlns="http://www.w3.org/2000/svg">
          <path d="M 19.724775237571407 33.60668733591278 L 20.127481251099173 34.07169814835922 L 19.846370979228098 34.392445481107686 L 19.18478226123568 33.93996370548193 L 19.724775237571407 33.60668733591278 Z M 13.007550999242637 33.33795146652659 L 13.144184576808758 33.55202243003912 L 12.296277570665882 34.17839446829072 L 12.41395175395316 33.57704060228933 L 13.007550999242637 33.33795146652659 Z M 24.944268426873126 31.622850020088347 L 25.19138520931113 31.998282209406046 L 24.24476216724142 32.27028999286643 L 24.343478203168253 31.849430069725987 L 24.944268426873126 31.622850020088347 L 24.944268426873126 31.622850020088347 Z M 5.08939969874596 20.895500664641286 L 5.826823500016954 21.152365870160757 L 5.864740418197041 21.525802989921026 L 5.282908341852613 21.683233928698048 L 5.305789294500872 21.919031199691027 L 4.815481028749482 21.529114805386364 L 5.222109847565066 21.37960429275235 L 5.08939969874596 20.895500664641286 L 5.08939969874596 20.895500664641286 Z M 5.511065106552572 19.9905171626942 L 5.906580141664945 20.293488425685943 L 5.898735154548512 20.688013430668278 L 5.354819996384171 20.318526548631723 L 5.22145615059363 20.020143945622078 L 5.511065106552572 19.990537113389774 L 5.511065106552572 19.9905171626942 Z M 3.921158732068251 18.405813462529764 L 4.222534856972241 18.7713501068426 L 4.070212240362056 19.564370305226557 L 3.7204591105462033 19.339765374450774 L 3.7701438211305383 18.808238942959534 L 3.219037061091601 19.30682677605756 L 3.097440695975707 19.128347853449622 L 3.921158732068251 18.405813462529764 L 3.921158732068251 18.405813462529764 Z M 4.0479849846852325 16.66501552019179 L 4.036217504010585 17.197200324636984 L 3.3406337379370945 17.998759420726756 L 3.4092769076114733 17.259107333004124 L 4.0479849846852325 16.66501552019179 L 4.0479849846852325 16.66501552019179 Z M 3.693655664339728 16.245452392263676 L 3.834210488545665 16.602430188175124 L 3.477266068584816 16.81847627054952 L 3.3975094269368253 16.373894970371197 L 3.693655664339728 16.245452392263676 Z M 2.356094712876098 13.546322788012862 L 2.8960873774822233 13.849952423958557 L 3.2837577372077638 13.69978353837059 L 2.7934494714563733 15.804162956855118 L 1.7592260475406416 16.868532565745507 L 1.2041971056730885 16.740089987637987 L 1.4552349788861074 16.615617597949754 L 1.1891609842764608 16.357415695826802 L 0.763573394641233 16.524063855959163 L 0.8740562098511149 16.75722763513633 L 0.4791945989467786 16.769776622652586 L 0.5439152750629414 16.516183331207305 L 0.15951362425023088 16.669624130869458 L 0 16.253352867711108 L 0.2510378342468191 15.904933920201048 L 1.1401301265283617 15.87530713727317 L 1.9612330630055617 14.764831470910508 L 2.356094712876098 13.546342738708436 L 2.356094712876098 13.546322788012862 Z M 1.8226393297139323 13.63985164886531 L 1.888667399772967 14.606742159179534 L 1.283300206214443 15.042106238002518 L 1.279377712656227 13.767615903323305 L 1.8226393297139323 13.63985164886531 L 1.8226393297139323 13.63985164886531 Z M 4.245415809620501 13.15903988552401 L 4.523257284904795 14.303112523233839 L 3.4360803538179487 14.531647741037766 L 3.6982318548693796 14.011991973413247 L 3.579903974610666 13.525254853486372 L 4.245415809620501 13.15903988552401 L 4.245415809620501 13.15903988552401 Z M 2.7221915138962505 12.684153478768284 L 3.096786999004271 12.694029073077576 L 3.2876802307659796 13.466619759193422 L 2.4770373810205553 13.411974804015339 L 2.3815906092749013 13.068802889441324 L 2.7221915138962505 12.684153478768284 L 2.7221915138962505 12.684153478768284 Z M 3.4981859303187672 11.596082443535591 L 3.5001473329626753 12.567581564527487 L 2.614323720369313 12.475369449582942 L 2.2416893261756 12.933776581794273 L 2.2809141058929594 12.190832629301878 L 3.4981859303187672 11.596082443535591 L 3.4981859303187672 11.596082443535591 Z M 4.738339174987235 11.559851980372613 L 5.0442914904208775 11.871402042461316 L 5.4097342827399935 11.961639038544002 L 4.527179778463012 12.775727171454449 L 4.169581349801126 12.6295085235902 L 4.206844882739378 12.303474256514534 L 4.808289738604485 11.858892956336213 L 4.738339174987235 11.559851980372613 L 4.738339174987235 11.559851980372613 Z M 4.0479849846852325 10.733913134291015 L 4.546138237553055 11.758780365944235 L 3.519759489024155 12.896907696372915 L 3.8668978309542643 11.65535596008692 L 3.6897331707815115 11.408366348876742 L 3.310561495143839 11.555243369694942 L 3.580557983311702 10.909778515778715 L 4.0479849846852325 10.733913134291015 Z M 3.3367112443788787 10.692395736800838 L 3.0627922626528 11.600671103517687 L 2.1691238188078055 12.105204243896864 L 2.0710621033116072 13.333568570408229 L 1.8429053386116478 13.51667605438941 L 1.6075574396314924 13.254543865238317 L 1.0865230782506108 13.729430271994042 L 1.1015591996472385 15.243648164694378 L 0.713888839921698 15.406326136407447 L 0.0869479999838363 14.656798454375524 L 0.6576668478934031 14.000121309546522 L 0.36478936811108087 13.10501340190873 L 0.661589263519219 13.084623791031767 L 1.2427680325542116 11.901707149038721 L 2.02987623267994 11.860189751548544 L 2.3757070248023773 10.960473233233081 L 2.869937628247184 11.143580717214261 L 3.3367112443788787 10.692415687496412 L 3.3367112443788787 10.692395736800838 Z M 39.97189207460176 0.3800008986042224 L 42.580333145687355 1.4818977658699235 L 43.30925670422248 0.7942770922051401 L 43.747917609827226 1.2698218719148184 L 45.188118337694306 0.4827469808120108 L 46.944073718270566 0.5308481078417152 L 47.559248392643035 1.095313137726173 L 49.44007018184037 0.5328232267035736 L 49.61527219245081 1.2672282814901559 L 50.25333031330833 1.5333107083649664 L 50.501097987151375 0.4623573699350477 L 51.09796789940523 0.580246030083751 L 51.427453617540166 1.1927922363023387 L 52.90949095157915 0 L 53.35796261115864 0.13237286513566524 L 53.35338392679218 0.8009007231358168 L 54.45494156779142 1.3778748391453781 L 55.07404154128851 1.4068432491193021 L 55.33880720676648 1.100560170662221 L 56.503124744697175 1.462824900900866 L 57.033309460894955 1.3231899825761455 L 56.65282976785521 1.7947645738665328 L 56.01281647894578 1.5965344626400113 L 55.62579794581408 1.895555487908037 L 56.22986008340173 2.524561017975445 L 57.08953550540805 2.3124651733247656 L 57.47785582134983 3.095609777399431 L 58.24666081800495 3.0389897033594884 L 58.16690292943856 3.6982803893087266 L 58.54999616344565 4.5024929279098815 L 59.13902046512387 4.460975530419706 L 59.040957814438876 3.8523795619248347 L 59.64371318154286 3.0001057976851238 L 60.24450340524773 3.5178063971433566 L 61.732426194136835 3.7483167338091405 L 61.68077883399019 4.320023866187079 L 62.21554223455443 5.193385515648855 L 64.07086703629936 5.124894777742187 L 64.83444495101979 5.718986590554522 L 65.75883543800948 5.152546441808206 L 65.37378204827688 4.855500535402038 L 65.88043492042138 3.5467748071172807 L 66.05106323433897 3.368954257463297 L 66.57470911044479 3.627794581844626 L 67.16765372357403 3.1832132816663044 L 67.35855194300935 4.213985919209526 L 67.03886700350193 4.694139309596875 L 68.2025311561908 5.353449946241687 L 68.76344492944928 4.98130962169375 L 69.04390181607852 5.142670847498914 L 68.76475169993294 5.601097930405818 L 68.51698402608992 5.460146266173193 L 68.34832085557143 6.093102033964318 L 67.85997274554555 5.996939681296057 L 67.00748954887301 7.845092316519492 L 67.43830484390213 8.541950162235189 L 68.93865192773332 9.148571011868201 L 68.59804868513997 9.850675890519947 L 69.2400271174485 10.462563723784582 L 69.85846871803015 10.21228224780464 L 70.42591634370699 9.516741147996846 L 70.46252586794421 8.89497772042292 L 70.98683011696546 8.698702777362682 L 70.93387598633515 9.302011811530356 L 71.5379381239228 9.856601247105521 L 71.41895717015186 10.765534986776323 L 71.68764314708085 11.65733107894878 L 70.8312396389573 12.694707396727104 L 70.83908524953293 13.810450046721387 L 71.0201727149935 14.122000108810091 L 71.63011531975768 13.932308895289383 L 72.43487645540819 14.986124586220953 L 72.8349676810502 15.070436225718062 L 72.90295465991635 16.365994494923765 L 73.77570277443299 15.789020378914202 L 74.91844862403589 16.274440752933174 L 74.59484337307748 17.394133640651177 L 74.88641778416513 18.050810785480177 L 74.53535539002881 18.824059844549975 L 74.8151588914162 19.002558717853486 L 75.51270499532241 18.774003549353985 L 75.81277341455393 19.418829981011836 L 76.3409979750262 18.732506102559384 L 76.59203257507842 19.090820595074312 L 77.26342830629038 18.90968822995499 L 78.1139513472374 20.54642334417727 L 78.72454733724341 20.481902794689894 L 78.83960797956334 20.0024077772565 L 79.16452000100543 19.948401244336793 L 79.43517112133352 20.538542819425412 L 80.00785081661866 20.6175874752909 L 80.16998013471878 21.158989501091433 L 80.95251120912606 21.163558210377953 L 81.39182549997264 21.55676646945238 L 81.29964830413776 22.90830639043965 L 82.06583477215194 23.305484837933367 L 82.40120594513701 22.71203144737941 L 82.92812373512561 22.768711373506076 L 83.50472872953534 23.805429318330447 L 83.4275843819363 24.15845687651818 L 83.9780390036518 24.639927012813434 L 84.63505527186977 25.87092483114061 L 84.23627081671142 26.09947999964011 L 84.51542093285698 26.570416168672118 L 85.04037357944648 27.072295866539907 L 85.73922645383635 26.705442476319167 L 86.1144790649414 27.67891671617292 L 85.0769831036837 29.58107588431606 L 84.81810289305585 30.876634153521763 L 83.19223601536174 30.858199710811082 L 81.65855132117612 32.74916653873702 L 80.47396886540132 32.25255382450086 L 80.03465457455474 32.883534473430124 L 80.14775007347556 33.14436986736889 L 80.72696860885264 32.88221772752222 L 80.62890595816765 33.518465360083106 L 80.97408289745384 33.48552676168989 L 81.24342724729827 34.183023029663964 L 81.53434328547048 33.65083822521877 L 81.76511296767859 34.01507807431928 L 82.11552197657308 33.837237573969716 L 82.17239641865442 33.33667462200983 L 82.36132949469061 33.94064202913146 L 83.03729892259543 34.00059386933231 L 83.58710015906908 34.5729593746642 L 83.0915598237094 34.490622854028956 L 82.6679367540141 35.1064609250173 L 82.39074679359403 34.97143461737026 L 82.1756633448636 35.648521323771796 L 81.3983643400646 35.495060573414065 L 81.0930638512248 34.91216110081893 L 80.54588114339208 35.08142280207152 L 80.3700257475398 36.185314738894654 L 80.81391373507923 36.80839491237649 L 80.59752850353871 37.13047894172844 L 81.24080871865732 37.263510179818056 L 81.34345005370878 38.968755982642584 L 81.67751445621016 38.85350081430969 L 82.03380393228117 39.13340907321751 L 80.89759692277023 40.185269595982795 L 81.66574354650992 40.6147083182202 L 81.55852851476561 41.093544962699646 L 76.96728518618347 43.02469249151228 L 77.43863530457443 43.50682100076149 L 77.25035561378006 43.91716690733426 L 78.14206187565715 44.84058485199203 L 77.99497039346645 45.6546530342069 L 76.65348570152621 45.94974377244679 L 77.1581784179452 46.344268777429114 L 77.65502552378854 47.85519480535969 L 80.51515707400499 46.91597590980706 L 82.1102899069648 46.91465916389915 L 82.4103583261963 47.33224717296541 L 82.81829516241396 47.054952455177826 L 83.25630268277688 47.268345095040836 L 83.74334900999268 46.8323226432639 L 84.05648513406092 47.18668689805511 L 84.04406582679243 47.85587312900922 L 82.97585078382124 48.33997675712028 L 82.69342875379289 48.09362556816848 L 82.60517685708264 48.3966167818558 L 81.32318513586466 48.33008121211542 L 81.05056887213746 48.558636380614914 L 80.47854256209416 48.059390174562935 L 80.22358266291734 48.97885788149698 L 79.1311774029774 49.3819417348807 L 78.91413379852145 49.23045610338483 L 78.85464581547278 50.77366235675466 L 78.0812621344512 51.290046210304986 L 77.26212153580671 51.21626853807113 L 77.13072127476728 52.62115661902414 L 76.02327817891792 52.691642426488244 L 75.95528621237817 53.11581416509403 L 75.19759874018146 52.911638746586355 L 74.58307745105084 53.19813073503371 L 74.26535765494255 52.559907983610955 L 73.9247594000228 52.68043013557547 L 74.90537593152557 53.55512848164073 L 76.17298320207595 53.47147521509757 L 76.03047040425172 54.33166940548029 L 76.47763030567393 54.993593583245335 L 76.92740374806348 54.8151146606374 L 77.04638470183443 55.20503105494206 L 78.27869420630486 55.39406389550882 L 78.12245034305487 56.02570291739204 L 78.80757215201898 57.493156379666154 L 78.86837189322493 58.92769119424262 L 78.47612627815853 59.203010793168346 L 77.99301023774095 59.113432170039616 L 77.69228843326759 59.630474396543896 L 77.13202804525095 59.637716499037374 L 77.44255561602544 60.02962796289947 L 77.34579973582412 60.78178913674721 L 76.11284183378544 61.490497695634055 L 75.4669430900259 61.32913646982889 L 75.05246741371627 61.563616994913964 L 74.58830952065912 61.31594906005426 L 74.18494638113431 60.48013461966337 L 73.24225113202603 59.930173745461445 L 72.69571682176154 60.22919477072947 L 72.47932660254743 59.295242858808464 L 72.08381406127185 59.394018752596956 L 71.89553437047749 60.06188823764316 L 71.38626795736566 60.38792250471882 L 71.90141982532761 61.083463604526614 L 72.45514137325229 61.25206693282526 L 72.46886745100446 61.842208507913874 L 72.7277526493059 61.886997819478246 L 71.75628849886243 63.728566725162146 L 71.2306774793575 64.08225265630384 L 71.66999177020408 64.6394755836948 L 71.75890203982976 66.77084829329141 L 70.99794265375029 66.9690983552135 L 70.90576545791541 66.6667854651757 L 70.70375968936888 66.88414829345801 L 70.13304014980928 66.75702246125839 L 69.83101157485224 67.59876225823486 L 68.83535720744004 68.00054931640625 L 68.5568604765363 67.73905554951354 L 68.99944668126567 67.15220583919468 L 68.74775869597161 66.89994924435288 L 67.86977851184668 66.7596559530742 L 67.92926649489536 67.25824378617223 L 67.58540131376643 67.4940410571652 L 67.15458103106371 67.24244283527736 L 67.0035642497484 67.49535780307312 L 66.92707827506479 66.4257212105511 L 67.38731585667092 66.39212423920394 L 68.04106021100611 65.5391721513147 L 68.3241306386027 65.59780724560764 L 68.08486196057713 65.14927570770561 L 67.42065346702536 65.32777458100912 L 67.34547426282542 64.51302807514472 L 67.119931662552 65.00832404347298 L 66.56686349986916 65.06494411751292 L 66.48057175888441 65.52993497926379 L 66.14781412686669 65.14662226519422 L 66.156966507926 65.53324679472912 L 65.74576274549916 65.51610914723078 L 65.65881263159898 65.81447179954485 L 65.13778029646049 65.49701633156614 L 64.84490410256277 65.71238409029101 L 65.47184469896187 66.68190809242105 L 64.15912392068321 66.48497477640686 L 63.61324798333417 67.06984936786385 L 63.62305374963531 67.67054486091129 L 63.167394852395624 67.6145831598253 L 63.164781311428285 67.95773512370374 L 62.286147742061516 67.7891317954051 L 62.53326203066272 65.5167874708803 L 63.43412067359911 64.36285918955676 L 64.30033493569739 62.470555665027334 L 64.47553694630784 61.20201063762927 L 63.0307625217479 56.66657911132617 L 63.053640980559365 55.95326194176165 L 62.75684447521063 56.09618872485614 L 62.088062284966014 54.42783175814855 L 62.73396102872557 54.16701631490536 L 61.84094799636481 54.06097836792781 L 62.05406630169614 53.04468993537155 L 61.31991067355273 52.86553268911408 L 61.21008210084108 53.856802949420135 L 60.77665326484462 54.03659861793598 L 60.655053782432724 51.87691587131942 L 60.2366577946721 50.86852791421059 L 60.75050289215038 49.539372673657724 L 61.727194124528545 48.31627533077798 L 61.019842254321205 48.77007385231164 L 61.41470639802854 47.49362834946614 L 61.837022697240194 47.32171320570216 L 61.540226191891456 47.16232709875886 L 60.753116433117725 47.90724617011311 L 60.36544451474418 47.022692180434134 L 60.78776580162943 46.07291936692268 L 61.78342016904164 45.5611640747456 L 62.966042469090944 45.655351308552 L 63.61978682342613 45.320099820121 L 62.86274774879765 45.389248930981616 L 62.2658828242174 44.99999090963091 L 59.54761068658336 45.372131234178845 L 59.133139997947346 44.82741739291297 L 59.58552698130425 44.319612338459606 L 59.98823673558722 43.015495220852515 L 59.2776179391707 42.52347116659844 L 59.0651480314076 41.079080708408256 L 59.68489640247292 38.18630965291302 L 60.152326209412855 37.44597924154086 L 61.04991792614006 37.20359824100835 L 62.50972519893582 37.85303328334387 L 63.25826527774683 36.77547626467885 L 64.20488582597973 37.10414402357033 L 64.53960361372296 36.94804978139678 L 64.70696001375778 36.30256497678498 L 64.45592541370556 36.768234162185365 L 64.05321565942259 36.824914088312035 L 63.73746100671341 36.236747632085276 L 62.482926428673345 36.99748760502997 L 61.604946244548415 36.88616272372522 L 60.871444001646836 36.20380903369206 L 59.597951276246334 36.8170136128646 L 59.54434376037418 36.36453183723884 L 58.84091220161786 37.495417065174045 L 58.9324409998845 36.90659223599333 L 58.632367592979385 36.88221248600151 L 58.145331241110775 35.95350760701654 L 57.57069139010014 35.68545006127987 L 57.834150285094445 35.10518408050055 L 57.38175831406394 34.70603051414497 L 57.13071872633812 34.912201002210075 L 57.587031008819636 35.22768135132692 L 57.297421741131096 35.78556265167185 L 57.85310843245489 36.00753409063182 L 57.891024727175775 37.04818232248434 L 57.65959667205223 37.459844974965016 L 57.06599867368116 36.39876723084439 L 57.14575656224755 37.377508454329764 L 57.54519440264774 37.92483583671588 L 57.33599640876742 38.195546824963934 L 57.05749967786369 37.70156760254358 L 56.89145004831255 38.56635045290839 L 56.621452313226285 38.48798412069243 L 56.00170394216097 41.41698563935065 L 55.49635784050015 39.678801238132905 L 56.10826060098984 39.317873204497744 L 56.2638560666716 39.477937635090576 L 56.28673452548306 38.8041427934588 L 55.400913718456096 39.59319280342347 L 55.37410996052002 40.15173247672235 L 55.1956360360268 41.17855487654185 L 55.64018239648167 41.89711907904242 L 55.81081071039926 44.24717136282922 L 56.37760495083426 45.89841063273404 L 55.24531825277433 48.69434101191149 L 53.9149510852925 50.277069593214065 L 53.68286964492712 50.98841164391673 L 53.23440297302124 50.69794946705009 L 53.52335885546794 51.090499353170564 L 53.314160861587624 51.535739026302835 L 53.74824807049952 52.25895174087222 L 52.44075936182915 52.87937847184267 L 52.296281420605794 53.198170636424855 L 52.3381180267777 52.41438761009181 L 51.873960133720544 53.36942740723488 L 49.72641252331973 54.08735318747707 L 49.411306268178784 54.307987929833565 L 49.547938598826505 54.58989125829881 L 48.29340402078645 54.84675646381829 L 46.24783438484804 55.882816035688705 L 45.55290680958279 55.907195785680535 L 45.56794464549222 56.28657821272195 L 44.533720598117284 57.05653540702198 L 43.678623860477416 56.99460844795927 L 43.770147671070454 57.24357317803131 L 41.367635173819195 58.050419208448275 L 40.6374023509636 58.39686303709648 L 40.553724150946195 58.70182936964565 L 39.75550185538765 58.70182936964565 L 39.5691848141556 59.007434124453205 L 37.972740223038514 58.94618548904002 L 36.981011154750924 59.403934248297396 L 36.51423722688963 58.75912776733512 L 36.38348785725523 58.6069837628853 L 36.69074850182054 58.59906333674229 L 36.692055272304216 58.15316529065606 L 37.05423020322535 58.158392372896536 L 37.08626353693292 57.71644456453403 L 36.001701393731814 57.32916166204517 L 37.141831208530576 56.82265340280414 L 36.96009035782817 55.949950126296315 L 36.3991790784065 55.57848812539791 L 35.37345402684903 55.71941983893496 L 34.9714001516447 55.291976186254985 L 34.11434076444252 57.434541236068775 L 34.042430980288565 58.616819455803444 L 33.232440268866576 58.52263222199704 L 30.82993026545212 57.30809372751869 L 26.18507692716103 53.61045176046834 L 20.893015580789914 47.365165820663044 L 21.59252184042162 46.63670607315761 L 21.231656173820955 45.57562832903699 L 21.05318224932773 45.84173070660737 L 20.384402552919916 45.74754347280097 L 20.954468707237698 46.2876287526936 L 20.65439904108778 46.42265506034065 L 21.045992517830737 46.74208564718121 L 20.787109813366083 47.21763042689089 L 14.31373293742934 41.26085149578596 L 10.554048267841777 36.896656789597316 L 10.261171450484856 35.793423225728134 L 10.92668359722429 34.2778885871199 L 12.05896780144742 33.30178085545033 L 12.302815163839442 33.42559487218461 L 11.736671814809478 34.005860852963934 L 12.078580580968099 34.54991632127586 L 13.793352740614294 34.13759529584122 L 13.93390662963143 34.462971189962936 L 13.299121669575088 35.780914139603034 L 14.32157730108657 36.59566064546743 L 15.515314631757484 36.101681423047076 L 15.705554478277357 35.52997429066914 L 16.87641085630001 35.73941669280843 L 17.777270746154798 35.4390789216325 L 18.306149938787314 34.677022202779895 L 17.95639556205306 33.96107154139957 L 18.67159304283603 34.41752350544461 L 18.827183520844194 35.145983252950046 L 20.096754687875283 35.096565380012436 L 20.226196040107606 34.58215664532397 L 20.70473713691395 34.55318823535004 L 20.689701794841323 33.85305847556016 L 20.332756439691675 33.73778335653169 L 21.10417622423254 33.3952897656072 L 21.32840956018548 34.03419084067948 L 21.533684748777983 33.873468037132696 L 22.054066192511428 34.491281226982906 L 22.582290752983706 33.68838543428966 L 23.046448646040854 33.7997103155944 L 23.87997369535294 32.8795842357064 L 24.23953259146993 33.074542432858735 L 24.175465924054805 32.5667174277098 L 25.356781453620435 32.07273820528944 L 25.71438019401192 32.31182734105219 L 27.052595465906187 32.24201985723761 L 28.147616760650266 30.592097333240698 L 28.284249091297987 29.538920064567506 L 28.971989428903044 29.179967149794198 L 29.664303463200955 27.49844272400755 L 30.61484931055848 26.58029176298141 L 31.577158586105853 24.453527664062488 L 30.809009468529368 24.643877250537148 L 30.318701202777977 25.116130165477063 L 30.117348819473293 26.343836119034474 L 29.581278648425386 26.60860180000138 L 28.075704482659507 25.87619181477223 L 27.836435804633936 26.21607186457648 L 27.038213509075394 26.42683101262368 L 26.509986454766317 26.158095143237485 L 26.63158344334141 26.6955469313143 L 22.065832114538075 27.79548863041372 L 21.438891518138963 28.253915713320623 L 20.800183752794805 29.434857236451812 L 19.941164209867118 29.05942504713411 L 19.363253691892105 29.158240842313756 L 18.72846873183576 28.662266550335968 L 17.602720873867792 28.943511505847265 L 15.999085304335313 28.121522897489385 L 13.839768031152648 27.97662099553304 L 8.601314200653682 24.568782832395378 L 7.844932252022247 24.374483008197 L 5.548982024732659 22.38274521692513 L 5.453535408851805 22.100841888459875 L 6.647272739522718 21.548905895396096 L 6.22168514988749 21.59898214128766 L 6.168078257474539 20.400244597704173 L 5.745758840966891 19.89044447369337 L 5.103128582064516 19.80744958010417 L 5.122087041154559 19.31807896836148 L 4.7841010802837545 19.28913050908313 L 4.327787550883835 18.61665241335926 L 4.1414705096517785 16.132890567833318 L 4.30098410467736 15.76669555056653 L 4.574903086403438 15.80422280894184 L 4.631778775403169 15.264137529049211 L 6.110548559773772 14.253116080124574 L 6.570130885760471 13.496326344903595 L 7.53963363356004 12.967433405228165 L 7.2624461669767815 12.759307748996777 L 5.730722875435063 13.05042829881737 L 4.654659728051429 14.261674928525961 L 4.502337423170844 13.250653479601322 L 4.931847506364288 13.087975507888254 L 5.289445311566972 12.413502342606952 L 6.528944547534404 11.854982620003645 L 5.9484198651328475 11.91295934134264 L 5.608473125077334 11.496708028879866 L 5.505834907321884 11.78848695165441 L 5.098552079805264 11.763448828708627 L 4.8043672450462696 11.413054762336708 L 4.9331549003071595 11.175940745435822 L 7.703723730844873 11.193058442238595 L 8.024058314838907 6.203828394401837 L 8.759520713465992 5.989099057935347 L 9.051744145581079 7.493441356326389 L 9.596313312446457 7.681815823939193 L 10.41349375536544 6.466618956506883 L 11.143072569520001 7.22999242126739 L 12.4074141607796 6.580577329627444 L 13.869186576974467 7.089699129988716 L 15.381297088995506 6.46596058355293 L 17.993659718450512 6.791994850628596 L 19.355409328234874 6.448842886750158 L 21.051222093602224 7.994024258981849 L 24.829210278389994 8.124422005255655 L 25.632008764478186 7.727263508457511 L 26.44918920739717 6.2552014355057315 L 32.687217716759356 4.304282767378934 L 33.19321470982521 4.602006997434629 L 32.64930142203847 5.445721913272953 L 32.859152801160626 5.962764139777234 L 32.67937210618373 6.832175551515292 L 33.78812197251676 7.2418431344385406 L 35.84741768620732 7.278053646905946 L 37.0568437441927 6.761031371097239 L 36.93393998513393 6.254523111856204 L 37.95508884616174 5.419367044419267 L 38.484622670954494 5.203979334998823 L 39.15209559687864 5.403546142828825 L 40.30987678855417 4.583552604028376 L 40.13401889886509 4.142901590878196 L 38.61406527010522 3.978248500303269 L 38.716048232241235 2.7603981903595747 L 38.48266251522899 2.481148304405708 L 38.78665373974832 1.1361921129579706 L 39.97189207460176 0.3800607506909454 L 39.97189207460176 0.3800008986042224 Z" fill="rgb(0,0,0)"/>
        </svg>