<svg 
          width="46.77345275878906" 
          height="46.37247085571289" fill="none" 
          xmlns="http://www.w3.org/2000/svg">
          <path d="M 4.020533561706543 11.108061790466309 L 4.719386577606201 10.008125305175781 L 4.349360942840576 9.236187934875488 L 4.567062854766846 8.158651351928711 L 4.037531852722168 7.235228061676025 L 2.9549272060394287 6.312469005584717 L 3.1366679668426514 5.33833122253418 L 3.9460079669952393 5.331727504730225 L 5.022727012634277 6.0680928230285645 L 6.889812469482422 4.700747013092041 L 7.046714782714844 4.1112589836120605 L 9.012526512145996 3.656797170639038 L 9.528331756591797 2.487696647644043 L 11.124775886535645 1.1322067975997925 L 12.183838844299316 1.2435166835784912 L 13.257286071777344 0.7574380040168762 L 13.727982521057129 0.8009105324745178 L 14.345117568969727 1.5287117958068848 L 15.753277778625488 1.2514221668243408 L 16.101726531982422 0.10208769142627716 L 16.4155216217041 0 L 16.750892639160156 0.3121984004974365 L 17.10064697265625 0.15280234813690186 L 16.76004981994629 1.6406850814819336 L 17.32096290588379 2.3513686656951904 L 17.769424438476562 2.3197269439697266 L 18.321191787719727 3.6389963626861572 L 19.428634643554688 4.360867023468018 L 19.933326721191406 4.195545673370361 L 20.475276947021484 4.625642776489258 L 21.316648483276367 4.509724140167236 L 21.450666427612305 5.5964884757995605 L 21.829181671142578 5.3165602684021 L 22.573801040649414 5.897484302520752 L 22.71893310546875 6.394760608673096 L 22.985004425048828 6.211662769317627 L 23.62632942199707 6.5765461921691895 L 23.936853408813477 7.134422302246094 L 24.328445434570312 7.046165466308594 L 24.75272560119629 6.061489105224609 L 25.67973518371582 6.450747013092041 L 26.081132888793945 6.04568338394165 L 26.56032943725586 6.031822204589844 L 27.440921783447266 5.1097211837768555 L 28.39081573486328 4.854167938232422 L 28.553592681884766 4.418798923492432 L 29.200145721435547 4.651304244995117 L 30.263795852661133 5.736746788024902 L 29.8702392578125 6.400002479553223 L 31.04959487915039 6.994762420654297 L 31.5052490234375 7.860218524932861 L 31.973331451416016 8.013026237487793 L 31.811201095581055 9.20254135131836 L 32.896419525146484 10.939383506774902 L 33.624691009521484 10.851126670837402 L 33.59919357299805 10.139789581298828 L 34.029361724853516 10.324867248535156 L 34.41311264038086 9.707717895507812 L 34.79751205444336 10.029796600341797 L 35.222442626953125 9.432413101196289 L 36.0494270324707 9.592462539672852 L 37.182369232177734 8.881120681762695 L 37.07188034057617 8.473418235778809 L 38.21723937988281 8.081526756286621 L 38.10479736328125 9.547009468078613 L 38.45586013793945 10.341336250305176 L 37.194786071777344 11.086265563964844 L 37.22944259643555 11.87203311920166 L 36.94636917114258 12.219141006469727 L 37.38307189941406 12.740127563476562 L 38.36891555786133 11.865445137023926 L 38.756587982177734 12.15722370147705 L 39.225318908691406 12.382481575012207 L 39.130523681640625 13.05759334564209 L 40.234703063964844 13.673426628112793 L 39.48616409301758 14.750314712524414 L 39.51427459716797 15.85749340057373 L 39.145565032958984 16.467395782470703 L 40.51711654663086 16.410062789916992 L 41.249305725097656 16.917882919311523 L 40.994346618652344 17.891357421875 L 41.31010818481445 18.484142303466797 L 42.00111770629883 18.72586441040039 L 43.14451217651367 20.33624839782715 L 43.68647384643555 20.463375091552734 L 42.59602737426758 23.800067901611328 L 43.05234146118164 24.27561378479004 L 42.86994171142578 24.640491485595703 L 43.18505096435547 25.43548583984375 L 43.80480194091797 25.47039031982422 L 44.508880615234375 26.67241859436035 L 42.80588150024414 28.232084274291992 L 42.94185256958008 28.770862579345703 L 43.38378143310547 28.678651809692383 L 44.02118682861328 29.28789520263672 L 43.7609977722168 30.116477966308594 L 44.4559326171875 30.43723487854004 L 44.4801139831543 31.257905960083008 L 45.5463752746582 32.39801788330078 L 45.666011810302734 32.94403839111328 L 46.473384857177734 33.6988525390625 L 46.77345275878906 34.705257415771484 L 45.05998992919922 34.83369827270508 L 44.33955764770508 34.19480895996094 L 44.01530075073242 33.26677322387695 L 41.998504638671875 33.43341827392578 L 41.817413330078125 32.99673843383789 L 41.28265380859375 32.76423263549805 L 40.485084533691406 33.24042510986328 L 39.56853103637695 33.2878303527832 L 39.21289825439453 32.638404846191406 L 38.87556457519531 32.387454986572266 L 38.57549285888672 32.58110809326172 L 38.01131820678711 31.889514923095703 L 37.218318939208984 31.932329177856445 L 37.15033721923828 32.288002014160156 L 36.81692123413086 32.203041076660156 L 36.318115234375 32.78593826293945 L 35.15772247314453 32.841243743896484 L 34.33596420288086 33.495277404785156 L 33.54493713378906 33.58353805541992 L 33.32984924316406 34.070274353027344 L 32.51594161987305 33.68825912475586 L 31.5954647064209 34.07422637939453 L 30.984216690063477 35.25056838989258 L 30.40630340576172 35.55815887451172 L 30.74428939819336 36.42230224609375 L 30.34877586364746 37.03549575805664 L 30.632505416870117 37.295005798339844 L 29.903575897216797 36.92024230957031 L 29.502836227416992 37.199501037597656 L 29.65384292602539 37.79557800292969 L 30.338321685791016 37.77119064331055 L 30.252674102783203 38.814491271972656 L 29.638811111450195 38.45289611816406 L 29.63750457763672 39.27356719970703 L 28.869352340698242 40.25033187866211 L 29.591747283935547 41.1763916015625 L 29.486486434936523 41.572235107421875 L 30.111473083496094 41.92461395263672 L 30.152002334594727 42.632652282714844 L 29.43353843688965 42.967247009277344 L 29.876123428344727 43.531044006347656 L 30.442913055419922 43.5185546875 L 30.543594360351562 44.005958557128906 L 30.38735008239746 44.35306167602539 L 28.74318504333496 45.302825927734375 L 27.402347564697266 45.64400100708008 L 27.15523910522461 46.05433654785156 L 27.317367553710938 46.37247085571289 L 26.87936019897461 46.169612884521484 L 26.42696762084961 45.34893035888672 L 26.112516403198242 45.92524719238281 L 25.148897171020508 45.99177169799805 L 25.654237747192383 45.483299255371094 L 25.615673065185547 45.08811569213867 L 24.93250274658203 45.827110290527344 L 24.18592643737793 45.140804290771484 L 23.70216178894043 45.27252960205078 L 22.895437240600586 44.782501220703125 L 22.22273826599121 44.847679138183594 L 21.986732482910156 44.12185287475586 L 21.24342918395996 43.873538970947266 L 20.976049423217773 43.46254348754883 L 21.60494613647461 42.948143005371094 L 21.52714729309082 41.49781036376953 L 20.501422882080078 40.632347106933594 L 19.91109275817871 40.46175765991211 L 19.62932777404785 40.673187255859375 L 19.293956756591797 40.11663055419922 L 19.422090530395508 39.521873474121094 L 19.16451644897461 39.7695198059082 L 18.817384719848633 39.57126998901367 L 18.110681533813477 38.196678161621094 L 17.4307918548584 38.6208381652832 L 16.928712844848633 38.21577835083008 L 16.852222442626953 37.66646957397461 L 16.300464630126953 38.049800872802734 L 15.516622543334961 37.1375732421875 L 14.113689422607422 36.484859466552734 L 13.962024688720703 35.69514083862305 L 14.328119277954102 34.786865234375 L 13.829312324523926 34.5069465637207 L 13.844345092773438 33.623050689697266 L 14.460831642150879 33.13959503173828 L 14.331391334533691 32.91302490234375 L 13.710326194763184 33.08559036254883 L 13.99797534942627 32.531009674072266 L 13.5723876953125 32.06205749511719 L 13.08600902557373 32.459877014160156 L 13.116074562072754 32.00080108642578 L 12.855229377746582 32.347904205322266 L 12.802928924560547 32.0146369934082 L 12.451218605041504 32.17007064819336 L 12.152456283569336 31.579261779785156 L 11.664761543273926 32.018585205078125 L 11.89946174621582 31.646455764770508 L 10.95479679107666 30.2784481048584 L 10.734490394592285 29.471601486206055 L 10.680225372314453 29.885229110717773 L 10.0872802734375 30.097972869873047 L 10.372316360473633 30.891651153564453 L 9.815322875976562 31.06487274169922 L 9.816629409790039 31.434370040893555 L 8.12996768951416 31.63459587097168 L 8.040409088134766 31.077383041381836 L 7.612855434417725 30.750699996948242 L 7.865860462188721 29.910924911499023 L 5.802639484405518 26.167837142944336 L 4.695196151733398 23.415359497070312 L 5.3744378089904785 23.45818328857422 L 4.3212504386901855 21.272136688232422 L 2.8124094009399414 20.551576614379883 L 1.5199636220932007 19.464807510375977 L 0.9662420153617859 19.211238861083984 L 0.27065110206604004 19.391708374023438 L 0 19.138124465942383 L 1.1368703842163086 17.793174743652344 L 0.5674576163291931 17.461219787597656 L 0.5994884371757507 16.658329010009766 L 2.157358407974243 16.024057388305664 L 3.6282830238342285 14.310256958007812 L 4.837055683135986 13.701013565063477 L 3.7256922721862793 12.219718933105469 L 4.020533561706543 11.108061790466309 Z" fill="rgb(0,0,0)"/>
        </svg>