<svg 
          width="42.790184020996094" 
          height="51.49554443359375" fill="none" 
          xmlns="http://www.w3.org/2000/svg">
          <path d="M 31.538589717144344 0.3833325613544825 L 32.090346179486886 0 L 32.16683714985937 0.5493123284091623 L 32.66891637792244 0.9543811667281347 L 33.34880618852196 0.5302095425500535 L 34.0555097352145 1.9048021214531017 L 34.40264187892758 2.103062105238892 L 34.660215346062145 1.8554042125370145 L 34.532081997805165 2.4501642132041925 L 34.86745320593281 3.0067186421531527 L 35.14921689257093 2.795291202840457 L 35.739548026591926 2.965879579329554 L 36.765273185632175 3.831340519870693 L 36.84307092662526 5.281675894088735 L 36.214175096274055 5.796074514661406 L 36.481554330737275 6.207078683312583 L 37.224857430154984 6.4553849734457085 L 37.460864194375446 7.181211033331075 L 38.13356177888752 7.116032128472893 L 38.94028814247166 7.606060980975694 L 39.42405263114978 7.47433654898116 L 40.17062764479312 8.160640291595618 L 40.853799344966525 7.421646776183346 L 40.89236404129673 7.816830047512044 L 40.38702287435627 8.325303313097606 L 41.35064151519894 8.258777736651448 L 41.66509441804866 7.682462149067033 L 42.11748643648402 8.503143765471599 L 42.55549400274448 8.706002383346709 L 42.790184020996094 8.922696804870165 L 42.4933874845469 9.870484268489752 L 41.89717089505906 10.330217997935573 L 41.16498033359061 11.818100571095489 L 40.48443215000667 12.137541047109192 L 40.13467648970413 12.926600819558992 L 40.359560740627074 13.111015024351339 L 38.38852170478087 14.04235314390739 L 38.28915726087369 14.774762931556209 L 37.15425191524935 16.293599000549445 L 36.773772182340224 18.079175797413477 L 36.29000769366211 18.43353995660877 L 36.64956912129331 19.459045333872385 L 35.859840751125276 21.119491401850432 L 36.18932650378608 21.87363746646374 L 35.85003498379662 22.179252114174194 L 36.595961599803786 23.62101866695465 L 36.41029044284721 24.116982849789654 L 36.697291187316 24.44565052001729 L 36.28804255005708 24.651810977119222 L 36.330537533597344 25.074655880399515 L 36.7947004629664 25.299250775239116 L 36.459977652474926 26.28524381057692 L 36.65937488862197 26.74893775202591 L 36.40179144613916 27.039389875190228 L 36.60380222352741 27.711867789501436 L 36.35798969197829 28.90994663692828 L 37.619063242254576 30.47620549650857 L 37.2902358625782 31.265255293613272 L 37.715165747284374 32.07275947914584 L 37.175828593511696 32.29669600120909 L 37.2457757354329 32.656975540046396 L 36.59333808321433 33.050852041167495 L 36.447558343905065 32.67937018978723 L 35.72582194740145 32.37969087240898 L 35.119799590584954 33.12791158203518 L 33.89860748260772 33.37950973605003 L 34.06662227316376 35.18419929411827 L 33.559315962618264 35.936370240402546 L 33.78355181590504 36.242643260889345 L 33.01801366524056 36.24330163366569 L 32.70160559413405 36.950693255813384 L 32.43029607246077 36.96520738292827 L 32.466257202898014 37.50265902601812 L 33.037625199897874 38.250879735644325 L 34.25686213961832 37.962392755463945 L 34.764168450163815 38.16722649166809 L 34.77136067625126 37.724630405097436 L 35.355806354805416 38.154717408917534 L 35.6800650249838 38.07568274972081 L 36.16187434540513 38.48799368857958 L 36.30700568707822 39.29087928933263 L 36.95681982270734 39.82043045910634 L 37.981238211126986 39.50230672864533 L 37.777272265481955 38.95431114578886 L 38.00870034485617 38.63289555144612 L 39.30965533743152 38.25219648119702 L 41.1826267246429 39.74205417268597 L 41.45197110271115 40.60290650379269 L 41.034881841728605 40.919055115924664 L 41.4735477809735 41.40184186788767 L 41.43170119506941 41.81283606119375 L 41.08326228073572 41.9827660649065 L 42.09460298760107 42.325259563437385 L 41.744198929662346 42.605187697525274 L 41.79192099568503 43.04054168355613 L 41.38202396078994 42.88181399238634 L 41.42320219836135 43.300060261577315 L 42.110294210396574 43.354056804582726 L 41.48138840469712 43.69260006645553 L 41.42582571495081 44.654881706499815 L 41.23296233190679 44.5001042519881 L 41.10482898364982 44.84128100496629 L 41.24473324284048 45.49202264231301 L 42.012884934746175 46.281082414762814 L 41.675548583013494 46.671647101312 L 42.041643863747716 46.8336866070537 L 41.79322776630564 47.236111978922196 L 41.10287381539303 47.21964268416847 L 40.96232115856619 47.95863619958074 L 40.3301434386411 47.79002294142068 L 40.33145020926171 48.36569013157384 L 39.33188041333005 48.3577796829126 L 38.46239913391214 49.17975809417967 L 38.28065826416563 49.03222274020775 L 37.859648691321276 49.50184203664385 L 37.3405714698421 48.941337371036816 L 36.996701265006394 49.51567784029219 L 37.16079574370062 49.14748785279365 L 36.74959193818492 49.04012321352389 L 36.76070447613418 49.40831320102244 L 36.419447812539694 49.64674389951038 L 35.21198178375294 48.97097412131745 L 34.97074793705006 49.62105738588782 L 35.60945951007816 49.843677162398386 L 35.772237242803534 50.236226942621705 L 34.599425573833415 50.18550231280783 L 34.284314297999266 51.49554443359375 L 33.787472127766854 51.21760139317999 L 33.35535001697323 51.47380815662926 L 33.0585435051758 50.84151093236531 L 33.51878612268303 50.81908635658918 L 33.10169686170049 50.35276889937991 L 33.37103126442049 48.775317702601754 L 33.68417739664961 48.750927983841684 L 33.850885416585044 47.434960508068656 L 33.58089264088061 47.34472353632897 L 33.57434881242934 46.214487010900974 L 34.16467994645034 43.93952975896539 L 32.64211261717768 42.653199033472994 L 31.96940505731736 42.887669519957775 L 31.834737855957357 43.73336930186346 L 29.915341197995648 44.67392464028835 L 30.036282320165178 45.88187907936037 L 29.20014862994331 46.02479584855277 L 28.368583649219435 46.63536677119733 L 28.372503961081247 45.57032910131771 L 27.212759998317175 45.40632445259207 L 27.813555272651254 45.171853966107285 L 27.142154483411538 44.72989630162279 L 27.310827646952003 44.43878580568212 L 27.815520416256287 44.52111232876057 L 27.44810838955321 43.77223324635803 L 26.158924307911555 44.03174184903412 L 25.59997561948156 43.42051255361321 L 24.822018160247215 43.39881617802911 L 25.869319997549812 44.181282247370355 L 25.073057774278755 44.60742898987748 L 25.855593918359343 45.025006910947006 L 25.67319467562841 45.61779179328515 L 25.06978586005312 45.774544366125895 L 24.861899602546274 45.26212086388226 L 24.439583259081314 45.07572156541578 L 23.429549322836564 45.2568538816715 L 23.92966340729461 45.6856241399389 L 23.123595416694894 46.193439032748124 L 23.458966624822537 46.59983459196488 L 23.280487693953418 47.496907401115685 L 23.721118776803337 47.74587206402516 L 23.645276204067038 48.29056580765481 L 24.058445153187765 48.64689510983404 L 23.369397972895765 49.165912315186226 L 22.208347239511088 48.22009996989567 L 21.682736164928883 48.539540445909374 L 20.4975051873889 48.278056724904246 L 20.693620533962054 47.58648600007903 L 20.029421946158035 47.46989416659534 L 19.957509660631796 47.216979267027796 L 20.161475606276827 46.937061108285 L 20.498811958009505 47.157047393690185 L 20.823719025824065 46.41606878460378 L 20.406629764841522 46.16182716413845 L 20.873406235451778 46.019558792377296 L 20.59229094644984 45.696826452481865 L 21.140785469915 45.60724785351853 L 21.076065410476208 45.33062155865746 L 21.49054113021754 45.028298774828734 L 21.217276440287478 44.79712015222568 L 20.791688182596882 45.38923668644238 L 20.75769219576467 44.93147807532559 L 20.12878639006522 44.72465924544731 L 21.382667714254055 43.49234501365052 L 21.91089233007747 43.56939457917311 L 21.893245939025185 43.93165921168454 L 22.274374069570484 43.76502107185352 L 21.619981249095122 43.02272571721442 L 21.728503062694784 42.69076618310506 L 21.155818319726073 42.418090124902065 L 21.259113050843318 41.807529177602596 L 20.382439545337967 41.2226447685806 L 19.940511667215688 40.43754520813397 L 19.486812878159725 40.051579155674105 L 17.859644047149214 39.833567988597956 L 17.96816586074888 39.05372543501699 L 15.927169707633212 37.674524246679525 L 15.776162885841533 36.79655422338782 L 14.923021226855308 36.60291282438155 L 14.55626757313666 34.48141628140499 L 14.140495058122971 33.896531872382994 L 14.343154233147397 33.13052512245037 L 13.709669742601708 31.72629579326669 L 14.386297614323842 30.95569040924475 L 14.31242018519257 30.400452725848478 L 13.267083491495004 30.310215754108793 L 13.206293719266275 29.55409457116645 L 12.527052306302933 29.466491090532145 L 12.740165646292194 28.554265732180298 L 12.260321469475892 28.331645955669735 L 12.800965393869173 27.60449317488658 L 12.732983395552996 26.456480584497264 L 12.217178088299448 26.571745697083166 L 12.043277842276567 27.018960368433333 L 11.628153724899056 26.864841286697963 L 11.686988328871003 25.961174774438607 L 10.376227568967 26.880652208675347 L 9.780669352463587 26.35110103890164 L 8.798745947584207 27.0097431495645 L 8.386235371447905 26.920164550601157 L 7.863886235743086 26.05997059227078 L 7.195108963092827 26.3023515274168 L 6.676031741613644 26.142307090694324 L 6.321048998828684 24.84082381600089 L 5.1436586450123265 24.22037730171115 L 3.9871865964738897 24.977166832774934 L 2.5306460972606257 24.71963334842788 L 2.416238828194119 25.367083121892872 L 1.7860262518740646 25.41252081880579 L 1.799103933428358 24.879677785150356 L 1.2663006327587039 23.99050544931569 L 0.9034772662501168 23.890392885930826 L 0.8734015912797167 23.503768460694616 L 1.061027916493068 23.235701011926036 L 1.5552565454842688 23.36084171615712 L 2.040986177767416 22.281319845197903 L 1.3859349843076285 21.70763774871887 L 1.918079911992856 18.718056749440883 L 1.6611648178427223 18.471057229515353 L 0.8289414641344189 18.900495835904195 L 0.09217221781973346 18.85833005218281 L 0 18.17004121589422 L 1.2081144264229349 16.935083517646945 L 0.9361565071134769 16.350199108624945 L 0.5445642362550941 16.26918933109919 L 0.7361108733302588 15.705392801610433 L 2.4868443430997544 16.317938842584027 L 2.3894350674493543 16.036035590167103 L 3.086322871464982 15.295056981080698 L 3.5406800335053736 15.412297211995636 L 4.597129265152201 14.925560223374562 L 5.260021082335616 15.45575979057952 L 5.6960734803392965 15.30955115750539 L 5.747715858223795 15.773235123609284 L 6.164805119206338 15.613839084318057 L 7.180076113281752 17.080643753289827 L 8.214300269030055 16.722997705557905 L 8.478407589267638 16.152617448305694 L 8.744480053110252 16.81586816840297 L 8.430037125608775 17.192607026648904 L 8.783713097773132 17.554213286383995 L 8.552285018398909 17.867728407410592 L 9.426335007314805 18.27345561850591 L 9.444639771351515 17.660251204755966 L 9.813358568675195 17.36188863293041 L 10.478863927099818 18.731214229622694 L 9.968944075313116 19.15537587845568 L 9.990520753575462 19.74684401524113 L 9.47798736054755 20.142027286569828 L 9.689793929916208 20.65774265269519 L 10.345503496360422 21.02856613129911 L 10.376227568967 21.98097217969821 L 11.36992188478007 21.635176841940506 L 11.484977551482753 21.313761247597764 L 11.157456942426984 20.97258449461957 L 11.666070023593083 20.016228209562403 L 12.113883357182203 20.196692177696676 L 11.907303870295962 19.650681688514336 L 12.501555316178772 19.374703791084517 L 13.39784035634144 17.849283994327827 L 14.320919181900624 18.604746804493825 L 14.93217859654779 18.51319308720145 L 15.10149018237618 18.8800663291473 L 15.710126080433888 18.8201145051195 L 15.87618570273314 18.396601253717762 L 16.862677817110512 18.681137997240068 L 16.97839185679762 17.836754960887074 L 17.8772904382015 17.571979376000222 L 18.212013248692966 17.860466356180602 L 18.663098496507722 17.778139833102156 L 19.350828930830872 18.809580540697972 L 20.52234380452863 19.057876855486004 L 21.244080201032244 18.667970541713164 L 21.491189527853717 18.81615429311633 L 22.065829439079213 17.88220263314509 L 22.59601919850766 18.030396359893352 L 24.314711849701723 16.881715421382594 L 23.529572139728174 16.572160512359165 L 23.278532525696637 15.938536567197426 L 23.79303106232958 15.693522140946026 L 23.61585890208106 14.548801414438437 L 23.95123011020871 14.378871410725685 L 23.7178468625777 14.207624661460244 L 24.492532407586417 13.151155813018208 L 23.611290192583073 12.669017458486454 L 23.903508044186022 12.667710688278861 L 23.79303106232958 12.288996711703891 L 24.44023165671749 12.92195230874419 L 25.422155061596868 13.093199058009633 L 25.778444575002435 12.784950919193799 L 25.462694876880356 12.442457420662915 L 26.340016780021884 12.78693601286793 L 26.499532573869867 12.308099497563 L 26.217110514247324 11.903030659244028 L 26.616553384177582 11.600707875415301 L 27.189886524782473 13.212414407253606 L 27.72006630886267 13.269024490674203 L 27.860628941037763 13.59440029702011 L 28.59673981436802 13.243337977051642 L 28.89615986740667 13.618111692313635 L 29.228259161308678 13.537091939442783 L 29.579321592231828 13.134008194797943 L 29.746678009803436 11.542721194371437 L 29.27270931310573 11.396502585952211 L 29.37861758546418 11.145552829368608 L 28.994875913677674 10.739835593618386 L 28.29078590822635 11.20615305082766 L 28.497375370460837 10.60612606794972 L 29.348541910493783 10.51589907155513 L 30.23502118332779 9.636602327365646 L 30.79004955989597 9.52594582421416 L 31.109729545228113 9.101125802604829 L 30.737748809027046 9.013522321970525 L 30.584776843630333 8.561040668409596 L 31.374505213798372 7.841129988166242 L 32.06681433296776 8.270568594555085 L 32.39499331500795 7.920174622708058 L 33.049396110831566 8.678270923979438 L 33.049396110831566 9.100467429828484 L 33.69333476634209 8.640075327606317 L 33.16641692113928 7.805567882898501 L 33.16772369175988 7.11332880995184 L 33.59788065894847 6.580485776296405 L 33.11476456790653 6.22416644946227 L 33.503743297523705 5.27900250160297 L 32.75324797201855 4.626944118703562 L 32.80293518164627 4.01045781641699 L 32.42768253121957 4.385221556333888 L 32.22240981495393 3.905726668252612 L 32.33681708402043 2.661551751136503 L 32.591777009913784 2.203134767243372 L 32.33093162855359 1.5635854670945237 L 31.52747717919508 0.860812429726338 L 31.538589717144344 0.3833325613544825 Z" fill="rgb(0,0,0)"/>
        </svg>