<svg 
          width="63.63349914550781" 
          height="50.62884521484375" fill="none" 
          xmlns="http://www.w3.org/2000/svg">
          <path d="M 2.3900924859773895 12.420032330364092 L 5.3803216336466475 12.752650490618006 L 7.451382659329676 12.3317704097209 L 8.279017022337072 12.105190248612233 L 9.151121470079389 10.746407556648865 L 9.897037812865053 11.135007396225744 L 10.759984894571781 13.10765334231895 L 11.173143703353967 12.754625610451567 L 11.25552009629721 12.21980705107497 L 11.710515498928265 12.670313929475498 L 11.62293197627851 12.117060918318991 L 11.834090063687396 11.993885263244156 L 12.234181171481975 12.29751504856711 L 12.473449779030613 12.026165504564384 L 12.776780047451316 12.364050651041127 L 13.090584427350635 12.045258329622145 L 12.942171255370788 11.858858889167951 L 13.267088168781703 11.832523958053798 L 13.724058689577296 12.78622752778855 L 13.283427782688344 13.117528941486757 L 13.269701708979225 13.568055770592675 L 13.779621357135285 13.863785076581385 L 13.56912164244791 13.980376998877682 L 13.854157129485966 14.396628516124421 L 14.48828976443414 14.488840676434737 L 15.040046006439072 14.948584731430609 L 14.970098892450451 15.366811368510911 L 15.477405000408991 15.257481502976395 L 16.01216325578577 16.033364435574445 L 16.449522249755688 15.244972410697173 L 16.395256376952194 14.691041075557422 L 16.99996174631759 14.575127477244369 L 17.091495505296425 14.147663663568725 L 18.26561347601642 14.428250384166795 L 18.548693795578465 13.485060836172313 L 20.14121760616422 12.383143476098889 L 20.65177567635326 12.653854597529152 L 20.676634234262508 13.542359262050987 L 21.30290629792959 13.387581689639166 L 21.5474219365618 14.753626438364316 L 22.511678614627403 14.69562973779701 L 22.81109854809609 14.149598881991507 L 23.67209046232681 14.106126294947764 L 23.984578096783103 13.732688991466913 L 23.838140042967794 14.532931735345555 L 24.16630891860921 14.646870213825048 L 25.260683987272014 13.889441683712294 L 25.005055815128205 13.386883414950534 L 26.801555465251795 12.869202511503524 L 26.808737713122845 12.425279365881535 L 29.60023805233784 12.063014457418808 L 30.03562192814322 12.458198029774225 L 30.28927498212249 11.844334775644388 L 30.72009015025434 11.844993148922242 L 30.833190603534856 11.274602481836146 L 32.03869100731364 11.592736429977275 L 31.831463205545298 10.006715203627387 L 32.476050001283554 9.6082397648827 L 33.025192703090966 7.9596531264313075 L 33.57958243598195 8.317289471243667 L 34.95504275535373 8.296899850335587 L 35.94808827696912 9.327014621712165 L 37.3202966341104 8.61040523482635 L 37.16208767406198 9.188038007968837 L 37.81192150088381 9.11296350358811 L 38.33034014235395 9.733410490496487 L 38.45191963826001 11.26672195320729 L 39.29591356586258 11.54401680741609 L 39.60251574720232 11.14290787555999 L 40.24187546254553 11.684310167715127 L 41.04598796377524 11.559817766084583 L 40.78840462415542 11.949075978939316 L 40.90346024491195 12.699282353701067 L 40.447806469559374 13.399432408640536 L 41.42776433949864 13.67539056558824 L 42.3149116063931 14.646890164530436 L 42.81633226123508 14.80563792731477 L 43.00265174142326 14.00405848617503 L 43.314481003158036 13.957313983447408 L 43.54852253031163 12.560345641368517 L 44.10943613835215 12.299510119106062 L 44.878894293604034 11.243698839187795 L 45.774520603124046 11.913543772640597 L 46.63942285230678 11.68498849169837 L 46.90353006707613 11.048740546121502 L 47.26310132646487 11.021747241729495 L 47.65533186297836 11.403104975249981 L 47.580157668594694 11.854270226928364 L 48.08223669615819 11.798966871588641 L 48.323460471182834 12.067044499907489 L 48.6215636592085 11.812792710423572 L 49.09684891207527 12.24420676376634 L 48.91837005247966 11.522988763935547 L 49.35638741917109 10.674006446790333 L 51.00315715187181 11.218042232056884 L 51.63533461934398 8.279163673244312 L 51.38756701848126 7.964999915475697 L 51.879171934566145 7.462441646713936 L 52.37929579465363 7.418310686392339 L 52.47669505606049 7.00732615536843 L 52.321758008931106 4.9102077583500705 L 53.20497499018502 3.922228876756138 L 53.74168841303781 3.675897517311856 L 54.29607814592879 3.9268374897011147 L 54.739302642326734 1.8995266108406512 L 55.374752022717935 2.17287122538233 L 55.674810378219604 1.8330109590720243 L 56.77375415455593 2.3309406641834185 L 56.78095635311551 1.630152186671485 L 57.09671590049084 1.3028010126404026 L 56.90255579971011 0.8068264766571801 L 57.69880772965872 1.0123386928745242 L 57.804725935068184 0.2641074379463354 L 58.25122234438516 0 L 58.61863422436646 0.561153490490752 L 59.675083034132406 0.5795879422706595 L 59.9986832021003 1.394993222245329 L 61.03224857212154 1.5497907453625381 L 61.091083152598564 1.9390489582172707 L 60.93941801838821 3.897190741492303 L 62.31423991572701 4.853547755043861 L 63.53935184633146 6.342748208138457 L 63.63349914550782 6.843969779639121 L 62.47833432889198 7.501305620812701 L 62.60777439607914 7.931402927599762 L 62.18675501601586 7.954465943030035 L 62.30967120805348 8.397072342096317 L 62.006979361665756 8.840357065145843 L 61.74353051961791 8.85681639709219 L 61.7749129526767 8.4853542134449 L 61.50883061974281 8.81531892988201 L 61.80497864029246 9.234882264223407 L 62.64045362389242 9.485842187318056 L 62.446293523111684 10.20243162349848 L 62.81304703037147 10.43625389066354 L 62.418183002971936 10.918382637106442 L 62.651586108092545 11.130478586102324 L 62.2560637079715 11.158130263772186 L 62.765324983406046 11.413020475828567 L 62.45610926186879 11.882640129992247 L 61.92003426104898 12.057827274017535 L 60.84201875698135 11.594811303337783 L 61.34734974677535 12.146747567938583 L 61.19438781781051 12.962152847913252 L 61.35193840513741 12.667081915202397 L 61.5742090260579 12.911438154813117 L 61.051860098947216 14.11478490108681 L 61.398343706659816 14.234010316494524 L 60.662881524664236 15.783801061857062 L 60.0339759701111 15.957671459326644 L 59.63715677523555 16.64397572472579 L 59.012839879044485 16.703289171848805 L 59.039633653741205 17.16828026236212 L 59.790797027610445 17.55029636916046 L 59.74959885579456 18.096307274260575 L 58.10544266329136 18.008723677600624 L 58.62777163971352 18.409832609456725 L 58.10282912309384 18.743767516266345 L 58.19761484430318 19.06651007735245 L 57.06794700762958 18.615983248246533 L 57.035267779816294 19.565756529019556 L 57.299374994585655 19.74884415237909 L 56.918895413616745 20.142072555606333 L 56.25010843269075 20.221775623637427 L 56.579594053775196 20.625518048604945 L 55.19300125020329 20.208588207374962 L 54.80011234096829 20.406838366830524 L 54.628835679932266 20.28039079607181 L 54.86156046164284 19.880578660066025 L 53.56911495724729 19.727776207487768 L 53.89139837977215 20.854731702825028 L 54.30653230671887 21.011484395070408 L 54.343800192894214 21.86838714225526 L 54.01365619908825 22.25237836888716 L 53.70966755794604 21.7412612475133 L 53.634473412873845 22.953825219676947 L 53.304349369756416 22.884676074796907 L 52.89378415048322 22.73384874205221 L 52.9905449898571 22.53294513877984 L 52.10471446840566 22.34193708538067 L 52.59045388206252 23.052621112765802 L 52.34857173431636 23.430028606619164 L 52.01188391467233 23.420153007451358 L 49.859763241489084 22.366975220644505 L 49.442674147066356 22.673258449784267 L 48.87587508590928 22.147657116297623 L 48.60522404530185 22.41044780768825 L 48.550319750465384 22.683792422229928 L 47.85996607523771 23.176455141118492 L 47.47816974882577 22.875458848906952 L 47.846240001528585 23.928636635713804 L 47.46705721531418 25.0325091649154 L 46.728981493121076 25.17874783542051 L 46.640719647061275 24.936366715643352 L 46.12295937831265 24.925174369919837 L 44.72459566850763 25.27558855938119 L 43.86230695952242 25.907227892013083 L 42.64701076767507 25.897352292845277 L 42.64373885475603 26.2042739445575 L 41.840943098969355 26.574439332354473 L 41.52648034634852 27.19225282615143 L 41.46830413859301 27.889091063996243 L 41.71802690693173 28.09526165349144 L 40.73479712407344 28.677483088873515 L 40.928318802821195 28.907355116371452 L 40.73284195659743 29.03118914472414 L 40.43864910352379 28.715688689694428 L 39.95554318075298 29.03777287750268 L 39.70189012677371 28.79736687755908 L 39.89473348211142 28.288883249296635 L 39.651554539610764 28.493737092236127 L 38.61928596434402 28.238826929474357 L 38.60883180355393 26.822087438354462 L 37.26864430150443 26.581681438410865 L 36.77508421794354 27.063151811575914 L 37.273891332588 27.93124690448428 L 35.85982643090932 28.51480503712745 L 34.79422025510779 28.280982769962392 L 34.75108686650442 29.181358104190984 L 35.200196816018924 29.76952484977913 L 34.79749216802682 29.85515327731091 L 34.957656295551246 30.468996580735357 L 34.25096300641693 31.37398052790893 L 34.322885238570095 32.388294340617016 L 34.677867839596765 32.400125108912995 L 35.4643239814768 33.36635772163236 L 37.132680359167736 33.15625684317543 L 37.28434549337808 33.6772495637171 L 38.496389722994934 34.058607297237586 L 38.68139245774008 34.68761313675806 L 39.535182173411215 35.41738998920095 L 40.70930014413121 35.099256041059824 L 42.006992679610335 35.679522307313725 L 42.32404902174016 35.37391740215721 L 43.434105331588086 35.44637836413191 L 43.638081171125926 35.79874772272144 L 44.02183266501386 35.48653913408099 L 43.72175435882367 36.125440523474666 L 43.25891833560004 36.274951109663654 L 43.06539665685229 36.04902932183284 L 42.5509083010227 36.436970788131866 L 42.96406710980489 36.835446226876556 L 42.5509083010227 37.37355665264242 L 42.32275222698566 38.62169273251557 L 43.56029343654474 39.737435931423924 L 44.007448218583235 39.45291892186412 L 45.08350855517485 40.15502414593176 L 45.546364529087 41.604702251649734 L 47.02774305386825 41.65477852217741 L 47.557274228849984 42.746820283083025 L 47.42849253438434 43.10776844499004 L 46.82835587269247 43.0899724157826 L 47.05912548692703 43.83820367071078 L 48.177022417367525 44.27093447060926 L 47.97502169599423 45.33069599019465 L 48.75559238475771 45.78186124187303 L 48.74839018619813 46.404941721892826 L 47.799814749317655 46.4464591398084 L 47.738366628643114 46.22975457786754 L 47.710914481224876 46.61374580449944 L 47.57754412839717 46.974035593128605 L 47.24740013459121 46.97206047329504 L 47.12516226596364 47.008290954282394 L 46.51914015115521 46.950294253715086 L 45.53852390849444 46.684191745229796 L 45.462671390700734 46.26794022798306 L 44.71479988043906 46.06837332197179 L 44.54416164143602 45.72719630910578 L 43.91330091940688 45.72196922429372 L 43.46941805028742 45.08835477182827 L 42.62739924084939 45.34851197010748 L 42.55809054889375 45.67191290447144 L 41.45523643760541 45.02181916935425 L 40.45696383559497 43.53788570248249 L 38.096298615200354 42.953669196561464 L 37.15424705346942 41.78589455799727 L 36.928704519629896 42.42477599668555 L 36.20696841134344 42.732375972381014 L 35.99124161626102 43.38310813007067 L 36.74761211983677 43.852069410956496 L 36.91825035883981 44.58250463667724 L 36.53056857931133 45.12917391505521 L 36.90713782532821 45.25893330290858 L 36.74304341216324 45.5474205028409 L 37.21962545978451 45.603382231458475 L 36.214170609903015 46.53404273646834 L 36.99342455322348 47.39489572332032 L 36.63387324452327 48.523148014507896 L 35.84219002224819 49.85230390896784 L 35.42639772257995 50.063721533980484 L 35.33290879612511 50.62884521484375 L 33.353381529420915 50.28700982869988 L 33.72536211707575 48.993426041949434 L 34.31111433233698 48.99669795763331 L 33.918205472413455 48.495476386132644 L 32.26882219951521 49.414286172141146 L 31.764129631754198 48.799764544733456 L 31.031280989956137 49.034903558454225 L 30.32654286829783 48.854429477500716 L 28.339813403034054 47.788742598414636 L 27.913566942575734 47.84869446811012 L 27.843619828587112 48.366375371557126 L 27.363127446013827 48.286692254231426 L 27.04932306611451 48.55145806545561 L 26.10270279671004 50.13089555902696 L 25.826824675707577 49.49662273328366 L 25.302520581120884 49.126457345486685 L 25.280295514097688 49.42218665147539 L 25.07109259416481 49.09353868159399 L 24.569671939322827 49.152832178011614 L 24.248685311552457 48.664119698790174 L 23.543288817172634 48.4974714566716 L 22.973876215818038 48.953265272000344 L 22.66661566175679 48.882779429859205 L 23.266752323448657 48.47903700489169 L 23.9074287842349 46.10723729607056 L 24.508882191369796 45.835887752067826 L 24.50299673825324 45.48417676675615 L 24.146039019062027 45.48613193588432 L 24.21468933829615 45.08633975058393 L 23.955809203921838 44.97503476521585 L 23.79760024387342 43.04979169512812 L 22.321448799487214 43.63666164486595 L 22.221416047194307 43.45552919063459 L 21.48922577811776 43.94555841641174 L 21.252570710766644 43.57144278894764 L 20.65113725432028 43.82174433876444 L 20.311835894478733 43.5180946027361 L 19.558717353133485 43.58989719143294 L 19.437117906538894 43.99363961640046 L 16.464545118219302 43.91525329492507 L 15.780735268829693 44.124057377531685 L 15.7938029698173 44.45468046724665 L 15.38652961415167 44.522532816276374 L 15.08842642612601 44.9717229481212 L 13.21543583617573 45.14232142990689 L 12.631658739079034 44.60223588430747 L 11.91383296574459 44.63052598454979 L 11.34378194235701 44.19845355792917 L 11.104493384119841 43.1610966804962 L 9.291674070778143 42.4201274823298 L 9.326328416755961 41.69691441196005 L 10.35728024657968 40.70237174829297 L 11.308469223657678 40.73401356704073 L 12.276676138052359 40.22157969911117 L 12.34203459367892 39.23691263461189 L 12.736240248356943 38.82327465977118 L 13.161189914060769 38.81738920168127 L 13.76655365614768 37.3874822450043 L 14.318968270874123 37.31370453647389 L 14.58112031816747 36.208495310011195 L 14.328105686221182 35.66775139113391 L 13.069656155081935 35.87324365664587 L 12.971598520953563 35.46225912562196 L 12.22829571836542 35.64734181952045 L 11.856315130710591 34.94324152491385 L 11.282313870993935 35.8343796825471 L 11.028660817014666 34.08238853806188 L 9.718558953269447 33.23406459419452 L 10.218682813356935 30.37618589926336 L 9.851270933375638 29.718211635517314 L 9.346578365614619 30.035008886397343 L 8.789595043214645 29.610856889816358 L 8.83993063037759 28.502335846259005 L 9.567552191780608 27.173858275782305 L 9.353122191452687 25.856553100323726 L 8.407160294769731 26.0047668906624 L 8.371189203348887 26.89327155518423 L 6.176573563595258 26.347919023361975 L 5.353507908261392 25.105049929711658 L 5.554211834880194 24.023562091957093 L 5.0894006934920375 23.036241583641015 L 3.252381194962604 22.40196875789771 L 3.456995456533423 22.08054294336731 L 3.0006833084593425 21.873075558021792 L 2.5071232248984523 19.922814303375617 L 1.697783643273705 19.708763185251563 L 1.393136629409976 19.08897457162104 L 0 18.824867133674704 L 1.0721500016396068 16.350321292097593 L 0.7165090278914187 15.619227693098994 L 1.7494160251911464 14.864432656097655 L 1.4552431228060327 14.276245959804116 L 1.0479498164518726 14.203146575256952 L 0.7923415949965945 13.495754414261091 L 0.9512089277665273 12.809450148861941 L 2.3900924859773895 12.420032330364092 Z" fill="rgb(0,0,0)"/>
        </svg>