<svg width="106" height="80" viewBox="0 0 106 80" fill="none" xmlns="http://www.w3.org/2000/svg">
<mask id="path-1-inside-1" fill="white">
<path d="M31.3941 0.786423L32.1753 1.70392L33.7365 1.63871L34.8426 1.57285L35.818 0.786423L36.8588 0.393211L37.9002 0.917493L39.0057 2.5562L40.3066 4.45705L41.9985 6.42311L42.7333 7.89123L44.9449 9.33301L47.0918 10.3816L48.9131 12.0861L51.06 12.8067L52.7513 14.5765L53.7927 15.494L55.5486 15.6903L57.0451 17.329L57.1098 18.5086L56.7849 19.492L57.2405 20.7375L58.0211 21.9171L59.7771 22.4414H61.924L64.3311 23.1626L65.7621 24.4733L66.3479 26.1772L66.9983 27.3568L69.2753 27.619L71.8916 26.4143L74.1542 25.8492H75.9755L77.2961 23.7521L78.7925 22.4414L80.5491 22.0482L81.9802 21.458L83.2811 20.4753L85.5581 20.2784L87.4448 20.8685L88.6157 21.5239L89.3963 21.0648V19.3609L90.1115 18.5086L91.283 18.1812L92.9088 19.492L93.7548 20.4753L94.7955 20.7375L96.8123 21.1959L98.3735 21.6549L99.6744 21.0648L100.585 20.7375L101.431 22.1134L102.212 23.4247L103.318 24.0142L104.683 24.9976L105.074 26.0461L104.749 27.1606L104.944 28.3402L104.879 29.1918L104.294 30.3063L104.228 31.0927L103.578 32.0102L103.448 32.9935L103.513 34.6974L102.992 36.0081L102.472 37.2536L102.082 38.1711L101.821 39.6129L100.845 40.1379L99.7784 40.6094L98.4127 41.2648V42.5755L97.8923 43.4278L96.6561 43.3619L95.2898 43.4278L94.6393 44.0173L94.7694 44.7385L95.3551 45.7871L95.6886 47.161L95.1191 49.6184L93.7777 51.0931L92.9644 51.4204L91.6634 51.0931L90.1997 50.6018L89.3047 51.0114L88.0038 51.2571L87.2317 51.5028L86.9061 52.2813L87.1905 53.428L87.6789 54.4522L88.2483 55.3947L89.1426 56.8688L88.8988 57.7705L88.2071 58.385L87.2317 58.794L87.0689 59.6957L87.1905 60.7607L86.878 61.2323L88.8975 63.1022L89.0125 64.2067L90.5246 64.8199L93.5953 65.0241L93.6724 65.5339L92.8435 67.4512L92.8101 68.2956L94.1254 69.7637L94.4353 71.1745L95.2852 71.876L95.7088 73.3296L95.4499 74.3624L94.1176 74.7088L92.259 76.3205L91.5222 75.7297L90.7639 75.9339L89.7179 76.6907L89.4159 78.1957L88.6601 78.0067L87.6743 78.666L86.8192 78.2708L84.992 76.5122L84.7527 75.0065L84.9802 74.5099L84.5095 72.9167L83.257 73.68L82.8641 74.367L81.7586 74.2814L80.9473 74.9183L80.4968 74.8162L79.9431 75.1976L79.9229 75.9194L79.5352 75.6276L78.5493 76.5023L78.1126 75.9813L78.3957 75.6342L78.3611 74.8485L79.6221 74.1035L79.2711 73.3092L79.3835 71.8437L78.2382 72.2356L78.3486 72.6433L77.2157 73.3547L76.3887 73.1946L75.9638 73.792L75.5794 73.4699L75.1956 74.0871L74.7655 73.902L74.791 74.6133L74.0627 74.7016L72.9775 72.9647L73.1396 71.7752L72.6715 71.6224L72.2159 70.757L71.0365 70.1622L71.4301 69.4989L70.3664 68.4135L69.7199 68.181L69.5571 68.6164L68.6072 68.8719L67.7266 69.794L67.2474 69.8079L66.846 70.2129L65.919 69.8237L65.4947 70.8084L65.1031 70.8966L64.7926 70.3387L64.1513 69.9739L63.8852 70.157L63.7401 69.6597L62.9955 69.0788L62.6169 69.3587L62.4829 68.2719L61.6416 68.3878L61.0996 67.9577L60.5949 68.1231L59.4875 67.4012L58.9357 66.0819L58.4872 66.1136L57.9263 65.4029L58.2669 63.915L57.9172 64.0744L57.5818 63.7622L57.268 63.8643L56.9196 65.0136L55.5114 65.2909L54.8943 64.5631L54.4236 64.5196L53.3501 65.0057L52.291 64.8944L50.6946 66.2499L50.1788 67.419L48.213 67.8735L48.0561 68.463L46.189 69.8303L45.1123 69.0939L44.3029 69.1005L44.1212 70.0747L45.2038 70.9974L45.7333 71.9209L45.5156 72.9984L45.8857 73.7703L45.1868 74.8703L44.2533 76.3213L43.4544 76.4951L42.9837 77.441L40.4883 78.5666L40.1059 79.7495L39.9549 79.1949L39.647 79.0757L39.7084 78.7102L38.9252 78.9664L37.657 78.7543L35.9213 77.6504L35.8258 77.3389L35.1544 77.4989L34.3765 76.4352L33.7469 76.2396L32.9631 76.9595L30.9927 76.1718L29.1191 76.3555L28.3496 74.3025L28.8151 73.5378L28.4581 72.5525L29.1001 70.5726L28.3464 70.8473L27.9665 71.911L26.8349 72.1883L26.0602 72.6724L24.1735 72.4754L23.2628 71.8201L21.8965 71.1647L20.8558 70.1814L19.2292 69.5919L17.8636 68.6085H15.782L15.3264 67.6258L14.6105 66.9698L13.6999 66.1834L14.0902 64.5453L13.505 63.365L13.3096 61.3338L14.0254 60.4815L13.505 58.3844L13.83 57.5973L13.8953 56.6146L12.9193 55.6312L12.9847 54.7137L13.6351 53.9273L13.1141 51.8954L12.1387 50.9127L12.2034 49.0118L12.0086 47.4779L11.3582 45.8398L11.6183 44.2011V43.0867L12.4636 42.1692L13.8953 41.776L15.0008 41.3175L15.0662 40.072L15.9115 38.5644L16.8222 38.4333L19.0344 38.3681L19.815 37.778L20.3354 35.8119L20.9211 34.5664V33.2557L19.7496 32.0761L18.1238 31.3549L16.8222 30.9617L16.0416 30.3715L15.5866 29.3888L15.8468 28.3403L16.7574 27.7501L17.1477 26.9637L16.4972 25.5219L15.1309 25.5871L13.5698 25.3908L12.2688 24.9976L9.99183 24.8007L8.7556 23.6606L8.1705 22.4809L7.71484 20.777L5.95888 19.9247L3.94208 19.4657L2.64048 20.318L1.21008 20.3832L0.689049 19.5967L0.624329 18.155L0.949894 17.4337L0.624329 16.3852L0.884521 15.3366L1.53499 13.829L3.09613 12.7152L4.72265 11.3386L6.21907 9.69993L7.65012 7.86495L8.23587 6.02996L9.53617 5.17833L11.553 5.37461L14.0902 5.63675L16.9529 5.76782L18.3186 5.43981L17.083 4.0639L15.9925 3.45795L16.5345 2.67416L17.8636 2.4904L19.0344 3.53962L20.7257 3.93217L21.5709 2.88427L22.7425 2.62213L23.8479 2.09719L24.7586 1.63877L26.1903 0.917554L27.1663 0.131131L28.5974 0L29.7029 0.196935L31.3941 0.786423Z"/>
</mask>
<path d="M31.3941 0.786423L32.1753 1.70392L33.7365 1.63871L34.8426 1.57285L35.818 0.786423L36.8588 0.393211L37.9002 0.917493L39.0057 2.5562L40.3066 4.45705L41.9985 6.42311L42.7333 7.89123L44.9449 9.33301L47.0918 10.3816L48.9131 12.0861L51.06 12.8067L52.7513 14.5765L53.7927 15.494L55.5486 15.6903L57.0451 17.329L57.1098 18.5086L56.7849 19.492L57.2405 20.7375L58.0211 21.9171L59.7771 22.4414H61.924L64.3311 23.1626L65.7621 24.4733L66.3479 26.1772L66.9983 27.3568L69.2753 27.619L71.8916 26.4143L74.1542 25.8492H75.9755L77.2961 23.7521L78.7925 22.4414L80.5491 22.0482L81.9802 21.458L83.2811 20.4753L85.5581 20.2784L87.4448 20.8685L88.6157 21.5239L89.3963 21.0648V19.3609L90.1115 18.5086L91.283 18.1812L92.9088 19.492L93.7548 20.4753L94.7955 20.7375L96.8123 21.1959L98.3735 21.6549L99.6744 21.0648L100.585 20.7375L101.431 22.1134L102.212 23.4247L103.318 24.0142L104.683 24.9976L105.074 26.0461L104.749 27.1606L104.944 28.3402L104.879 29.1918L104.294 30.3063L104.228 31.0927L103.578 32.0102L103.448 32.9935L103.513 34.6974L102.992 36.0081L102.472 37.2536L102.082 38.1711L101.821 39.6129L100.845 40.1379L99.7784 40.6094L98.4127 41.2648V42.5755L97.8923 43.4278L96.6561 43.3619L95.2898 43.4278L94.6393 44.0173L94.7694 44.7385L95.3551 45.7871L95.6886 47.161L95.1191 49.6184L93.7777 51.0931L92.9644 51.4204L91.6634 51.0931L90.1997 50.6018L89.3047 51.0114L88.0038 51.2571L87.2317 51.5028L86.9061 52.2813L87.1905 53.428L87.6789 54.4522L88.2483 55.3947L89.1426 56.8688L88.8988 57.7705L88.2071 58.385L87.2317 58.794L87.0689 59.6957L87.1905 60.7607L86.878 61.2323L88.8975 63.1022L89.0125 64.2067L90.5246 64.8199L93.5953 65.0241L93.6724 65.5339L92.8435 67.4512L92.8101 68.2956L94.1254 69.7637L94.4353 71.1745L95.2852 71.876L95.7088 73.3296L95.4499 74.3624L94.1176 74.7088L92.259 76.3205L91.5222 75.7297L90.7639 75.9339L89.7179 76.6907L89.4159 78.1957L88.6601 78.0067L87.6743 78.666L86.8192 78.2708L84.992 76.5122L84.7527 75.0065L84.9802 74.5099L84.5095 72.9167L83.257 73.68L82.8641 74.367L81.7586 74.2814L80.9473 74.9183L80.4968 74.8162L79.9431 75.1976L79.9229 75.9194L79.5352 75.6276L78.5493 76.5023L78.1126 75.9813L78.3957 75.6342L78.3611 74.8485L79.6221 74.1035L79.2711 73.3092L79.3835 71.8437L78.2382 72.2356L78.3486 72.6433L77.2157 73.3547L76.3887 73.1946L75.9638 73.792L75.5794 73.4699L75.1956 74.0871L74.7655 73.902L74.791 74.6133L74.0627 74.7016L72.9775 72.9647L73.1396 71.7752L72.6715 71.6224L72.2159 70.757L71.0365 70.1622L71.4301 69.4989L70.3664 68.4135L69.7199 68.181L69.5571 68.6164L68.6072 68.8719L67.7266 69.794L67.2474 69.8079L66.846 70.2129L65.919 69.8237L65.4947 70.8084L65.1031 70.8966L64.7926 70.3387L64.1513 69.9739L63.8852 70.157L63.7401 69.6597L62.9955 69.0788L62.6169 69.3587L62.4829 68.2719L61.6416 68.3878L61.0996 67.9577L60.5949 68.1231L59.4875 67.4012L58.9357 66.0819L58.4872 66.1136L57.9263 65.4029L58.2669 63.915L57.9172 64.0744L57.5818 63.7622L57.268 63.8643L56.9196 65.0136L55.5114 65.2909L54.8943 64.5631L54.4236 64.5196L53.3501 65.0057L52.291 64.8944L50.6946 66.2499L50.1788 67.419L48.213 67.8735L48.0561 68.463L46.189 69.8303L45.1123 69.0939L44.3029 69.1005L44.1212 70.0747L45.2038 70.9974L45.7333 71.9209L45.5156 72.9984L45.8857 73.7703L45.1868 74.8703L44.2533 76.3213L43.4544 76.4951L42.9837 77.441L40.4883 78.5666L40.1059 79.7495L39.9549 79.1949L39.647 79.0757L39.7084 78.7102L38.9252 78.9664L37.657 78.7543L35.9213 77.6504L35.8258 77.3389L35.1544 77.4989L34.3765 76.4352L33.7469 76.2396L32.9631 76.9595L30.9927 76.1718L29.1191 76.3555L28.3496 74.3025L28.8151 73.5378L28.4581 72.5525L29.1001 70.5726L28.3464 70.8473L27.9665 71.911L26.8349 72.1883L26.0602 72.6724L24.1735 72.4754L23.2628 71.8201L21.8965 71.1647L20.8558 70.1814L19.2292 69.5919L17.8636 68.6085H15.782L15.3264 67.6258L14.6105 66.9698L13.6999 66.1834L14.0902 64.5453L13.505 63.365L13.3096 61.3338L14.0254 60.4815L13.505 58.3844L13.83 57.5973L13.8953 56.6146L12.9193 55.6312L12.9847 54.7137L13.6351 53.9273L13.1141 51.8954L12.1387 50.9127L12.2034 49.0118L12.0086 47.4779L11.3582 45.8398L11.6183 44.2011V43.0867L12.4636 42.1692L13.8953 41.776L15.0008 41.3175L15.0662 40.072L15.9115 38.5644L16.8222 38.4333L19.0344 38.3681L19.815 37.778L20.3354 35.8119L20.9211 34.5664V33.2557L19.7496 32.0761L18.1238 31.3549L16.8222 30.9617L16.0416 30.3715L15.5866 29.3888L15.8468 28.3403L16.7574 27.7501L17.1477 26.9637L16.4972 25.5219L15.1309 25.5871L13.5698 25.3908L12.2688 24.9976L9.99183 24.8007L8.7556 23.6606L8.1705 22.4809L7.71484 20.777L5.95888 19.9247L3.94208 19.4657L2.64048 20.318L1.21008 20.3832L0.689049 19.5967L0.624329 18.155L0.949894 17.4337L0.624329 16.3852L0.884521 15.3366L1.53499 13.829L3.09613 12.7152L4.72265 11.3386L6.21907 9.69993L7.65012 7.86495L8.23587 6.02996L9.53617 5.17833L11.553 5.37461L14.0902 5.63675L16.9529 5.76782L18.3186 5.43981L17.083 4.0639L15.9925 3.45795L16.5345 2.67416L17.8636 2.4904L19.0344 3.53962L20.7257 3.93217L21.5709 2.88427L22.7425 2.62213L23.8479 2.09719L24.7586 1.63877L26.1903 0.917554L27.1663 0.131131L28.5974 0L29.7029 0.196935L31.3941 0.786423Z" fill="#050505" stroke="#FCFCFC" stroke-width="6" mask="url(#path-1-inside-1)"/>
</svg>
