<svg 
          width="61.33952331542969" 
          height="97.6553955078125" fill="none" 
          xmlns="http://www.w3.org/2000/svg">
          <path d="M 0.42231627250927145 40.18780851361213 L 0.018958146161750532 39.89537118019514 L 0.5262643714719242 39.78801647347411 L 0.4850761654725198 39.225526489959385 L 1.4944565468153936 38.72035486221674 L 1.8082560116316353 38.261269347190236 L 2.1194369479724973 38.89422519655492 L 2.695388520723916 38.921238441843954 L 3.689731067108179 38.43186776703256 L 4.024453821361028 37.428746664275934 L 3.4112393414866315 37.31610502254634 L 3.8165576234357226 36.752976616690965 L 4.080674874645756 37.32005526077915 L 4.328442532822846 37.30822449677886 L 4.059098200008626 36.61599512322384 L 5.131896847188558 34.6295240595728 L 4.667075622932263 34.398335369462544 L 4.034259587042165 34.70657365581079 L 3.734839584310724 34.45234190934246 L 4.644202153240658 33.629694822010194 L 5.390118668574022 33.96231286149226 L 5.345668524245287 33.11067740975455 L 5.71634242754678 32.522510877726546 L 5.5823236463401935 31.91128133864233 L 4.478800931715804 31.53455230556052 L 4.461154543628386 31.20456775823366 L 3.5315220704623687 31.04384493397337 L 3.2654496513240514 31.38370507688226 L 3.4694155626996435 31.04911191828379 L 3.1177047932331874 30.56897841671376 L 3.1510424014797382 29.795729257989795 L 3.392276207651595 29.6330313146131 L 3.6465876931804915 30.00319656800503 L 3.748565661195001 29.580999893849587 L 3.386390753173598 29.49273800525382 L 3.33474838396582 28.754402568284505 L 2.752262959209167 28.656923457145506 L 2.801291787614852 28.03384320336285 L 2.375050216229154 28.41388405233681 L 2.1612785391724247 28.14448977527789 L 2.60778502712092 28.022630911005066 L 2.47965170039233 27.433806005938262 L 2.996105318509831 28.04108530678967 L 3.205308286836183 27.30670010805317 L 3.700843603190363 27.255307109630316 L 3.6596553971909587 27.516800910223616 L 4.033601214168355 27.67157842643654 L 4.21926236458272 26.945752077204467 L 5.163269312160252 26.572294958618524 L 5.231261274400974 25.772032554605524 L 5.513683286572235 26.26008648333932 L 6.244566954620274 26.16589923739433 L 6.55444112056009 27.327109672256036 L 7.406924263331486 26.987249529347142 L 7.495176154461719 26.54396496725189 L 8.146306926659616 26.576923520588284 L 7.737716731034621 26.103353798708135 L 8.225411424982521 25.567877060482445 L 8.253521951624885 24.99221961619168 L 10.399109270638176 24.196565823450296 L 11.341151074940852 24.209114812583827 L 11.179031742438474 22.978096884910958 L 11.892259047052523 22.663933241213492 L 11.935412396326784 22.270066558424684 L 11.384952821742349 21.980262717162898 L 11.540548277586067 21.759607995673473 L 12.798349702306554 21.751707519207848 L 12.820574774470922 21.979604344124095 L 13.62141554803454 21.650278169836035 L 14.315689694160126 22.726498630597835 L 14.979898145715064 22.726498630597835 L 14.891636279238258 23.177683669158714 L 15.338801140060562 23.202063422292536 L 16.25469756099573 22.71664298571395 L 16.33249528891759 21.562694604977214 L 17.11045261744303 21.594994785274807 L 17.787070400134624 21.253139572551365 L 18.283264089362614 21.43822219924733 L 18.787956773870697 21.12471692858867 L 19.124634696051828 21.73263465178073 L 20.189582745478905 21.435588707092123 L 20.26410855972486 20.803291230766234 L 20.725657870305255 20.87046523142219 L 20.74134909046439 21.35063863438851 L 21.211387420978298 21.616721095555278 L 21.61605730540015 21.48432826266162 L 21.584016492208075 20.402840817589407 L 21.194389430418116 20.392965222007376 L 21.66835804748174 20.014241119111016 L 21.669664817882786 19.56505115036469 L 20.97865261008653 18.475643278128704 L 21.44542900227111 17.928315825204574 L 21.414704934826652 17.16625900814024 L 20.67662904189957 16.565563437676854 L 20.774686698710937 16.005068523976686 L 20.387673177723077 15.897713817255655 L 20.302024852048362 15.422168976259098 L 20.81194461816063 15.293726381598256 L 21.0825957213759 14.063386777662334 L 21.656587138525747 14.34461181872155 L 21.84290666181392 14.996022063870843 L 22.470495616099832 14.862970857938386 L 23.36416696487063 15.60593485687746 L 23.670769217134545 14.849145024123542 L 24.180040585719574 15.381329897155224 L 24.525865900708034 14.92882811251674 L 24.61346939431103 15.843048904336936 L 25.1266610740992 16.26720074691064 L 26.815287741955622 15.833811731095562 L 27.146080209658756 16.181592301168223 L 27.727253876341077 15.660599769796178 L 28.300586920617114 16.02613646121835 L 28.473180367021012 16.653825326272624 L 28.42610670654361 15.913514770186904 L 29.411960232994357 15.542032770717368 L 29.84277550078372 16.175666943819003 L 30.76978445780107 15.897055444216852 L 30.888112018848524 16.461500596149833 L 31.290816759995522 16.44438289714098 L 31.65168489761588 15.6184439446147 L 31.0214724271813 15.536107413368148 L 31.174454342222926 14.683833539289784 L 30.63380053331963 14.714098748376534 L 30.59457747059508 14.18981435181048 L 31.199951328063197 13.83481162900914 L 30.767819314526214 13.822322491970047 L 31.077693480466028 13.422510501133875 L 30.720755629395388 13.130073167716878 L 30.606348379551072 12.378570269971524 L 31.755628008905244 12.244202317961463 L 31.934096934440564 11.66591138151549 L 32.76304823464655 11.432089199250026 L 32.72251840152095 10.6720075013021 L 33.233086565160455 10.647627748168276 L 33.23374493803427 10.019280510075202 L 33.912327864000716 10.003459606445805 L 33.91167946647348 10.835982289360107 L 34.47585514259562 9.88491255806514 L 35.14267713495265 11.042152803995885 L 35.51727134945729 11.156091241104937 L 35.62121446074665 10.492830281257206 L 36.024577574767456 10.335419272889071 L 35.86179986939127 9.689954335787142 L 36.50573841671012 9.615518281006217 L 36.85352887497344 9.04841968621988 L 36.15990312637509 8.608446940016783 L 36.20370487317659 8.018305288872373 L 37.05357447514589 8.445768947338232 L 38.60883075932296 7.771974018869669 L 38.62582874988315 6.070039812170004 L 39.13116983191846 5.977169312302619 L 39.02657832310186 5.485803567676668 L 39.31748935520664 5.148576916922985 L 38.69185556884901 4.874593979290593 L 39.12397760703942 3.883323591232408 L 39.586175315147045 3.831292170468898 L 40.079755463572944 4.203412592279091 L 40.2013549382963 3.8991245441636577 L 40.54129479880677 4.352284701840943 L 41.24211277228416 4.347057618926818 L 41.05971356019912 3.7358280798425962 L 41.80499165335182 3.4255947236797986 L 42.086096919775464 2.4975680487429046 L 42.57379161372336 2.5397438246225286 L 42.4260467556325 2.037844111375744 L 43.10528805447276 1.202029563267432 L 43.03925126016032 0.6520686181880954 L 44.09571028965388 0 L 44.43369498223606 0.3398601429088913 L 44.81090273754279 0.08892026163457169 L 44.812209507943834 0.7673238013747502 L 45.36462425045655 0.9431692548293419 L 44.662499506578115 2.067490848819983 L 45.724185617675865 2.1274426967472633 L 46.121004904344865 2.799920879138223 L 46.73421938421926 2.533160094234508 L 46.72441361853812 2.124809204592055 L 47.27813513145189 2.3467607214609374 L 48.003791717895744 2.5397438246225286 L 47.4742604204212 3.657481688225149 L 47.932527841979116 4.3589282843234 L 47.971102507176425 5.115059744038515 L 47.220607307766116 5.773033768877684 L 47.85735363020592 6.401381006970759 L 48.59542952313301 6.645737157857058 L 48.694145552818185 6.989567489696907 L 48.56535385321579 7.320190459364424 L 48.288168897995284 7.156195720608269 L 48.190111241183914 7.9465625783410925 L 47.76059276844903 7.869512982103104 L 47.918153367567605 8.413548569833221 L 47.590622838193795 8.379293221117369 L 47.275521590649795 9.16770491043193 L 46.95060460207808 9.041895807926297 L 46.744025149900395 9.407452450046614 L 46.656421656297404 9.678801895523799 L 47.497792262986614 9.943587561311107 L 47.44353635297674 10.188602085236209 L 45.915073849694416 10.99147803070627 L 45.77255607320774 12.570914950792458 L 46.458341199399804 12.788936180126674 L 46.61719859357285 13.153814498510044 L 46.97021613344036 12.689461999173124 L 47.257216829688566 13.031317211896567 L 47.8240060466128 12.839630904114435 L 47.85016140532688 13.272381497588855 L 49.134766586288684 13.660981196067246 L 49.11254151412432 14.131897475094041 L 48.62092650897328 14.012033680635772 L 48.684988184664284 13.695216594084954 L 48.5163250248101 14.087108157757354 L 48.112961910789295 14.174711673314322 L 48.10839320205892 14.544218553667452 L 47.59650829267179 14.400633379114163 L 47.5880092973917 14.7549777288767 L 46.73356101134545 14.787936282213096 L 47.080703072081526 15.120554321695163 L 46.97806673119321 15.579619886023522 L 46.58255421492525 15.838480194461612 L 45.932071840254594 15.603341266118543 L 45.691496406956546 16.78362456840736 L 45.971953275852954 16.961465091676505 L 44.957340825232606 17.767652853038722 L 45.20968716748665 17.925063861406855 L 44.67884909961106 18.600833908991827 L 46.08308861202136 19.426114488479303 L 46.5864745261284 20.812548354705754 L 45.95692042856763 22.220748432608964 L 46.20010940266777 24.080752020715565 L 45.739876837835 24.022775291904694 L 45.54636508966778 25.004808506721503 L 46.14061643570714 25.041677396894418 L 46.11642622026791 25.523147595240193 L 45.452876141586785 25.74446068976842 L 45.67711195719846 26.104730396880175 L 46.175919187228544 25.972357514684667 L 46.104665286658495 26.868762333060914 L 45.10966436740042 27.140131729236245 L 45.436536523900415 27.81721852289882 L 44.941001207546236 27.91864787227063 L 44.76579422034025 28.298688721244595 L 43.812639879955384 28.19396750667877 L 43.74922660179161 28.448857626185905 L 42.97191767079341 28.528560665277247 L 43.64920380170539 29.457904086291745 L 44.44676268624653 29.790522125773812 L 45.38815609302197 30.033561530582507 L 46.52044770716253 29.846503784770135 L 47.84950303245307 30.39317286465546 L 47.83185664436565 31.11702409477113 L 47.48537295650338 30.962246578558204 L 47.058477999917166 31.462829545727384 L 46.612619909495905 31.389051863985262 L 46.42565198868049 31.6465754756476 L 46.44199160636686 32.01015699865151 L 46.74271837949935 32.02402273386265 L 46.37138610332405 32.94809917056673 L 46.41323268219726 33.558650385914 L 46.72441361853812 33.73319904398914 L 46.46879536260818 34.77320898761682 L 46.73356101134545 35.17760963902646 L 46.72441361853812 36.33748337711241 L 43.158895566955394 35.81122386142995 L 41.71542301647397 36.05558001231625 L 40.65505365112384 36.644404917383056 L 40.05687201853477 37.606686941035804 L 40.62628475160766 37.729862551386226 L 40.34321434190917 38.992482384921594 L 41.46176990381888 40.066069353528185 L 41.34147719949657 40.548856297951566 L 40.86555341450467 40.153672869085156 L 40.15166773701681 40.424383892221684 L 40.11505821509435 42.327860051587365 L 39.36651818361232 42.23762304387519 L 39.345599881849004 42.45696101928701 L 40.1255223536493 43.24930299613624 L 40.592947143361116 44.85970339974427 L 41.25127014043806 44.78265380350628 L 41.32971626588715 45.314818725839814 L 41.77425761056079 45.37411220072829 L 41.996538258244186 45.751539508245195 L 41.40424208013311 46.28897141488915 L 41.91416184624537 46.67824943710448 L 41.90762799424014 47.315155524701986 L 41.55721401982816 47.40405583563841 L 41.85728242008683 47.71887785237468 L 40.828295495054974 49.42941080997506 L 40.310525131189856 49.352321312340784 L 40.390936399913805 49.015114612285245 L 39.75876876155095 49.00988752937112 L 39.500536964818906 49.28257367162406 L 38.062301471288244 49.0224165678065 L 36.97054966561985 48.14111442792641 L 36.660017126806224 48.41643406233455 L 36.80122813289185 49.19299503695068 L 36.51685095279231 49.856236046100264 L 37.394172708530164 50.123655204042784 L 37.894286708961296 49.93923095038562 L 37.67920826150352 52.20758542813467 L 36.74304193633227 52.55799949036254 L 36.98558251290517 53.19095533972723 L 36.467163751512814 55.06943327431658 L 37.00846595794335 56.121273981944555 L 37.38959402445322 56.187151187221055 L 37.9733912072842 56.960400345945025 L 39.38548131744736 56.82142378266335 L 38.98015306015169 57.29102331561254 L 38.95008736558105 57.935829879675666 L 38.56045032844452 57.73759974290181 L 38.15055336241848 58.06690596649172 L 38.09563907953479 58.68669435508037 L 39.067108156227455 59.42766328420489 L 38.72193123876623 59.73657989429008 L 38.89909339390051 60.18974005196737 L 40.42885269223731 60.19764052843299 L 40.780573437050336 60.624465764558195 L 41.18785686227429 60.56912252790253 L 41.281335835008704 59.5192768900891 L 41.83178543424656 58.80859312074948 L 42.923547215261536 59.18598052687009 L 43.5969030596238 58.90212199365566 L 43.57532638498667 59.68063813669005 L 44.66512302272678 59.776800501751445 L 44.61216390777138 60.3320284311412 L 45.0004841991603 60.872133731336646 L 45.43719489677422 60.58759687438528 L 44.88020147018456 59.410585486592325 L 45.02598118500057 58.990383882251436 L 45.80198334559772 59.204414971956545 L 45.971294902979146 59.735941471949424 L 46.540059238524805 59.7418468786005 L 46.59692868933677 61.44902811891244 L 45.08220223828529 61.24684774390576 L 44.90439168562378 61.751360998609606 L 44.508220796482014 61.825138680351735 L 44.46441904968052 62.22491076979161 L 45.082860611159106 61.90681683855948 L 45.161306736608196 62.12020950592394 L 44.21337947782752 63.257678609992475 L 44.995915490429915 63.47765500774495 L 44.890007235865696 64.01708198420346 L 45.642467578550864 64.02230906711758 L 45.32867310140791 64.48336970126049 L 45.598665831749365 64.86275217719565 L 45.112277908202515 65.27704837488547 L 45.09266637684024 65.0254301698742 L 44.51671979176211 65.04127102420175 L 44.591245606008066 63.83002423839108 L 44.04013763389639 63.23066536470344 L 41.76641698815451 63.69962647531198 L 41.40751399380901 62.985630890080195 L 40.074528381968754 62.82889820544901 L 39.86401864324136 62.195264032347374 L 40.02156926701336 61.140749931167896 L 38.95139413598209 60.906967650298725 L 38.88732248494451 61.23759061996624 L 38.26365384186174 61.335069731105236 L 38.15774558729752 61.73025315997165 L 38.75069016293583 61.78423974915342 L 39.407706389611725 62.65959658098615 L 38.80691121622056 63.26027220075139 L 40.24057800102085 64.63156348708539 L 40.3151038152668 65.02942030950331 L 39.98692488836576 65.08667881318094 L 39.31814772808045 66.20108491019326 L 39.64894019578358 67.21410155923006 L 39.90716201716905 67.35239979877478 L 40.11178630141845 66.80638909192827 L 40.57333561199884 67.26613297999357 L 41.05514485146875 66.95526120149012 L 42.03118263689178 67.04284476634894 L 41.97168966993115 66.11150627551989 L 41.44673705653356 65.70710562411024 L 41.97560998113429 65.59977086808736 L 41.88605131960301 64.99510510869301 L 42.17434881090569 64.7467987195739 L 42.19853902634492 65.55959016202229 L 42.55613525028937 65.25857402840272 L 42.64635228469446 65.53716557730672 L 42.9516577419039 65.06425422846537 L 43.1791554958449 65.84676051112886 L 43.95188574276616 65.59578072845825 L 44.131013041175294 66.04040198732926 L 44.67099850185821 65.75913704487375 L 45.5613979369531 65.9080091544356 L 45.34435434622047 66.41447757755772 L 46.011834711451314 66.44548096247584 L 45.90657485441432 68.15597401867994 L 46.36093194011568 68.10067068342056 L 46.42107330460354 67.71865471533019 L 46.762329910861624 68.01635903305761 L 46.86301108382166 67.1957070155399 L 47.361159940977934 67.58231164420373 L 47.90246214740847 67.1996572537727 L 48.253524519347685 67.42821245172775 L 48.46533105312956 67.31752597841643 L 48.10576968591025 67.0323506991244 L 48.63465258585755 66.74450202628087 L 48.92360845003405 66.72080059688399 L 48.83469818603001 67.07712006576293 L 49.27009213789632 66.94803904876143 L 49.4505262067065 67.35243970017108 L 49.50674725999122 66.53833151164508 L 50.40499729283898 66.22287107256817 L 50.37164970924585 65.89815350955172 L 51.07900153472848 65.5497345171384 L 50.78678373222265 64.87196939973887 L 50.95021981047265 64.50116572400628 L 51.89029647150047 64.5531971447698 L 52.2269743936816 65.03269222399916 L 52.97747956843849 64.27983267877993 L 53.13633696261154 65.08735713691789 L 52.649300641537444 65.27241981291571 L 52.678059565707045 66.12339689161462 L 52.96832220028459 66.12012497711875 L 53.23374622189567 65.5346118879441 L 53.954175726735336 65.65842592063518 L 53.999932641465115 65.18024758748342 L 54.99101324952005 65.8270492213611 L 55.05507492521106 66.72870107334961 L 54.599421044455234 67.34190573155024 L 54.93413382336151 67.66993511045884 L 54.87921954047783 68.03415505580341 L 54.31372711860807 67.98080688896229 L 54.23528099315897 68.27982795276732 L 54.54188324542289 68.72640438005658 L 55.56826660499923 68.5380298881666 L 55.633645026437854 68.89434935704554 L 56.09126405046854 68.9964570301543 L 55.944825962778715 69.83885530865064 L 56.552803385702354 69.40480791979675 L 58.784687427917596 69.53257219072066 L 58.296992733969695 72.67432833188417 L 58.87490446232268 72.99441733293085 L 58.459122041818645 73.16762929423024 L 58.79122127992283 73.39817956199984 L 59.245578365624176 73.18147507874323 L 59.40312898939618 73.47327398981956 L 59.89278882661893 73.33888608711136 L 60.564179527706344 74.07526635566241 L 61.04076168557206 73.45811145922897 L 61.33952331542969 73.98437097491143 L 61.21923061110738 74.79780083970047 L 60.83940931499856 75.03689000627637 L 61.22445769271157 75.46894232531568 L 60.39877830618149 75.98797968826948 L 60.66158878699048 76.30148495892813 L 60.30529933344707 76.52213968041755 L 60.341908855369525 76.92849550024546 L 59.61625226892567 77.22687814170982 L 59.703197389654854 78.18650672250921 L 59.220739752657714 78.11145219608578 L 59.400515448594085 79.06649211631171 L 58.614059124788554 79.14354171254969 L 58.16363232563692 78.68116433232917 L 57.58441382688288 79.81863343639772 L 56.73585099531463 79.81536152190185 L 56.456052499292035 81.14715042590772 L 55.08776413593037 80.90215585268076 L 54.07576522611212 79.88586728914811 L 53.64037127424581 79.83642945914352 L 53.4566752671063 80.54511815866859 L 53.18210385268789 80.54252456790967 L 52.6917956179379 79.78770985427217 L 52.40740846249178 80.2882728707432 L 52.19429515830886 80.17168099078079 L 52.539472075770085 79.69286423528837 L 52.310657576081454 79.37868064089275 L 50.4925908110954 80.00505275986943 L 50.69263641126785 80.66502185452315 L 49.761058745520124 82.39067744131783 L 49.38319261733958 82.25365604645442 L 49.03474378620246 82.60011987044948 L 48.70525808890037 82.2470723160664 L 47.8298915010908 82.4802560759912 L 47.932527841979116 82.99334813089763 L 47.552048172996486 83.87856060761425 L 47.66776219324185 84.59319461518668 L 48.04890023509829 84.69462396455849 L 47.62461881931416 85.13525508380039 L 48.30647365895651 85.01076272737237 L 48.23652652878751 85.97633661621911 L 48.01424588110412 86.74300204455507 L 47.17811233136566 87.72569363241068 L 46.18572495290968 88.03197675034066 L 46.12361844514696 88.86779129844898 L 49.69110164000455 89.35782034629918 L 50.267048225082675 90.22264320951108 L 49.185760557969225 91.56229268858628 L 48.788941271300224 92.56740886115746 L 46.3792367010769 92.6477702732876 L 46.27660036018858 93.43745880728348 L 45.946456290012684 93.26161335382889 L 45.99417834801732 93.95386267808206 L 45.487530495580955 95.1914443854448 L 44.669691731457156 94.79825602639293 L 44.21273108030029 95.07553082921935 L 43.64788705595777 94.5242531380624 L 43.05821439399536 94.46691483159219 L 42.85686202342186 94.72838868148733 L 41.15647442195602 95.01687577667153 L 41.24538468596006 95.72029749188619 L 40.729579465369795 95.54904069900506 L 40.52299003784554 94.82060080831592 L 40.05491685060648 94.99449109335225 L 40.18239180446126 94.72575518933213 L 39.80976273323149 94.45901435512656 L 39.37632394929346 94.4859876990193 L 39.19588988048328 94.9885457853049 L 38.3760959484312 94.73497241187536 L 37.40202330628302 96.68192114250013 L 37.70862555854693 97.27337953972214 L 37.52230603525876 97.65539550781251 L 37.23792885515921 97.33793999892103 L 36.27627551949426 97.15156057684561 L 33.72863185686121 97.15742608210039 L 33.45928752404699 96.3130327337895 L 32.96375220769281 95.92774485120327 L 32.24070916205105 96.52774214723156 L 31.858922722667373 96.46912699608004 L 31.48889721689312 95.8848907515867 L 31.79681621490465 95.66096411560142 L 31.643185902335787 95.1531390450054 L 30.648843355951524 95.47059455389689 L 29.78720284502623 94.4503557521314 L 29.05501240657714 94.49915515979534 L 28.583008932788374 93.60731905129441 L 27.543557869201567 93.78384282848596 L 27.541592725926712 92.11153540853239 L 25.988949982551734 92.7741379953413 L 24.37812104261717 92.53046016819196 L 23.661621824327217 91.9205274244872 L 23.323637131745038 90.70337523202546 L 22.192662263352094 90.8304611792124 L 21.981494151750884 90.29502434238302 L 21.44542900227111 90.4227886133069 L 21.071483185293715 89.70484278984232 L 20.27457269827981 89.58761248753925 L 18.9866956036421 87.68938336178584 L 18.116566072783286 87.68615134868627 L 18.147290140227746 86.55917631184226 L 17.38371726146039 85.99473115990929 L 17.39744333834467 85.36903736466957 L 18.16232298751307 85.25112873862956 L 18.052494421745706 84.73671993764553 L 17.044425798477164 85.30711039762588 L 16.962707759352167 84.82693699465956 L 16.227245407227176 84.4350653816853 L 16.168400837793783 83.79025881762217 L 16.86660527046908 83.49518799204998 L 16.1664456698655 83.12370599258044 L 15.4303249448667 83.81132675486384 L 15.136790396613254 82.93465317695352 L 14.558230270733029 83.04797314242005 L 14.336607995923446 82.819417944465 L 14.441867852960431 82.21543050880761 L 13.558660642744577 81.91441437518804 L 13.517472436745173 82.35504549442994 L 13.034356426874224 82.44398570676266 L 13.059853412714494 81.67664195468976 L 12.477363000284555 81.75373145232405 L 12.546661732926324 81.56204514454191 L 12.17140914554788 81.46392761106225 L 12.49763290452064 81.03446888278184 L 12.2740454864362 80.61295053236334 L 10.560580205613318 81.1187805331448 L 9.929719337651504 79.74353900857798 L 8.20775506154853 72.77639610359664 L 7.873042282642255 68.74611566982435 L 6.998982465233729 65.46278937462023 L 6.496913296874315 64.33318084562103 L 5.968030396927011 64.07434048788109 L 5.55813343090097 63.25895545467379 L 5.139737469594838 60.98728916103258 L 4.740294666777171 60.41821544712983 L 3.5354523570120815 56.46961317156529 L 4.075437817694996 56.06852433604781 L 3.6838456126301824 55.75039050341939 L 3.5655180515827296 56.19892209912691 L 2.9307368724177754 56.21867329029097 L 2.726112588168373 55.07462045583441 L 2.3835492115092443 54.71630591714092 L 2.5927471921623098 54.52793142525094 L 2.341712607982603 53.46950698723495 L 1.9043585005147212 53.00118429896707 L 1.497728460491297 53.426692789014666 L 0 52.28196163082116 L 0.38374659498524705 52.195016488303 L 0.48638293587356657 51.60814675165445 L 0.2275027416142928 51.60024627518882 L 0.02615037104079401 50.907358528595005 L 0.6007901857178796 50.55562772028953 L 1.0937119612699662 50.718984036705024 L 1.049256829267945 50.122258655172594 L 1.5925191913000496 50.54246025951349 L 2.3900880511877642 49.90028718760557 L 2.275027416142928 49.55845192558027 L 2.8313624698587865 48.861613940753635 L 2.5031885306310304 48.06661852105105 L 2.6568138555266048 47.39543713403955 L 3.098751634744723 46.81519102917532 L 2.8908554368194177 46.25928477604862 L 2.2181529776576765 45.76989415053907 L 3.3693927626134177 45.26869271172738 L 3.1876519234021927 44.21222344212964 L 2.5620231247178524 43.90857381635487 L 2.560062969116282 43.13400791155329 L 2.2018083722980193 42.47403881689957 L 2.6247830176811004 41.95504135534208 L 2.173697845655655 41.38860113359455 L 2.3685163642239204 40.766837625889494 L 2.1867755250126955 40.13190665740839 L 1.8625169093147935 39.95669962629446 L 1.6114773374618 40.20566438845238 L 1.2957227047172748 39.75120743539563 L 1.066908205028649 40.16287014093024 L 0.42231627250927145 40.18790826710286 L 0.42231627250927145 40.18780851361213 Z" fill="rgb(0,0,0)"/>
        </svg>