<svg 
          width="34.61119079589844" 
          height="62.6153564453125" fill="none" 
          xmlns="http://www.w3.org/2000/svg">
          <path d="M 0 0.5058297633697222 L 1.7134652870779106 0 L 1.937042730631949 0.4215181525785079 L 1.6108289458149156 0.8509766792921089 L 1.9860815345632234 0.9490941667202185 L 1.9167828016684791 1.140780384534224 L 2.499263240878198 1.0636909230819636 L 2.47376625494485 1.831034315001434 L 2.956882266579421 1.742094144412879 L 2.9980704727291836 1.3014632319815593 L 3.881277686169197 1.6024792243189565 L 3.776027804094568 2.2064663764943515 L 3.9976500797131855 2.435021467176829 L 4.5762102077054525 2.321701554897109 L 4.869744757030449 3.1983747213399716 L 5.605855509369857 2.5107542817919377 L 6.306015112529382 2.8822361069060904 L 5.607820652651888 3.1773067939865585 L 5.6666552469534865 3.822113055409191 L 6.402117601763291 4.214024385835744 L 6.4838356411866025 4.694157662054712 L 7.4919142434817205 4.123767469787601 L 7.601742809650014 4.638176029333429 L 6.83686315768941 4.756084600032926 L 6.823127105408417 5.381778101602746 L 7.586699986963204 5.946222988612929 L 7.555975919406587 7.073197496510257 L 8.42611542878843 7.076469409470446 L 9.71399252812755 8.974657742910884 L 10.510903018050588 9.091887990191806 L 10.884848836393077 9.809833476687933 L 11.420913987829765 9.682069265730306 L 11.632072124855236 10.217545752629546 L 12.76304699737682 10.09041996371293 L 13.101041666539427 11.307571584903275 L 13.817540887444968 11.9175040423356 L 15.428369833259884 12.16118175511456 L 16.981012582302807 11.498579479298705 L 16.982967750238227 13.170886114353404 L 18.022428792966174 12.994362420013445 L 18.494432268477993 13.886198109930355 L 19.22662270959995 13.83739872517046 L 20.08825324832407 14.857637048086012 L 21.082605773684804 14.540181688192542 L 21.236236086814493 15.048006520440428 L 20.9283170876789 15.271933051325565 L 21.29833261945733 15.856169021607135 L 21.31663738048538 16.36068203951727 L 20.704081271248647 16.373171170694576 L 20.294842676602485 16.92839883948764 L 19.580298623632363 17.185922330281063 L 19.21158986225975 16.786788850515556 L 18.593148298523538 17.184605584821472 L 18.7892636128622 18.64946495792467 L 19.308340749023266 18.441299471177032 L 19.894751474797044 18.858907288754338 L 20.06994848729602 18.662632412520555 L 21.119863693270506 19.013684732322307 L 21.639589226961174 19.742802604536152 L 22.47573275509855 20.228202862593474 L 22.868631731998697 20.15905377527631 L 22.896083885867466 20.98696745833684 L 21.612785470622008 21.85178991564341 L 21.699740567015198 22.553894555246913 L 22.17697112415029 22.238394362854045 L 24.02968227454729 22.47748341721323 L 25.04102281518365 21.83926088308854 L 25.432615021677975 22.153444330021816 L 24.96191831657197 23.051823845859104 L 25.61304909114683 23.37590283442808 L 25.59082401890133 24.40599679760176 L 26.348511445956635 24.47714095379709 L 25.172428056067837 24.630601651905472 L 24.387278499797155 26.126384592620212 L 26.6917232213959 26.996474031765135 L 27.004869302154763 27.75124848975217 L 27.65992038794707 27.85993984223455 L 27.78609854720799 28.265657049298 L 27.21145873043318 29.59680690618664 L 27.445490337233753 30.235667862352344 L 26.51979812258477 30.278482040477744 L 26.85843121393037 30.854179115960772 L 26.5518289605472 33.22464015424021 L 26.98983645481456 33.99389881228272 L 26.720492121017095 34.89100148403798 L 26.97872391869181 35.13599594227653 L 27.331093062318406 34.962784062274324 L 27.303630933103026 35.28287291308697 L 27.89462034297047 35.871737443165884 L 28.78828171965702 36.096302396092035 L 29.71529068005843 35.54634170913732 L 29.897689892809314 35.02666616775314 L 31.418301803889804 34.18031804825837 L 32.22828997321762 34.26395133563101 L 32.1236884886726 34.74412451322754 L 32.61726863890031 35.469292149062625 L 32.56235435581617 35.93035256680634 L 33.026507233546475 36.11609347936342 L 32.74343682281463 37.342462318770885 L 31.758241665641222 37.71262739842545 L 32.58327265765585 38.71838152128553 L 32.73298265956809 39.6484028295305 L 32.40022504737536 39.795279800340936 L 31.913188724523337 40.86359928322024 L 32.249208275057306 41.09937652324167 L 32.04719753087255 41.57887137741963 L 32.389760908782215 41.94049756227565 L 32.058968439871514 42.06036130047575 L 32.03739176515562 42.869840547102044 L 31.787010565262417 42.95542900197528 L 31.266626658695536 44.47758675325935 L 31.86938697756194 44.503283240410106 L 32.67806837648394 45.047976945526464 L 33.35273099371012 44.65806068397808 L 33.63318786363033 45.072316785840066 L 33.85349339349653 44.629730705908145 L 33.98555700725693 45.5847701778853 L 34.61119079589844 45.99774943566526 L 34.36929861596975 46.63397690091178 L 33.762627961232496 46.90730133722027 L 33.448833482944025 48.339880495874766 L 33.07685280788357 48.34646422317271 L 32.840197684924746 48.85365063337959 L 32.840197684924746 49.992435949035645 L 32.42702880371453 50.40409846135602 L 32.63426662952254 50.905977988346976 L 31.86938697756194 51.66274751521218 L 31.681102310311573 52.38332649262748 L 30.997940697774283 52.72580001625313 L 31.654956926848623 53.62485785550899 L 31.658218865189863 54.05826661860136 L 31.990328079852986 54.035163720992216 L 32.5139739247611 54.841371054658325 L 32.12630202948423 55.9992691301672 L 31.60462132785814 56.56371401717738 L 31.314358692220992 56.5281618897685 L 32.81731423980303 59.30038989873262 L 32.57608043275055 59.800274356845414 L 31.740595277489387 59.910960778205954 L 32.055048128654064 60.681576083085616 L 31.033243449424564 61.50091096997004 L 31.37319328652259 62.415769754740964 L 30.85672969117316 62.27088785280869 L 30.508290834110625 62.6153564453125 L 28.844512748493592 61.409377209839874 L 24.149316606432517 55.16014316001139 L 22.97846029816699 54.2432893063623 L 22.601900939012864 52.63358793270439 L 20.12748628653841 47.11742199146851 L 18.751347320400285 39.481734775448665 L 18.968390911925237 39.42375807384922 L 19.549574556075747 40.53225824393475 L 20.43800885113903 41.48203073407354 L 20.439315621544846 43.16618807826454 L 20.84267873703814 43.447412987330544 L 20.390286792960183 45.597897731103615 L 20.74723462068044 45.859371458275795 L 20.74723462068044 45.58800218946792 L 22.370482873023924 45.51490286577199 L 21.195696278194337 45.032774520674856 L 21.38920802706797 44.40376920476728 L 21.267608551900715 43.859713921691935 L 21.012648667913847 43.901889677776325 L 21.164972210637718 43.214947561646866 L 20.738735625369326 43.122057154679545 L 20.666823351662945 40.87872190531672 L 20.157551981218813 40.11800214207276 L 19.93331616478856 40.19110146576869 L 20.093490305293948 40.612619618347196 L 19.865334177646243 40.546104021949205 L 18.91870371046436 38.583993681652395 L 19.123986368336958 37.895734820063346 L 18.31791851022659 36.95254605722249 L 18.835030503105624 39.263713648442895 L 18.56895808299601 39.31774011366358 L 16.862026647947182 33.70078329270285 L 14.273204745210771 27.964002634919588 L 13.554740381023198 24.80975883716461 L 11.886383611312501 20.134674033585142 L 11.160068649343415 18.80751431445283 L 10.266397297310256 18.403752274889982 L 9.240023909333699 15.540628927836703 L 7.362474145879561 13.352596987776588 L 6.681926074153903 13.052937642276342 L 5.457462253210045 11.003882200269137 L 4.974994639105078 10.748992200394895 L 4.575561810175849 11.011144250985655 L 4.30555910350217 9.754410463252535 L 1.4545850918735912 4.094679365543969 L 0 0.5057499606145955 L 0 0.5058297633697222 Z" fill="rgb(0,0,0)"/>
        </svg>