<svg 
          width="21.929855346679688" 
          height="47.849884033203125" fill="none" 
          xmlns="http://www.w3.org/2000/svg">
          <path d="M 13.259242794963617 47.27821661030333 L 13.233092419672749 47.58513821405466 L 12.989898418374363 47.84661211803053 L 12.74605601944336 47.849884033203125 L 12.570849003761953 47.78141322300588 L 12.563661765388094 47.696423231327465 L 12.639494362359745 47.76561226680651 L 12.87484275230346 47.746499494030004 L 13.076195155601637 47.627274097252965 L 13.259242794963617 47.27821661030333 L 13.259242794963617 47.27821661030333 Z M 21.231002402896497 22.348457473776172 L 21.181320181215717 22.947856372833943 L 21.0976369852153 23.005833113636164 L 21.010038465048694 22.797029063658176 L 21.085871062020342 22.8088797808077 L 21.14274550974908 22.71993955007945 L 21.231002402896497 22.348457473776172 L 21.231002402896497 22.348457473776172 Z M 3.1177052999363704 21.90124253164866 L 3.1706594358248212 22.062603811624 L 3.090901539338788 22.03563046215236 L 3.1177052999363704 21.90124253164866 L 3.1177052999363704 21.90124253164866 Z M 21.360442521063312 21.62991298075045 L 21.417321956466147 21.827504736051615 L 21.37548035846594 21.992816255076804 L 21.360442521063312 21.62991298075045 L 21.360442521063312 21.62991298075045 Z M 7.416731234412416 15.76201242853131 L 7.515447280141362 15.83511180165565 L 7.511521980626978 15.978716956608979 L 7.051284353321075 16.271792772983584 L 7.416731234412416 15.76201242853131 L 7.416731234412416 15.76201242853131 Z M 21.59971621052141 12.357464987231527 L 21.580758061278498 12.412129911456606 L 21.929855346679688 12.450953978077775 L 21.52322524056895 12.594559133031106 L 21.374826973159223 12.540572532683273 L 21.367634747111268 12.412768333929309 L 21.59971621052141 12.357464987231527 L 21.59971621052141 12.357464987231527 Z M 0.9923825520690722 12.38120632293512 L 1.2166184041245456 11.970221856133426 L 1.2885306892559085 11.671839152954487 L 1.3761292094225146 11.575038345531098 L 1.4558871059085476 11.578948683176394 L 0.9923825520690722 12.381166421530576 L 0.9923825520690722 12.38120632293512 Z M 2.615631062304356 10.621953396596606 L 2.5737894643041477 10.65295678792718 L 2.6117057627899722 10.757697974854796 L 2.520181943108983 10.769508790599776 L 2.539145080025992 10.637794254200514 L 2.615631062304356 10.621953396596606 L 2.615631062304356 10.621953396596606 Z M 3.0980937653867437 10.521202350123374 L 2.9196198231717654 10.660178942149617 L 2.9385779724146777 10.587079569025276 L 3.0980937653867437 10.521202350123374 Z M 8.64053687691082 7.965637093303169 L 8.65950001382783 8.08222899738031 L 8.484292998146424 8.322634959757028 L 8.416306012529445 8.237006545605919 L 8.428071935724402 8.120414641528777 L 8.64053687691082 7.965637093303169 Z M 0.03791629848582472 6.864398229297348 L 0.05687444772873708 6.89931195827322 L 0 6.876209045042328 L 0.03791629848582472 6.864398229297348 Z M 9.442684551244055 6.239981149590579 L 9.279248446431703 6.833434739371317 L 9.047820368328273 7.353110632150469 L 9.275976532224034 6.5034501237936455 L 9.442684551244055 6.239981149590579 Z M 12.312622152735038 2.9131616443422232 L 12.438141959061566 3.0607170383453948 L 12.472132958033008 3.282010227945608 L 12.41853042451194 3.3366751521706877 L 12.338772528025906 3.002740297543175 L 12.270127169428116 2.9480753733180953 L 12.312622152735038 2.9131616443422232 Z M 1.1787021056387208 1.468770701259259 L 1.2166184041245456 1.5425483982608446 L 1.1597439563958085 1.5234356254843386 L 1.1787021056387208 1.4688106026638028 L 1.1787021056387208 1.468770701259259 Z M 8.401268175126818 0 L 8.435917547079072 0.19823017777386576 L 8.27574836880029 0.35763628892656174 L 8.401268175126818 0 L 8.401268175126818 0 Z" fill="rgb(0,0,0)"/>
        </svg>