<svg 
          width="112.78201293945312" 
          height="93.0419921875" fill="none" 
          xmlns="http://www.w3.org/2000/svg">
          <path d="M 20.46350873553511 1.0722699478770088 L 21.211390502803873 1.4924913952802283 L 22.43062242714384 1.3423225288032767 L 22.59929059917729 0.8740199111849045 L 23.31906183571948 0.7001496213819772 L 23.77995284038941 0.09418722181980722 L 24.569671217263295 0 L 24.605632346883343 0.8186966393979261 L 25.218188542882874 1.065027846305183 L 25.68430662991644 1.7401393479278173 L 25.358092798894297 3.2405312176500374 L 25.462035925285672 4.4280762698852 L 26.02491488813462 4.5518902708624775 L 26.11381518970851 5.087386822623851 L 29.29167178449032 6.141860752313343 L 30.80770522620896 5.852056985282095 L 32.94087354866932 6.81499713532548 L 33.72602321614904 8.366762039613683 L 35.15968023390032 9.08404930631301 L 36.25143219819052 9.014221880689345 L 36.28215627009891 9.402821479631562 L 37.096074841274664 9.196670968497465 L 37.60272276732245 9.49503358284087 L 38.56045593093433 9.329702189657066 L 39.651559497603095 9.649152686538818 L 40.48312445943013 9.317851477994077 L 41.365673424998654 9.533239160003534 L 44.303602949150395 9.24936074880378 L 45.4071258241068 9.33233568113773 L 46.55182693569887 9.940273199310399 L 47.185311411848986 9.62742638182334 L 48.013604459524736 11.316192695185176 L 47.810945289105625 11.625747648321402 L 48.197958866323106 12.35817749103455 L 48.11754758591611 12.616359409604794 L 47.393856037601196 12.705918070640404 L 48.1966520957322 13.88161241121258 L 49.42176448773125 13.734077036216291 L 49.690460462057366 14.01861382028621 L 50.98487159676668 13.988987041128741 L 52.029559869088125 13.437709491176419 L 52.504176952636605 12.243580710239597 L 54.3653873619676 12.293656949758281 L 54.88184105512121 10.973739049233684 L 54.38172698202797 10.198495019266714 L 56.56653768119929 8.263417449690657 L 56.67113918056013 7.919587205919727 L 56.276275004449175 7.436800385157704 L 56.61688326266736 7.178618466587459 L 56.71951961846782 6.332908588819692 L 57.242517139924 6.398785777222361 L 57.49747706002353 6.0753850431196135 L 58.16756108806712 6.284827418604539 L 60.5105808068706 4.484097815928416 L 61.680130510385986 4.624391089352877 L 61.86775683133563 4.419557323959113 L 62.35937190791395 4.910244619163129 L 62.59472029380183 4.557875478773077 L 63.39620958134192 4.464326679130401 L 63.43804619094705 3.895931434553763 L 66.02752683333514 3.767488872792289 L 66.94016144853865 4.806840177160998 L 67.33894593642232 5.897544565402654 L 67.33436725168013 6.847317258042719 L 67.82859586944026 7.13975451655463 L 67.27945296081789 7.3314208245450745 L 65.78106590975054 6.936237496901198 L 65.22603754579505 7.28202290858959 L 65.51826536610555 8.168571855000684 L 65.94254684353399 8.403690772422083 L 66.18508745534587 9.570147942118899 L 67.51806328550903 9.76512606515321 L 67.79656502694097 9.728237233730878 L 67.752104900806 9.337004143307999 L 68.42808435953071 9.339617684095627 L 68.65035506416147 9.661701672458042 L 68.97722726815309 9.284952785178813 L 69.17072906908781 9.84480913313633 L 69.56232133104749 9.761814250109344 L 69.78198846984446 9.452259296973116 L 70.37754667281415 9.378481634128455 L 70.45860635084259 9.061684579420403 L 71.58762621534375 9.570806314989065 L 72.3662320545209 9.435121651655766 L 75.52186357390923 7.791803017028419 L 75.68072099116284 6.9046156484401955 L 76.88949376310154 6.727433543593403 L 76.84699878052695 6.3796730132945125 L 77.36672438783184 6.7168995776707465 L 77.8138893136232 6.434996285081491 L 78.14468182938754 6.6154702542791135 L 78.39833497889617 6.0200418206396 L 78.98735932891131 6.2663929782398915 L 79.08999568471178 7.743721846813267 L 80.16410125835071 7.349855264909722 L 80.95709154937587 7.5375713356791705 L 81.20813115770268 7.962401393173552 L 83.05429874221619 8.289752364497296 L 83.41974561700967 7.859655324041587 L 83.77211481054603 8.253521905945131 L 83.94208476549638 7.930121171842384 L 85.24500487206863 7.9913697994608555 L 85.46269689195721 7.761517865000784 L 85.9562771120959 7.955817664471892 L 86.07655985854765 7.567876438399842 L 85.5810244701966 6.961255665967506 L 85.90136282123366 6.880894274421184 L 85.70131719199637 6.408002997404686 L 86.81268069049823 6.0187450255923025 L 87.01926017269007 6.273635079811718 L 88.09401414395043 6.3078904197533845 L 88.91119465392946 5.402907032977643 L 89.89769672123738 5.546492170752935 L 90.01798944303714 4.468296867044432 L 91.66476977128282 5.132854452051375 L 92.29040364853947 5.196736571150511 L 92.5787011817292 4.947771872762591 L 93.57436061852151 5.203320299852171 L 94.23202533827745 7.118666634016283 L 95.74871715296555 6.927658698896005 L 96.91368817173874 6.258472553104864 L 98.61668956143757 7.314283179227724 L 99.42014399253803 7.409787146787862 L 99.70190767277323 6.932925681857332 L 100.48378542610166 7.25893995674771 L 101.44217696268302 6.965864276058667 L 102.14495020619536 6.19261531539523 L 103.14779189356366 5.7921450540969905 L 104.13363558790212 5.998953938101253 L 105.64444194725712 7.461818554224012 L 106.20143545477298 8.680965504227142 L 105.89743672379628 9.134125545831695 L 106.0929136436394 9.588582382483548 L 106.5995715450352 9.65376129662998 L 106.70808338082075 9.208521680160453 L 107.21734484805036 9.277012409350752 L 108.69024488492099 10.349940730097927 L 109.55776100102004 10.261678864109612 L 109.78264524683263 10.73987702547351 L 109.26749832426992 11.447248797734279 L 106.83163804142379 12.584737561143791 L 106.5034690421893 13.69718820479396 L 106.69565409718508 14.585692319122517 L 106.37271218031422 14.983529088940092 L 106.80811617078743 16.12099790165657 L 107.98877841199955 16.09466298684993 L 108.03911401811959 18.566553853927694 L 108.51242433107716 19.763974499215344 L 107.52003680843613 20.189442978886856 L 107.16439570074849 20.73942373379188 L 107.5788714110711 21.20770640071722 L 108.33721731841516 20.807914462982183 L 109.0896777704261 20.933065160392825 L 108.59282563613613 23.980613324312085 L 109.02757125363986 24.886255083957995 L 107.99139195318136 25.27814654725104 L 107.56448695922307 25.822181995631535 L 105.81441190220747 26.229894358501603 L 106.2386933796359 26.98205543662669 L 105.85625848716062 27.382525697924933 L 105.96347352770327 27.656508565379163 L 107.38927994656108 27.730944601093988 L 107.96914692709184 28.15577465858837 L 108.04825143690792 28.799922684620167 L 108.039752440393 29.94531192247167 L 107.69524382109815 30.76664205335026 L 107.149352875931 30.811431359214584 L 106.64597686403451 30.448508302208843 L 106.13409188027507 30.742262306461086 L 106.15305501686528 31.12954515966297 L 107.17943852556597 31.23163285592477 L 107.38275606895455 31.6709471165628 L 106.48188238906924 32.52324072303223 L 106.01511590441423 32.43629560278425 L 105.97589283599092 32.75179586244501 L 106.76625961048626 32.77617560933418 L 107.11733200877973 33.074538223677585 L 106.99507414341959 32.313139974677135 L 107.99791583078787 32.39152624761296 L 107.9600095083035 33.042258002346415 L 109.6865427439867 34.24165376624457 L 109.56364645635314 35.40547744446072 L 110.44095836421002 35.462097511295 L 111.06268190504196 36.044996909708324 L 111.90011237150604 36.12733341986514 L 112.1433113562874 36.61407047784816 L 112.60421233630535 36.76160585284445 L 112.78201293945312 37.53748830498855 L 111.35685491821677 38.10392838164773 L 112.1374259009543 39.06028480298945 L 110.82666517083659 40.13716336095762 L 109.99641695494847 40.18390783473941 L 109.76826079498461 39.560169367682754 L 108.92296975427902 39.84075591453168 L 108.34376114671772 38.479340572493584 L 107.0813808545077 39.43569699383531 L 106.55314627533987 40.510600433192984 L 105.81834218932822 40.8287341843344 L 105.86409911070608 41.55585714270015 L 105.01814969703102 42.244814425289306 L 104.98089177216808 43.211704812553684 L 104.23627194370258 44.480908051382464 L 104.23562354608114 45.3292514206309 L 105.34175996221936 46.84807773071777 L 104.35722303847182 47.70366320153802 L 103.88652626669607 47.77744086438268 L 104.23365840252076 48.38206656751149 L 103.33541821451331 48.678454063244395 L 103.15825603363895 48.99461269577532 L 102.73592972442287 48.70020031865291 L 102.08872914474222 48.98671222133333 L 100.74135888738302 47.67601154099105 L 99.64175632419933 47.42044316320843 L 99.12203071689444 46.74796515306647 L 99.73785882704526 46.341589486629765 L 99.67641068322848 43.982978654606626 L 99.42471270193221 43.61083837741856 L 98.6513339451187 43.79526258383718 L 98.63041564031613 42.78753312792947 L 99.79604503205879 41.82327623214575 L 99.48094373873337 41.01379681293015 L 100.05034657918884 39.9817075608263 L 100.20397691407882 38.47868219962342 L 99.75485682007509 37.5559227453532 L 98.22248375829608 36.50208723784083 L 97.63672134708419 35.678781988351744 L 97.01958646634247 35.539805460667615 L 95.64280888301381 35.94881461858498 L 95.07273769424086 36.98421568573269 L 94.44906896054458 36.74776007187793 L 94.31440176224481 36.33412235317637 L 93.32593455137652 37.076427788942006 L 91.9380344550031 36.00413789037196 L 91.18884591714342 36.08713277339894 L 91.0594058012073 35.728838277177395 L 90.22522729819845 35.40280405159399 L 90.12651125417071 36.64962261283712 L 89.71856939680265 37.16073941770932 L 89.93888493322106 37.507841575138045 L 89.3211016548579 37.61058764427001 L 88.29602491674811 36.63250491821281 L 87.13955289448984 36.458614677716845 L 86.79045561510476 36.13718906222459 L 86.26615132305767 36.28604118296121 L 86.6217824553973 35.80259598932903 L 86.46292503814368 34.869302569136146 L 85.7372683462684 34.59990836108005 L 84.95539059293996 34.765898127134015 L 84.77495649791432 33.28064883342561 L 83.94339153608729 32.98360296482254 L 83.00723505024743 33.158131627495635 L 81.46373947542367 32.419796379644026 L 80.40467672660222 32.35854775202556 L 79.96209048555303 32.774140638644575 L 79.71954987374114 32.43559732852801 L 78.64479590248078 32.143818442886264 L 78.45978312271295 31.520079975829614 L 77.80408354651738 31.4620833111759 L 77.57526901358405 30.9911671527699 L 77.22813687775934 31.952132184202785 L 77.84199984434979 32.102959423549905 L 78.23555724986983 32.94996609636497 L 77.92829658008988 33.9320190103362 L 77.11437800891412 34.27977954063509 L 76.89407244784373 34.66640402096681 L 77.45890657890503 35.52462298326773 L 77.46086174711738 35.99621746523693 L 77.02220579318895 36.19380912905887 L 77.430137675209 37.673791439805946 L 75.6957538406323 38.32254807592891 L 75.9003781546118 39.48505500840472 L 75.52970419745469 40.87085009733199 L 74.32812365144001 40.603431007886385 L 73.90253540342066 40.791805451526 L 73.82865797596821 40.369608885512285 L 72.50352276935051 39.34673685359076 L 71.29867030918454 39.915152048860435 L 71.31305476103256 40.17662583178151 L 71.91253327577498 40.42166024364147 L 71.38758058610645 40.595530533444396 L 71.10254499171997 41.44124041121216 L 71.26467432312486 41.676379279326596 L 70.8907384271645 42.33040289841089 L 71.124121669492 42.991688569760036 L 70.50175970638665 42.819115075004405 L 70.42657550834329 43.55350008563501 L 69.94084588709806 43.39806423619673 L 69.8820112844631 43.88348454843942 L 70.01798525335379 44.56715489737421 L 70.69919179444213 44.55330911640769 L 70.63839204824679 45.03082895420839 L 71.1999542651568 44.98931156200186 L 71.01887177250973 45.58274492633784 L 71.5810923623892 45.622945572804035 L 72.41527086539806 46.87173925265767 L 70.97702518755656 47.08646856179696 L 70.27883062878641 48.8713972155891 L 69.88462482564492 48.53877926130403 L 69.54533331336567 48.98928586073488 L 69.59501054651625 50.741934293195854 L 68.51502949289225 51.1404294358836 L 68.39539514406195 50.77223939591652 L 67.68999838401976 50.846017058761184 L 67.74165073607873 51.905777922105045 L 67.40627953557221 51.76745976729108 L 66.99114545228014 52.061872144413485 L 67.52525551143304 52.32137080872406 L 66.71396045678712 52.58220616946801 L 67.11471008823118 52.719865951411805 L 66.62570855283468 53.709799389131994 L 67.2748742760757 54.16230105786639 L 67.0427978043391 54.5462720960244 L 66.48907621097455 54.32432063600632 L 66.49888197808036 54.73267142105352 L 65.88566740911138 54.99943213762896 L 65.48884806478806 54.326954127486985 L 64.42716179943679 54.26700229491581 L 65.1292866453277 53.142700939602655 L 64.57687182255404 52.966835580496195 L 64.57556505196312 52.28843221452273 L 64.19835724185147 52.53937203152115 L 63.86037250016313 52.19951197566425 L 62.803913317175486 52.85158042683108 L 62.86994014573446 53.40154123104306 L 62.190708723554515 54.23735556506531 L 62.33845360311139 54.73925514975518 L 61.850758838305794 54.69707938467849 L 61.56964355569204 55.62512577260307 L 60.8243753296051 55.93533909860947 L 61.00677456819111 56.546568481132965 L 60.30595649289111 56.55179556270822 L 59.96601658299042 56.09863552110367 L 59.84441709059974 56.4029434419716 L 59.35083687046105 56.030803164783535 L 58.88863909520021 56.08283457221968 L 58.45651699422632 57.07410470637324 L 59.082150871482966 57.3481075245205 L 58.79122982176338 57.68533408889674 L 58.89583132112422 58.17667975697092 L 58.39049016566735 58.269550233050396 L 58.37349217263751 59.97148400381555 L 56.81823566249556 60.64527875969785 L 55.96836593704778 60.217815210722804 L 55.924564183882275 60.807956710707955 L 56.618190033258266 61.24792934421615 L 56.270399524464096 61.8150277937455 L 55.62646088358671 61.889463829460325 L 55.78923861261305 62.53492860123245 L 55.385875439987174 62.69233956928123 L 55.2819323135958 63.355600359240874 L 54.90733804466596 63.24166195131609 L 54.24051595542564 62.0844220018016 L 53.6763401973338 63.03551144018199 L 53.67698859495525 62.202969019817544 L 52.99840557039674 62.21878991939457 L 52.99774719742728 62.84713699654238 L 52.487178959606766 62.871516743431556 L 52.527708798620985 63.631598246691674 L 51.69875737797577 63.86542036906578 L 51.520288426510504 64.44371115738794 L 50.37100863017624 64.5780790749809 L 50.485405921294884 65.32958178023583 L 50.84235379957344 65.62203898944078 L 50.53247958861167 66.02183092717581 L 50.964601689585564 66.03432006101593 L 50.35923771951004 66.38932269288665 L 50.39846078793335 66.91360695516217 L 50.93910470004081 66.88328190174846 L 50.786132738120294 67.73555555752486 L 51.416345300119126 67.81789206768167 L 51.05547711006785 68.64383080865143 L 50.65669262218417 68.66559701475298 L 50.53836504394477 68.1011320567043 L 49.61135595224128 68.37974348494272 L 49.1805406218583 67.74612942483358 L 48.19468695217182 68.11761132915149 L 48.2417606194886 68.85792169561358 L 48.06916714800842 68.23023299133594 L 47.4958340204322 67.86469639354256 L 46.914660269310524 68.38566884077422 L 46.58386775354619 68.03790831047533 L 44.89524084034736 68.47129721528187 L 44.38204908599701 68.04712553065765 L 44.29445555501403 67.13292492369959 L 43.94862021443221 67.58542659243398 L 43.43934877185459 67.05324185571646 L 43.1327464750441 67.81003149462575 L 42.23907499643082 67.06706768598995 L 41.61148595096183 67.20011885784258 L 41.42516640060308 66.54870877954593 L 40.8511749000574 66.26746385982683 L 40.58053373286696 67.49782309931582 L 40.07060391731987 67.6262656610773 L 40.156252255438524 68.1018103802675 L 40.543265832656004 68.20916505949063 L 40.445208161597726 68.76965982962527 L 41.18328416176066 69.37035524622611 L 41.214008233669055 70.13241186809672 L 40.74723177366602 70.67973918082805 L 41.4382440818602 71.76912682332939 L 41.43693731126929 72.21833662771294 L 40.96296862534225 72.59706063360267 L 41.35260571908957 72.60693622665515 L 41.38463656158887 73.68842339471449 L 40.97996661837208 73.82081619369696 L 40.50992821956579 73.55471384999169 L 40.49423699712687 73.07456052071032 L 40.032687619487476 73.00738653726036 L 39.95816179441358 73.63968385162917 L 38.89321359025904 73.93672972023224 L 38.55653561916161 73.3288121527526 L 38.05184286132618 73.64231734310984 L 37.55564910000567 73.45723476382105 L 36.87903121900754 73.79906993828844 L 36.10107377745182 73.76678971695728 L 36.023276038226655 74.92073780212094 L 35.1073794842199 75.40615811436362 L 34.66022453377654 75.38175841678141 L 34.74847643772899 74.9305934444804 L 34.08426788967048 74.9305934444804 L 33.38999364267305 73.85437325938238 L 32.5891527527544 74.1836793986236 L 32.56692767736093 73.95580258277403 L 31.309126069893107 73.96370305721601 L 31.153530591442756 74.1843577221868 L 31.70399024600406 74.47416148921805 L 31.660836890460004 74.86802807112159 L 30.947609482220383 75.18219163434898 L 31.109738813625277 76.41320924670813 L 30.1676868971043 76.40066026078891 L 28.02209926635629 77.19631384973103 L 27.993988735629717 77.77195119587948 L 27.506293970824125 78.30744774764086 L 27.914884225813633 78.78101734822056 L 27.263753359012235 78.74805880332619 L 27.17550145505979 79.19132330118522 L 26.32301818843019 79.53118335704212 L 26.01314397746842 78.36999317030663 L 25.282260203229498 78.46418039212644 L 24.999838150024836 77.97612658840309 L 24.931846177905484 78.77638878743636 L 23.987839093172155 79.14984581036477 L 23.80217791578288 79.87567197368321 L 23.428242019822513 79.72087454642207 L 23.46942025645817 79.459400763501 L 22.973884868107127 79.51077379806698 L 22.76468186938545 80.24517875939061 L 22.248228176231837 79.63789961408811 L 22.37636152157706 80.22672436833294 L 21.92985496875515 80.34858320139274 L 22.143631664545012 80.61797740944886 L 22.5698683101858 80.23793665781879 L 22.52083947465666 80.86101675200527 L 23.103324984043258 80.95849583817592 L 23.15496736075421 81.69683108602752 L 23.517142321396403 81.78509295201583 L 23.4151643385654 82.20728951802955 L 23.160852816087313 81.83712435945198 L 22.919628950214356 81.99980231046209 L 22.886281361776124 82.77305127112552 L 23.238002157691042 83.25320460040689 L 23.034026241333 83.58779767330245 L 23.30009869912927 83.24793761744556 L 24.229731307362602 83.40864044984517 L 24.24737769801388 83.73862491264957 L 25.35090057297029 84.1153737999288 L 25.48491937364861 84.7266031824523 L 25.1142454164915 85.31476956382696 L 25.158695567278446 86.16640479742621 L 24.41277894357006 85.83378684314114 L 23.503416242517847 86.65643371976006 L 23.802836288752346 86.91066540110931 L 24.435652416584976 86.60242719371341 L 24.900473708375653 86.83361582460685 L 23.827674905327637 88.82008637944193 L 24.097019277275187 89.51231557568887 L 23.849251583099665 89.52414633665883 L 23.58513429351575 88.95706783782252 L 23.179815952677522 89.52019609943784 L 23.793030521646518 89.63283771231532 L 23.458307718761436 90.63595855813188 L 22.463965027908063 91.12532910759555 L 21.888013371476013 91.09831586922571 L 21.576832389923332 90.46536018198674 L 21.26303786718884 90.92444557942278 L 20.253652351517978 91.42961707777046 L 20.294840563501662 91.99210691720863 L 19.787534264484414 92.09946159643177 L 20.190892449436276 92.39189885494368 L 18.848105864493277 93.0419921875 L 18.44866799131414 92.94846333855035 L 18.045958203983723 92.47621048371099 L 17.719085999992114 91.09239051339422 L 16.858103736847596 90.98042722407993 L 16.626027265111002 90.29544012940481 L 16.181480868175456 91.1457386665707 L 14.089500757698774 91.33608822882081 L 13.656066898459965 91.03245863151608 L 14.013009789064508 90.91389166280709 L 12.861111463874419 88.65870522347912 L 11.758900347182934 88.30236589517504 L 11.394111845358927 86.8968196201428 L 11.01363212109599 86.63600421009188 L 11.18098853486452 86.39428161327578 L 10.743634363852983 84.57180575519115 L 10.101002493566506 82.25140050033067 L 9.815971886854037 82.2237488397837 L 10.329158653530374 81.63360733979854 L 9.785901200241101 81.74096201902168 L 9.774130289574899 81.13763311094017 L 9.108619958599494 80.08118406264018 L 9.127578107515694 79.46929630724651 L 9.469488148650775 79.3263695423414 L 9.115812184523504 78.83041526417604 L 9.431571850818376 78.29755220389534 L 9.188377853711033 78.25016930793642 L 9.039974601184692 75.88497474721161 L 8.57254974356022 74.66383272790496 L 8.807898129448098 73.31889665831405 L 8.488871536675955 73.31097623317902 L 8.663420176368493 72.94410293895228 L 8.260715376712087 72.72544334328504 L 8.860852264423972 71.99303345126492 L 8.420226179261151 71.49903434101704 L 7.838394055170013 69.29522093625505 L 7.37096919754554 68.82889343724717 L 7.820089291549267 68.77293174328307 L 7.895921887214068 69.07985320493863 L 8.12015773540521 68.70904962418393 L 7.614811592274325 67.60449945497575 L 7.0676288395383144 67.30547846776219 L 7.595853443358125 66.81874140977916 L 7.32586067378913 66.77854076331296 L 7.299056913653465 65.86036996844086 L 6.6603453551397145 65.14112753382408 L 7.086586988454514 64.75847324140639 L 6.519792701506849 63.9720368726466 L 6.341318762367571 63.14873162315751 L 6.630274668526778 62.83325131418979 L 5.991568097687037 61.51002159862133 L 5.82028638447177 60.234234631090885 L 5.6496580565519565 60.3224964970792 L 5.189420437177483 59.553856146506924 L 5.303174318348695 58.97424861244443 L 4.641584299146017 57.9526733755702 L 4.820058238285294 57.65628587983729 L 4.382699079599747 56.843534546963895 L 4.610860227237627 55.93460092296716 L 3.835516326863736 55.56970274735092 L 3.896316073059074 54.68778236172402 L 4.295100560942755 54.707513597135964 L 4.526523647383896 55.25683597917082 L 5.724183881625849 55.541372763240744 L 5.541789630713845 56.05049449880941 L 5.986336027649391 56.56226967655177 L 5.8797743724021885 55.41293020147927 L 5.526751793570371 54.847806870560426 L 4.68276752345569 54.803695888259305 L 4.108785998258025 53.89739575574323 L 3.6027864698316865 53.62931829342746 L 3.7701428836002164 53.172227965294944 L 3.347821562058143 51.92804289553247 L 3.800213570213153 50.92755554119659 L 2.796718497549405 48.68685330501227 L 2.9902252861581453 47.12716797558904 L 3.632857156444623 47.30435008043583 L 3.967574971655694 46.78994141121281 L 4.374858456054294 47.34123891185816 L 4.541561484527369 47.05538538204791 L 4.625239691411634 46.238663861260484 L 3.774063195372943 46.4560067111874 L 3.5191032752734106 45.71503797185513 L 4.200309816361754 45.622167495775656 L 3.949270208034948 45.0715483186935 L 4.17350605622609 44.67305317600576 L 4.496452960770959 44.838384569189564 L 5.222109652646248 44.30883332395272 L 4.81940485298984 44.27391961114089 L 4.68276752345569 43.44008039572914 L 4.268296800807091 43.45256952956926 L 4.169580756779353 43.89583402742829 L 3.538714809485065 44.423410154054636 L 2.8928160127213154 44.25412852364984 L 2.653547315060711 45.39293403279968 L 2.1482011719298266 45.8757208535617 L 2.364591408901504 45.143310961541594 L 1.9311575496626945 45.01091816255912 L 2.2429969041848388 43.90307612900012 L 2.4064330061806425 44.02820687571773 L 2.5659438087297084 43.72589402415333 L 2.261955053101039 43.677772952552104 L 2.4103533179533687 42.93219560312867 L 1.7709933618181741 41.88494382431797 L 1.7441896016825098 40.24755054552212 L 2.0292202083949786 39.48946411156553 L 1.4630793067427674 38.84068752474954 L 1.28460536760349 37.576751268882084 L 1.7709933618181741 37.16443029592086 L 1.854671568702439 36.65925879757319 L 1.561795350770506 36.97473910654091 L 0.9230837922567547 36.474176218284406 L 0.8472511965919538 35.641653748612995 L 1.193081549499761 35.61334371519585 L 0.49750053191142013 32.754150044223174 L 0 32.094201069307395 L 0.015032849469462638 31.818881505419796 L 0.41774263679988166 31.71942730063866 L 0.1856611773892758 30.7347608458798 L 0.896938405090556 30.1591035490383 L 0.779264212146617 28.72851915424671 L 1.189814623022489 27.76360388559283 L 2.0684482644922992 27.932227143127463 L 2.071061805674117 27.5890552722267 L 2.526720740306399 27.64501696619081 L 2.5169149732005716 27.044341500283004 L 3.062790955345674 26.45946698325918 L 4.3755118413497485 26.656400274210952 L 4.5977825459805155 27.255758994378425 L 4.413428139182149 27.84721724010391 L 4.632431917335644 28.10344399075669 L 5.018797096931681 27.786626985355603 L 4.919427667608487 28.144941432270183 L 5.502566562290536 28.76802152645667 L 5.609781602833193 28.310252874760952 L 6.689109271161741 28.526298929640575 L 7.323242144933301 28.984047630643257 L 7.739678011142273 27.975659801865383 L 8.735332460260569 27.573892745519846 L 9.037361060002874 26.732133104973077 L 9.608080646397278 26.85925892099422 L 9.810086431520936 26.641896120374266 L 9.90226363492012 26.9442289226317 L 10.663223083445992 26.745978885939596 L 10.57431280652408 24.614606447588898 L 10.13499847962618 24.057383591112046 L 10.660609542264174 23.703697704981664 L 11.63207377242862 21.862129033662214 L 11.37318855288235 21.81733972779789 L 11.359462474003797 21.22719822781274 L 10.805740880639231 21.058574970278105 L 10.290588970402519 20.363053909680325 L 10.79985542530613 20.03701968409691 L 10.988135131551235 19.369150284046103 L 11.383647705283632 19.270354452135134 L 11.60003794225531 20.20430624519818 L 12.146572297369879 19.90528525798461 L 13.089267623838287 20.4552460621966 L 13.49263079646416 21.291080346911876 L 13.956788727611363 21.538728299559466 L 14.371264437933972 21.304247804315196 L 15.01716323469772 21.46560900958497 L 16.250121237916247 20.75692049158387 L 16.34687712605762 20.004739462765745 L 16.036349529800397 19.6128479994727 L 16.59660996379352 19.605585947207835 L 16.897331792944914 19.08856373719718 L 17.38044787300832 19.178142348925824 L 17.77269352026344 18.90282278503823 L 17.711893774068106 17.468288153025643 L 17.026771908881045 16.000814926811724 L 17.18301578495284 15.36917598531308 L 15.950706179355757 15.1801431688033 L 15.83172521582091 14.79022682412075 L 15.381951736521728 14.968725674707875 L 14.934791798404365 14.30678163048856 L 15.077304607923594 13.446607500270177 L 13.80969723334994 13.530240805474293 L 12.82908062137512 12.655562521419222 L 13.16967890424528 12.535040384792776 L 13.487398726426514 13.173263054993079 L 14.10192006598642 12.886751152312662 L 14.859607600361008 13.090926544836261 L 14.927599572480355 12.666754860212045 L 16.03504275920949 12.596289012411248 L 16.16644303103198 11.191401110249167 L 16.98558369689736 11.265158822400794 L 17.75896744138489 10.748794985260304 L 17.818455429315307 9.205568977591224 L 18.03549905158244 9.357074540501543 L 19.1279044011681 8.953970787722639 L 19.382864321267633 8.034503197803247 L 19.954890678252944 8.533769291012455 L 20.22750696435178 8.30521415159968 L 21.509498790773453 8.37172976217948 L 21.597750694725896 8.068758537744912 L 21.88017274793056 8.31508974465217 L 22.94838787856237 7.830986178149813 L 22.960807186850015 7.1618000323586735 L 22.647671037084987 6.807455773358123 L 22.160624669900837 7.243478169645327 L 21.722617113593845 7.030065606246369 L 21.31468024389979 7.307360288744463 L 21.01461180004385 6.889792283514943 L 19.419478836183135 6.891089078562239 L 16.559347051256573 7.830327805279648 L 16.062499904640607 6.319382018941736 L 15.557807146805176 5.924857064168026 L 16.89929194883128 5.62978631417545 L 17.0463834430927 4.815698284868686 L 16.15467710803979 3.892280457728297 L 16.342956814284896 3.4819545540706023 L 15.871606657213684 2.9998261061787446 L 20.46350873553511 1.0719507367884435 L 20.46350873553511 1.0722699478770088 Z" fill="rgb(0,0,0)"/>
        </svg>