<svg 
          width="40.819122314453125" 
          height="16.5234375" fill="none" 
          xmlns="http://www.w3.org/2000/svg">
          <path d="M 0.663539846293524 8.75284478860536 L 2.6777211446519114 7.8722414568426755 L 0.9708003524051498 5.8514963184334 L 1.5304170783600297 5.705956063665309 L 1.8278618472463508 5.250821062702394 L 1.68208218890224 4.4887647074759665 L 2.5541665498626576 4.148246397896558 L 2.740486000974694 3.8630513407464737 L 2.505147715792385 3.6628262555028046 L 4.064313731838724 2.4034990503662095 L 4.9383732106554525 2.659705760679003 L 6.8786970715990465 2.2039323377623417 L 7.435021934460074 1.6552685205756 L 7.866495407979724 1.5966334542612175 L 8.306467873487138 1.9799659361137338 L 8.972641210255745 1.580174138266197 L 9.754508571759192 2.4528769983512713 L 9.45508868501656 3.395407259627343 L 10.411524543921264 2.4258637694333833 L 11.048270619699373 2.7670604023386467 L 10.741010113587746 3.151051256830964 L 10.99073284295592 3.3545682052736367 L 11.829499559269468 2.562865130570118 L 12.668904697516371 2.4640693332278856 L 12.574757413032197 3.106261966638453 L 13.087948894021052 3.2116414903786943 L 13.523352652567908 2.5424555787362926 L 13.892061269764776 2.7551897441361772 L 14.524877060515678 2.549039305134301 L 15.019115390358111 3.1352303627896894 L 14.974665263248397 2.679456939873028 L 15.342057135207725 2.6122630292412348 L 15.68004169686197 3.533705415357625 L 16.525332287306973 3.520498061189499 L 16.136353773726142 4.5229601833735 L 16.79730003091542 4.117901404407556 L 17.20066298868211 4.05990476004692 L 16.808412562692848 4.421510944786009 L 16.99146010139645 4.5512702068849356 L 18.81409486906347 3.962425707984289 L 18.58789399780228 5.22243123644674 L 18.753305130597 5.933752997036394 L 19.189347311077206 6.02728181326022 L 19.897357235165863 5.669645815045991 L 20.69033712844674 4.270025385573656 L 21.858589414426774 4.02764450069668 L 22.207686507858448 4.236428430257759 L 23.316425899238716 3.751008287864006 L 23.375260470534293 3.4954599501910133 L 23.075202161858307 3.834003141851019 L 22.622800419335924 3.776006497490383 L 23.39748553408915 2.976422901795309 L 22.990870614599437 3.021192241301765 L 24.006121094114302 1.3074083585281098 L 24.77623750190697 1.470744625256878 L 24.856000342205277 2.3487144664603594 L 24.489246892179306 2.7287550851138715 L 25.28549869786862 3.255672654501131 L 25.981737717561074 2.5133874291547835 L 26.133422778788702 0.9089333059601745 L 27.337606249205265 0 L 28.11099456940637 0.3207471796993289 L 28.03384526889772 1.016287947619818 L 28.74512710539481 1.819821779153697 L 29.688475314665776 1.1862079407465944 L 30.53376590511078 1.3120169670067157 L 31.63270950995116 1.1124502544028476 L 32.25050243458284 0.5993585104514051 L 33.11081589114706 0.8581987113234019 L 33.87963550438761 0.6046254915698116 L 31.950424175221443 2.6549973987701248 L 32.050456911903716 3.1581936024385002 L 32.89638592428207 3.2306345435026453 L 32.27206912551893 3.7924658134854035 L 31.9066324207305 4.667163742175935 L 32.01057549175456 6.812361260193621 L 32.944766336418986 6.137249994793012 L 34.37580905071552 6.000248633656277 L 35.08054706239574 5.568176625772445 L 35.73887977979535 5.90540307215285 L 35.72449533560948 6.5205824766455285 L 36.180807412473655 6.651000111384255 L 36.677000909486985 7.556621603459371 L 37.44187028701491 7.722611311433398 L 37.64584609472124 8.506393963773252 L 38.05704967185693 8.55313842119911 L 38.7533086422348 8.024245733892448 L 38.63364443110192 8.856109539623818 L 37.57589899164823 9.919161895355549 L 37.996259933390455 9.855299749294868 L 38.14660829869513 10.692430536144643 L 38.764401223326814 10.40723547899456 L 38.84416406362512 10.78661772500827 L 39.03114188735593 10.683871691827234 L 39.63844075145812 11.323410883992542 L 39.89736074680366 11.227906949849315 L 40.21896579573032 11.926081208329007 L 40.545199403673784 11.967598586008567 L 40.65241438710628 12.685524023682285 L 40.27518682723623 13.228900909064565 L 40.819122314453125 13.684015959341426 L 38.93765297549052 14.32423347483259 L 38.317904883687945 15.2239296131495 L 36.99078528973006 14.885386421489494 L 37.24118634240242 15.49793233542297 L 36.43839071189624 15.369489818603645 L 36.15074172954981 16.443754459898045 L 35.63950541573185 16.5234375 L 34.56212850182755 16.215857773096687 L 34.57128586643409 15.821332956367558 L 33.006872820123 15.537454644497075 L 30.730539515381473 14.12927537070733 L 26.825731513453952 14.457942972770322 L 26.42891238050413 14.282736047839085 L 26.30731295288577 14.716124801002518 L 25.805892376293112 14.601508109619012 L 24.946217341662248 15.147538436246549 L 24.4134143369082 14.798441331663676 L 24.574895184675714 14.342009536107213 L 22.613663005414807 14.97891523771332 L 21.870998740756324 14.430271371212633 L 20.81061981082756 14.397312837850484 L 19.872498681135923 13.911234322816929 L 17.254908902331714 14.014638728637767 L 14.305220014071356 14.641668840646862 L 13.189278425255448 14.220150745685897 L 12.55775942905667 14.667365324285148 L 11.921671725897331 14.405891632853947 L 9.511968089141243 14.354498665577374 L 8.631384736193063 14.8175341382179 L 7.114035356781355 14.075228962185498 L 4.016591692320575 13.568740895318118 L 2.046860521071902 12.414793213921763 L 0.17257342885952623 12.526098091420213 L 0.3523690058401101 12.305463454342718 L 0 11.165999971021982 L 0.45760887141629514 9.788764211302876 L 0.7982069728602064 9.597756343016417 L 0.663539846293524 8.75284478860536 Z" fill="rgb(0,0,0)"/>
        </svg>