<svg 
          width="24.212738037109375" 
          height="28.012222290039062" fill="none" 
          xmlns="http://www.w3.org/2000/svg">
          <path d="M 6.810043301944631 5.900172352462599 L 6.847989486322557 6.3592373553711345 L 7.314117063507551 6.411288663175931 L 7.235631106965616 6.888149667066405 L 7.91423337585666 6.79132904737431 L 8.643829570757157 7.526371720219124 L 9.804200746250805 5.106514600150368 L 10.149387329903208 5.106514600150368 L 11.394109960470393 3.5277379838894367 L 11.326796382083895 3.0199135343442887 L 10.803131057398408 3.0067061883240602 L 10.869806214176025 2.3935222307232853 L 12.529662495918753 1.9654007227956776 L 13.53250313942076 2.1451961945997504 L 14.15161249463411 1.9212698324682684 L 14.209150242134601 1.5445213094380739 L 15.185177178063563 2.097773443104158 L 15.268850310177664 2.5081189007235736 L 15.9069128069047 2.6451201773412576 L 16.19978871997933 2.1656256845162365 L 16.675692128050333 2.208439830376372 L 16.948976478002397 3.001459161128713 L 17.932863979990717 2.827569088753624 L 18.29895887133401 3.089062569549894 L 19.760744848921085 2.3572918071995175 L 19.89409516247632 1.595894294335487 L 20.495528219393748 1.1565804584360542 L 20.92438793516025 1.22706618878268 L 21.850099268039198 0 L 22.159973156450313 0.0968206196920957 L 21.89191588342097 0.8055284031914395 L 22.154067756568153 0.8187357492116676 L 21.614082779505623 1.7006552821787169 L 21.636986154724266 2.8117881058200886 L 22.6711892597626 3.526421239422163 L 23.347158039517005 3.6166581367778914 L 23.229488956729938 4.2779431687816425 L 22.647009041326193 4.716598632447439 L 22.019400698444603 7.318246291694924 L 24.212738037109375 8.51829926822475 L 24.165654443454326 10.203772087682328 L 23.630896543314513 10.914435037208836 L 23.848598311943288 11.455856421343205 L 22.737225994931336 12.968755912892968 L 22.368497614451407 14.7853046588655 L 21.548724367296323 14.869616206118497 L 21.2819838388353 16.13881821785393 L 20.37849755821556 16.996358027502673 L 19.887551340985276 18.235274916490813 L 19.52931701570135 18.318269719276536 L 19.53649925880127 19.32270633972126 L 19.008285180152498 19.646086810479385 L 19.254715921180964 19.95105280936943 L 18.474804123230452 20.560286533568384 L 18.497029175489658 21.259118733563177 L 17.603358627106477 23.134940931236763 L 17.365426873746255 24.989675266760226 L 16.690096515600732 26.587544677796622 L 16.34554835355721 26.627765236069706 L 16.218103439884135 27.862053568748642 L 15.686577549139288 28.012222290039062 L 15.323116146932637 27.250186355615142 L 13.376249450646881 26.40052706209629 L 12.735593366133763 26.29712272006783 L 11.489553990998258 26.706131482546226 L 10.682190063865818 25.511345483885492 L 8.816402911908082 25.440221331978975 L 8.582341589551707 26.11072357525364 L 8.035812790998133 25.809727760439166 L 7.372293232616926 26.445974696890975 L 6.739457812812612 26.04486640121622 L 6.007906451734914 24.464773040488016 L 5.165229829361187 24.187478626084463 L 4.893940546936879 24.30010017938384 L 4.940345817632491 24.8520555192564 L 4.267010527014723 24.87970715306914 L 3.8165641805978954 25.296636333024924 L 3.9715011248034533 24.749289598787826 L 3.717848239324511 24.37254107575763 L 3.3863877202630714 24.392292242766732 L 3.2889885235580065 24.90275018124643 L 2.6476940174360055 24.828314217497983 L 2.3475959599108958 24.331043674364768 L 1.7043063862611385 24.97716619432113 L 1.4107920515776244 24.107755733793176 L 1.057784803216416 24.292179761906453 L 0 23.92925705578263 L 0.6282467644904742 22.498693994784954 L 0.43540353725754555 21.439592528274634 L 0.9165739236018218 20.493112615063687 L 0.617792610645031 20.44171967949253 L 0.6563772166318388 19.784404831564345 L 0.3301437744931206 19.592080336647427 L 0.8590361761013287 19.472855110337935 L 0.812630905405716 18.17995169819158 L 1.317941608835844 17.21437899020517 L 1.1590943322758835 17.00689198324086 L 1.7873410967663577 16.87515768449227 L 1.3552094702543327 16.684149934042626 L 1.75661705683891 15.490700630522914 L 1.3617532917453734 14.962466641735025 L 1.7906130075118782 14.48626401007819 L 1.8259257027531655 13.461417850390724 L 2.0024492776090472 13.309274012399396 L 2.416266184216269 13.763072037438837 L 3.024243062624739 13.438354871539692 L 3.0216095734881003 12.755343555825927 L 3.4583298553139654 12.44116034566497 L 3.7891120514159677 11.813472248250442 L 3.6073613996373646 11.510501316735056 L 3.9139633773029603 11.321468682986321 L 3.7283023931699546 10.301231128934315 L 3.993087755453777 9.83424570854839 L 4.491894538743419 9.859283804100334 L 4.918120765373286 9.13477508699371 L 5.6431283049599426 6.861136454813552 L 6.810043301944631 5.900172352462599 Z" fill="rgb(0,0,0)"/>
        </svg>