<svg 
          width="120.06080627441406" 
          height="87.06842041015625" fill="none" 
          xmlns="http://www.w3.org/2000/svg">
          <path d="M 57.137258146070195 0.5888348975134973 L 57.83611102754971 0.8213303651031071 L 58.12637368342472 0.1587377344039757 L 59.07430101175773 0 L 59.59991203659483 0.7607301177264871 L 60.09414061881104 0.6467916773090794 L 60.43473887718605 1.1730512082722002 L 62.0096167836256 1.7934979879151638 L 63.285064690017045 1.6156574594821795 L 64.05582985021685 1.1401126046775336 L 64.15977296913285 1.460869963425717 L 64.40755062083672 1.2580112587918169 L 64.75403433412156 1.6881084219013385 L 65.37051079755805 1.673594288579037 L 66.10270128973022 2.6075563233330765 L 66.636811310471 2.4738467404793787 L 67.24152683943514 2.7287368673875916 L 67.10162259348536 3.251704533061118 L 67.85801327821895 2.9157946186314394 L 68.02863161852021 4.052625333368741 L 67.67234213883475 4.611145144169885 L 67.83251629050788 4.48469761565202 L 67.92338172910729 4.965509454920016 L 68.23260752020872 4.954975485993314 L 68.78502230325381 5.695964387331599 L 68.61439398760524 6.419815638465269 L 69.68587596765548 6.592369231736178 L 69.55578746345361 7.0158826642665115 L 69.13934663952023 7.00534869533981 L 69.0020659099116 7.849083695110882 L 69.78197846358991 8.12045309916579 L 69.53421078723333 8.271280381525377 L 69.68392079958375 8.56305935037577 L 69.23544913545464 8.625604790878059 L 69.09489649193004 9.23025061713097 L 68.8713090574403 8.997745174191998 L 68.45815012277019 9.313225573127468 L 68.73206318441264 9.834876492685158 L 68.23064237678967 9.813828505530479 L 68.1554581841534 10.376318505377862 L 67.64161806913597 10.406643567439577 L 67.96064962663802 11.025773600966703 L 67.16635262214619 11.267496266716538 L 67.99464561025276 12.143491546325635 L 67.1892260935161 12.827840413984173 L 66.98722531059394 14.164218017367057 L 66.25960352748739 14.67796846022972 L 66.34590025702119 15.369539480826642 L 65.8523200723798 15.518391644012473 L 66.061523056056 16.453022027173795 L 65.36855562948632 15.98142741071666 L 65.19857571141257 16.163218177497157 L 65.51891403941154 16.20864591849356 L 65.4947238221974 16.449710211185476 L 64.48599675204164 17.215717288724676 L 65.36920402706113 18.351211306647414 L 65.28552083852118 19.110634653607427 L 63.53152559587668 19.573670420311615 L 63.1425469030734 20.00640107565281 L 62.59536917736333 19.650061645728925 L 62.21946816487664 20.026810640448296 L 60.920478438845876 19.75412449027755 L 60.49553861900879 20.21452676475006 L 60.141214282742375 20.033394371027484 L 59.858792249848946 20.5043306144267 L 60.02353511058768 21.344095425151533 L 59.4305904914432 21.78801842247735 L 59.022658638760795 21.689900886148717 L 58.78600349930178 22.507261062205586 L 58.31006970404257 22.905097945477085 L 58.799729577193176 23.48338889871452 L 58.48135639261325 23.87330535459227 L 58.98931105272086 24.070897074762815 L 59.1181027617731 24.85797209015542 L 59.70974061042065 25.286752507149103 L 59.53977066769421 25.62924615215797 L 60.37590427878236 26.025087965556988 L 59.99084589746985 26.260885273785554 L 60.32752384435408 26.63500077627325 L 59.67640299972802 26.608645903257774 L 58.75134914276491 27.240963348642 L 58.748077228848935 28.591186736939903 L 56.52927070319008 30.372165661405248 L 56.507704002317105 30.74494446707838 L 57.12614560917265 31.410180565358548 L 57.28173110108558 32.40276772831545 L 57.940054146465705 33.61401454929631 L 57.80930726934172 35.256675279502524 L 57.27323210518189 35.79017691410275 L 57.95574536777615 36.49228190362637 L 57.91847747024543 36.92632930508341 L 59.20570626180383 37.85371758460762 L 58.727158925550775 38.69874937979581 L 59.461314561141975 39.51217926820389 L 60.21574010245652 39.1795612190638 L 61.18197219309384 37.73120034373854 L 62.18220026734591 38.28644823994882 L 63.42300379254779 39.97126479656056 L 63.83028724765538 40.13065092867309 L 64.28659953476604 39.83953033288062 L 64.47357744464718 40.05818999090457 L 64.6703511455816 39.76904451428586 L 65.10051804740641 40.94605593625493 L 65.3992796991851 40.49423246223409 L 66.29359951110213 40.30190772652689 L 66.68911205639006 39.126213050673655 L 67.4977935116954 38.33782128916521 L 67.73772056507039 37.017224688473654 L 66.7002245932876 36.633911913873824 L 66.77213687200789 36.120819844069075 L 67.0035649294792 36.36649274816643 L 67.49125965921075 36.17877662386466 L 66.3328225767046 34.027632435259136 L 64.89785889156214 34.7304157485394 L 64.52260627665025 34.55125847399058 L 64.39381456759801 33.721369259134526 L 64.83640077681727 33.05481641473852 L 64.72918574398531 31.683525088587214 L 64.94819449406215 31.38121215081012 L 64.72787897348839 30.68040395670361 L 63.41319802614717 30.060615550118566 L 63.21184564079983 29.427659682375143 L 62.779065197981176 29.115471148729267 L 63.05102309155188 27.653922861546906 L 62.438466939606165 27.10330352744079 L 62.04753307873114 24.66762247362198 L 61.06364462336433 24.13280409290591 L 60.47984739769835 24.48583170684148 L 60.114410524534385 24.21184876125362 L 60.29549300415838 23.976709826082974 L 60.65766793875367 24.14597155406429 L 61.00153811104466 23.678347126653392 L 61.1120250577926 23.977368199140894 L 61.4519649432455 23.940499307897436 L 61.67620077531004 23.636869624004508 L 61.45262331616761 23.08425522002591 L 62.151476197647135 23.25222015259011 L 61.94488675496477 22.58764242736786 L 62.3175258288828 22.642287391175124 L 62.52476366913997 22.26358322798072 L 62.868633841430956 22.424286106209088 L 63.19877793583054 21.8545540027246 L 63.65115993610312 21.79727554668566 L 63.86494160419224 22.08444590413062 L 63.42300379254779 22.46382839108167 L 63.25042030882748 22.217497113926402 L 63.2693734687066 22.704892683773586 L 63.96888472310823 22.84518599720647 L 64.03229800592483 23.236419199200057 L 64.72657220299145 23.154082665562754 L 64.43566114954163 22.329480385868777 L 65.39078070328141 22.060744474045546 L 64.59909723978345 22.00871305177123 L 64.18331478877217 21.561478238457095 L 64.28072405520352 20.993721254146365 L 64.61935717015949 21.366520010518222 L 65.62285715832753 21.525247769572836 L 65.83990076498532 21.69716294048455 L 65.4038484082507 21.819660230654904 L 65.68365690015027 22.029780989624633 L 65.99680300274248 21.502863085603597 L 65.60193885502937 20.85211119459764 L 66.25437644549966 20.634768282689524 L 66.23149299878246 20.13813553933275 L 66.72441481050174 20.102583394205137 L 66.8133250810294 20.37658629049172 L 67.0035649294792 20.096658036683866 L 67.15588848282346 20.530705438140902 L 66.80679122854475 20.688774824137596 L 67.07089852378658 21.307246484606804 L 66.62700554407039 21.81044300784404 L 66.98133985568411 22.09234638082565 L 67.40562130259907 21.9323018756552 L 67.65730929044642 22.886683450554084 L 66.97479602785216 23.254195271763866 L 66.47926067513903 22.897217419480786 L 67.00879201146691 22.869565751048192 L 67.2578764336677 22.51983000240222 L 66.23737845369229 22.710179618935662 L 65.73072058873431 23.24894823799924 L 65.80917669528654 23.54928605660258 L 65.10377998597508 23.815388476194133 L 64.98480401867076 24.076203960623616 L 65.37378271147404 24.04260698397103 L 65.29140629343101 24.48060462377558 L 65.78563487564722 25.11421886457692 L 66.26091029798431 23.365520170648324 L 66.96042155238594 23.559141701772635 L 67.30559849517387 23.28318363701102 L 67.54094686413596 24.264558507284576 L 67.13889049101608 24.605735406177608 L 66.7002245932876 24.428573201501266 L 66.46880651116359 24.867229214363732 L 66.25241130208062 24.710476574482875 L 66.19749701516771 26.071233931707482 L 67.244140380429 25.249903566604374 L 67.89396442990544 25.617415387814155 L 67.87827320859499 25.044391419040075 L 67.5566380854464 24.87512969105876 L 68.01948422504171 24.389050867327413 L 68.11689349147306 24.825073387958202 L 68.72356418850894 25.16625028685123 L 68.28752180712162 25.7596838204208 L 68.24894713909397 26.41701944200594 L 68.54051656546591 26.492772245064057 L 69.10470225833066 25.66878843703055 L 69.59893084054686 26.098885600140072 L 69.42699575440137 26.409118965310917 L 69.71922355369541 26.907706877142722 L 70.40499875485835 26.802985659536176 L 70.23371206628767 26.4295285301064 L 70.48083134506942 26.296477320310622 L 70.77567268535734 26.862259185447595 L 71.21368021016369 26.822716900575017 L 71.28362734546494 26.453210009492754 L 70.87830903377639 26.338613196017427 L 71.17902585362683 26.147605206426064 L 71.49805741112887 26.264177139075148 L 71.51047671852334 26.7364301285902 L 72.10080779667396 26.566510027550965 L 72.25574489101209 26.28524507692855 L 71.76674339078359 25.595649175505386 L 71.69548948498543 24.82700860573451 L 72.50286416979384 25.54361775323107 L 72.69963787072828 25.340100675539254 L 72.45514210828769 25.102986621194848 L 72.6055005182129 24.45291305394554 L 72.19429675161453 24.61756617052142 L 71.88900124735119 24.1874690074119 L 71.50132932504484 24.473322618741022 L 71.51113509144545 23.884497696576886 L 71.9844453703635 23.430020779625643 L 72.68525341991476 23.538692235579703 L 72.47802555500489 24.130170600674237 L 72.78135591584918 24.56487637518919 L 72.97944636262785 24.126220362326723 L 73.634497494092 24.658405250811114 L 74.21044412142912 24.284289748323417 L 74.66217772412688 24.489781945188994 L 74.23528273621807 24.50298930774482 L 73.79532004333996 25.176125882720015 L 74.00974013365659 25.365817126195537 L 73.5566997604619 25.423095582234478 L 73.20433059226721 26.00665351993526 L 73.41353357594343 26.86682789545558 L 73.63253235067296 26.47890650945031 L 73.85023433025287 26.95706490578791 L 74.36080253135434 26.54937237734635 L 74.25358749852236 27.12634658446795 L 74.65498549872012 27.331838781333524 L 75.69051632708387 25.89598699410872 L 76.02131879440557 26.35441414940748 L 76.20043613061053 26.24179245510591 L 76.13310253630314 26.594820069041475 L 78.15513536102756 26.40644557168179 L 79.66463484123146 27.09340798087328 L 79.55153435348967 26.565173330736403 L 79.88559875938004 26.308966457712355 L 79.5443421280829 24.94689235437191 L 80.3007228374692 24.69329902288081 L 80.45173962031653 25.0496384528047 L 80.85052407952043 24.466080515103915 L 81.59187194051839 24.515498395845277 L 81.92005089149893 23.38527136238589 L 82.77645440831043 23.19294662667869 L 83.3236421093678 23.457053976397766 L 84.20749279428846 22.770749940264196 L 84.28986921233147 22.27677063983782 L 84.99199400772696 22.448007486992893 L 85.13777373323927 22.08642102330438 L 85.88893733598516 22.715426652700287 L 85.79740354911634 24.20857684666275 L 86.80940253318806 24.98775138536033 L 87.09705164806921 24.904756478665107 L 87.43503636545037 25.948058317780486 L 86.4439656600241 26.391322942048383 L 85.28945886435604 28.1268541748186 L 85.96933863526182 28.53654177313264 L 86.54725040601798 28.190077939077536 L 86.86628196352002 28.437087539989445 L 86.64203615610816 27.710582845925376 L 87.6671227958438 27.342412651657675 L 88.07114431238271 27.90819451679465 L 88.39931328801595 27.898977293983787 L 88.47841779214299 27.229132584298185 L 88.1522039845815 27.036807848590986 L 88.60851627169217 27.055242294212714 L 89.0726691817844 27.560413936623707 L 89.33352451380486 27.20080259210895 L 89.94018523549344 27.491923187901424 L 89.77347723133566 26.233911929109606 L 90.29059923561638 26.718015633667196 L 89.8656693911266 27.00386924499632 L 90.6181297890221 27.45766783819092 L 90.93257268676395 27.34636289000519 L 90.85412655555902 27.764589387373444 L 91.58827221580292 27.497190172364775 L 92.25510423243404 27.650650946956038 L 92.25576260535614 27.30881567500509 L 91.56147843294222 27.102006732023675 L 91.56277522809185 26.724599364246387 L 91.21042601059177 26.50857319845411 L 92.57870449900167 26.36760156126458 L 92.96375290496687 26.91494898077983 L 93.08078367954676 25.666813317856793 L 93.65215162247095 25.622682372277506 L 94.02020203662877 26.157500752993574 L 93.47367270849351 26.712748649203846 L 93.55148041747094 27.509040887407313 L 92.94936845415334 27.99116947279115 L 93.24356139686644 28.61227462549203 L 92.44730922430287 29.01140830418064 L 92.61399727776605 29.42504614084219 L 93.06183051966764 29.57455667708594 L 93.7449822044894 29.357872138235745 L 93.9535268152435 29.49814550096991 L 93.91625891771278 29.239305135714183 L 94.4569027909382 29.00087433525394 L 94.70860075413286 29.70826625993964 L 95.55127819305295 29.60617853456477 L 95.45190378320257 29.275535604598442 L 96.36716184911236 29.30651903971808 L 97.13398674712678 30.216769669037678 L 97.53082601360624 29.212331791038235 L 98.04465615327638 29.571304713193797 L 97.84526891134807 29.654938042248215 L 98.23097569023538 29.57459657848339 L 98.0819240508071 28.649183418132935 L 98.90171804300999 27.54860312297862 L 98.68401606343008 26.986771496189156 L 99.00436436677636 26.04491896008945 L 99.514284170303 26.071253882406207 L 99.6273846580448 26.82409349878703 L 99.6045012113276 26.108142724348387 L 99.83656769102642 25.97311639537885 L 100.67533479380303 26.720689027296324 L 101.20877646627439 26.561941317542985 L 101.31992178594444 26.913013763003523 L 100.80738844142394 26.95321442093402 L 101.94096695844654 27.450485586649986 L 102.26783913893016 26.967698628208232 L 101.79257369194038 26.508633050550284 L 102.10115108546698 26.278102726785068 L 102.50124231516781 26.409817239766284 L 102.29465287248546 25.752501568879865 L 103.07261025809201 25.620767105199924 L 103.28311003691786 26.03703843409315 L 103.7923714675224 26.16743620095853 L 103.4249794262867 26.519825392534905 L 103.54919245092604 27.067811234409348 L 103.76164739782362 26.727951081632156 L 103.96955358635022 27.021705169656304 L 103.4478628730039 27.376727853464352 L 103.59232585267198 27.665195006326424 L 104.33564883243629 27.378024648881464 L 104.6533636440941 27.92208020310712 L 105.34437590259205 27.847644146164843 L 106.1216749152765 28.431202083865625 L 106.67147615732773 28.29156714349066 L 107.44811679709007 28.693354265109672 L 107.6174383422417 28.439102560560652 L 107.8030995062786 29.629281443688104 L 107.58932781353678 30.209547516099295 L 108.44768649842001 31.145474694677727 L 109.07332033068232 30.841845010784798 L 110.54228997478684 31.725102344729724 L 111.18819371277249 31.725102344729724 L 111.68829777455122 31.237686824183815 L 111.4562312948524 31.538044593485875 L 111.87332051636061 31.88778034213185 L 111.59808073352663 31.875291204730118 L 111.37253813096515 32.520756160573995 L 111.93215511476431 32.6854292278486 L 111.73667820897948 32.33238166321431 L 112.05570976648153 32.336970323921015 L 112.03021277877046 32.10578162709788 L 112.26818466407373 32.296789616689246 L 112.34074534036883 31.974047163417943 L 112.15310905756557 33.57521044027654 L 112.46952707407377 33.628558608666694 L 112.61073809052048 33.32295380560001 L 113.06312009079305 33.57060182887111 L 113.02914405787291 34.41958386240681 L 113.51945232859833 34.26809820698931 L 114.6059671570369 34.659331408982894 L 114.50268241104303 33.361817766715944 L 114.92302359577259 33.02327436005459 L 115.14922457125618 33.45071808023371 L 116.10173058400211 33.4441143989558 L 116.24948542828078 33.842589704586494 L 118.01067289633203 33.11149634981572 L 118.53038849091199 33.484295106187574 L 118.51993432693656 33.95852321487638 L 119.44498818389968 33.937475227721706 L 119.40837865929107 34.62904624831862 L 119.90457238492633 34.62970462137655 L 119.96536215140176 35.339730038293915 L 119.21617366742223 35.50833339321731 L 118.75790621223982 35.28638186990377 L 118.80038124106365 35.932505198805565 L 119.08673356079517 36.13670060025403 L 118.68402879010048 37.86299465951466 L 119.41490253642841 38.04544379935307 L 119.4639413437788 39.25800736644977 L 119.2691228109161 40.10503423151044 L 118.95531833540177 40.29867571333347 L 118.86510129437718 41.565245821878236 L 118.18717669154313 41.272808479969925 L 118.00281232265586 41.628469586137165 L 118.70102678190787 42.43992435537149 L 119.49271024540583 42.483396927892855 L 119.1606109829345 43.331740539069365 L 119.91764008989561 43.575438323992955 L 120.06080627441406 44.207077445620534 L 119.24428419612715 44.81894542481183 L 117.9910613635308 45.03499154130283 L 117.92959327343864 45.804948857189544 L 117.025467695121 46.30948207724135 L 116.2233300676476 46.29102768092089 L 116.45803003903487 46.73957924035087 L 116.07100651430333 46.8884314035367 L 115.30154812460044 46.48137729745434 L 113.49852404995286 46.59731080774422 L 112.50025114377254 46.32396628451556 L 112.10147665991595 46.54857125075951 L 111.73340629506352 46.17313900215597 L 111.79682955322743 45.85763865252178 L 111.22871357352457 46.352954649762715 L 109.62771023249375 46.34373742695185 L 109.01646085104497 45.70549462404635 L 108.33197246968436 45.85963372239426 L 107.86325085052653 45.557959206976356 L 106.99375967805113 46.2877358156313 L 106.03211624717402 46.474135193817226 L 105.16196670177652 46.04601314988146 L 105.2155742181925 45.768060015247364 L 104.37553027096087 44.76890907241 L 103.67667738948136 45.04817895315993 L 103.5112661804732 45.84710468359508 L 103.95058047577649 46.19025670166186 L 104.07545187333794 47.08470637759141 L 104.54614861126213 47.34157162367338 L 104.72724106623343 47.829625566578486 L 104.12251556192199 48.7438264342456 L 103.71392533631746 48.73395083837681 L 103.56946235664938 49.64617658687017 L 103.11837715152643 49.816775011666046 L 103.21904835652644 50.3206299079612 L 103.61064059032358 50.38716548820845 L 103.62893537728058 51.03921417463152 L 103.91855961092809 51.286203824844705 L 104.27876940210433 50.66972723424798 L 104.80634557036048 50.792882897476254 L 105.39405313216994 50.13357215671735 L 106.33283306702445 50.456972983046576 L 106.64139050985646 50.97269854508299 L 107.86193410468229 50.66246517991215 L 108.67977292881343 52.44081061214582 L 109.22564388402658 52.28603309143872 L 109.20537397830323 52.81690123380727 L 109.63227894155936 52.96707014310894 L 110.35467364267821 52.67134093591103 L 110.52399518782984 53.29573795390151 L 110.89270397490978 53.2061593166271 L 111.55035867202048 53.75019492015403 L 111.59939747937086 54.36010773087029 L 110.95610728237907 55.20908976440599 L 111.07377647918646 56.49016403092369 L 110.59262557728685 57.05660426911859 L 109.92515513842822 56.86230441423763 L 109.33613083077452 57.40963188305415 L 108.15939896131137 57.44388723276466 L 107.89070300630932 57.99255139839574 L 108.18880628516591 59.2413454343767 L 107.09052054690767 59.868375944598846 L 107.04084331732979 60.22732891605568 L 105.8503654192806 60.48616928131141 L 105.73399301762284 61.069088796653 L 106.05434132096912 62.07548184312748 L 105.53853606253263 62.67222719268536 L 105.7594900053339 63.60683762514795 L 105.4555012715675 63.83802632197109 L 105.21493579596499 63.41977987390411 L 104.99723381638509 63.81430494118729 L 104.30622155788714 64.07645712243134 L 104.19900652505517 65.01238430100976 L 103.85513635276418 65.08155337348869 L 103.74857969285434 65.45698562209223 L 102.42475135203462 65.44246151342057 L 101.88801781495268 66.13534928013333 L 101.31599149910636 66.12547368426453 L 101.45263380648747 66.52001870224645 L 101.12967196214734 66.3434949199293 L 100.74855384302025 66.9066432928346 L 100.50469650280715 65.95687032934114 L 99.74046519509199 65.67496695635954 L 99.48092660891577 66.30660607798711 L 99.09130949388498 66.04381547438388 L 98.31008019436243 66.7531625675446 L 97.78577594002226 66.18211371794429 L 96.8267260994444 66.9099351581242 L 96.87903682071075 69.08412240375688 L 96.48024238615955 69.79017763162801 L 95.58722934473946 70.04969632064038 L 95.53755211516156 71.47828605352936 L 94.92237244687468 71.74570521923675 L 95.37216085684801 72.00849582283999 L 95.30939597160622 72.53212186157144 L 94.82104286895255 72.57886634868368 L 94.64453907374146 71.77006502237974 L 94.10128165952217 71.67914968829078 L 93.21088215909592 74.0193267473139 L 92.83692633933366 74.07993697003988 L 93.08469401569023 74.39278387674368 L 93.01801879430496 76.32524845662653 L 92.73757188017788 77.17161694862928 L 91.80401902731107 77.01683942792218 L 91.46930622384589 77.6978764795924 L 91.3424796582127 79.54207916831668 L 91.62947040017173 81.23282108244969 L 90.62140170293809 83.31282107940253 L 89.75386569853444 83.4010829705611 L 88.28032734536433 82.32815434383937 L 87.7717242876819 82.25898527136046 L 87.6631925090057 82.70424496550083 L 87.15654461939502 82.63972440582478 L 86.9604292913827 82.18458911581563 L 87.26505644737662 81.73144889567894 L 86.70807295526593 80.51230159800306 L 85.19792507748721 79.04943656470486 L 84.21208145404866 78.84262762172345 L 83.20923485112908 79.2430780465279 L 82.50646165815877 80.01632722770421 L 81.54807019050303 80.30942294267044 L 80.76553412048355 79.98340857480827 L 80.48442883343435 80.46025022503002 L 79.68032606254191 80.36474623023435 L 77.97731481997224 79.30961362677515 L 76.81169548740661 79.9787800127041 L 75.29500378179594 80.16978800229548 L 74.63733910933793 78.25380269955932 L 73.64103134657665 77.99889262195238 L 73.3527338341207 78.24785739133932 L 72.7277483994332 78.1839952047212 L 71.08096818962066 77.51941747949894 L 70.9606754764721 78.59763304138275 L 69.97418345545874 78.45404786266026 L 69.15700300424972 79.35903150751652 L 68.08159073736138 79.32475620710728 L 67.87501127002632 79.070524453257 L 66.7636378761042 79.4591241630189 L 66.96368349095461 79.93203552559187 L 66.64335513830295 80.01239694005542 L 67.13889049101608 80.61899793478337 L 67.01859777786753 81.00693927148735 L 66.52502756857344 80.8126394166064 L 66.30667719141871 81.0425113673137 L 65.00375717854986 80.98126272222852 L 64.83378723582342 81.30464359785901 L 64.48141806762874 80.91143527669168 L 64.11598119446478 81.3415324398012 L 62.269803767376644 81.01420132582318 L 62.01942255002622 80.58937114717702 L 61.22577394310921 80.40165502287525 L 60.15166844671781 80.79552171710051 L 60.04903209829874 79.31817247652809 L 59.460007790645044 79.07184119937283 L 59.20570626180383 79.66726980281487 L 58.87490379448213 79.4861374090923 L 58.42774887619727 79.76804078207391 L 57.90802330627 79.43081412152839 L 57.95051828578844 79.77923312405854 L 56.74239399835708 79.95575690637567 L 56.583536592528176 80.8429445279694 L 53.42790530008654 82.48626363123353 L 52.64929951690517 82.62194833326097 L 51.52027973360085 82.11280650180375 L 51.43922006140207 82.42962359755379 L 50.84366190126372 82.50405965449606 L 50.62400475361208 82.81295632285234 L 50.232412519814936 82.89595122954756 L 50.03890075744917 82.33675309498977 L 49.71202857696556 82.71350208970915 L 49.48975788832005 82.39141800949577 L 48.813130080635624 82.38880446796281 L 48.8575802282258 82.77937929689848 L 48.579088482170455 82.81624818814193 L 47.24610277252494 82.62128996020306 L 47.00356217815609 81.45549083091733 L 46.57928073124113 81.21969352268876 L 46.287062907294384 80.33382264721088 L 46.84209123133333 79.98737876385451 L 48.34046819929239 80.38256220419561 L 48.88962104376881 80.19089584154632 L 48.3953824862053 79.8978001265801 L 48.399961170618205 78.94802716308664 L 48.00052831383949 77.85730251310238 L 47.08789376427085 76.81797086303324 L 44.498413308113015 76.94641346142359 L 44.45591832859458 77.51480886809351 L 43.65442909869599 77.60833774371544 L 43.4190807297339 77.96070698459309 L 42.92746568851155 77.47001954945631 L 42.73983938105561 77.67421495090477 L 41.57094813457402 77.53458001052981 L 39.22792858427582 79.33531012673271 L 38.55784460442334 79.12586769151963 L 38.30288470266001 79.44926851784885 L 37.77988721881677 79.3833913106595 L 37.67725087039771 80.22908147890561 L 37.336642636675386 80.48728342180215 L 37.7315067843885 80.9700703802439 L 37.62756366547251 81.31453914442652 L 35.4427531234284 83.24897884348313 L 35.942867160554435 84.02420314383319 L 35.42640352919584 85.34414137146683 L 33.56585162664149 85.29404516696883 L 33.091234577226516 86.48751591538587 L 32.046546380036965 87.03881357324863 L 30.751476965496984 87.06842041015625 L 30.482790985842257 86.78454191800088 L 29.25832707952564 86.93141896201297 L 28.455531079130125 85.75574423685845 L 29.179222575398594 85.66616559958403 L 29.259633850022567 85.40864198044414 L 28.871961927716214 84.67555355580089 L 29.074621083560483 84.3666568874446 L 28.246328095453908 82.67723171942744 L 27.612853640210034 82.99009857682995 L 26.46814263559527 82.38216088528745 L 25.364629815349325 82.29916597859223 L 22.4267005024876 82.5830444707476 L 21.54349322746811 82.36701830495531 L 20.711928325445562 82.69831960797956 L 19.620824837246786 82.37886901999785 L 18.663091742513153 82.54418050963166 L 18.156443852902477 82.24581781020207 L 17.342525340262114 82.45131000706765 L 17.311152872988526 82.06336867036366 L 16.219391011867632 82.1331961159005 L 14.786392470144216 81.41592859534602 L 14.000584486208773 79.86416324853006 L 11.868074690083722 78.90122282387823 L 10.351382984473053 79.19102667355486 L 7.174184991158447 78.13719086551278 L 7.084626323055973 77.60105573868088 L 6.521747400688151 77.47788012475388 L 6.418462654694275 76.29035468455683 L 6.7440280646809585 74.78994243625854 L 6.277910011169674 74.11417236905166 L 5.6653438838766546 73.8678410918964 L 5.629392732190164 73.04914421902497 L 4.839664436763936 73.14333146770481 L 4.378773465240365 73.74929404007356 L 3.659660653384801 73.92250600640239 L 3.490339108233164 74.39080875756993 L 2.271107271577912 74.5409776668716 L 1.5238789433437752 74.12075609963085 L 1.6310889885020887 73.64191937953662 L 0.8629423569697909 73.21250054018374 L 1.9991493780072112 72.16063985131541 L 1.642206513073286 71.88136997056547 L 1.3081421071829142 71.9959667840408 L 1.2061591440123145 70.2913990356915 L 0.5628739346941699 70.1576894528378 L 0.7792591684298427 69.83562532332314 L 0.3353711763873002 69.2125450514485 L 0.5105731887751154 68.10865294030586 L 1.0577559021588385 67.93937126162582 L 1.3630563940958258 68.5222708262687 L 2.1403554067802757 68.67575155155868 L 2.3554388576926724 67.99866473823597 L 2.6326288209247397 68.13367111650678 L 3.0562518949175854 67.51851127202589 L 3.5517922353043705 67.60082785496448 L 3.001990993253138 67.02780388619038 L 2.3260215584908237 66.96851040958025 L 2.137088480537954 66.36454290708397 L 2.0808674231281143 66.86444756503163 L 1.7298050254303674 67.0422880934646 L 1.4996887261296405 66.67804818684569 L 1.2087726850061715 67.21023307533008 L 0.9394283324293276 66.51273669721189 L 0.5942513896414112 66.54567530080655 L 0.6923140413212254 65.90942756777353 L 0.11309550006814444 66.1722381220755 L 0 65.9114026869473 L 0.4393142953032927 65.28042193837763 L 1.6239017507689821 65.77703473103568 L 3.1569280875912566 63.88606760450044 L 4.783443379354096 63.90450205012217 L 5.041675195033395 62.608943576330255 L 6.079819564391001 60.707442480868316 L 5.703918551904308 59.73396808728978 L 5.005065670424787 60.100821535441646 L 4.4801130185098055 59.598941758320244 L 4.200962899532346 59.128005514921036 L 4.600395756311057 58.900128634086215 L 3.9427310838530465 57.668452297611154 L 4.878897477713705 56.93406707755078 L 6.536131851501669 57.27985258784924 L 6.993750909109266 56.634387632005364 L 7.846892487352092 56.44469638852984 L 8.683026098440239 55.60030301570085 L 9.317817299528349 55.70107399495988 L 9.73032783662365 55.44157525664624 L 9.73163460712058 55.13397538370707 L 9.03736041005396 55.278218935487466 L 9.40803434055294 54.98777666345163 L 9.121043598593909 54.54515046154293 L 8.369889971195333 54.73089146667094 L 7.352005532213772 54.11637004454925 L 7.099659171444303 54.39103131389375 L 6.618508269544689 53.700777039412664 L 7.336314310903325 52.96902531158397 L 7.380774433840808 52.29983897495629 L 7.920111536569308 51.719572902545096 L 8.485603999930987 51.67412521084997 L 9.114499770761961 51.08661703480168 L 9.565584975884915 51.134738120125924 L 10.26835816885522 50.423395957092715 L 10.513512304217931 50.63285834300453 L 11.095344386464868 50.331842200644545 L 11.924954120415677 49.30304451950211 L 12.385835116591943 49.19171962061765 L 11.946520821288651 48.4066197243988 L 12.396957628836793 47.62744518570123 L 11.91971706308066 45.54415332345879 L 12.13414712874459 44.6167849946333 L 13.114763670195428 43.20660975666733 L 11.58434588669336 40.44557270804427 L 11.922330604074515 40.14194302415134 L 11.764131571167729 39.721063083852684 L 11.4274536242835 39.43520947252356 L 9.827737103055 39.405602635615935 L 10.250053406550917 38.89185219275327 L 10.29582029998533 38.06722996236057 L 11.269244616029408 36.6254528176145 L 10.724022058391077 36.706472605135964 L 10.704410525589845 36.266499846157664 L 10.185991726159505 36.38373015186466 L 9.268788467525267 35.96877556908728 L 9.8820029923931 35.31080152514294 L 9.761710279244543 34.674553792109926 L 10.338315279503767 34.46377466008227 L 10.24743986555706 34.07188308503077 L 10.707672464158513 33.54496518100973 L 10.135646148312192 33.30258414220197 L 10.46448347221485 31.67376919691078 L 11.744520038366495 33.79129645816499 L 12.428988469032499 33.71490523274769 L 12.693095764274323 33.10499242203142 L 13.208901022710805 32.98973723549818 L 13.12064912510526 32.321867644986334 L 13.488051141688265 32.32120927192842 L 13.307617059639083 31.667165515632867 L 12.074654157418777 31.801533471544484 L 11.275130070939237 31.4103002695509 L 11.14241805039621 31.718558515547986 L 11.23852054633063 30.80367932412423 L 10.796582734686176 29.665551813969813 L 11.107773669206647 28.973322420314975 L 11.39345764066875 29.537767588637386 L 11.632726321121629 29.34478447987227 L 12.019739870505866 29.66752693314357 L 12.117149136937217 30.220121386423447 L 13.804469158196449 30.712803891432706 L 13.981631326329657 30.369631922667196 L 14.837376470219036 30.262277212828977 L 14.794233093125786 29.108328798585784 L 15.460396761487484 28.71051186601301 L 15.388484482767199 27.89642360454701 L 17.940048643819498 27.93662426247751 L 18.021766688940403 28.204043428184903 L 17.57591854115247 28.485946801166513 L 17.829571672418865 29.14260409899501 L 17.50596143050392 30.09040194331471 L 16.986235860576652 28.936453529071517 L 16.85548898345267 29.160400122257546 L 17.221584229538745 29.746591552190004 L 16.788803786720095 30.252421567658917 L 17.47065867639224 30.55804632142433 L 17.672011061739582 30.29260227489069 L 19.016119283629944 30.206315502905873 L 18.918710017198595 30.64235797423539 L 17.39482608618117 31.40636998190211 L 17.02808244252028 30.799768987174165 L 16.32268573320881 30.71414058824727 L 16.63125315138812 30.162184557326587 L 16.268429819218017 30.247812956253487 L 16.059885208463914 29.94615839153431 L 15.965747855948539 30.33475810129622 L 16.658056909596112 31.046758637387352 L 16.03569499124978 31.45840140417642 L 15.749352646865562 32.09004052580401 L 16.179519548690354 32.779656377925896 L 16.867908290847144 32.62420053346215 L 19.394633837110497 33.2196291369042 L 21.174126067466062 32.77570613957838 L 21.604292969290853 33.292728497031916 L 23.606704285866734 32.14009682890456 L 24.689308778161823 32.6670147329256 L 24.53045137233292 33.54763857463885 L 24.82658950777045 33.82557175857423 L 24.54417745022432 34.424950600363786 L 24.68408169617411 34.691691442314536 L 25.02729349554298 34.431534330942974 L 25.765369442624966 35.05658972199137 L 25.617624573693607 35.34771031778384 L 25.869970934463076 35.63027206382337 L 25.40515965144872 35.98856666222229 L 25.688878479491777 36.24742697817674 L 25.650313786811427 36.79409607393534 L 24.80567120447229 37.35461095460897 L 24.037529560613645 36.5075840895483 L 23.457004248863633 37.21234252200233 L 23.54656291696611 37.49951287944729 L 23.158242597084943 37.56076152453247 L 23.30924940458497 38.423589342983185 L 23.681230105580877 38.98410422365681 L 24.312100995178202 39.09277567961087 L 24.526521085494828 39.950994886656154 L 23.79629573674172 40.33498598501263 L 23.38574036771816 41.55610840186227 L 23.834212031847258 41.56532562467313 L 24.01660128196818 42.003981637535595 L 24.64877894206243 41.9802602567518 L 24.621316810932324 42.51968724887329 L 23.879968949934362 42.72057083433344 L 23.639393498984557 43.68351125898527 L 22.79606766248965 44.11690028738438 L 22.368514301658713 43.14935125132712 L 21.897169166159717 43.655181266796035 L 21.200929825674052 43.77440664237552 L 20.969501768202743 43.312029248729246 L 20.249730583425062 42.92145441979358 L 19.57114760766889 43.94235162424099 L 19.458047119927095 44.84140991157597 L 20.882556641094126 45.75363566006933 L 21.09567993626113 46.030272048587584 L 20.820450128774457 46.26341591388575 L 21.18262506336975 46.64674863918431 L 22.130552391702764 46.62302725840051 L 22.577717285334934 47.24215729192763 L 22.618247121434326 46.36350856938814 L 23.03467797002041 46.36678048397901 L 23.18896666678372 45.77993068098863 L 22.764685219868756 45.49605218883327 L 22.822213047775524 45.092309898739224 L 23.47137872432985 45.30241070701023 L 23.844666195822683 45.844471191363404 L 24.079366167209965 45.53754964218088 L 24.988718827515328 45.21875742725709 L 25.234531335800153 45.38408886758961 L 26.56490350445181 44.658920870340104 L 26.35112183636269 43.271808640100026 L 27.538327820495887 42.516993904545444 L 28.739249907173186 42.22192307040546 L 28.556202284130144 40.703096327184156 L 29.009901030246958 39.991095791093024 L 28.853008767837096 39.36604040004463 L 29.43418247716192 38.67051914110019 L 29.717911280552283 38.98007418251439 L 29.55970227229819 39.373282503681736 L 29.84604461668241 40.39615482730291 L 30.765203043388386 40.4126341044496 L 31.369270174777718 39.842243627907195 L 32.56757872046116 40.53712646449244 L 32.69309851559743 40.24337237646829 L 33.098416827285966 40.39617477800163 L 33.32723134376342 40.17683679622104 L 34.16860201218659 41.19839237372637 L 34.82953859856057 40.938893635412725 L 34.63864037718866 40.63658069763563 L 35.0707724224325 40.19858305783108 L 34.94328748387718 39.903512223691095 L 35.29827019306571 40.01481717187683 L 35.33030103326142 39.70392543364807 L 36.37890954194176 39.36933226533422 L 36.50965641906574 39.91470456567572 L 36.12198449675939 40.747227272763446 L 36.490703259186624 41.07787020272977 L 37.228120833346495 41.06799460686099 L 37.85899172294382 41.84519402638481 L 38.61013537499509 41.565924145634874 L 39.21158896539056 41.68383277509852 L 39.43320128111395 40.81837146441613 L 39.820873203420305 40.55424416399833 L 38.859219797195884 39.580111397361875 L 38.39375014125942 38.56250605820406 L 38.54607369460368 36.599077993900295 L 38.04334611648378 35.61572800445298 L 38.750039620944875 35.3898062920932 L 38.93308724398791 35.75272945259628 L 39.38875113352377 35.477409810193855 L 39.4129413507379 36.31914974009244 L 40.106557174882404 36.72357035394313 L 40.601444130020724 36.46670510786116 L 41.01853335152893 35.70003965726404 L 41.26957294180147 35.73429500697455 L 41.466346642735914 35.080251250679 L 41.39443436401562 33.98625468610387 L 40.94597267523383 32.95348681591519 L 40.197432588829116 32.63932316309556 L 39.920247613270696 32.12952295858041 L 39.34102907201762 32.41142633156202 L 38.491159407690766 32.35741979011395 L 37.86552557542846 31.308192593477305 L 38.27738771494895 30.99995429817894 L 39.575719068057595 30.855052373340623 L 39.88167294524305 30.506633370810487 L 39.40182881384036 30.279394912334865 L 39.497921334427474 29.843372391704076 L 39.09195462516412 29.79924144612479 L 38.5879103012 28.4286084930314 L 40.494887470110875 27.37477268498932 L 41.6382817288814 27.707390734129405 L 42.147553134833245 27.538767428507285 L 42.90196870080049 26.862997361300415 L 44.17023435713247 26.779344081547272 L 44.72526268117142 27.314820835321257 L 46.03471654652491 26.869581091879603 L 45.92814991126776 25.7354038200727 L 46.3014473581079 25.661626136188342 L 46.14257997693169 25.157771239893187 L 45.36593933716936 24.468155387771297 L 45.66926969801365 23.733111794653006 L 45.18484688219806 23.65209200713154 L 45.526103513495194 22.32558999961744 L 44.75861026721136 21.96990894275147 L 44.45330478760072 22.164887121389068 L 43.594936127370175 22.925607263766192 L 43.38835666003512 23.866821377506703 L 41.61409151166727 23.43804096051302 L 40.91197669161908 24.02357401738756 L 40.01634013385782 24.082867493997703 L 39.784922051733815 24.413510423964034 L 39.119406780946925 23.70021309245579 L 38.43232480928707 23.577037478528794 L 37.43471027602885 23.85499061316289 L 37.38894338259444 23.490750706543977 L 36.21613182462207 23.349799020053172 L 35.141367955308546 22.689849856935076 L 34.95570679127165 22.04502332345039 L 34.61838044681261 21.879053460758673 L 34.01627845884232 20.54989801031417 L 33.88617997929315 18.376369137739403 L 33.43378800367327 18.038484104135968 L 33.49720128648987 17.68743160937416 L 34.15748947528904 17.446367316682238 L 34.13983311055955 16.47157617698787 L 35.00735913961589 15.310365708408847 L 35.470863652133325 15.361100335266046 L 35.73824286129112 14.782151008970693 L 36.931982697908964 14.878313376824293 L 37.32945041126863 14.580609050452631 L 37.24055011608827 14.280929604907215 L 37.930245628741986 14.1090144339955 L 38.39440851418153 13.219851693228028 L 38.259731350219454 12.940581812478094 L 39.044880961232785 11.96776579195748 L 40.389627605350654 11.371020442399594 L 41.05644964663447 10.614250538369982 L 41.83571380273796 10.47724909022669 L 42.27830001195723 9.757348077440534 L 43.3602461313302 9.765906927193479 L 44.548758885960325 8.876085813368087 L 45.160656664983925 7.932896580453822 L 46.49886945661715 7.8143495286309825 L 46.43414940330363 7.172176438076697 L 47.736411043250364 7.04965919720762 L 49.718562429450195 5.619074394446169 L 50.35138848711926 5.681639785647183 L 50.76717093813053 5.053292529309194 L 51.70659927055986 4.907073858355038 L 51.807928848482 4.2161612108160345 L 52.615303533290415 3.902655931054321 L 52.823199746469705 3.2591461436854736 L 53.552776697648 3.2156735711641056 L 54.15944739468389 2.63869936404251 L 55.43948396083553 2.9396955557037656 L 55.48589925184476 2.093995412108299 L 55.85460803892469 1.8404220313159243 L 55.63233735027919 1.1890217426014131 L 56.67636717454663 1.2739817931210298 L 56.46847096136734 0.727971070420344 L 57.137258146070195 0.5888348975134973 Z" fill="rgb(0,0,0)"/>
        </svg>