<svg 
          width="16.22137451171875" 
          height="38.41688537597656" fill="none" 
          xmlns="http://www.w3.org/2000/svg">
          <path d="M 0.5099205373509598 4.050650158076482 L 2.2299122962656646 4.030260544262204 L 2.424731109491226 5.5444786550997955 L 3.030754281077468 5.710468466190585 L 3.0987463461540385 5.396943240073788 L 3.7243810787644205 5.168388038648777 L 3.9858752093273933 4.138931998710706 L 4.819396478938323 4.026968679018216 L 4.993306934123906 2.8334979471357475 L 5.902660903076398 2.5002215295550214 L 6.922501977778317 0 L 7.794587995567948 2.155094397095938 L 8.258761524344795 1.82774333695439 L 8.837970923788163 1.9034961389630114 L 8.924916176019295 1.6255430081797322 L 9.255060745528418 1.887695185791869 L 10.142189608701774 1.7711033040593478 L 10.46842383644006 1.9634280371020418 L 10.429839137538039 2.620763649580328 L 10.728621169987195 2.6721366980849894 L 10.247449624941206 3.6186177831761146 L 10.440293316558028 4.677720561008527 L 9.81204503919265 6.1083053439503745 L 10.86983238965033 6.471208548726993 L 11.22284048808485 6.28678429226987 L 11.516355529577371 7.156195829254778 L 12.159646652326474 6.5100725093045 L 12.45974543251479 7.007343668131175 L 13.101041482931834 7.0817797240422005 L 13.198440914182955 6.571321153541125 L 13.529902231431237 6.551589912775645 L 13.783555727729219 6.9283389022754625 L 13.628618410421517 7.4756663635092035 L 14.079065841553797 7.058736667334284 L 14.75240275362371 7.0310849992847855 L 14.71186288383627 8.028939132880572 L 15.591809486614213 8.878579527703103 L 15.682704982062821 11.40713104905487 L 16.22137451171875 12.593339726702116 L 15.571539551720495 16.319312218229136 L 15.803646266832239 16.995740649122553 L 15.141401956928574 17.496303673193218 L 15.537543519182208 19.439960568132882 L 15.25316590897052 20.543194290933183 L 15.522540575245126 20.71774295165834 L 14.209822882196944 22.696313568882726 L 13.600527791986126 22.68709634619956 L 12.796393937826425 21.884858810890456 L 11.954393610804244 22.07520842478676 L 11.903399561996817 22.77140799784255 L 12.43947549762107 23.987263413384138 L 12.034156602639964 24.075525303319914 L 11.725558814317077 25.51730242809132 L 11.493492000651974 25.60488599427985 L 11.677836684134226 26.588914293850888 L 11.39086547989086 27.107273340937535 L 12.111286098997365 28.747958929239612 L 11.66411058648966 29.744476366039354 L 11.964847789824233 29.91968339981331 L 12.079883660490756 30.761443268748717 L 12.746716636758157 31.294266572210464 L 12.98927753088989 33.75827758408162 L 12.148554050160227 33.97364537383223 L 12.45974543251479 34.661924519604 L 12.249225400035924 34.985325341452764 L 11.188844455546565 34.5124139854316 L 10.773709804691729 34.69749661493752 L 11.032590390499704 36.112260494009774 L 10.316758437756935 36.11030532556183 L 10.261854047178671 37.85900399526361 L 9.970932599717829 37.87416652608441 L 9.530300924459278 37.179303649824654 L 9.200156354950154 37.36241116018419 L 8.915778744738464 38.41688537597656 L 8.325436841682206 36.65501924529883 L 8.00901836981765 36.683987659445926 L 6.274662090112119 35.364049450098975 L 6.0210085938141376 35.42727321348199 L 5.8157156508452665 37.35644590134811 L 4.79326103138835 37.96372521141933 L 4.729179308082615 36.769596106488066 L 4.2565267218945175 35.711810074753245 L 4.491885404907517 35.55571581009287 L 4.797829747028765 35.827065259689725 L 4.850778966721611 35.06303331190933 L 3.7237227048948407 29.290019406082973 L 3.726994623519418 27.897640210669834 L 3.4491608505568814 26.70219435964097 L 3.0824067037544753 26.499335657817515 L 2.713697386066652 25.444841491326688 L 2.5750997111585128 24.367304268127942 L 2.3743954345533775 24.46610012684448 L 2.217502946360258 23.972100882563346 L 1.5879379212557196 23.75278285451995 L 1.8376810757828654 21.91648066793119 L 1.456542457466314 21.204480141704256 L 1.39182231101432 19.24171047765101 L 2.0422956941588364 19.114604577836175 L 1.5526450917015961 17.967898283116785 L 1.655271612462711 17.37641992621671 L 0.8734027655287889 15.71400802730431 L 0.5583010414033905 13.448925429662275 L 0.302034000350412 13.377142816644888 L 0.49096735019639925 12.439220581188131 L 0.12485162654025221 11.901110342637557 L 0 10.607527005940955 L 0.3745947810673978 10.580533710940255 L 0.21050008175554508 10.09708838613833 L 0.4458587647685453 9.761178476362412 L 0.8322045218717706 9.845490128005402 L 0.981914749669478 9.155874285437585 L 0.712579984841513 8.424780940795518 L 0.9531657573645078 7.988758426205469 L 0.7491895621347956 7.311671622263255 L 1.059722570619779 5.628171835090885 L 0.5099205373509598 4.050650158076482 Z" fill="rgb(0,0,0)"/>
        </svg>