<svg 
          width="26.18182373046875" 
          height="28.118881225585938" fill="none" 
          xmlns="http://www.w3.org/2000/svg">
          <path d="M 25.505854076864583 0 L 26.030796923379928 2.340834381457341 L 25.355465692209954 2.7406262537675032 L 25.685609893492103 2.957979043471733 L 25.77455011885564 3.762191348118803 L 26.18182373046875 3.9314530001313495 L 25.788914623624986 4.73039832267902 L 26.0824293377453 5.483227625822281 L 24.947553658162647 6.508074608640822 L 24.9449201656216 7.101507875863027 L 23.74987317161624 8.929250417803788 L 24.283354918188916 9.41269553232147 L 24.26436185077167 9.852688044519102 L 24.687995037260983 10.058180149154795 L 24.489286054618354 12.339721080614341 L 24.780845600033953 12.713836415189927 L 24.44547431507185 13.40606549815543 L 24.480108732126826 14.310390364070647 L 25.37182526708615 14.759580144252457 L 24.28726525559835 16.47140917862687 L 23.33278381507741 16.975922221542156 L 23.12425908750906 17.37310055349239 L 23.041862692096004 17.936887095715697 L 23.54984744270309 19.60326845879301 L 21.97625584662331 21.027907313921713 L 21.73110163189313 21.908530760389628 L 21.310780261781193 22.182513583007296 L 21.529759156709456 22.577696845980483 L 20.76947784038965 22.675854239651127 L 20.264765004757805 23.667762633658644 L 18.483965427380202 24.2091645019595 L 17.807995773776035 24.118927532127728 L 16.77379133178522 23.404313775239775 L 16.750887926958537 22.293180059164015 L 17.290873602079557 21.41123986717125 L 17.02872139003898 21.398032510543207 L 17.296779009595845 20.68934410851708 L 16.98690472059933 20.59252341106106 L 16.061192191019217 21.819570634703165 L 15.632331920849948 21.749104798433915 L 15.030898086437835 22.18841898717935 L 14.897547600495734 22.949817111579023 L 13.435759733204035 23.681568510979798 L 13.069664368596383 23.420074820158437 L 12.085775594700419 23.59396503219773 L 11.8124908914636 22.800945064511883 L 11.33658686817472 22.758130884264485 L 11.0437105764886 23.237625762207617 L 10.405647254914651 23.1006243755539 L 10.321974014633208 22.690298539044935 L 9.345945816958245 22.137045961020426 L 9.288407995076586 22.513774835955942 L 8.669297839517748 22.73772132862931 L 7.666455899606674 22.557905761728193 L 6.006597472106541 22.9860276135124 L 5.93992222913549 23.59923201429713 L 6.463588230782447 23.61243937092517 L 6.53090189618769 24.120244277652578 L 5.286177656521673 25.699022161947823 L 4.940990626633848 25.699022161947823 L 3.780617951085605 28.118881225585938 L 3.0510208130092105 27.38383796237304 L 2.3724176668639965 27.48065865982906 L 2.450903724867621 27.00379727293563 L 1.9847755451023246 26.951765874014278 L 1.9468293116699675 26.49268055170632 L 1.6441771764602626 25.963129393129115 L 2.0043671335516278 25.42172752482826 L 1.7807995773776033 24.589843613469565 L 0.8779904526241717 24.14262895157503 L 0 22.88659337569645 L 1.310761060202874 21.599614279983893 L 2.3011936640493196 21.21825684502163 L 3.305312448828782 19.630920114814863 L 5.114880937147215 18.293206415016034 L 4.871043468687557 17.366496875178367 L 5.749033921311729 16.955492715217208 L 6.039276720456804 16.503669443985697 L 6.385780496615153 17.362546638603817 L 6.132127283229774 18.328778494876758 L 6.350467755723843 18.815515473206567 L 6.987214331027266 18.080472209993665 L 7.540287666049246 18.33470384973858 L 7.993966608347775 17.698456402268977 L 8.86345806231675 17.210402678414322 L 8.527448354920452 15.87334735137792 L 9.023622290494965 14.876810397343656 L 9.211238683343485 13.340188320533384 L 10.623349304974527 10.99871551700339 L 11.547745088284115 10.725371116458376 L 11.698093571536608 8.945051364101989 L 12.932363643842713 7.43873438505304 L 13.110842615601843 7.3577146338952195 L 13.16706369121298 8.635496461623598 L 13.476937980209495 8.908162538716416 L 13.950248412359466 8.208032982601813 L 14.611853561194286 7.845109984987453 L 14.7275676273918 6.587099290821596 L 15.47412286137645 6.26371856033228 L 15.549297103002697 5.736122569352578 L 16.604449781115477 5.105142103982375 L 17.009768224023873 5.410766720575986 L 17.41313149822755 4.669788127156375 L 17.74391412194389 4.987253478128752 L 18.54150324926186 4.772534179474222 L 20.1235539425947 3.6442727962305246 L 21.27351235218517 1.7006167467234166 L 21.846815698090644 1.3982939692868157 L 22.63458908048289 1.9192862819524965 L 23.122942341238538 1.809288153903089 L 24.336304078824814 1.1703972400389 L 25.505854076864583 0 Z" fill="rgb(0,0,0)"/>
        </svg>