<svg 
          width="83.43740844726562" 
          height="69.54768371582031" fill="none" 
          xmlns="http://www.w3.org/2000/svg">
          <path d="M 75.0694873570599 26.43137895754041 L 76.72998391748195 26.441254551545686 L 76.85942404344637 27.251392421792808 L 75.93568679432823 27.32646688692788 L 74.71973167760827 28.20379869780081 L 74.49353066833199 27.888956780634565 L 74.04049022745653 27.98577750327621 L 74.36016025494231 28.377669004378586 L 73.74236695336802 28.284140146405367 L 74.40526878219349 26.626337148691068 L 75.0694873570599 26.43137895754041 L 75.0694873570599 26.43137895754041 Z M 35.81866447462194 0.6348710150221355 L 37.63148461114423 1.3758597765373493 L 37.87077327803961 2.4132161116857045 L 38.44082456028086 2.845288312437838 L 39.158650659571805 2.8169782762893743 L 39.7430863947755 3.3564051666221157 L 41.61541946220899 3.185826724712768 L 41.91352278559991 2.7366368276848196 L 42.32079632620373 2.6681261411916384 L 42.30772861928223 2.3375032243119063 L 42.9915387791821 2.129357623792582 L 45.964112917313116 2.2077439042910414 L 46.08571241912463 1.8039817396873716 L 46.83883130245243 1.7321991392207245 L 47.178132816366855 2.035828765819363 L 47.78022491893777 1.785547297544186 L 48.01622172073078 2.1596627294370614 L 48.74841232228659 1.66963375982567 L 48.848445120003234 1.8500877957402957 L 50.32459723469298 1.2632381034872597 L 50.48280626658229 3.188460216447509 L 50.741686518511116 3.2997651436302284 L 50.673694541124135 3.6995770706317868 L 51.030632471708195 3.6976019518307313 L 51.036517927497265 4.04933270397831 L 50.43508419794682 4.320682106131414 L 49.795065819257175 6.692480575079831 L 49.19427051202961 7.09622278898854 L 49.502189578634855 7.166030270654132 L 50.07160243855322 6.710915017223017 L 50.776979302547964 6.877543221530253 L 51.09732765375182 7.365597072340589 L 51.59940690930368 7.306303606919 L 51.80795155121275 7.634971355692636 L 51.8301766283281 7.339900577231906 L 52.3544809609953 7.71006577152267 L 52.630997629593764 8.344338265696 L 53.576979906524826 6.765559970718888 L 53.89076447822154 6.500794297902637 L 54.37127702967853 6.5804773735735065 L 54.44056580240887 6.062796740747336 L 54.86681245642085 6.002844902392063 L 56.85354282383584 7.068531224383841 L 57.558281265507695 7.248346838059742 L 58.290471867063495 7.01386632019301 L 58.79516466399966 7.628387626355785 L 60.444568636561634 6.709558369965726 L 60.837457724203006 7.2107996301447255 L 60.251705242958366 7.20752771617126 L 59.88038285941187 8.50111082669292 L 61.85991102499683 8.84294603414026 L 61.95339999390393 8.27848102163252 L 62.369192482378715 8.06706350713973 L 63.16087606414813 6.73790830750411 L 63.52042753611648 5.608998233183591 L 62.74181166126857 4.74814569634775 L 63.74728691841324 3.817485677846318 L 63.2707046543815 3.7615239784830763 L 63.43477919136228 3.473036929359197 L 63.058229725047184 3.343277609338332 L 63.44655010294043 2.7966086167350532 L 63.275273364129625 2.066173772853763 L 62.51954093941753 1.597212737120298 L 62.735287783156615 0.9471392925385225 L 63.45702421917522 0.6388811047091272 L 63.682566855431034 0 L 64.62459889423926 1.1677740281029054 L 66.98526518658504 1.7519902286212008 L 67.98287986887922 3.2359229197577237 L 69.08641280467911 3.8860163150344595 L 69.15504320438899 3.562615549730305 L 69.99708234687574 3.301780163821204 L 70.44162379057782 3.9353942850608497 L 71.07248479907364 3.9412797400740964 L 71.24310316486397 4.282456574587751 L 71.99099496542316 4.482043326969168 L 72.06682756696304 4.898952999551582 L 73.04744425491047 5.164396995996479 L 72.94743140789141 6.226791453319832 L 73.97183987704908 6.071994011123969 L 74.54191110998792 6.942742092660048 L 76.2560151948345 7.116612399237821 L 77.08235313831788 7.738375807671133 L 77.31116768897847 8.508991351202182 L 76.81301872085184 9.716946078954845 L 77.25494662316963 10.340026233255527 L 78.13684725944137 10.413145530284504 L 78.12180443345845 9.710362349617993 L 79.00829373017591 9.375769244441189 L 79.1331451956946 8.742155123201544 L 80.05492727644891 9.023400070054885 L 80.43213511578448 11.098791063980242 L 81.65988109478019 11.514383990695285 L 81.9063320621104 11.893108033123957 L 82.91244574157795 11.880618898078897 L 82.90264994906123 12.350896679679733 L 83.28442649814492 12.673639072050202 L 83.11771846908225 13.591790004811616 L 83.43740844726562 14.126608284608562 L 82.04099927084341 15.057268303109993 L 79.5901159239953 15.014454111725495 L 78.39965779879545 15.605912414514327 L 76.58288742415031 17.041763930796872 L 75.36627393440988 18.432167763960177 L 74.41181261100303 20.233555913302727 L 74.42358352258117 21.050277512886698 L 76.43122222107056 25.694380335017225 L 76.25928710923928 26.24041090538178 L 75.21788064573488 26.05335318943534 L 74.48371492511767 26.432077231864014 L 73.74302532638849 28.284180047795285 L 74.38436045111908 28.367833311763228 L 74.05617147576233 27.9871341505335 L 74.49418904135246 27.888996682024484 L 74.72037009993115 28.203838599190732 L 75.93634516734872 27.3265067883178 L 76.84112925375626 27.552428458046627 L 77.45892255533057 27.344961181155945 L 73.89078019274059 29.887996464947395 L 73.13831968243328 31.80332303320741 L 73.82671850277886 31.996964478490696 L 73.84174137806419 32.667467434711675 L 72.46169177366583 33.8727886707296 L 70.73188648981585 34.65196306239855 L 68.78894790361107 37.186439498052096 L 68.47711850027818 38.04992552662268 L 67.837758494609 37.9162159689997 L 67.12974813853238 36.82812501656766 L 66.54595082565156 36.94208338618009 L 66.39298882722845 37.324757666210864 L 67.19119628710982 37.36228492343093 L 68.1391337324047 38.39305752924243 L 58.55130728735616 41.51965064061849 L 54.74587132762981 43.4554067205177 L 51.38954552135367 45.810725915429025 L 50.3553213089817 46.96928272246034 L 48.27380517731626 48.49205941668429 L 47.057830109898696 49.742169962887765 L 46.19881292376277 51.22346916228955 L 45.62483135409628 50.867808123234816 L 45.28030275741325 50.52465616992011 L 45.39340326205139 50.06622910112561 L 44.88609692373093 49.9852093288924 L 44.83380614534734 50.4910591996072 L 43.884551954011506 50.46209079052505 L 44.26764524913615 51.14907302078312 L 44.73834205737882 51.08319582602468 L 44.74293071782454 51.500125449302054 L 44.17090431652187 51.46325656501568 L 43.82833088820267 52.069857445279276 L 43.53349947921652 51.31506280285163 L 42.48423244086164 51.95460228049444 L 42.2410533879362 52.53025963287483 L 41.46700622283641 52.05668998660557 L 41.816103529267565 52.73706853683183 L 41.47355005164596 53.15531490597657 L 41.66248315782398 53.50834245329656 L 41.230351048022925 53.90747605666947 L 40.78515123130037 53.76059904037279 L 41.091115129541784 54.029334901486116 L 40.59557970279946 53.94963187512028 L 40.870799576054566 54.18147890125228 L 40.74592815983828 54.41530104618532 L 40.38505994182898 54.18806263058913 L 40.33342753646586 55.270228226617995 L 37.85768562042051 55.50534716672345 L 37.46936524252727 55.903183974923955 L 36.90583783839797 55.954557014446365 L 36.15664924249542 55.12203446445395 L 34.96226082987032 55.20303428599219 L 34.0097546748273 54.886895573653526 L 32.87222575033392 52.13507626710403 L 32.22241157912754 52.56912358665722 L 32.776781613062994 53.593312463131866 L 32.308059923881736 53.44248520923308 L 31.76021376805824 52.470986118148204 L 31.998824111235553 52.08436160051531 L 31.640589385308143 52.01718761058446 L 30.63120379143582 50.02806342166682 L 30.2343844163692 50.51085028900768 L 30.37296196182987 50.9771778330064 L 30.021909487034886 51.533742370309916 L 29.579323211696632 51.18530348283077 L 29.373392111171864 52.17789045848853 L 28.88178697185479 52.09555394038796 L 28.856289980334672 51.867657151858076 L 29.131509853589776 51.89662556094022 L 29.018409348951632 51.31701797095773 L 28.857586775678026 51.48629961769466 L 28.578436614997678 51.12864350914392 L 28.388845135799183 51.245893743424766 L 28.64315667797989 51.94865697339632 L 28.59738977770825 52.25162822706127 L 28.240451847124195 52.26150382106655 L 28.33589598439512 53.04399002809889 L 27.697194351746415 52.31156011472159 L 26.84144908001527 52.112651685968814 L 26.2798768442498 52.405088972694806 L 26.60413553218131 53.45958295481393 L 26.83358850516478 52.87800024603038 L 27.305602059448397 53.367370842708084 L 26.846017789763398 53.315339430251996 L 27.731190340439905 54.29342225067372 L 27.52591761293561 54.70837675515004 L 27.01402261416943 54.68994231300685 L 26.97807145711211 55.15166124646978 L 25.92816599643434 55.30314687330226 L 25.74445997302492 55.77539977370415 L 25.10509996735574 55.648273945418026 L 24.908964659347703 56.37080831409509 L 24.863217709773657 55.98945077993168 L 23.922482466308786 55.552111595710066 L 22.80065474081879 57.26392112468151 L 22.261307582168666 57.4826006921398 L 22.21292714051273 58.21435228188846 L 22.841832980644707 58.24266231803692 L 22.47116897011868 58.5107198555216 L 22.54763999398144 58.79986527757916 L 23.32559749580888 58.9441088021411 L 22.313598360552255 60.29566863221698 L 22.615631971368423 60.663838757011725 L 22.90066758783784 60.51762011364873 L 22.83399235649181 61.294161013582944 L 22.337798556729016 61.1617881525223 L 21.18131646952506 61.6399464586324 L 20.623016148164364 61.416019858399586 L 20.524300096488666 60.75341737738283 L 19.981042601110886 60.79623156876733 L 19.354770253060796 60.368767978551 L 19.040965730666485 60.65330479007277 L 19.2743489910752 61.01096089862351 L 18.915435941429724 61.93240369605335 L 17.434056743971375 62.57523503836459 L 16.99735592442219 63.41039108009174 L 16.365836542905914 62.81366579383343 L 16.30700193571278 62.28345612457228 L 16.783584199744524 61.71109063686032 L 16.63582933339242 61.390343313985866 L 15.741519363219654 61.08932722842701 L 15.995830905400359 60.39446447365968 L 15.672869012812201 60.442585549903576 L 15.576766502520805 59.43683111557211 L 15.248597477861637 59.468472917778925 L 14.90472725419908 58.96064792826307 L 13.361879957465705 60.79497467498484 L 13.678956394264787 61.38445785897262 L 12.994487861344448 62.13466384155943 L 13.796625608651059 62.288782960126646 L 13.50702128243351 62.755768877059054 L 13.028483850037938 62.86970729597651 L 12.972901206551985 63.59750864812306 L 12.607464278794556 63.88731244311431 L 13.41548748189024 64.69481682162669 L 13.311544347445942 64.90491759025211 L 12.980103408382003 64.65529449491062 L 12.931064593705596 66.12540135443976 L 12.598965281621183 66.16356703389853 L 12.494363774156414 65.81514809711435 L 12.070730661528732 66.01273977999975 L 12.074660948953976 66.9045358447188 L 11.724905269502347 67.00071814512171 L 10.844959801594438 66.5561169079346 L 10.611576541185725 66.07993372062556 L 8.754944672755627 65.87376323890729 L 7.757329990461448 66.8215609043795 L 5.694767021506582 67.62840690995819 L 5.109672913282412 68.24422501129337 L 4.355257234611264 68.70857743649104 L 4.151281302450323 68.36740060197738 L 3.806094332746821 68.48068064796117 L 3.096128808306363 69.36722967990569 L 2.515603409830321 69.18741406622978 L 1.3173046604775631 69.54768371582031 L 1.0191813863890518 69.23286174934903 L 0 69.49367718456317 L 0.12159950181151553 68.36279199144158 L 0.7158509802295305 68.49518480319719 L 1.2643355583759104 67.14035305914786 L 1.2172718627609203 66.29727659152151 L 1.6931957537721922 65.37649216702536 L 1.884084028314043 64.44056516505444 L 1.6402466023681295 64.05854925795735 L 1.9573030884696232 62.97243342432637 L 2.852949755380922 62.36317910163307 L 3.745962930210331 62.22156906880587 L 3.738122306057431 61.814534990228736 L 4.9259668898729885 61.726931488658686 L 5.161305318645529 60.77520353627933 L 6.47272452333402 59.305096676750196 L 7.004869480154127 59.08312524462348 L 7.166350426448205 58.56542466110235 L 7.690654759115413 58.639202331065015 L 7.795256266580183 58.24072710062578 L 6.889813807152157 57.74477277461123 L 6.848635567326239 57.31994267612963 L 7.697837010247841 57.631472777932494 L 7.975032002564362 56.73770159441239 L 8.87849934293097 56.32998919220661 L 9.49236235708003 56.426809914848256 L 9.53160537923971 55.793854166542296 L 10.184033091830388 55.76751924919488 L 10.622689079743397 55.286049127721405 L 10.781556484653176 53.77444482267514 L 11.695497941254574 53.555126832978125 L 11.497407464882706 52.046156019666604 L 11.073774352255025 51.3842318622785 L 11.320245270282829 50.94425918632214 L 11.15092369983585 50.55366448039218 L 10.603735917032825 50.42326673813259 L 10.863932915002602 49.95364732946543 L 10.493907326799455 48.405832513066485 L 10.924064317539091 47.61873769549835 L 10.344855665103994 47.00555308589791 L 10.694611344555623 46.94689804271504 L 10.922767522195736 46.19605363788951 L 10.050662678440728 46.10449989871735 L 9.67804349955087 44.855047725447555 L 8.724878971487382 44.972278009033445 L 9.049796032439366 44.436801356302816 L 8.932765240375979 42.03142586773645 L 9.237412392576445 40.878814367803265 L 8.14696711439564 40.69439014359157 L 7.876315950888664 39.8348543526231 L 6.360940764736822 39.0576550797552 L 6.192277567310317 38.44510889239348 L 6.592368856781708 37.19104810858789 L 7.616118952918887 36.224816000972496 L 8.752989504391799 37.57043052395025 L 9.211257028035854 36.98884781516669 L 10.8613193736183 38.03675806794897 L 11.575195234786415 37.74497915415667 L 13.064435007095256 40.19578237514731 L 13.739746169821752 39.44098773271966 L 14.472595144398026 39.1314127990229 L 16.541043569141966 39.692585946862216 L 16.2363964169415 40.30710725302499 L 16.425329523119522 41.05531816611578 L 17.25557780333055 40.2636346887068 L 18.035510424219407 40.18129817060623 L 18.2381696103394 39.60169058062373 L 18.006083145274044 39.273681204783784 L 18.101527282544968 37.8602343189415 L 17.065347901809172 37.71664916731324 L 16.608377173508472 37.926749935938666 L 13.768515075746642 36.84789615527318 L 13.605078961088735 35.6070028301413 L 14.079706056756653 34.765263059077284 L 13.963333637713736 33.87015517899486 L 14.294116203757204 33.586276740406774 L 13.808396520229204 32.818294688610465 L 14.292819408413848 31.4983766607414 L 14.031325615100718 30.802855533040383 L 13.730588799627906 31.107143532572707 L 13.626645665183608 30.268675675482164 L 12.85393519682236 29.62386921436987 L 13.458640840777575 28.595730100293107 L 13.00560039990212 26.625718677147304 L 13.16249268575048 24.78744169282342 L 13.912339654673502 25.10226365929471 L 14.10518309757918 25.629839836821116 L 14.70075132203814 25.668683839908542 L 15.064891454452214 24.500909811805638 L 15.985356789165568 23.943028528634752 L 16.934591029803812 22.54669933906828 L 16.757428835203935 22.03887434955243 L 17.245123637793352 21.58836770665711 L 17.120910594597536 20.88887639065902 L 18.71277675530973 20.737390763826546 L 19.213559215518238 21.038406849385403 L 19.537159530429275 20.75452841079732 L 20.451081036333086 20.894163324823467 L 21.501664820728916 20.505563688389515 L 22.658785330255757 21.337427865448248 L 23.74334515264749 21.599560046529756 L 24.70500867788435 21.093071753576236 L 25.092012309736653 19.26072012565552 L 25.861470814390717 18.88594632082896 L 25.581023858367015 18.492738073859215 L 25.798725870469926 17.57063690349569 L 27.232382999292817 18.08700079045449 L 27.613521126053634 17.962528404598064 L 27.49192162424212 17.211005676143888 L 26.89635339978316 16.555006875158945 L 26.682581675105492 15.796242044434232 L 27.313442683601295 14.068611614359384 L 28.141735795448497 13.529843096960326 L 28.29928645431733 14.179916541542102 L 28.734690478523156 13.87957877961189 L 27.848201181805702 13.151119054531655 L 28.729463395754557 12.169085996507816 L 28.49803530370967 11.561148419681894 L 28.822932413964065 11.091529011014744 L 29.446611171327444 11.395836961242027 L 29.374050484192335 10.834663813402715 L 30.102969171343364 10.661431929063665 L 29.925806976743488 10.244522256481252 L 30.321967978789633 9.668864904100865 L 29.676722517331385 9.353364614000933 L 29.42765800861687 8.890348885365594 L 29.471449789827087 7.53156690371414 L 30.319354437405334 7.381398022749034 L 29.75648540629651 6.814299518506553 L 30.941736399425356 5.026737200771391 L 31.58827865622696 4.717162267074626 L 32.40677597555744 4.7567244951806185 L 33.88815517301579 3.2609410912377617 L 35.847433380546825 2.906576847355442 L 36.35865005559494 1.4766706381710257 L 35.46236496636077 0.9115472527296012 L 35.517289236826244 0.6177932201362406 L 35.81866447462194 0.6349109164120559 L 35.81866447462194 0.6348710150221355 Z" fill="rgb(0,0,0)"/>
        </svg>