<svg 
          width="41.822654724121094" 
          height="48.53956604003906" fill="none" 
          xmlns="http://www.w3.org/2000/svg">
          <path d="M 27.38797505962204 0 L 27.093133658520063 1.111797343523089 L 28.20449730632506 2.5930915256793305 L 26.995724371997046 3.202335860862501 L 25.524799256427364 4.9161304497691605 L 23.96692899581574 5.55040791895384 L 23.93489814901334 6.353298683228181 L 24.504311041313066 6.685248314695891 L 23.36744042518863 8.030204437889939 L 23.638091604086988 8.283782753444974 L 24.33368269047065 8.10331874578556 L 24.887404358223453 8.356892073666955 L 26.179850523002575 9.443656283188535 L 27.68869194149842 10.16421551867967 L 28.741879351822387 12.350262998560405 L 28.062637863043562 12.307438832683346 L 29.17008119854917 15.059926432564755 L 31.233302657855727 18.803005918832238 L 30.980297871979307 19.64278052967784 L 31.407851320997537 19.969463177781215 L 31.49741000757241 20.526676101547025 L 33.1840720038009 20.326450930924075 L 33.18276523303444 19.95695409229092 L 33.73975881537808 19.78373218675747 L 33.45472318269926 18.99005365569707 L 34.04766792414469 18.777319399583828 L 34.10193382467569 18.363681649232532 L 34.32223941534244 19.170527638703767 L 35.26690499995377 20.538536789464057 L 35.0322049801572 20.910667119779376 L 35.51989981048084 20.471352825526953 L 35.8186615238822 21.062162718934953 L 36.17037239169874 20.906716882256127 L 36.22267314840536 21.239993234912202 L 36.48351855888057 20.892881075577467 L 36.45345285590255 21.35196650814071 L 36.939830940110355 20.954139683229698 L 37.36541924530421 21.423100709601062 L 37.07777007109246 21.977680141684704 L 37.69883532239026 21.80510663372451 L 37.828275455715676 22.031686671863692 L 37.21178888977518 22.515131902486978 L 37.19675603828617 23.399037449703442 L 37.69556340779942 23.678955669753787 L 37.32946808620242 24.587230990377577 L 37.48113329790707 25.376939333220164 L 38.88406643222321 26.029666207200933 L 39.66790943441528 26.941881790000696 L 39.65679689522566 27.419401664339105 L 40.460251434264045 28.122184830975613 L 40.72109684473925 28.761724295850986 L 40.466136890387816 29.2201413801464 L 39.98628268466296 29.176668816696083 L 40.027470902179964 28.86974733155624 L 39.6600688098165 29.009372267447503 L 39.52408484730941 28.65765149766898 L 38.58399794805538 29.28008324195755 L 39.07169277837901 30.303613725065272 L 40.00328067997635 30.727785442145237 L 40.35172960855141 30.464326545108435 L 40.55700234772915 30.94381156286119 L 40.93225504004076 30.569047740863702 L 40.88256782486706 31.185544153520112 L 41.63306323414091 31.83760267923306 L 41.24408446110676 32.782756858754475 L 41.72720060607309 33.139076263629505 L 41.2970435908713 33.67192938933527 L 41.29573682010483 34.36416861389583 L 41.822654724121094 35.19866626602982 L 41.1787159967355 35.65905846908686 L 41.1787159967355 35.23686187076852 L 40.524313127868844 34.47876540345922 L 40.196134109198006 34.829169427396664 L 39.503824912754546 34.39973072695236 L 38.7140964544387 35.11963158952296 L 38.86706843690982 35.5721233175335 L 39.23904921463059 35.6597168420074 L 38.91936919361645 36.0845469320079 L 38.364340755097174 36.19519348404805 L 37.47786138331623 37.074490420820716 L 36.62669474827789 37.16471743697679 L 36.42010526298432 37.76474455127237 L 37.12419534702468 37.298426991930455 L 37.50793706164362 37.70415429188797 L 37.402028777463904 37.9550941280872 L 37.875997527064996 38.10131276853115 L 37.708641090813416 39.69261009282792 L 37.357578620705425 40.09569392575598 L 37.0254792897352 40.17671369637175 L 36.72605920327592 39.801939899026976 L 35.98994824778253 40.15300229588496 L 35.849385599918136 39.827626418275386 L 35.319205756660395 39.771006347108795 L 34.74587255206128 38.159299462275236 L 34.34642963754606 38.46162231231857 L 34.62885172869195 38.86669123935554 L 34.46933591703915 39.34552785953503 L 33.592013915972814 39.00105916722975 L 33.90776364933821 39.34354276542612 L 33.55147409616436 39.65179097175433 L 32.56955058168478 39.4805441849825 L 31.922349915057712 38.847588449312546 L 32.032826909245365 39.22631248418056 L 31.740609025025677 39.227619254674366 L 32.6218513383914 39.70974773945657 L 31.847165706913938 40.766216819285944 L 32.080548980594685 40.937463606057776 L 31.745177735033618 41.10739364698852 L 31.922349915057712 42.25211462421234 L 31.407851320997537 42.49713907947397 L 31.658890963049583 43.13075318806447 L 32.444030760658755 43.440308164886474 L 30.72533791762787 44.588989354980825 L 30.19514809902077 44.44079559577524 L 29.62050812365519 45.37475743564744 L 29.373398769251896 45.226563676441856 L 28.651662292189602 45.61648005095908 L 27.48014728772984 45.36817370644202 L 26.79241677664368 44.336732772940515 L 26.34133147847975 44.41905931405008 L 26.00660863062723 44.130572270685406 L 25.107709948890204 44.395357888910574 L 24.99199589628734 45.23974111019997 L 24.005503671799815 44.95520430435855 L 23.83944403096534 45.378707673170695 L 23.230808064972983 45.43865951032912 L 23.061496460246392 45.07178618803085 L 22.450236977371752 45.163349900722565 L 21.52715804878047 44.40787694974815 L 20.630872908576368 45.93329708060161 L 20.036621396364477 46.20927503847599 L 20.24320090630868 46.75529562259259 L 19.795387522735584 46.57482163958589 L 19.286774384799177 47.5311781341038 L 19.6142950304121 47.87235496180637 L 19.499239350867146 48.19377062654541 L 18.50554492414003 48.53956604003906 L 18.474820848104095 47.587159783044406 L 17.81911120847097 47.21633622322289 L 17.607304615460915 46.70062074414578 L 18.119838065696715 46.30543738626422 L 18.098261385026028 45.71396911993567 L 18.6081812937289 45.28980737820299 L 17.942675861021982 43.92048148160161 L 17.573957022542693 44.218854094121696 L 17.555652256462842 44.832048666828115 L 16.681602169987347 44.4263213668706 L 16.91303027519308 44.112806177178065 L 16.559354263552162 43.75120981359141 L 16.87379722615109 43.374460897485015 L 16.607724732610034 42.71121003212286 L 16.343617382893353 43.28160038964678 L 15.309393111707145 43.6392365403629 L 14.294122004309338 42.172431550132224 L 13.87703269677218 42.331827624334295 L 13.825390313123469 41.868143556674546 L 13.389337866448546 42.01436219711851 L 12.726445975274554 41.484152538442196 L 11.669996625709107 41.970889633668186 L 11.215639412954335 41.85364937707535 L 10.51875153115357 42.59462814845056 L 10.616160817676587 42.87653146260981 L 8.865427152493941 42.26398528747665 L 0.27261133504805507 41.841140291585056 L 0.3229519356049832 40.624626739980336 L 1.3061822208510303 39.446298817767044 L 1.3009551377851767 38.274574575453734 L 1.18524108518231 37.21613037686273 L 0 35.51747836512853 L 0.43997275897431315 34.750823049852194 L 0.7746906191521482 34.68495583175617 L 0.8766736033577867 34.0164280076824 L 1.2512679226114802 34.10139801582141 L 1.5389170968232269 33.417717639227895 L 2.2273109686419788 32.84931237581288 L 2.824176022386799 32.958642182011936 L 2.691468962145227 32.55225650913388 L 3.0301071346224524 32.226232233951045 L 3.0078820562432123 31.62949698425817 L 3.2523828567882602 31.742787003327763 L 3.381822990113674 31.320590405009426 L 3.827676217537072 31.313338327536183 L 4.939039865342069 29.92556801381236 L 5.618934739504128 29.756296345802156 L 5.350248704430144 29.15297736690386 L 5.832058078630011 28.917838480797634 L 5.6725422669772145 28.6491126003965 L 6.08831981607323 27.882447309772875 L 6.729645001925894 27.91075734535617 L 6.764299365610579 27.277143236765674 L 7.45660856205404 26.947817121632852 L 8.201876888262037 25.988837110780064 L 9.126272562969143 25.548196095339275 L 9.403467571049184 24.363294419267845 L 10.28143796982407 24.691303788559583 L 10.96133783166081 24.458798394135528 L 11.265326628128031 23.91606967462164 L 11.031284981389371 23.352282996997694 L 10.399765563959864 23.501793502044364 L 10.267063491392973 23.249526944656772 L 9.868927347644213 23.308172011321393 L 9.774131602654125 23.91939146526619 L 9.315205679891411 24.07351058075665 L 9.198843229579994 23.49522972353351 L 8.66734664020643 23.22584547021183 L 8.756905326781304 21.079310340910883 L 9.31455728218286 20.659757209621993 L 10.548827209480955 18.064032192260495 L 10.335045497297157 17.633945094242936 L 9.505445567580141 17.39222247893129 L 10.025829617764083 16.871230041142564 L 9.985299773304993 16.327842948708135 L 8.840588532581773 13.828948627402681 L 8.851701071771394 13.469327382577656 L 9.313250511416397 13.339578040494521 L 9.376005434254727 12.119104276019273 L 9.97744917335685 11.19567640287574 L 10.282744740590534 11.270770817206628 L 10.792674624642771 10.674693940434294 L 11.38626776379675 10.566670904729037 L 11.467337428064294 10.032511008529472 L 11.833432749661295 10.365128988265004 L 11.994903729789105 10.124723118794444 L 12.835626174045105 10.077978641435978 L 12.961794392779678 9.393649867269202 L 13.601154434807965 8.965527912665989 L 13.701177262863908 8.534777454054247 L 14.434026279115821 8.289757986466254 L 15.514665850884885 8.887151609079673 L 17.037891723161188 8.011804909830252 L 17.697521675093704 8.252215766974452 L 18.12049643875463 7.463819182299311 L 18.719975034032377 7.941992441884621 L 20.416442798684024 5.550452808016604 L 20.469391953099198 4.997190121774047 L 19.858142445573918 3.884076032409874 L 21.126408363498783 4.096161890949856 L 21.909592992632945 3.8399500837126537 L 21.848144840561076 4.205496684822556 L 22.15605394932769 4.324717047850664 L 22.30707076332379 4.879291492260664 L 22.689515682525627 3.6963599472772195 L 25.184859300858356 2.570736772422753 L 25.65554616051924 1.6249292076544402 L 26.454422014200325 1.4510439415268033 L 27.38797505962204 0 Z" fill="rgb(0,0,0)"/>
        </svg>