<svg 
          width="36.33576965332031" 
          height="83.80801391601562" fill="none" 
          xmlns="http://www.w3.org/2000/svg">
          <path d="M 2.830056567282765 83.80801391601562 L 2.311637646919411 83.80342525768285 L 2.252144661715504 83.05914487610626 L 1.1283616735982445 82.64026022238885 L 0.8106467878262065 81.8814956410314 L 1.3839800079124824 82.00004263152431 L 1.1976604274901863 81.39078850906182 L 1.9023989282758362 81.66610800902849 L 2.1488598916281045 81.40267911935024 L 2.8758234713933493 81.54492752766635 L 2.830056567282765 83.80801391601562 L 2.830056567282765 83.80801391601562 Z M 2.1344754374590846 69.91323727334957 L 1.879515476220544 69.46666106412826 L 1.4741970699822566 69.68795409989858 L 1.442156246964995 69.18276276814812 L 0.8126019563540343 69.49431271825534 L 0.2000456615156186 69.11098019127276 L 0.526259545173929 68.56433132902008 L 0.9714593992400534 68.98058249186825 L 1.1015579091376648 68.74871559124414 L 0.8433260332199017 68.22840163768393 L 0.4621978498386692 68.11843344320448 L 0.7478818879430773 67.62178100609069 L 0 67.42223422068005 L 0.47395878705453204 66.96053538964898 L 0.8407124916163767 67.54736493834606 L 1.2355767314405637 67.31027095736027 L 1.4807309239910695 67.51771821537864 L 0.9760380847210381 67.68634143376403 L 1.266300808306431 68.52941762431416 L 2.101137818989692 67.74036789796038 L 2.6450537330118635 68.06241191016778 L 2.1344754374590846 69.91323727334957 Z M 35.76178803550797 0.8812817588426084 L 34.62623413482522 0.3800406633960303 L 35.215258579882274 0 L 35.25316490848302 0.4781780996522681 L 36.078206125827876 0.4143159460730412 L 36.256006757664636 0.12451224632550922 L 36.33576965332031 0.5348380547178739 L 36.334472857868185 0.5394067623622485 L 35.64346043817586 0.6032888666298788 L 35.76178803550797 0.8812418574658016 L 35.76178803550797 0.8812817588426084 Z" fill="rgb(0,0,0)"/>
        </svg>