<svg 
          width="120.13468170166016" 
          height="109.52479553222656" fill="none" 
          xmlns="http://www.w3.org/2000/svg">
          <path d="M 61.34475387942852 0 L 61.34998096132943 1.1717342307111511 L 60.36675089521174 2.3500521907010485 L 60.31641529354757 3.5665657558550654 L 68.90922919594914 3.9894107564562336 L 68.71768258018312 4.5532173910543134 L 69.10927480747769 4.6342271872250675 L 69.38123269653241 5.219111730862527 L 68.17311840450967 6.454069713344425 L 68.26529061207543 7.142348732700376 L 69.00205977642608 7.184514526126527 L 69.83428303755129 6.755075820899221 L 70.09119810312016 7.002075397673514 L 69.55905323463493 9.991667060373008 L 70.21410435522165 10.565339313541815 L 69.7283747769749 11.644861432960951 L 69.2341462029656 11.519720699927815 L 69.04651989862529 11.787788210394096 L 69.07659557024984 12.174412724614768 L 69.43941889639508 12.27453528638867 L 69.97222213779149 13.163697851525514 L 69.95914445769206 13.696541007818702 L 70.58935696390229 13.651113275795355 L 70.70376422024123 13.003663353315023 L 72.16030455741742 13.261186921587917 L 73.31677647730078 12.50440719169083 L 74.49416670013494 13.124853848780912 L 74.84914940342881 14.42632744767293 L 75.36822656716174 14.586381896578207 L 76.03700376541194 14.344000905646427 L 76.55935284300651 15.204195061956788 L 76.97186337325188 15.293773681537305 L 77.95378666889435 14.635121443935711 L 78.54934481914316 15.164672735589528 L 79.86010543322779 14.245205065075666 L 79.80127083580106 15.148871785320537 L 80.2163949069969 15.302990902527549 L 80.39029513367373 14.855766152900236 L 80.90610038354502 14.740510989132611 L 80.97408237429835 15.88852384374549 L 80.43343851005056 16.615666816540827 L 80.91328263348521 16.83829661963637 L 80.70016931720437 17.750512212596217 L 81.37941065460353 17.83811571339311 L 81.44020042006953 18.594237070362322 L 82.48553699747558 18.684474062870713 L 82.55941441838814 19.23971187405903 L 81.88278662193943 20.010327410788875 L 82.51627104201131 21.414557063166292 L 82.31361188953228 22.180563989401016 L 82.72938435829217 22.765438557691084 L 83.09613797121024 24.886945564293114 L 83.94927953528625 25.080577032519994 L 84.10028634027873 25.958557233230362 L 86.14128226633787 27.337758739001153 L 86.03276046481103 28.117591496721243 L 87.65992911480242 28.33560271397427 L 88.11362785338535 28.721578830614458 L 88.55555568234408 29.506678571757547 L 89.43222909032136 30.091553140047615 L 89.32893437069544 30.702124203219576 L 89.90161904995416 30.97480032418098 L 89.79309724842733 31.306759934693275 L 90.44748999610286 32.049045484829726 L 90.06636190795727 32.21569363836114 L 90.08400829704642 31.85342892247183 L 89.5557837399869 31.776369363868323 L 88.30190255528971 33.00869385463872 L 88.93080829102472 33.21551273211788 L 88.96480427407495 33.67327144859119 L 89.39039248441975 33.081144802747104 L 89.66365714394969 33.31233345390502 L 89.24918147031791 33.614646331968174 L 89.31390152255673 33.891282665844216 L 88.76540706011043 33.98086128542473 L 89.04652231783889 34.30359369959939 L 88.57974589915653 34.445862104104656 L 88.99683511373877 34.700103783085574 L 88.67192808206944 35.44107258736628 L 88.33459176786472 35.22108625132962 L 88.13062584491047 35.501014449845044 L 88.20253812243662 35.75392940762281 L 88.86673663634994 35.870511292593584 L 88.6706213115942 36.5620921519363 L 89.85585215727974 36.823575933123834 L 90.38146317338881 36.50412540824116 L 91.54251377760905 37.449937971217395 L 92.231560881246 36.930930621756964 L 91.81839197808944 36.574601237565915 L 91.89423454238842 36.02990736857098 L 91.45360350855778 35.78093267301307 L 91.63208241957149 34.88385965739433 L 91.29671124875318 34.47747397999003 L 92.10277914967953 33.96965897030347 L 91.60266512085813 33.54087863800404 L 92.61269894473872 33.35975625540677 L 93.03501524122188 33.546155596774426 L 93.24290147560181 34.05857921695611 L 93.84631022404915 33.901816632690206 L 94.02870944648855 33.30904158926565 L 93.24617338946346 32.891463572087474 L 94.04243552415201 32.46531673149954 L 92.99513380335955 31.68284050672056 L 93.77309117604777 31.70454686264564 L 94.3320398022959 32.315776298745476 L 95.62122374051853 32.05625766099417 L 95.9886357263478 32.80514689110416 L 95.48394301318952 32.72281037373026 L 95.31526986841358 33.013930912019546 L 95.98667058296138 33.45587870287647 L 95.38587537546451 33.690359218673755 L 96.5456192092095 33.85436390514628 L 96.54169889778382 34.91939184480478 L 97.37326378599784 34.30883075698021 L 98.20939738320159 34.16590397954707 L 98.0884562744865 32.957949262455415 L 100.00785271891937 32.01740368290218 L 100.14251990529793 31.17170370635245 L 100.81522739032094 30.937223190555166 L 102.3377945502112 32.22356418745346 L 101.74746348186329 34.49852196298723 L 101.75400730958658 35.628758748547504 L 102.02400005525487 35.7189857657085 L 101.85729205386536 37.03496351970854 L 101.54414595647309 37.059343268734686 L 101.27481158371597 38.63679482857488 L 101.69190079829822 39.103122368457946 L 101.231658231992 39.12554694939525 L 101.52846471077034 39.75784431918707 L 101.96058677349129 39.501627521422535 L 102.45742888845105 39.77958060115433 L 102.77254012922974 38.469528203505156 L 103.94535166772702 38.52026282034107 L 103.78257395311033 38.127712949769524 L 103.14386245113754 37.90509312202138 L 103.38509627100366 37.255009707829544 L 104.59256216546237 37.93077964155588 L 104.93381879109276 37.69233891284396 L 104.92270625437975 37.324158815951165 L 105.3339100141499 37.431523479931684 L 105.16981555371083 37.79970357682448 L 105.51368572029169 37.225362975380406 L 106.03276288402463 37.785877745339114 L 106.45377241003256 37.31625834081667 L 106.63551325956077 37.46379372874494 L 107.02318517542965 37.751622402394844 L 106.93427490637839 38.82587753839098 L 107.4670781477748 39.174296472100146 L 107.54618265058828 39.84348267654774 L 107.11993606733229 40.483022148546176 L 107.6527393087287 40.7655838387731 L 107.3827465630604 41.11071090784288 L 107.44746661529922 41.74631011762147 L 108.09466713768742 41.95509413853686 L 108.28621375345342 42.553804513659685 L 108.73991249203635 42.79750225044722 L 108.54313879436944 43.36394237675679 L 108.77195330704731 43.769011308305345 L 109.66627310411374 44.044320920978244 L 110.72402898870804 44.88804577874435 L 111.26533122586702 44.630522210471455 L 110.95807058328684 45.29179796443716 L 111.6771833832012 46.24353588376427 L 111.61312170387356 46.576812240132305 L 112.07139912679337 46.83763764839197 L 111.81970116777826 47.21965355211752 L 111.14242497376551 47.32898335953427 L 110.94629967366264 48.02846469401148 L 109.68196432516363 48.45856177216667 L 109.996407217684 48.88931722324972 L 110.60242950708178 48.722679045065696 L 110.48933899656521 49.35630313606066 L 111.44707207539523 49.685619279514064 L 112.07596783578309 49.13038146832575 L 112.48979511185082 49.91944142238348 L 112.74606177985565 49.918783049455605 L 112.80293123389596 49.43862967808717 L 113.19387506362648 49.573655980385816 L 112.9382567931857 50.10584076375113 L 111.74191341078716 50.327143845643526 L 108.64250322722253 51.96981422673287 L 108.8719761128116 52.70551604759058 L 108.72684478728407 53.45900391284829 L 109.21518790648128 53.467572736258056 L 108.99617916004118 53.817976764098226 L 109.61266558858794 53.50709506262531 L 109.44334404624797 53.18699614016215 L 109.67607887035153 52.262909883805776 L 109.9866014514462 52.661395086075586 L 111.13392597800296 52.49607365374732 L 112.65715151080438 51.74982789069622 L 112.69964648961718 51.21039102977689 L 113.17164999020045 50.882391632179235 L 115.04266600100843 51.62468715766308 L 115.17668478982294 51.08526027209115 L 115.751973034685 51.46594945461356 L 116.63780381133601 51.299311276429535 L 116.84765518910235 52.064659829736385 L 117.20067274900983 51.84994047712273 L 117.1241817871468 51.2255435824654 L 117.93482837241002 51.38625640429855 L 118.07015393169976 50.64396087881471 L 119.35541755849671 50.86461556312663 L 119.50119728158828 50.63276853904084 L 120.13468170166016 51.10106122236014 L 119.646986980027 51.72940835458471 L 119.1619057993443 51.63785461622057 L 119.41752406978507 52.445358987606184 L 118.74873689618774 52.58433552747208 L 118.95663310591482 53.130346142322765 L 117.91260329898398 53.04538610858476 L 118.13487398393858 53.69678626863234 L 117.76616520298123 53.950359599337986 L 117.71974991274276 54.79604960054032 L 116.43971336784672 54.49505346833292 L 115.83304268088489 55.072047512183275 L 115.10346574182157 55.11552007611778 L 114.89556953209448 55.759009785683475 L 114.08819486069291 56.0725150035205 L 113.9868652844534 56.76344746528273 L 113.04743696762372 56.90966610735525 L 112.63165452351672 57.538013239579826 L 111.99882847635602 57.47544786073695 L 110.01667712307075 58.90603238092414 L 108.71441550474869 59.028529646898384 L 108.77913555698751 59.67070261060833 L 107.44092278757594 59.78926958971011 L 106.8290250187132 60.73243868562746 L 105.64051228381888 61.622279574386965 L 104.55856618241214 61.613720726324594 L 104.11597998054222 62.333601646218526 L 103.33671583737878 62.4706030673008 L 102.66989380716785 63.22739277254527 L 101.32514718538015 63.824118053537084 L 100.5399975874046 64.79693388190357 L 100.67467474913029 65.07620370749112 L 100.2105118713984 65.96538622332274 L 99.5208163701974 66.13728140958237 L 99.60971666390152 66.4369807466288 L 99.212248957142 66.73466506350206 L 98.01850914034677 66.63852266533758 L 97.75112993562892 67.21747187727678 L 97.2876254308082 67.16673726044087 L 96.42009941615754 68.32792754895863 L 96.43775578059385 69.30271849610874 L 95.77746760275907 69.54378274118477 L 95.71405432099547 69.89483516660543 L 96.16644628910318 70.23272013346859 L 96.296544766492 72.4062685274149 L 96.8986467444641 73.73540376462503 L 97.23597308332168 73.90139354522857 L 97.42163424427558 74.54620000065002 L 98.49639809574214 75.20616898410736 L 99.66920963423942 75.3471006920621 L 99.71497652691386 75.71134052673503 L 100.71259104360621 75.43338744700324 L 101.39967300385675 75.55656303660015 L 102.06518826359243 76.26988017791011 L 102.29660634187363 75.93923731325357 L 103.19224288476244 75.87994384835528 L 103.89435769315168 75.29439095644256 L 105.66862281205701 75.72319123943677 L 105.87520227596171 74.78197731160827 L 106.73357092193864 74.02123736879655 L 107.03887639647954 73.82627917936652 L 107.80636963001878 74.1819402152823 L 107.46511300438839 75.50846191147573 L 107.9495358121599 75.5894617322991 L 107.64620545635255 76.3245251309237 L 108.4228460832184 77.01412089613541 L 108.58171346175654 77.51797569290733 L 108.20841602111518 77.59175336221885 L 108.31498265460274 78.72595036069376 L 107.00552881099335 79.17119001619005 L 106.45050049617092 78.63571336818538 L 105.18223486089907 78.71936663141501 L 104.42781930745926 79.39511661444656 L 103.91854790996412 79.5637398867616 L 102.77515367018019 79.23112190332144 L 100.86817653293556 80.28495750320607 L 101.37222084852979 81.65559018556709 L 101.77818755105189 81.69972112242948 L 101.68209503206043 82.13574355693554 L 102.16193915549508 82.36298197052619 L 101.85598528339014 82.71140090423536 L 100.55765395184089 82.85630280045213 L 100.14579181915957 83.16456098556093 L 100.77142564103293 84.21376802425566 L 101.62129529124729 84.26777455503617 L 102.20051382288217 83.98587123773713 L 102.4776987938378 84.4956713415547 L 103.22623886781267 84.8098349323196 L 103.67470054914753 85.84260259851224 L 103.74661282667368 86.93661889769201 L 103.54983912900677 87.5906425741037 L 103.29879954290286 87.55638723115943 L 102.88171032832062 88.32305253032203 L 102.38682338140013 88.57991772566706 L 101.69320756877345 88.17551714239377 L 101.669017351961 87.33375742806389 L 101.21335346999166 87.60907701608419 L 101.03030584998821 87.2461738779618 L 100.3236123572621 87.4720955456967 L 100.82633992703397 88.45544534090918 L 100.6740163762191 90.41887301738956 L 101.13948602442623 91.43647815554631 L 102.10113941468194 92.41061072976855 L 101.71346749881306 92.67471802732018 L 101.49185518676966 93.54017916705355 L 100.8904016063616 93.42229051157442 L 100.13925796678343 93.70154038646717 L 99.50838708766202 92.92436107115337 L 98.7709695257473 92.9342167143767 L 98.40225076944282 92.60357384972016 L 98.7899226853117 91.77105130707531 L 98.65917581035883 91.22569906515251 L 97.61056731909113 91.5602921673763 L 97.57853647942731 91.87116389350183 L 97.22355377613344 91.75985896730145 L 97.3510387125718 92.05492974315798 L 96.91890667450372 92.49292729644766 L 97.10980489270568 92.79526012520559 L 96.44886831730686 93.05475881226211 L 95.60749766285505 92.03320343653812 L 95.37868315017718 92.2525214242995 L 94.97336484521914 92.09971905294823 L 94.84784505216719 92.39347308294901 L 93.64953652638222 91.69861033431432 L 93.04546940502371 92.26900069819115 L 92.12631099358079 92.2525214242995 L 91.83996865395143 91.22964930271976 L 91.99817765957839 90.83642110852556 L 91.71444886089947 90.52686612825578 L 91.13327516122531 91.22238724981835 L 91.2901674210299 91.84746246809834 L 90.83646868244698 92.55944291285778 L 91.01951630245041 94.07828930676973 L 89.818594235715 94.37336008262626 L 88.63138827129592 95.12815471839234 L 88.8451699358351 96.51526667464502 L 87.5147977892749 97.24043452865672 L 87.2689852850719 97.07512307167585 L 86.35963263986677 97.39389527293586 L 86.1249326723768 97.70083671218892 L 85.75164520708257 97.1587563842107 L 85.10247954130796 96.94865561743957 L 85.04495171435646 97.35241777847976 L 85.46923315422603 97.63629621456242 L 85.31494446002476 98.22314590163612 L 84.8985136183537 98.21987398769153 L 84.85798378292733 99.09850258598237 L 84.41081889672054 98.47937267474805 L 83.46289158412831 98.5031140015411 L 83.1007166555471 98.1197813519598 L 83.37594645846346 97.88661758201827 L 83.16282316683547 97.60998124814222 L 81.73831366932309 96.69775567983498 L 81.8514141551868 95.79871752078002 L 82.52999711967479 94.77780056728912 L 83.24976829250032 95.16839526977182 L 83.48119634612866 95.63075262139286 L 84.17743567505293 95.51154722005799 L 84.64878080272503 95.00569735380766 L 85.07633415645624 95.97324619875114 L 85.91965997894732 95.53985725595659 L 86.16023542590226 94.57693697220301 L 86.90158327458978 94.37603347572733 L 86.92904540526388 93.8366065901554 L 86.29686775566722 93.86034791694846 L 86.11447850857496 93.42169199073089 L 85.66600685189296 93.41245481904586 L 86.07656221409904 92.19133264339673 L 86.80678755072643 91.80734162088756 L 86.59236746397033 90.94912258336082 L 85.96149658484893 90.84045114887194 L 85.58951589002993 90.27995632960801 L 85.43850908503744 89.41712868158616 L 85.82682939847037 89.35586009790426 L 85.73727073185506 89.06868979718222 L 86.31779603396517 88.3639514546294 L 87.08593766506846 89.21095820168748 L 87.9305802333819 88.65044343172877 L 87.96914492542187 88.10377444395021 L 87.6854261020901 87.84493412982158 L 88.15023737738605 87.48661965149951 L 87.89789102080691 87.2040579612726 L 88.04563588728489 86.9129374229833 L 87.307559952459 86.28790210609289 L 86.96434815878933 86.54805916607728 L 86.82444391516272 86.28129842611936 L 87.10685596801926 85.68193965341605 L 86.81071783749924 85.40398657368426 L 86.96957524069025 84.52338285660979 L 85.88697076637231 83.99646505666747 L 83.88455948304743 85.14909649712287 L 83.45439258836575 84.63205429109867 L 81.6749003875595 85.07597720073922 L 79.14817488325362 84.48056866560316 L 78.45978615252785 84.63600452866591 L 78.02961925784618 83.94640876345422 L 78.31596159747555 83.31476976659026 L 78.93832350548728 82.90310713041558 L 78.24601446333581 82.19112668565613 L 78.34015181428799 81.80250710195706 L 78.54869642157912 82.10418155778711 L 78.91151974772437 82.01855317577385 L 78.60295233466897 82.5704891469754 L 79.30834903226699 82.65611752898867 L 79.67509266983792 83.26273835459338 L 81.19897657555055 82.49870654714229 L 81.29638584036437 82.06268411263623 L 79.95227764079355 82.14897086757738 L 79.75092525878976 82.41439491098477 L 79.06907038044014 82.10879016828224 L 79.50185081607226 81.60294030203191 L 79.13575557606538 81.01674898788609 L 79.26650245101824 80.7928024389348 L 79.78622801231522 81.94675062524595 L 80.10983824885646 80.99897291883347 L 79.8561851218021 80.3422958000155 L 80.30203326218651 80.06039248271647 L 80.22031521842258 79.79299332052545 L 77.6687510997402 79.75279267053554 L 77.74066337726636 80.56688077119989 L 77.07449971996662 80.96469762519443 L 77.11764309634346 82.11864581150557 L 76.26189796666412 82.22600050013871 L 76.08473580147279 82.56915245042487 L 74.3974158082323 82.07648999342682 L 74.30000654341848 81.52387569860261 L 73.91299300046077 81.20115325977534 L 73.67372432398106 81.39411637972695 L 73.38804035726288 80.82967132289578 L 73.07684942790989 81.52190057981898 L 73.51878723221576 82.66004781586113 L 73.42268473787716 83.57490687587988 L 73.55539675621644 83.26666864146586 L 74.35492082941951 83.65790176618164 L 75.58788371116589 83.52353383681087 L 75.76831779021887 84.17755751322255 L 75.40091577973675 84.17821588615043 L 75.48916767587683 84.84608534474226 L 74.97336242600554 84.96136045920468 L 74.70925513514933 85.57125319875398 L 74.02478671584926 85.64766435977701 L 72.74475017095322 83.53011756608961 L 72.41591285251107 85.1589521403462 L 72.98793915885862 85.40133313127798 L 72.52770656789954 85.92825093122029 L 72.61858198033723 86.32014242886396 L 72.0419769896528 86.53090156856298 L 72.16226970080383 87.16714917592205 L 71.54905518611872 87.82514304059576 L 72.46625842952237 88.24009754140984 L 72.98467722034412 88.1228473081638 L 73.00428875281969 88.5628199802371 L 73.54951130140434 88.48182015941374 L 72.57608700152444 89.9235970193748 L 72.53032010885 90.74821908688514 L 72.10800381236685 91.26194947757519 L 73.7077203070313 91.29157625932955 L 74.04439824832484 91.57740986350105 L 74.20259727860466 91.99828972066598 L 73.86461256683589 92.30193929527967 L 75.39503032492465 95.06297579853275 L 74.41441379975741 96.47313080726104 L 74.1999837376542 97.40049895290939 L 74.67722429548552 99.4838103543473 L 74.2267874954171 100.26298473913951 L 74.66610178342536 101.04808448028261 L 74.20522079490225 101.15938940648299 L 73.3756110747275 102.18820683510839 L 72.79377900214216 102.48920296731579 L 72.54862487085035 102.27974062277774 L 71.84585168954993 102.99108264530409 L 71.39476649191745 102.94298152017967 L 70.76587073152959 103.53048958018124 L 70.20037827755819 103.57591731220458 L 69.66104118378563 104.15618326999953 L 69.61658106158643 104.82536947444711 L 68.8987750321473 105.55712105773758 L 69.37992592605718 106.24737519587715 L 69.63227228263632 105.97273393147951 L 70.65015670471543 106.58723528152395 L 71.40131031964074 106.40151426377895 L 71.68830105683415 106.84412042756374 L 71.31762713249039 107.13458259292516 L 72.01190131802825 106.99033906963626 L 72.01059454755303 107.29791893112241 L 71.59808401730766 107.55743756887371 L 70.96329282676055 107.45666660951933 L 70.12715922955681 108.30103986486591 L 69.2740176654808 108.49073107087294 L 68.81639861547218 109.13621584991704 L 67.15916426920337 108.7904104572246 L 66.22299789088821 109.52479553222655 L 65.6725382850555 109.04334536569715 L 65.7496876198297 108.69029787079809 L 65.17308262914527 107.65359991773298 L 64.64616484256096 107.59697984593576 L 64.31013529883148 108.1904132622882 L 63.543948835767466 107.79391315414941 L 63.636779416244416 106.44237328669674 L 63.197465128236146 106.04916504319732 L 62.41428067364701 106.04457638339699 L 62.25280972950556 105.50317437904143 L 61.67947665268277 105.4241496770017 L 61.409473931667335 104.83400812528862 L 61.084566899998 104.88799470537434 L 60.96950127074788 105.3674897038149 L 60.35891027236036 105.43201025074661 L 59.50838224923481 103.79463677912244 L 58.83699151003416 103.97640755930018 L 58.58595192393025 103.6181130316729 L 58.057727366870715 104.30441693224523 L 57.75765894957787 103.6596104768238 L 57.06011285017836 103.8881656362702 L 56.78031433827228 103.70966677003705 L 57.13137673014047 102.93707611452358 L 56.83979733326304 102.27974062277774 L 57.163407569804285 101.16004777941086 L 56.02066172758441 100.67462742461943 L 55.14790863103283 101.251601517775 L 55.0799266402795 99.95604329988646 L 54.67983541722238 99.87173166372894 L 53.87507428677126 98.81855443677217 L 53.265131685947786 99.0082456427792 L 53.08403923398362 98.6967155437258 L 53.07619861113224 97.58097293792618 L 53.93260211372275 96.54293828831054 L 53.663916138529686 95.65114223146219 L 53.78289210385835 94.74220852779432 L 53.17948335541102 94.18761911418649 L 53.2317841004616 93.58431010391593 L 52.70747985482775 93.7805850392017 L 52.670870330827064 94.40234844214753 L 52.10342270881638 95.0978695637101 L 51.48498111223035 95.34815102977637 L 50.84300767174306 94.73628317144345 L 51.18360592446228 94.03415836990735 L 49.68326383799806 93.42753754430264 L 49.25244854575235 92.73069967688431 L 50.10427336400599 90.88320548779421 L 50.592616483203194 90.97870946372561 L 50.761289627979124 90.34573377031113 L 51.009057300221386 90.48670537965543 L 51.28820741456343 90.02827831490686 L 51.0083989273102 89.86691709549322 L 50.44683676011162 90.23903745460586 L 49.28382101250499 89.57974679477118 L 49.60351093762054 89.10025179633062 L 49.41261271941858 88.06880087599373 L 48.819668110120226 88.51340210925693 L 48.29602223739756 88.25520021736138 L 48.125393924582355 88.43238233773879 L 47.61873606803767 89.74110801418482 L 48.00379444295609 90.03881228175285 L 47.07939897426512 90.60525240806243 L 46.31582605215156 90.01116061878211 L 44.460501262393464 90.07965135397586 L 43.92573287761065 89.206289739108 L 43.97738522509718 88.63458262937543 L 42.48946244582121 88.4040523511454 L 41.88866723832434 87.8863717228881 L 41.28591436895141 88.73864545336919 L 41.38397701900285 89.34724139775753 L 40.79495272113018 89.3887587936032 L 40.41185948959817 88.58454628685696 L 40.49096399241164 87.92589404925536 L 39.77969181534866 88.00757219370139 L 39.33383369961711 87.19875107646003 L 38.474163270838524 87.41084691270957 L 37.8707545223912 86.78184140755712 L 38.25711966778485 86.48282039413334 L 38.897132952559296 86.68107044820275 L 39.27695925790323 86.20947592489668 L 38.74742793036847 86.34911083769045 L 37.58311039996017 85.98684612180114 L 37.318339748519215 86.29312918812631 L 36.69924476669557 86.26416077929984 L 35.597687132813256 85.68718668614427 L 35.602260829476556 85.01865885462455 L 35.15379416046811 84.8862660440374 L 33.67175683600424 86.07907818378793 L 33.34227111999804 85.46653200183235 L 32.745401211600424 85.34864334635323 L 32.497633539358155 86.4195966423626 L 31.859575422622985 86.15351422602734 L 31.685026798382097 85.4191092003306 L 29.804205021336333 85.98094071614504 L 29.189030350938374 85.41647570861909 L 27.433074981706948 85.36837458349468 L 25.992874263144685 86.15544944342139 L 25.55421336037403 85.67990468254807 L 24.825289806548316 86.36752532897616 L 22.216848752315283 85.26562850535667 L 20.0045761158769 81.43098526368793 L 19.304416475526935 78.26026124304379 L 17.554344067270826 76.42790963129481 L 17.25035284471551 75.57826939252523 L 16.29196388681109 74.54089311583745 L 16.47893431207701 72.5972365778881 L 16.17951928002178 69.86187661882212 L 15.509430323622787 69.71829146846112 L 14.403949884477997 70.17342666857031 L 12.534894029382862 70.37035997678396 L 10.892034158341577 69.79996961290713 L 8.380348983684753 66.09706080889767 L 8.19533871413168 64.12112404678767 L 9.428301595878052 61.50498943975136 L 9.582585302405754 57.804714127453394 L 9.36096550885199 56.825314569808164 L 7.971758764865071 56.08037557726543 L 5.414311685207386 56.36030377578084 L 4.538947541542131 56.190383708304836 L 3.259569369557281 55.24390279705334 L 0.32752556029335983 53.79159197024629 L 0 52.904394548545675 L 0.4033593961635886 49.6645214197799 L 1.2917987260914872 47.3750694644855 L 5.176347285366121 43.71365810562692 L 6.1929199492964315 42.1783523885181 L 7.287941236965821 41.34450312467011 L 8.54051565118777 38.07960184929772 L 9.21321814853722 37.03762693746222 L 12.076619100299848 34.33388882962901 L 13.6854829882909 33.93342850857558 L 14.764815548747189 34.15407321754011 L 16.263197479498558 35.792783385714806 L 16.349491713762582 36.960557403511324 L 17.43405384995657 38.84890064017181 L 19.16582399004912 39.1400211784611 L 24.485993336630756 36.91576809372106 L 26.35766273267635 36.54561287804465 L 29.759096501573083 36.496195007064486 L 33.03108517831861 35.12357723057244 L 33.522700211377455 32.48965657913612 L 34.379108701641535 31.244154654460832 L 36.959436733799656 28.891468972048287 L 38.56764723655309 24.102464294688332 L 39.69993392729757 22.552006024891003 L 44.16958023842722 19.872637690736553 L 47.3232463350817 18.426910593208248 L 48.12146363780953 16.541210823606644 L 49.34200721236766 14.942022981799203 L 51.83407836071213 10.095041585396714 L 53.47693823175341 4.076345908977859 L 56.484814629969165 2.737315127154811 L 58.89387093942161 2.0404672843890985 L 61.34475387942852 0 Z" fill="rgb(0,0,0)"/>
        </svg>