<svg 
          width="12.39044189453125" 
          height="16.219802856445312" fill="none" 
          xmlns="http://www.w3.org/2000/svg">
          <path d="M 8.598067136208659 0.47426784990970783 L 8.891602253387637 0.8635357766097442 L 10.046111201998597 0.8753665369579041 L 11.165985680180503 1.8350047968679624 L 11.211732708229942 3.070630954377126 L 11.553648350057802 3.2030137710553976 L 11.888361777700819 4.167270616160395 L 11.458204049059757 4.862143242713911 L 11.3536023621591 7.149619758496025 L 10.265110385120574 8.758692943959709 L 10.843681607725777 11.228608562614923 L 12.39044189453125 12.446448678217873 L 12.07272649039374 13.239448783308362 L 10.731239283222228 13.661645327132575 L 10.554076784714152 14.614051461197427 L 10.05461021375135 15.193658964797327 L 9.682628819079833 15.343169450546249 L 9.13348492590024 14.700328228694252 L 8.751049347758201 14.974989405276236 L 8.239153470875294 14.58309796257994 L 7.417402778189581 14.569232231649128 L 6.894414294418105 14.731920149455316 L 7.019924348259806 15.163992285812988 L 5.679095515238156 16.219802856445312 L 4.199010574154979 15.861498403708758 L 3.9342444122517497 15.495951849781001 L 2.9496957479640207 15.632284903472655 L 2.445022035997772 15.378711608320694 L 1.6376358702181188 15.67641583414741 L 0.9420536055239676 15.297033475326822 L 0.7930016881417791 14.382174543581089 L 0 14.104889851002843 L 0.7138970364993781 12.30349199478661 L 0.3759116888388699 11.760773320670264 L 0.44390378286088816 11.227930239087373 L 0.898241798460484 10.900579284968305 L 0.40206709824698783 9.828309393446887 L 2.503856744117177 5.265207072922805 L 2.172395285759838 4.804814929289901 L 2.5587611580692293 4.540039320587366 L 2.4894722664793028 4.288441143942097 L 1.546121863387427 3.853735516242171 L 1.4630869175776735 2.776847039525814 L 1.6703151689294058 2.5812305045954465 L 2.3489193608498664 2.88882029830161 L 2.911130983367612 2.5120714308232777 L 3.105949879531053 2.8137258936633742 L 4.491887317184095 2.177478375513009 L 5.101841040932676 2.354660471047592 L 6.3786080740996605 1.306092001606467 L 7.142820856233877 1.4101647863554991 L 7.355296150052684 0.6961893722246428 L 8.203860626296377 0.40308378090088076 L 8.140437249859758 0 L 8.598067136208659 0.47426784990970783 Z" fill="rgb(0,0,0)"/>
        </svg>