<svg 
          width="62.37178039550781" 
          height="58.882171630859375" fill="none" 
          xmlns="http://www.w3.org/2000/svg">
          <path d="M 4.308173196135732 23.557130118604128 L 4.5402496647269155 23.17315924010585 L 3.891742323244798 22.721316132123462 L 4.380085479053155 21.731383106029412 L 3.9793358530405936 21.593723381326196 L 4.790640872038642 21.332229756444303 L 4.256530820124704 21.073389572632774 L 4.67165492244244 20.778977317930547 L 5.0076745160162215 20.91729541523017 L 4.956032140005194 19.856876619951127 L 5.661418915139017 19.783098987784097 L 5.781063237695762 20.15063050205695 L 6.861044276682418 19.752155475752982 L 6.811357068857244 17.99948782137941 L 7.150000178925308 17.548981409274578 L 7.544205976723993 17.881599225253133 L 8.242410501379172 16.096671313655637 L 9.681294581992402 15.881942093803357 L 8.846467692676795 14.63314893321304 L 8.284247110417274 14.592948303462753 L 8.465329600610087 13.999515185883448 L 7.903767391311108 14.040374188230142 L 7.964567136682407 13.563512921584302 L 7.283360604826685 13.577318795424103 L 7.147386637778912 12.893648730767604 L 7.205572842003816 12.408228620368476 L 7.691950854278432 12.563664405174674 L 7.766476678342251 11.829279699910119 L 8.388848608360414 12.001174799626483 L 8.155455393848145 11.340547775844218 L 8.529401260088322 10.685866056114351 L 8.367271930880822 10.450727285773466 L 8.652307521404119 9.60501775966196 L 9.177260203957784 9.431147542156376 L 8.5777816973403 9.186133182869389 L 8.563397245687238 8.924639557987494 L 9.76824968952343 8.355586177159976 L 11.093384878181134 9.378457783759101 L 11.167262304632297 9.800654174218446 L 11.5928505468835 9.611601485626027 L 12.794431076612755 9.879678836471989 L 13.165105028745995 8.49388432377486 L 12.96048071753985 7.332036247279707 L 14.6942061556493 6.682621508321095 L 14.286922676770752 5.202639812968332 L 14.72558860010182 5.005048231307366 L 14.722975058955425 4.534112318029186 L 14.15814093554951 3.675893712585954 L 14.378456468981915 3.2892693930173094 L 15.192365053778472 2.9415090073213994 L 15.499625719394016 1.9588180797878236 L 15.106068319207987 1.111791808483506 L 14.492205360937438 0.9609646318521547 L 14.839995865017887 0 L 15.06881039485002 0.47093591327818035 L 15.72450996215867 0.5281943784808228 L 15.908864366458419 1.152590958775981 L 16.983618323152285 1.444369723092583 L 17.22681730463748 1.7829328431235392 L 17.66940353968814 1.3673201786282605 L 18.728466274155746 1.4285687807788223 L 20.271961828060004 2.166923672306557 L 21.20811830121181 1.9923751315198255 L 22.03968325176837 2.289420876607681 L 22.220117344348527 3.7746695527316976 L 23.00199508707991 3.6086798556982527 L 23.726993396159585 3.878073951737027 L 23.885860786608035 4.811366983855361 L 23.530219683740512 5.2954703490616755 L 24.054523968681526 5.1466182902195445 L 24.40362124333517 5.468043772059187 L 25.560093249919387 5.641933940249512 L 26.58516997413596 6.620674632204647 L 27.202953244126103 6.5172702331993175 L 26.982647686041588 6.170148269415074 L 27.390579562532793 5.659051627756086 L 27.48995397818314 4.41223358495499 L 28.324122494538205 4.738267674969479 L 28.452914211107334 5.0965620222078964 L 29.202102738813 5.013587124375913 L 30.590002816375744 6.085856626390278 L 31.57847001384701 5.343551499284104 L 31.713137210321584 5.757189045990162 L 32.33680593556506 5.993644561523862 L 32.90687711661165 4.958243924908272 L 34.28366465662827 4.5492349370618 L 34.90079952900576 4.688211406957831 L 35.486551956930725 5.5115163141067685 L 37.01892499794097 6.565351383421746 L 37.46804508585762 7.488110453997573 L 37.31442472839773 8.99113519022457 L 36.74501192031168 10.023224013173387 L 37.06011320936641 10.833361468394191 L 35.895142206382474 11.797617963228378 L 35.916060510901524 12.805347000110148 L 36.689439257233175 12.620922870377315 L 36.94112725977021 12.993062992825013 L 37.002585378102054 15.351672844109615 L 36.386757276297764 15.758706714166868 L 36.907141249519185 16.430526072088046 L 38.00673382245169 16.68609434360228 L 39.354104061549535 17.996794478939567 L 40.0006562348458 17.710282695394216 L 40.42297256299006 18.00535332269285 L 40.600134741463286 17.688536449028057 L 41.498384892644474 17.392149076536608 L 42.515611018073976 19.294985534945123 L 44.45330239442903 18.692315250331387 L 46.495615219423 20.27175110911104 L 46.74338291024044 20.944887212225034 L 47.40169601869549 21.468512883900488 L 47.293822606645406 21.709577007609035 L 47.7802205696158 21.85908743904757 L 47.63966791788789 22.235836169670115 L 48.0273298874727 23.400976109147305 L 48.62289805771848 24.095838507942716 L 47.87239278409173 24.60432160990082 L 47.890049149851734 25.28404143897888 L 48.75690688123251 25.362427679320753 L 49.190335746922905 24.38366703668088 L 49.709412949571124 24.77094972884593 L 49.44530563891477 24.90992619874196 L 49.634238727894655 25.84653104452707 L 51.16268148183742 25.33541445218334 L 50.75606635126729 26.591449711334132 L 51.96679427500894 30.787677232613508 L 52.52966325488111 30.83709507871349 L 53.7064151437196 29.88207575091373 L 54.998861117351595 30.46497490695053 L 56.79077275968595 30.54465794180048 L 57.809954053301304 30.28384264019973 L 58.10741892729181 30.598684396075306 L 59.30573751826201 30.23839498036293 L 59.88626286389419 30.418210501920914 L 60.59622832370815 29.532320296743862 L 60.94205368425486 29.419040308792432 L 61.1453712248878 29.75955859592787 L 61.89978683488626 29.295206408613755 L 62.37178039550781 29.883392496106545 L 62.22927257559405 30.179779868597993 L 59.413590979616316 31.7032141553136 L 59.33907513090038 32.25253630893366 L 58.40552222354709 33.66203223510142 L 58.68924106814929 33.9518358816288 L 58.384593943680144 34.38785809661269 L 58.27542373640476 35.68868264300387 L 57.21047554668382 36.94142603917263 L 56.61099704006634 37.00464975911241 L 55.96575163734327 36.52515500208095 L 55.17863683697121 37.53880939233038 L 54.007131981121276 37.50650923373697 L 53.75020692094356 38.79348800491887 L 52.1596576510563 39.06222372836124 L 51.40260854921567 39.55225244693521 L 50.22717340629826 39.242697622515635 L 50.336363564269426 40.035697439545125 L 49.747977644502285 40.03047036014335 L 49.59042699997492 41.399127234649164 L 49.22955881481461 41.76007502295795 L 47.769108032069674 41.2021940255846 L 46.59040097504533 41.3378786324986 L 46.82378421420971 40.87023458220246 L 45.50322771023214 40.14969565214718 L 44.626554236530545 40.58176763155262 L 44.43630440162957 41.40770602908719 L 43.94404093410162 41.88456729573303 L 43.59233011830158 41.77258410228967 L 43.24388124126059 41.0164731013437 L 42.86012960804749 41.31746908200999 L 43.15693610907745 41.926703141903054 L 42.73984686322597 42.54846623181259 L 44.51279536922713 43.31118090940737 L 44.561175806479106 42.87055008624864 L 45.83205507797939 43.180763283264625 L 45.86736780949939 43.934260744509714 L 45.56924456254834 44.00406819041356 L 45.42673674263458 44.637681987058414 L 46.10466138503548 45.167911335382676 L 45.53983723697745 45.524230564831875 L 44.08329679060422 45.135631127474014 L 44.03098606628476 44.77336659397241 L 43.30729452777828 44.28070438501281 L 42.94119926032518 44.83397677421131 L 42.74507394551876 44.206288330934115 L 42.206385208924694 43.976416541364486 L 41.96123105925364 42.760561961279244 L 41.42516583915385 41.9761010373183 L 40.59164572041144 41.94054891711234 L 40.32949357794094 41.48411715163984 L 39.669205350604265 42.338365570819896 L 38.465011279728614 42.62553572696165 L 37.96816912752053 43.45674110526747 L 37.72366337546214 44.08708298961503 L 38.29046264240179 44.241860401824816 L 38.79122510632947 44.7977463307242 L 38.49312181007419 45.77782371855689 L 37.26473752057256 47.25251848245366 L 36.497244229494235 47.313128662692556 L 35.9467845823935 46.44898470388166 L 35.24073943429913 46.559631201447466 L 34.75631659021037 46.001091831477716 L 33.02062600856718 46.96666507150472 L 30.95609808382885 47.4178498068907 L 29.989865936797717 48.10415336193282 L 27.793942729691747 48.40449097000271 L 27.235642459151823 49.16588890240468 L 27.144777015249087 53.00184695865642 L 26.568820378949162 53.32327244049606 L 24.5755563395156 52.91490187456126 L 23.13274197183489 53.53403147408516 L 22.85817052124506 53.82515186580536 L 22.92746926301609 54.91982598678229 L 22.409698830941068 54.84868184500089 L 22.276338405039688 54.23613597144105 L 21.933126585639375 54.184104585640185 L 21.91482182226672 55.17339918982256 L 21.073451104737238 56.08297085778552 L 20.234035555393607 56.04015668833434 L 18.9115139078823 55.00938461057834 L 18.118523627604795 55.61598518008578 L 16.01869294669435 55.26559130400424 L 14.794887341872847 56.00458461744364 L 13.979671986503094 55.97360120404305 L 13.724053696898576 57.43053985852158 L 12.93106341662107 57.83823210117524 L 12.720553650161593 58.57130006124698 L 12.189057139394048 58.571958433843385 L 11.966786437775792 58.882171630859375 L 11.338539027852182 58.63452378118676 L 10.963286391038807 57.815169109616264 L 10.49259960099045 58.42573986538688 L 8.930140910752996 57.90277256630783 L 7.719412987011359 58.33879478129172 L 6.581894141412455 58.0358236828362 L 5.800016398681072 58.17940876090708 L 5.0802451718941875 57.677509384913044 L 3.753793237315398 57.54777008205145 L 3.7629506066756693 56.38789712334551 L 3.498184923058768 55.98347679298915 L 3.7531448397027427 54.94348749888345 L 3.44261225998026 54.76893895809672 L 3.4007756509421587 54.1583682023261 L 3.7714496030753977 53.23429238655746 L 3.471381163286384 53.219788238751775 L 3.4543831704869263 52.85686533265377 L 3.6413511159330714 52.59934189403506 L 4.086550892130129 52.67309957551735 L 4.514104277915074 52.17319526799727 L 4.860588011422325 52.32797268020706 L 4.878234401834438 51.604121936485015 L 3.54917890145714 51.057453223935326 L 2.416887138151027 51.244510844053785 L 1.4754936073585392 51.001471602556016 L 0.6779346177487843 50.66885378657746 L 0 49.739510990037566 L 0.7779574310117889 49.65980800450288 L 0.8413707175294832 49.40491805626979 L 1.795183556441293 49.51029757306434 L 1.969732193768116 49.130256979459766 L 2.465267575403004 49.02816932564725 L 2.1390537488021484 48.351082986954815 L 3.134044823791517 48.07971377312682 L 3.20595710670894 47.18263123381085 L 2.7071498109671146 47.31568235033922 L 2.4829139658151167 46.95541288531159 L 3.145815734298184 46.73409993949524 L 3.1706543505368274 46.25197169207814 L 2.5764029262121326 46.215761199275775 L 2.7699146998721536 45.23370869365387 L 3.229498927722273 45.29098710954125 L 2.9869583191976203 43.43096482058391 L 3.616512499694428 42.022785639608955 L 3.1131265192724666 40.63633275431542 L 1.708886821870808 39.811052729377266 L 2.2397249596778086 39.13528313587764 L 1.987378584180229 38.97721386068582 L 3.001991168463338 38.171685013639866 L 2.7215342626201764 37.9938446098711 L 2.9621097276110895 36.813562100676556 L 3.612592187974834 37.04935924361385 L 4.008104756346717 36.79051905980232 L 4.110741110756118 36.33143385325946 L 3.7635990042883245 35.9988160372809 L 4.617389029937129 35.965877456775836 L 4.626546399297401 35.611513394431114 L 5.13843137611909 35.75509847250199 L 5.143000085451339 35.38559184043992 L 5.546363252610296 35.2986667070295 L 5.715026434683786 34.90675545600486 L 5.6509647505534355 35.22357232966966 L 6.142579820468731 35.343455994269895 L 6.164804895560978 34.87252008099171 L 4.8801995453681775 34.48392064363385 L 4.854054158556337 34.051190291632 L 4.287254891616681 34.242856519925304 L 3.9996057599469887 33.90102148759705 L 3.646588173573749 34.366012096822836 L 3.4877207831252988 34.001134023620345 L 2.8026039148978708 33.78311294078603 L 2.945111734811632 32.203018709409974 L 4.473574439450171 31.40080167603079 L 4.527181958994938 31.1551289441474 L 3.685811241465455 30.89034345628347 L 3.773414746609138 30.618994193140217 L 3.979994226001136 30.253437796656584 L 4.304901282028793 30.37990518722089 L 4.620012546431412 29.5908356550851 L 4.948191516566007 29.625090980782986 L 4.790640872038642 29.081055758618923 L 5.219491053048897 29.158125253767988 L 5.318207095738704 28.367738976439384 L 5.595392087474928 28.531753555683608 L 5.723525431083514 28.20111085749427 L 5.624809388393707 27.8573007073768 L 4.887391771194709 27.61292477000148 L 4.250645364871371 26.983919581531477 L 5.001140663150233 26.325945998819577 L 4.9625759682190695 25.56981504718886 L 4.504946908554803 24.868368922429383 L 5.034478275788605 23.74997343729707 L 4.308173196135732 23.557130118604128 Z" fill="rgb(0,0,0)"/>
        </svg>