<svg 
          width="56.37042236328125" 
          height="76.19210815429688" fill="none" 
          xmlns="http://www.w3.org/2000/svg">
          <path d="M 42.23908498991109 58.84213564316468 L 42.55091436921908 59.07663625019131 L 42.26915068886292 59.48103707581915 L 42.42539456500179 59.76689080199556 L 43.983922989964064 61.205376659391646 L 42.05276543947237 59.97569489874055 L 40.900862126113786 59.87558225231724 L 40.76030947242058 59.551502972026235 L 40.98062500893357 59.34668901662932 L 41.62651881830058 59.331526479506614 L 42.23908498991109 58.84213564316468 L 42.23908498991109 58.84213564316468 Z M 27.299056127381665 11.04355411049275 L 27.38862477731149 11.569175430275244 L 26.87739816630206 12.044720476139345 L 27.897886244759704 11.896526626471676 L 28.25418572556977 12.44317599115855 L 29.319782327803185 13.020150430090826 L 30.56908493929239 12.941784054014548 L 30.542291154493245 12.312139749287624 L 30.96525588616432 12.297615634780614 L 31.031941087721385 11.733808662297 L 31.265982703118826 11.757550003318071 L 31.34050852822471 11.733170239681307 L 31.45556419236221 12.068421915746935 L 31.77393739997557 11.985426975706885 L 31.745178471615205 11.166051449878786 L 32.24332740136192 10.78866388117744 L 32.84215751873995 8.70337611125768 L 33.12914828146199 8.706009604547413 L 32.67741464608252 7.864927709785763 L 33.18994802768342 7.316243373011369 L 33.77374529558555 7.506613016728235 L 33.892731246845486 6.7788112348385585 L 34.48893784769256 6.929638577795959 L 36.268430206789546 6.355936054769107 L 36.348841487231056 7.290586764143218 L 36.93394552572465 7.30574930126592 L 36.507050506931144 7.073882187529028 L 36.79339287203145 6.614816425432497 L 37.68574760508887 6.491640762017287 L 38.910211599992124 7.368314717603805 L 40.054922687423606 7.464477124092517 L 40.55045807598738 6.377043902500447 L 40.952514478194935 6.105674389417569 L 40.95316287581665 5.660454417798873 L 41.62456365008739 5.580731393664248 L 42.17959201428113 6.203831866580321 L 42.817645200099314 5.742132611194058 L 42.72481461136482 5.273809721169982 L 43.76492419939057 4.9306575652351565 L 43.73550689806046 4.634269865899821 L 44.06237910219238 4.518356259738115 L 43.93358738382241 4.334610250659061 L 43.58775204309213 4.583555169365733 L 43.7819221924277 3.6094020606456354 L 43.09156825690665 3.3037971347962367 L 43.834212966782545 3.0146714927144056 L 45.297297261827396 3.1911953459534366 L 45.4744594427778 3.809627353492258 L 45.90593314631547 4.11591060337083 L 47.11405752115134 3.6015015807764383 L 47.179425976768904 4.339877237238525 L 47.49060695845517 4.277311820900641 L 47.39058414379358 4.650110727051697 L 47.85736060399699 4.446573616886168 L 48.152201965615866 4.825277932232381 L 48.70657195683985 4.423510599894269 L 47.8357839262157 3.7372062880246175 L 48.28491399576025 3.3071089521151427 L 48.636624816478125 3.5989079889001867 L 48.917081726242806 3.28536268176811 L 49.61332111709949 3.2978518241875983 L 50.63054725675248 2.8401028087359332 L 51.0142889199834 2.303309093178816 L 50.725991386669904 1.8778004198196316 L 51.14700095012779 1.6868322549005532 L 51.12804778887746 1.2165541956159187 L 51.58697365018402 1.1012790120699059 L 51.73079821802991 0.7027835956372193 L 52.14330878496923 0.748869728207536 L 52.098200261193455 0.5045134720511554 L 51.515709763882796 0.38796144327375703 L 51.56997565714689 0.11264169025628058 L 52.60092787568432 0 L 53.731902908883335 0.8279144283129882 L 54.80273656883066 0.8562444318843517 L 55.42772204873415 2.0918715031440898 L 55.921950666706444 2.369784848037818 L 55.92130226908473 1.6229101905043217 L 56.37042236328125 3.723998920162475 L 55.74348171516456 5.607704749177264 L 55.13942451542065 10.61473361981466 L 53.80120165162334 15.013824554658683 L 50.07551889255874 20.691356777427337 L 49.42961510784371 22.432814067383095 L 48.88569928135148 22.11072985776613 L 48.05087238036281 22.899780309348824 L 47.76060970348809 22.056743245326615 L 48.265292486192145 21.888119871956782 L 48.0201383330932 21.680632521856655 L 47.625284132160765 21.917766622173012 L 47.258530486618945 21.3308966326975 L 46.78456180048845 21.79259588808376 L 47.53245354342628 21.99218275831469 L 47.24675957594769 22.48879575049665 L 47.62789767334371 22.598803947463196 L 47.88612950770538 23.119118379252747 L 47.75603101874393 23.35098549298964 L 47.31083123632182 22.934694046144518 L 46.98460742981162 23.481383312244873 L 47.59717360142213 23.86471619155486 L 48.226727790721746 23.553165955096823 L 48.2587586332348 24.05835775117715 L 48.66407697424702 23.837064512012667 L 48.919036894456 24.28360123027623 L 48.326092232413586 27.705945464523904 L 49.436148960801056 30.6256914945675 L 49.660384809088455 35.91530217547588 L 48.93342134631019 35.77301373500337 L 48.68696042261978 36.03648276821705 L 47.982222035244526 35.76116301519957 L 48.16854158568325 36.37041769763781 L 47.595208457860906 36.25187059818637 L 47.912933267852544 37.010635876937144 L 49.03671607512447 37.42952091565852 L 49.09620905075443 38.17380198131576 L 49.614627887690965 38.17835074245257 L 49.998369550921886 45.38526424252657 L 49.401504577105065 45.67901844857217 L 48.131932058426045 45.68292878709329 L 43.24323344830135 45.10268243225559 L 42.0004646897695 45.88383240396909 L 41.09960098484549 47.50410910118367 L 41.091760361296664 48.23123255904418 L 41.62390527711764 48.98473085121549 L 40.0876119029064 50.45286345882781 L 39.631947980404505 51.53435136981124 L 37.8831796932291 53.565612625878 L 37.0699194946737 54.96655125318867 L 36.571770564926986 56.73701687074497 L 37.13464952801757 57.76383984525971 L 38.83373060667304 59.23261087548773 L 40.5707279831772 59.49408483802737 L 39.248196341825555 59.79510110132648 L 37.351034777408124 59.621210741377176 L 36.22986551131915 59.8411872338968 L 34.237908214606016 60.50446843018803 L 34.112388410388725 60.762630575408764 L 33.28343698938766 60.731706979961146 L 33.07031367880177 60.99058735062454 L 33.27559636583884 61.214514083078754 L 32.19233342225051 61.580729256005476 L 29.900307681552622 61.850103698414316 L 27.14085708302961 63.965676641166 L 26.589090657640533 65.03595225496133 L 26.433505154471415 66.56864534958557 L 26.840130266075104 66.49949620002336 L 27.42915461634311 66.8847842485939 L 26.596941256537377 66.94998315822151 L 25.71504068821172 68.23169636205157 L 25.60063342169594 69.20584947077167 L 26.178545234262433 69.10174668300027 L 26.064786365368377 70.37164906844002 L 25.171124861719488 71.44128625961966 L 24.95865992410334 71.98729720169084 L 25.19792862186666 72.12164526088067 L 21.59840408929304 73.8170164182661 L 20.815219565037495 74.79771335879705 L 18.473506615819673 75.37404937511364 L 18.134873476364522 76.19210815429688 L 14.919100582369857 75.57758648527917 L 11.91514422836962 73.12676186646186 L 12.263593110282837 72.78229296388217 L 12.780046803658147 72.92717499623093 L 12.440106893611524 72.01231538794329 L 13.461901742660638 71.19297976352867 L 13.147458822169716 70.42236376497411 L 13.982944096128133 70.31167724397838 L 14.224167962104643 69.811792335891 L 12.721212200997927 67.0395618314859 L 13.011474877872645 67.0751139908973 L 13.533165628961862 66.51066859579798 L 13.920837579315226 65.35276947799882 L 13.39718168466479 64.54656141861939 L 13.065082398166986 64.56966433702478 L 13.061810484014298 64.1362551837964 L 12.404804136945787 63.23719653524714 L 13.087965846539747 62.89472270334149 L 13.276240565191664 62.17414307729184 L 14.041120325818605 61.41737286921511 L 13.833882470568339 60.915492890453685 L 14.247051410477404 60.50383000757233 L 14.247051410477404 59.36504366683048 L 14.48370656705778 58.857856800076114 L 14.85568729496548 58.85127306685178 L 15.169481817834681 57.41869261865085 L 15.776162534109567 57.14536793630741 L 16.018044773055824 56.50913989835615 L 15.392410895530613 56.09616026882994 L 15.260357238355978 55.14111993716715 L 15.040041701842986 55.58370641549611 L 14.759584792078304 55.16944994073851 L 14.08492207900291 55.559366553272824 L 13.276240565191664 55.01467235784651 L 12.673490136039213 54.98897584756488 L 13.19387411653696 53.46685662751304 L 13.444255352001784 53.38122819418326 L 13.465832029783074 52.5717482188984 L 13.79662454568941 52.45188437280209 L 13.45406111911182 52.09025786242566 L 13.656071891996207 51.61076257662696 L 13.320042318375968 51.374985124368955 L 13.807078710421168 50.30666467983418 L 14.139836369888721 50.15978757681138 L 13.99013632205523 49.22976543140104 L 13.165105212828571 48.224010403204154 L 14.150300509968506 47.85384499034283 L 14.433370960916127 46.627475047010634 L 13.96920804189566 46.44173396725754 L 14.024122332781472 45.98067313448697 L 13.530552087778922 45.255504845887025 L 13.635143611836638 44.77533123605916 L 12.825155327433922 44.69169787340341 L 11.304553175668351 45.53804675474453 L 11.122153937004036 46.057722763918385 L 10.1951448449026 46.607683945924165 L 9.301473365905684 46.383118790854255 L 8.71049384742449 45.7942537307047 L 8.737946005193383 45.47416459176178 L 8.385576811505755 45.6473766276819 L 8.127354952492114 45.40238194890983 L 8.39669932455529 44.505278469621146 L 7.958681792712245 43.736019119124926 L 8.265294065002376 41.365555947057935 L 7.926650950199195 40.78985835335704 L 8.85235327170916 40.747044136692146 L 8.618311656311723 40.10818260545116 L 9.192951554725532 38.777031550318405 L 9.066783352886526 38.37131397804569 L 8.411732174031204 38.26266242913749 L 8.098586048783725 37.50784739032132 L 5.794140999792861 36.63775716795913 L 6.579280692261598 35.141972880804616 L 7.755374224584414 34.98851204455748 L 6.997676714536542 34.91736782432123 L 7.019911765287581 33.88727293390106 L 6.36878089820667 33.56319365361005 L 6.839477670184484 32.66481332908998 L 6.447885408056711 32.35062959934221 L 5.436534748391328 32.98885270796751 L 3.5838233347799267 32.749763438390595 L 3.106592709844763 33.06526391478323 L 3.019647576445902 32.36315864317518 L 4.3029461740093735 31.49833540739246 L 4.275494016240481 30.670420979079474 L 3.882585008173212 30.739570128641688 L 3.0464513365930728 30.25416943364783 L 2.5267257290650744 29.52505090511329 L 1.4768103739292924 29.173998269309266 L 1.301603361192075 29.37027332222129 L 0.7152025274550375 28.952665128731304 L 0.19612531754876064 29.160830802860605 L 0 27.695970111153706 L 0.6184416515981137 27.298153018750195 L 0.9871504653531257 27.697286857798574 L 1.701694619838415 27.43976313519353 L 2.1109432479730703 26.884534966608285 L 2.7234994442355567 26.8720458241888 L 2.705194680606953 26.367532352137644 L 3.086981175624689 26.426147528540927 L 3.810024326628546 25.826149974030233 L 4.305559715192313 26.211438022600777 L 4.574904087255488 27.055831734681334 L 7.122548121132106 27.049926325486176 L 8.08420159692953 27.236345729268443 L 8.368578818468622 27.55380137492164 L 8.554898368907345 27.17178524225652 L 8.248296071965243 26.580326590230715 L 9.222368856055644 24.63337702084887 L 10.042172882916423 24.886950503519312 L 10.22260697801952 24.384392200728715 L 10.65603584977038 24.357418845215697 L 11.028664975299801 24.624159794334805 L 10.901190002869324 24.89289581412795 L 11.369273233664199 24.719005454178653 L 11.575852715944718 25.4474855600975 L 12.091658011698307 25.618702525343586 L 12.002747734738229 24.915280507090674 L 13.703135583985175 24.626793287624537 L 13.904487983899813 24.365319325084897 L 14.494170707137565 24.422657656256796 L 15.059004838441338 24.97393558490744 L 15.515975531534707 24.696620761215925 L 16.333804439486244 25.08984919106915 L 16.840452365751517 23.852266950548852 L 16.7927303007928 23.160017328070563 L 17.122874419077416 23.335862857280418 L 17.22551077492194 22.54617398308203 L 19.635215696288295 22.46581253633171 L 20.03203504078195 21.460695930750518 L 21.113332840809058 20.12100597313287 L 20.537386171803778 19.25622263876363 L 16.969902457091237 18.766193379806 L 17.032008973904144 17.93037847162382 L 18.02438652162315 17.624095221745243 L 18.860530168551318 16.641403210540258 L 19.0828008732775 15.874737451920288 L 19.152748013639226 14.909163147098562 L 18.470893074636734 15.033655557158637 L 18.895174552247305 14.593024248090233 L 18.51404643019932 14.491594855022056 L 18.39833239309207 13.77696053958104 L 18.778812117518335 12.891747681509633 L 18.67617576167381 12.378655405560107 L 19.551532501694098 12.145471545178347 L 19.881018247008964 12.498519251656411 L 20.229467128922177 12.15205527840268 L 20.607333312165505 12.289076732295724 L 21.538921089011097 10.563420402078359 L 21.33887545968793 9.903451023106031 L 23.156932514255313 9.277078634284532 L 23.385747047286873 9.591262364032302 L 23.040570079526344 10.070079325801826 L 23.25369339011224 10.186671255992705 L 23.538070611651328 9.686108023876148 L 24.028378917849217 10.440923062692322 L 24.30295037227827 10.443516654568574 L 24.486656381534058 9.734827649736198 L 24.922050396846135 9.78422559962542 L 25.934039478785213 10.800514600981236 L 27.299056127381665 11.04355411049275 L 27.299056127381665 11.04355411049275 Z" fill="rgb(0,0,0)"/>
        </svg>