<svg 
          width="16.129150390625" 
          height="23.489273071289062" fill="none" 
          xmlns="http://www.w3.org/2000/svg">
          <path d="M 14.054162122270982 0.020369644983922713 L 14.681111589926935 0.3029311355885235 L 14.681750011023674 0.9615829078698404 L 15.249206612727358 2.182045848365911 L 14.432685980658775 4.138888413109374 L 15.579350122377976 4.10201955519528 L 16.129150390625 5.67946002526758 L 15.818618379039801 7.362958313884965 L 16.02259391944758 8.040044515123329 L 15.782008919273734 8.476066641591135 L 16.05134281946006 9.207159335455824 L 15.90163307227501 9.89677456416716 L 15.515288555452177 9.812462987573568 L 15.279930628007872 10.148372598341743 L 15.444024800528801 10.63181749280836 L 15.069431222017801 10.658810763781176 L 15.19428244774862 11.95239294900406 L 14.905995421252882 12.01958684156611 L 14.585647685305336 13.020053626099678 L 14.498702712193335 12.453633850645662 L 14.072476827483651 12.223762107741884 L 13.98748701898041 11.74492582051453 L 13.752129091536105 11.787081608811325 L 12.486479217912366 13.209764648775604 L 11.836007922973474 13.010197989839092 L 11.295365007332784 11.93593363743527 L 11.001830957448233 11.966278622763914 L 10.730541892653143 12.653240410943553 L 11.179651183549028 15.636246236948587 L 10.72399807641158 15.835154523422348 L 10.723339704655569 16.30609034109668 L 10.199036378959516 16.248752084795218 L 9.430237723872096 16.864589696316987 L 8.43851040206749 18.688381171542545 L 9.26746029486319 21.41252691560204 L 8.989607463167264 21.79388417698077 L 8.487549122560674 21.84200521880371 L 7.742930666512206 23.001877942045937 L 7.391220494187407 22.79506918601916 L 6.759043953801911 22.953796801584378 L 6.111844566983801 23.489273071289062 L 5.604539202988397 23.24623387913025 L 4.642877524708293 20.553031640820087 L 4.826583195294642 20.12095974912879 L 4.325163275784791 20.019530488503655 L 4.4853271684289275 19.671111800943198 L 4.125756436350543 19.037498132927134 L 3.632835497691016 19.032909476368562 L 3.1562740996353993 20.159863576473207 L 3.6093136704080764 21.952033222805994 L 3.0026340725735534 21.880230723004686 L 2.3554346857554433 20.484580855374602 L 2.3822284211591644 19.066506422649585 L 2.027904712469595 18.502041813903137 L 2.2351322103388833 18.32883000415738 L 1.9030335360795039 18.048243630941034 L 2.290714747073632 17.43043090203101 L 1.8945345552291797 17.547681052442876 L 1.3074864061193492 15.527614780594563 L 0.6654941413715078 15.108051965695548 L 0.8178174249213312 14.650303547956936 L 0.5641647429236291 14.655530626297569 L 0.10394293481264968 13.844734963078551 L 0.041178160739598645 12.821205191667985 L 0.556324133829316 13.174890858930455 L 0.7086474173791395 12.567612089424458 L 0 12.512967175016069 L 0.029407271768492442 11.790433323167152 L 0.5105573214569132 11.582966194677619 L 0.9080343061541146 11.780557736225877 L 1.360435455830054 10.289384009454736 L 1.0165658925995684 9.635999216875431 L 1.2486319612638181 9.184834523764337 L 1.053833724121647 8.954962780860559 L 1.615384930680505 8.990534844529838 L 1.5545952718754872 8.430020470559898 L 1.7167143291283837 8.138241765476774 L 1.9350742948720403 8.293677518728234 L 2.027904712469595 7.905736532721988 L 3.0098163099118556 8.23177055654889 L 3.2608554555447866 7.113395249140705 L 3.007861145303096 6.240034251279588 L 5.295962356011957 6.741255202240499 L 6.511935088045774 6.343438629292978 L 6.869530704856126 5.066974128101637 L 6.703481367726436 4.664548947914854 L 6.970201731547993 4.422826500681547 L 7.208173195357069 5.340976776690466 L 7.848828765933615 5.746035446728255 L 8.265258876940225 5.730872929404278 L 8.008992658577752 4.171208515826273 L 8.995492907652817 4.74620708397675 L 9.432192888480857 4.454428378893626 L 9.35374689621918 4.9141519140204935 L 9.990492137578206 5.825718465401896 L 10.286639723827529 5.747332240973069 L 10.724656448167591 3.864267293419172 L 10.431122398283039 2.838762404620352 L 10.933200689548901 2.5298660155056845 L 11.456845643488943 3.056125070731848 L 11.165266758213152 2.0424509355818685 L 13.151334938187135 2.114911807845931 L 13.42396069715352 1.503682803563423 L 13.8841825052645 1.4062037777147978 L 13.605691252471836 0.36094771503342776 L 13.652774808356261 0 L 14.054162122270982 0.020369644983922713 Z" fill="rgb(0,0,0)"/>
        </svg>