<svg 
          width="103.26349639892578" 
          height="100.80043029785156" fill="none" 
          xmlns="http://www.w3.org/2000/svg">
          <path d="M 6.5433295632774495 0.10142932603545039 L 7.517402351134628 0 L 8.565362542109721 1.146696038134651 L 11.585658527856948 2.604942106829804 L 10.313472463075389 4.742898329609296 L 9.965023579814707 5.101861183404111 L 9.600235076423454 4.937856507032274 L 9.205370898616037 5.757879888891459 L 9.406733274657379 6.10564042825494 L 8.829469857480303 6.720820064034466 L 9.032787401742398 7.034983635450721 L 8.659499901799713 7.552025809631432 L 8.869351299044421 7.89188587434699 L 8.445069819793138 8.551854817158299 L 9.302780172471367 9.916562059119148 L 9.207336042184854 11.015186901132157 L 9.716607486950467 11.259542995798208 L 9.683918271341259 11.552638634820003 L 10.182725575986622 11.751547049566941 L 10.797246918186703 11.235831596507662 L 11.866115438706167 11.18183504440008 L 12.206065325415416 12.623601840218505 L 11.86415029513735 12.591960040239705 L 11.802043778084274 12.99637057395363 L 12.300851082729636 13.033897828531263 L 12.359695660965437 13.699782151981736 L 13.027814548319098 13.593085842847671 L 13.1245754245502 12.954863156011704 L 13.646256202308749 12.816535022245615 L 14.426827188399853 11.644810839045766 L 15.171447020064475 11.108017478245248 L 15.68986585900575 11.202204702520103 L 17.063381509432208 9.747250498261584 L 18.169517930322744 10.12268264958635 L 19.195901443433108 10.613379932927208 L 19.73981727202868 12.460874008234212 L 20.806072251355097 13.448183955555091 L 23.27330501433109 14.80038211265673 L 25.154126965954344 15.113238913645107 L 24.43173220977868 16.118324928923812 L 23.86559130569415 16.499024063347193 L 23.594291764368656 16.267187028887133 L 23.3184135382813 17.110911834690086 L 22.88824660367163 16.788169465045026 L 22.29268839814323 17.298627910352465 L 23.469420357290208 18.23389647353419 L 24.19115674049358 18.179899921426607 L 24.827903158182618 19.10265939974912 L 24.84555952425778 19.919380941824894 L 25.447003185144563 19.935201841814294 L 25.692805736815757 19.66515922919572 L 26.44134588026995 20.433789624456296 L 26.577329825092875 19.578872479568787 L 27.99856754066259 20.253325625901287 L 28.082899133204624 21.195846266190383 L 28.471877855653652 21.479066311902276 L 28.37446858179832 21.924305939977245 L 29.00076083471518 21.826826851265757 L 30.299092286775263 23.018980544666295 L 31.02409060879591 23.029504535516747 L 31.130657252174966 22.746284489804857 L 31.36796080729473 23.270568765746162 L 31.70202523864559 23.345653200941758 L 31.836044039899697 24.542415504553585 L 33.15006671446613 24.42583362676284 L 33.54950957703541 23.967416565594554 L 33.747590063563344 24.698509730930724 L 34.604652018617344 24.34086362291056 L 35.325081631224194 24.66030415277221 L 35.95463582295832 24.153815895482282 L 36.807119093250456 23.97926727756644 L 37.274543952883135 24.433075728523434 L 36.92871858616356 25.3321238075554 L 37.37391837030729 25.22476912553401 L 37.49158757608276 24.715637401348 L 37.89625752103813 24.7235478513427 L 38.19109888379717 25.129933503718608 L 37.71124474047542 25.281419119884454 L 38.54215133290283 25.38350681880723 L 38.37348814781876 25.639723600791942 L 38.83110724030348 26.47027097350158 L 39.45347918143077 26.737021721683522 L 40.079761458999556 26.397161656967963 L 40.44716350358386 25.681211068040316 L 40.244504332294056 25.419078905416438 L 40.883864291176145 24.9514346484788 L 41.53303999255425 24.9672555484682 L 42.87320805439921 26.116595053498937 L 43.34586997176604 26.077042803525433 L 43.42300933835317 26.52294080448773 L 44.251960762559825 26.979382746994037 L 44.83248611855418 27.96603432142759 L 46.09028773142592 28.094476886536995 L 47.000298834009264 29.298481291909418 L 47.17355067920326 28.959927997621737 L 46.80679703224319 27.52540330356391 L 47.699810141723674 27.172375781101813 L 48.286220953076416 27.93244732882714 L 49.05370428250615 27.891588308425764 L 49.36294007252308 28.74717380154738 L 50.425913162336094 29.083073653592198 L 50.71487904508481 29.72724164710766 L 51.76217088773954 30.270618736781447 L 51.90404028792086 29.954470071356436 L 52.35119524028533 30.144161265680797 L 52.43029975044127 30.60982042860968 L 53.31742740456337 31.130802864767574 L 53.84043490361457 30.861428600383103 L 54.07970360230315 31.458812217511248 L 54.694863366779394 31.90274507515834 L 56.485478245850295 32.281459115572964 L 56.78817020753654 33.39787000089058 L 57.991057529310105 34.82581096607514 L 57.99889815288925 35.2684171026008 L 57.73674600573941 35.29607873921531 L 58.09041199603813 35.587857632462445 L 57.95444800191133 35.81771954826053 L 58.68468338166613 35.68072811096265 L 58.736974156223184 35.14129128326605 L 59.67836770381922 35.37050480152358 L 60.226852241828595 36.055491914053306 L 60.150361272865695 36.60875457238377 L 62.14429369619869 37.86875059921932 L 63.21315224137009 38.100587633679375 L 65.71504933887216 40.108794520921585 L 66.27857670176365 40.06996049591608 L 66.85451339764808 38.99703214720237 L 68.21692648567812 39.081333802820545 L 68.97722756450102 39.989609077621864 L 70.14023344471047 40.328810769450094 L 73.43183894713125 42.87579611150158 L 76.97905276837119 42.20858506692967 L 77.03136349362438 43.08787198399506 L 77.63541072035615 44.30044521224951 L 77.3497367024689 45.59270151056406 L 80.01309478375207 45.62695685139862 L 80.34910440797562 46.13807366959338 L 81.44282152052516 46.432486054389834 L 83.55180960844058 46.35147626320829 L 85.14758598910468 48.24770988287104 L 85.8922058207693 48.0659191631946 L 86.58255975895999 46.99233244159357 L 86.2426198475988 46.64325515645543 L 86.47731983687358 46.29745976040716 L 86.29884090929349 45.9575996956916 L 89.38842566270064 46.11304552452818 L 92.69768753119658 47.94275355653059 L 92.29302756158927 48.378785939529756 L 92.64473838366723 48.55661644653546 L 93.49393976444597 48.338605242709264 L 93.61685600330365 48.66529784967828 L 93.23767307265452 49.35555194530663 L 94.01106180813878 49.73230084240605 L 94.34316109592082 50.26580233876993 L 93.80447234971135 51.92164007643737 L 94.9171426235845 51.88345444897241 L 94.5072555715911 52.29774057599624 L 95.19238242739569 52.66592065021363 L 95.2721253598278 53.939084134795706 L 94.97468043122377 54.23548161360092 L 95.28650981173762 54.40276817906261 L 95.34600278759764 55.01992293350412 L 95.8663967454558 55.24320112042893 L 96.01085973613402 54.87962965642283 L 96.56131939306029 55.08315665672783 L 96.43578961300955 55.57318559183459 L 96.94572940609551 55.898561453028954 L 97.49748585827022 55.33804671759111 L 97.93352827289021 55.469781147137155 L 98.086510210816 56.2957199096355 L 97.70798565313916 57.08873005242073 L 97.83612897438294 57.35811429215198 L 98.01917661137684 57.51552526430377 L 98.71278251303673 57.14734519008638 L 99.09064869774129 58.206457683513 L 100.13859891336831 58.40668284403459 L 100.30530693023162 59.08245273614175 L 98.35911652273802 59.509257923371564 L 95.75329624909412 58.84204687879966 L 95.76309204089402 59.50596605893493 L 95.2878265576822 60.366140211574276 L 94.28039620589546 60.54332232103943 L 94.1215487633074 60.90097840440637 L 93.29586925326609 60.755398193532905 L 93.29716604851455 61.794749524992945 L 94.38697282462257 62.034497009447705 L 94.78379217065074 61.822421136954226 L 95.61992584546425 62.80182063428041 L 96.97906701932895 62.96252347086883 L 97.12027804653796 63.83390991328629 L 96.81431417068639 64.92200078910207 L 96.18018129419039 64.6769863215487 L 95.71995863586069 65.29940805908882 L 94.79163279422988 65.00168385916218 L 94.8825082151026 66.46191502186609 L 95.30548292375737 67.1561193548184 L 95.88012282439333 67.20418057559326 L 96.92284595763427 68.28895963627885 L 96.90846150572445 68.80731855623422 L 97.39549789965304 68.66900039781491 L 98.68926064229932 69.48638031277801 L 99.44237947051538 69.29802581492186 L 100.22163371066189 69.72481105145812 L 100.42690642314473 70.31826438195586 L 101.86842402133072 70.54219096642122 L 101.84554057286947 71.20347665500718 L 102.24954216950448 71.15541543423231 L 103.1216469494406 71.81670112281829 L 102.8522926009878 72.32582287165751 L 103.26349639892578 72.8178468761198 L 102.2377712587877 72.69467129410901 L 102.19202431256133 73.49164164956498 L 101.90633034397796 73.35793210135695 L 101.96777848805874 72.84549853738753 L 101.8128413819122 73.48703303935369 L 101.31730599143218 73.58582887383983 L 100.77534533105735 73.02860600283863 L 100.13337183098221 73.25650277532151 L 99.83397173415744 72.50761359133395 L 99.16779803967647 72.57017896632357 L 98.99390777220631 73.67604591009717 L 98.51471200185686 73.59702121292439 L 98.54216415973191 73.83413520582984 L 97.41054072453514 73.71095962381905 L 97.29285156806354 73.19720931407497 L 96.66199060573288 72.77764622860575 L 95.9258697706197 72.93902738877506 L 95.5872466052031 73.31577628587448 L 95.68071561657274 74.19967181315114 L 93.49852842455589 75.40104272697427 L 92.59701631852397 76.68935876331163 L 92.03676086979783 76.80790578441758 L 92.42180930510922 77.24853680228127 L 91.81971724659822 77.32889819592226 L 91.88834764128583 77.64174502156386 L 91.37515588473066 77.9921590031702 L 90.9724510833441 77.6476703775498 L 90.5828339386189 78.01849391866328 L 90.45403224440282 77.86766667538475 L 90.18926655605995 78.13640251757546 L 90.37754127543992 78.24441557248417 L 89.84737147647802 78.29449181330813 L 89.46623337760812 78.87804959980241 L 88.66932277138645 79.20210871522212 L 88.33133802824601 79.05852357370419 L 87.24807508046867 80.05438239321354 L 86.54988051869884 80.09524141361493 L 86.26157300892241 80.73545916980643 L 85.73335837818125 80.85795642823634 L 85.5378814574983 81.12405877887772 L 85.83925667323994 81.99017823819658 L 85.30252309525122 83.60845879524605 L 85.65425386802531 83.71188319063704 L 85.79283140334515 85.82677641166653 L 86.29100028571435 86.39387487597764 L 86.2419614746265 87.1322101430744 L 87.1500174089891 87.90085051368176 L 87.51545431000459 87.83301815559354 L 87.52788359369366 88.31646336182702 L 87.97896883319576 88.68794527582783 L 87.7573365498862 89.13252653101547 L 88.35747344017648 89.51717590276282 L 87.76649391940994 91.01230082849504 L 86.32760981311313 91.40155881045368 L 86.16874241982894 92.08786266875806 L 86.4243507386481 92.79525441015046 L 86.83164420014458 92.8683537513373 L 87.12581721458326 93.45654009873643 L 86.09290982383835 94.21133468801636 L 86.44855093305394 94.94244780404608 L 85.37640052302108 97.4169722271045 L 84.9044069539746 97.84377741433431 L 84.7265863993668 98.58935478319168 L 83.90547559873929 99.09783810983714 L 83.54265223891684 100.1220269141951 L 82.13449220466043 100.76617495701701 L 80.11115245523163 100.80043029785156 L 78.31792403496769 99.49302144778171 L 78.17475783953792 98.86138248981901 L 77.41772867488037 98.61768476804029 L 77.74982796266241 97.76936132737282 L 76.95814443882682 97.72586881542213 L 76.25992992636087 96.91443420713854 L 76.44429430929935 96.55875324243358 L 77.12221896380096 96.8512104592616 L 77.21243601170139 95.58462072820602 L 77.5262405111321 95.39097929655769 L 77.72105905884277 94.54395265097132 L 77.67202024775492 93.33138939806365 L 76.94114644572396 93.14896025619343 L 77.3438512471105 91.4226466935417 L 77.05749890555484 91.21847129569613 L 77.0150238734938 90.57232818351869 L 77.47329136360275 90.79429960001562 L 78.22247990468118 90.62567633808573 L 78.16169013357269 89.91565110514402 L 77.66549637012037 89.91501268295025 L 77.70210589751915 89.22342189085369 L 76.77705197005369 89.24446987255459 L 76.78750613482588 88.77026183743725 L 76.26779050063614 88.39746317766178 L 74.50660289835717 89.12855634299795 L 74.35884804281747 88.73008114061675 L 73.40634195747695 88.73668482018357 L 73.18014096475362 88.30922126006642 L 72.75979974798803 88.64776457900733 L 72.86308450185368 89.94529783576728 L 71.77656959060712 89.55406473514667 L 71.2862612825132 89.70555035131252 L 71.32023731802279 88.85654858706417 L 70.86785528327223 88.60890062796149 L 70.72664425606321 88.91452530253605 L 70.41022621543944 88.86117714796902 L 70.59786251254326 87.26001428599004 L 70.52530183071799 87.58273670494154 L 70.28732992727788 87.39172876484253 L 70.31282691693218 87.62291740176204 L 69.99379533511537 87.61834869293786 L 70.18927225579831 87.97137621539996 L 69.62965522934834 87.80672314148757 L 69.8551978490994 87.16123840219745 L 70.13043765291059 87.1737275363631 L 69.7133483996142 86.82399187833765 L 69.94541489699981 86.52365413755525 L 69.44531079710599 87.0110495811127 L 68.79940700989323 87.0110495811127 L 67.33043725383219 86.12781242672335 L 66.70480337388763 86.43144203194238 L 65.84644462358517 85.49551509587333 L 66.06021633261945 84.91524917381568 L 65.87455515443251 83.72507059907713 L 65.70523359637615 83.97930228705309 L 64.92859289742267 83.57753522023525 L 64.37879161346872 83.7171701244292 L 63.60149254154295 83.13361233793492 L 62.910480230379974 83.20802842489641 L 62.59276539450775 82.6639929623353 L 61.849442358091586 82.95116324537116 L 61.70497936741336 82.66267621656066 L 62.22667012051997 82.30767357543658 L 62.01876391614795 82.0138996128339 L 61.806308953058256 82.35375967754946 L 61.68209591895211 81.80577397766439 L 62.04948798818834 81.45340482808962 L 61.540226518770794 81.32298714431823 L 61.32972672390186 80.90671592328565 L 60.55176927900379 81.03845035283169 L 60.75835873743123 81.69578580409369 L 60.35826747723772 81.56405137454765 L 60.04969006019309 81.79458163857983 L 60.52495554340491 82.25364709728866 L 60.198083338008956 82.73643393063482 L 59.06450473459143 82.23916289376747 L 59.57703811817432 82.19896224625342 L 59.4658927900334 81.8479098424533 L 58.93245107690614 82.00663756037974 L 58.09368391020347 81.25906512216686 L 57.861617412817864 81.39409141614954 L 57.884500861279115 82.11004200507718 L 57.77140036491744 81.35720258376567 L 57.2614805225276 81.33086766827259 L 56.9411321947662 82.27271996032759 L 57.15883419093811 82.83455144154009 L 56.33904013625518 83.93515140221507 L 56.48809178704334 84.86054437208689 L 56.10238497875965 84.94090576572788 L 56.30177223588411 84.85725250765026 L 55.78794205705276 84.49829962920222 L 55.391102760328465 85.50271729624681 L 54.62427780387102 84.59246690278351 L 53.70901966820544 84.56148347569204 L 53.808394085629594 84.89212631998502 L 52.965716582485406 84.9942140189078 L 52.714018600107764 84.2868222775154 L 52.17337468567753 84.52527296688906 L 52.24791048641968 84.77555441754106 L 52.002097959400416 84.64381998799502 L 51.31894622251271 84.86050447069978 L 50.87111294647981 84.71099397319591 L 50.70442488031262 84.29737619440618 L 51.500677113562006 83.8982226684441 L 51.206484148427194 83.27713762737218 L 51.80859615763434 82.7949892162198 L 51.730788442726855 81.99869718434472 L 52.27731781251548 81.44346938269905 L 51.90926737030695 80.90863118986695 L 51.33789938383632 80.95276212401141 L 51.22086860033701 82.20089746352829 L 50.83582016502562 81.65357013653055 L 49.46754157233332 81.79452178649916 L 49.81989081668744 82.0105478963166 L 49.81859402143898 82.38795516630334 L 50.5128782467673 82.5947640556982 L 50.51221987379501 82.9366191897693 L 49.84538780634174 82.78313850424792 L 49.11124209014543 83.05055760066396 L 49.189688227329086 82.63231126096939 L 48.875245305622194 82.7436361310083 L 48.12278485037844 82.28981770470453 L 48.54771472725395 82.00396416744333 L 48.03059268356113 81.51986058832252 L 48.19730070042445 82.77787152114931 L 47.590639932499634 82.48675100078948 L 47.329784580598265 82.8463822028184 L 46.865631635130924 82.34119074060958 L 46.409319313242726 82.32275629976442 L 46.73553314566639 82.5150809856381 L 46.656428635510444 83.18492552175931 L 46.328259634866036 83.19414274218188 L 45.92423808753489 82.62836102364544 L 44.89916134502105 82.9965510732096 L 45.12339719417558 83.72303562833449 L 44.80437558770683 83.47604604211912 L 44.226463772905525 83.82248983570796 L 43.54657397483509 83.41282229424219 L 44.701080858493114 81.67727156047431 L 45.69215163945316 81.23400705106133 L 45.35417687166079 80.19072543297088 L 45.06652773485666 80.27370036746763 L 44.054528673656115 79.49452603066304 L 44.14605249215306 78.00137622359279 L 43.394898807505825 77.37237075717938 L 43.249119070883005 77.73397707787029 L 42.54699422197555 77.56272032439108 L 42.46461779765427 78.05669949682179 L 41.58076205769751 78.74300335512618 L 41.033574314936594 78.47889607384032 L 40.17717073285489 78.67122075971399 L 39.84899175686241 79.80146745101224 L 39.107643839363135 79.75202963238206 L 38.70885934976615 80.33558741887634 L 38.557842555409174 79.97926803197761 L 37.801461788375846 80.23284134706624 L 38.142718445681616 81.59491509747778 L 37.808654014330756 81.85114185480927 L 37.92175451069242 82.37937636807455 L 36.41225491544304 81.69239418618928 L 34.39022193661077 81.88076863473898 L 34.45755553604994 81.52774111227689 L 34.27843818619368 81.64036277739689 L 33.9476356936601 81.18195569157538 L 32.91210478637407 82.61780710675465 L 32.51070675558404 82.41229501244088 L 32.617921796587325 81.83532095481988 L 32.10735355657326 82.24303332831721 L 31.889651560401344 81.76485510518233 L 31.67065276898097 82.15279634136631 L 31.461449769360488 81.29260223803341 L 31.81381896441074 80.70904445153913 L 32.266859372133595 80.65178596103524 L 32.05243926547509 80.46209476671089 L 32.49240199188465 79.78895836615304 L 32.91929701232898 79.7757510070194 L 32.467563375202644 79.57023891270562 L 31.891616703970158 79.94435431825573 L 31.23656552258173 79.41216956766651 L 31.03847506070573 79.85082546686822 L 30.73514467674332 79.41611980499047 L 30.94237255744692 78.82466154384826 L 30.241564454484053 78.71599011605223 L 29.76825413949299 79.17044696454977 L 29.758448372345033 79.75927173414266 L 30.146120324197536 79.47343814757502 L 30.45141585172876 79.90351524854792 L 30.862619649666748 79.73886217463553 L 30.71226122828207 80.38893557344338 L 30.95675700935674 80.62604956634884 L 30.759983293425325 80.82956659130706 L 29.9526085470834 80.11297758018564 L 30.023862458312138 80.88159800009944 L 30.512863995809543 81.57121367353402 L 30.357926889663 81.85245860058393 L 29.767595766520692 82.02237865759493 L 29.75517645817969 81.550125790446 L 29.436144876362878 81.43355388800204 L 29.135428033593517 81.62456182810105 L 29.540746376173118 81.7391785625766 L 29.470799235540902 82.10866540722186 L 29.032791677352094 82.14820768184859 L 28.737950314593053 81.58244591400569 L 28.49083101697727 81.71549708932638 L 28.662117718602452 82.0889341712956 L 27.97634246517363 82.19367531246125 L 27.68411464360764 81.69506757912569 L 27.85604974285705 81.3848542450334 L 27.36182112297355 80.95475719336694 L 26.79763538710977 81.77872083720331 L 26.506065938516073 81.70296805377362 L 26.544640609483668 81.04565255320517 L 26.98068302410366 80.45219922270742 L 26.37401228083078 80.11102241221721 L 26.27660300697545 79.67500000456482 L 25.813756832104634 80.16107870234761 L 26.135391979766432 80.33036033716485 L 26.151083202272773 80.9033841574619 L 25.501259103270435 80.53585248078505 L 24.45461565823993 81.35718263307211 L 24.5095299493381 79.99642562843523 L 24.72592517491349 80.1531782276997 L 24.957343274674862 79.71452232849799 L 25.396009205835966 79.89170443796314 L 25.798065609598293 79.55052762747293 L 25.562717222699284 78.56913306079122 L 25.217540253603943 78.8451110047425 L 24.51802894588953 78.65146957309419 L 24.04275348732965 80.40016781391505 L 23.54852486744615 79.76655373729037 L 23.630901291767433 79.32855621097599 L 23.241922569318405 79.36215317892322 L 23.3608985456904 79.101337762074 L 24.066295308763195 78.8352354114326 L 23.987839196231484 78.53489767065022 L 24.49449709980405 77.99612919118772 L 25.514995157556026 77.80577962397604 L 25.26591071637143 78.15551528200149 L 24.736379339685673 78.18316694326921 L 25.231914730165695 78.54016465374883 L 25.914428044777242 78.17263297707198 L 25.66274003774766 77.21825164946424 L 25.238458558496376 77.37831606385889 L 24.884124219877307 77.09641276392165 L 25.328017233424504 76.5931964203748 L 25.06390991805392 75.97472492015864 L 25.413007198938832 75.81665557511953 L 25.260683633985334 75.38260828612911 L 25.070443771036537 75.66253646740437 L 24.981533493732638 75.38853364211505 L 24.488611644445662 75.42410572872426 L 24.511495092906916 75.92071839270429 L 23.859057452711532 76.13808119898992 L 24.25392163051895 76.7888129706851 L 23.94077550406052 77.31573073817572 L 23.66096699083553 77.10562998434422 L 24.097019380803587 76.98311277522076 L 23.87997575760397 76.81121759954777 L 22.876475692954855 76.65248988162134 L 22.537842552190195 76.27969122184588 L 22.440433278334865 76.84744805904431 L 22.856215761034715 77.29466280578126 L 23.6478992848703 77.34669421457365 L 22.69277965833674 77.61543005676434 L 22.98369073395814 78.44005207348803 L 22.289416483977888 78.522388585791 L 22.22600319632829 78.1311554851704 L 21.52649188861388 77.9908622080891 L 21.50753872729026 77.50344681383811 L 21.6801222241639 77.74979797785969 L 22.12206006949034 77.37041558921096 L 21.908278385107998 77.08324530617512 L 21.455896350357435 77.140503796679 L 21.12575223079614 77.7102357525394 L 20.78188203229732 77.54953291595099 L 20.57464417624566 77.92825693171238 L 20.2020050739272 77.87359203137069 L 20.408594532354634 78.5381695843933 L 19.709741597612517 78.37022464604428 L 19.933319073794756 78.92281895614063 L 19.709083224640224 79.22644856135966 L 19.36914331327904 79.26331744304997 L 19.258656358110414 78.96429644804223 L 18.914786159611594 79.43194070497987 L 18.552611197413388 79.26265907016264 L 18.371528703988314 79.49779794440612 L 18.7369656050038 79.77180076969543 L 19.32076287516349 79.41875329653978 L 20.30465140551669 79.95359148937187 L 20.695585296186472 82.38925196138445 L 21.308141494817736 82.93989110351238 L 21.03618358051995 84.40141906129739 L 21.468964056322665 84.71360751405166 L 21.670316457015943 85.34658316848257 L 22.984997504554666 85.96635146377983 L 23.205313041919627 86.66715947629896 L 22.986304275151188 86.96947233574333 L 23.093519316154477 88.340783257271 L 22.650933073203802 89.00731597826203 L 22.779724792071818 89.8372249287779 L 23.154977435583323 90.01636220621147 L 24.589941230090563 89.31359902572392 L 25.748378400886217 91.4647426569435 L 25.260683633985334 91.65243878191232 L 25.029255558875896 91.40676594147162 L 24.957343274674862 91.91985787832837 L 25.994839325529707 92.30319050430106 L 25.754912253868834 93.62376681211745 L 24.946230736930385 94.41215836934461 L 24.55071816149874 95.58785274056198 L 23.656398281421733 95.78017742643566 L 23.357636606873122 96.2320007833839 L 22.927469672263452 95.05500961708543 L 22.73069595633204 95.34415501878325 L 22.543718032200516 95.12547546672296 L 22.087405710312318 95.41659598708277 L 21.6801222241639 95.257209896269 L 20.439318604395027 93.5723937762124 L 19.439090453911255 93.01716597456674 L 18.472858289633216 94.4655264746052 L 17.718432690820638 94.79814443756017 L 16.984276999276265 93.98471475992102 L 17.46282437200149 93.13966323299664 L 16.175595482337815 92.21229514446284 L 16.21286338270889 91.77824785547243 L 15.530350068097343 91.07612309717864 L 16.066425273113776 90.54262160081475 L 16.197172160202545 88.89996129624063 L 15.538849064648776 87.68871478910762 L 15.383263560878003 86.6961478340349 L 14.764821906888352 86.03091190812498 L 14.786388609405016 85.65811324834952 L 17.0051953041687 83.87713478535608 L 17.00846721833404 82.52691174691643 L 17.933521145799507 81.8946144160664 L 18.5846420400503 81.92094933155948 L 18.24796406750639 81.54685387670293 L 18.633022478165852 81.31105662957212 L 17.79688880335235 80.91521491874022 L 17.96685875903294 80.57272136247536 L 17.375220865294114 80.14394105658356 L 17.246429146426095 79.35684629443749 L 16.73847444760507 79.15925462546521 L 17.056847656449595 78.76933827061926 L 16.567187745979894 78.19104746722358 L 17.043121577512068 77.7932306377297 L 17.279776735007598 76.97585072276661 L 17.687708618780245 77.07398818436542 L 18.2806532831156 76.6300653020651 L 18.1159104098211 75.79028075823933 L 18.398332464239136 75.31934463686507 L 18.75265682751014 75.50047698365418 L 19.177596679733718 75.04009477917069 L 20.4765865047661 75.31278085868536 L 20.85248754590183 74.93603196158593 L 21.39966531331468 75.29235134848466 L 21.78864403576371 74.8596208052689 L 23.542639412087762 74.39658515854255 L 23.62632260700557 73.63718195905133 L 22.74311526467304 72.50166828465446 L 23.751842411708246 71.7356614055964 L 23.77603263076602 71.49459717536699 L 23.455694278352684 71.44916944614144 L 23.62567420938134 71.267378726465 L 24.31864168876507 71.73897322072659 L 24.10943868914459 70.8043630304322 L 24.60301891140386 70.65551090581566 L 24.51672217529301 69.9639201137191 L 25.244344013854764 69.45018975466859 L 25.44634481217227 68.1137925468628 L 26.251764390293445 67.42946380722039 L 25.423471339059084 66.55346875459163 L 26.217768404087714 66.31172620078134 L 25.898736822270898 65.6926162783714 L 26.41257697645031 65.6622712734737 L 26.487761174816683 65.09980137006744 L 26.989182020655093 65.12084935176834 L 26.715268938136553 64.59919856737635 L 27.128427904295293 64.28369829949189 L 27.352015355825593 64.51620368218605 L 27.492568010062318 63.91157796329731 L 27.941039708371378 63.8490125883077 L 27.791329684610925 63.55723369506056 L 28.039097379850936 63.40640645178204 L 27.259184766732126 63.13503711804203 L 27.39646550680351 62.29132228758586 L 27.812906362475655 62.30183630308953 L 27.942994876592127 61.878322980296346 L 26.87151281487962 61.70576943173604 L 27.042141143532508 60.981918368160464 L 26.4897263183855 60.240949609514395 L 26.18050050371664 60.25146362501807 L 26.08963505819199 59.77065191033389 L 25.92946089431129 59.89711935678132 L 26.285750401151112 59.33857974000546 L 26.11513204784629 58.20174931983394 L 25.358741305464896 58.53767909791909 L 25.49864556207739 58.014711567752435 L 24.893929987025263 57.7598015561956 L 24.359819925577646 57.89351110440362 L 23.627629377602094 56.95955928699655 L 23.01115286718126 56.97407341655808 L 22.664669127489393 56.54397636489163 L 22.41689145690132 56.74683501696253 L 22.31294833006337 56.426077741326225 L 21.54218311112022 56.90162247291179 L 20.266735107521388 57.07945297991749 L 18.691857081053588 56.45901633638613 L 18.35125879672011 55.932756941782834 L 17.85703017683661 56.046695352677496 L 17.331419111940427 55.28596543206484 L 16.383491711361774 55.44469314999129 L 16.0932290333646 56.1072955843519 L 15.394376098622482 55.87479020165774 L 15.138757804455267 55.06729585535132 L 15.623839030163104 55.15884958807687 L 16.111533797063988 54.5305024945508 L 15.478049318192223 54.062199864725834 L 15.332269581569406 54.294046874532675 L 14.047005835474552 54.07339220381039 L 13.91168026362392 54.8156876835779 L 13.101033603116653 54.65497487164269 L 13.177524572079548 55.279381703191575 L 12.824506979405069 55.49409106723436 L 12.614655582160358 54.72875253641042 L 11.728824723286717 54.89539070433156 L 11.153536425026525 54.51469156990818 L 11.019517623772416 55.05411842225801 L 9.14850143929712 54.31183291783728 L 8.676497894902578 54.63983229523418 L 8.634002912145412 55.179259147584 L 7.110777237958504 55.925514840022245 L 5.963452604907327 56.09082628682196 L 5.652929994990011 55.69235108444075 L 5.420195149284049 56.616427308537915 L 5.589516707340412 56.93652621128689 L 4.973030221571512 57.247407893613286 L 5.19203898833995 56.8970138627005 L 4.7036958238148365 56.88844503981847 L 4.848827162813424 56.13495722096641 L 4.619354255924737 55.39924547007218 L 7.71876472717597 53.75658516549805 L 8.915108220618862 53.535282097235225 L 9.170726514786077 53.003087371299216 L 8.77978264876823 52.86807105266332 L 8.722913189449311 53.34822439446017 L 8.466646497657868 53.34887279200072 L 8.052819183178768 52.559822861886225 L 7.423923364416932 53.115060638878674 L 6.466190196690325 52.785734540360345 L 6.5792807177039325 52.15212046373567 L 5.973258372055283 52.318748656310035 L 5.658815450348397 51.88800320710303 L 6.923150916202752 51.45790615543658 L 7.119276234509937 50.75842486403888 L 7.796552491387324 50.64908508800873 L 8.04825047376497 50.2670692078107 L 7.589973008307954 50.00625379096147 L 7.6540346935817825 49.67297745511919 L 6.934921826919525 48.721229619060736 L 7.242182498019566 48.05995390582155 L 6.700880210617039 48.317487433580915 L 5.643124227842055 47.47375265243118 L 4.748804347765048 47.19844305671399 L 4.519989813848654 46.79337415011274 L 4.716763529780068 46.22694403403574 L 4.263064749084916 45.983246312257016 L 4.071518115539595 45.384535974007434 L 3.4243175330783693 45.17574199060382 L 3.3595974748322464 44.540152795317155 L 3.6295902455612157 44.195015772156204 L 3.096786954710122 43.91246407467842 L 3.523033577530223 43.27291466672102 L 3.443929067374281 42.60372850348713 L 2.9111257765231873 42.255309591236326 L 3.000036053827085 41.181064496747965 L 2.612364101974579 40.89322586547801 L 3.481845365369582 40.071247315650396 L 4.481415142881059 40.0791577656451 L 4.480108372284536 39.503490478451965 L 5.1122860805597785 39.67210376503509 L 5.252838734796502 38.933110125050995 L 5.943192672987187 38.949579422580946 L 6.191608765851426 38.54715398287578 L 5.825513491863649 38.38512442516592 L 6.162849837379853 37.99454969743264 L 5.394698159629749 37.205489791971374 L 5.254793903017255 36.55474804492942 L 5.382927248912977 36.21357123443921 L 5.575790628402886 36.36834871504169 L 5.631353317125281 35.40607688813279 L 6.260259111235183 35.0675235938451 L 5.573167111861775 35.01352704173752 L 5.531988875049199 34.595290677389734 L 5.941885902390664 34.75401839531617 L 5.894163837247406 34.31865436055111 L 6.244567888728841 34.038726179275855 L 5.233227200500591 33.696232623010985 L 5.5816661084132075 33.52630259065321 L 5.623512693546143 33.115308328066014 L 5.18484676238504 32.63252149471985 L 5.601936015681414 32.31637282929484 L 5.3325916425766735 31.45552035307461 L 3.4596202898806236 29.96566241044099 L 2.858825026618067 29.063980839859717 L 3.4386920096401234 28.405996991057165 L 3.096786954710122 27.847457374281305 L 3.2648017421699618 26.73304155831923 L 2.7372255337049602 26.786379737539484 L 1.9128527942601679 25.61070531701567 L 1.5330314413348654 25.49083157478829 L 1.8121815815875617 24.864459599924206 L 1.3957407259154164 24.370470452146716 L 1.3257935852832015 24.010190852577246 L 1.865130729116911 23.786254292765108 L 1.440200852241398 22.97874997111191 L 1.7690282258581034 22.189700040997423 L 0.5079546988210245 20.62344091739355 L 0.7537672258402834 19.42536186800707 L 0.5517564521747119 18.752883840336548 L 0.809339889910744 18.462421692864062 L 0.6099426574382188 17.99873764859716 L 0.9446654617613758 17.012744447050935 L 0.4805025409459737 16.78814951435147 L 0.4380075581888094 16.365294564445612 L 0.8472561879060448 16.159144047938078 L 0.5602554487261447 15.830476322307078 L 0.7459266022611446 15.334512055867604 L 0 13.892735284702402 L 0.3392915137369554 13.587130560821397 L 0.009805767147955991 12.83298436908201 L 0.799534122762788 11.172538021203282 L 0.4399727017576266 10.147022495723888 L 0.9237371815208756 9.792668252140361 L 1.3042169074184722 8.007081178935639 L 2.4391222321286463 6.488244853912857 L 2.538486674204729 5.755834942802035 L 4.509525673728404 4.8245066415974955 L 4.284641426949645 4.6400924057185255 L 4.634397080806851 3.8510325002572583 L 5.314945251849578 3.531591970395611 L 6.047135799825133 2.043709146423971 L 6.643352378325826 1.583975339481032 L 6.940148909305617 0.6361877160933207 L 6.705458895378903 0.419483282695 L 6.5433295632774495 0.10142932603545039 Z" fill="rgb(0,0,0)"/>
        </svg>