<svg 
          width="47.303619384765625" 
          height="43.68525695800781" fill="none" 
          xmlns="http://www.w3.org/2000/svg">
          <path d="M 22.33060005418102 1.877110509563492 L 23.06017690930326 2.792627705507258 L 22.86601677492579 3.476307912729009 L 23.39816158218537 3.8497648717141986 L 23.56355281872351 4.8225804482448265 L 24.114012361223384 5.4687034822580936 L 24.890652898733258 5.651810911584771 L 25.318206203272545 6.946710421330682 L 26.52436518848202 6.921023908445729 L 26.933603757781015 7.9623401777845 L 27.701106878362726 8.458294371032688 L 28.614389705263402 7.775940884670626 L 29.3099705812468 7.813468131844681 L 29.821197087962325 7.438704402689422 L 30.681520802994424 7.9037051009931405 L 31.364692348564464 7.885270663784833 L 32.18774817097253 9.272372285606712 L 33.954172463791465 10.042329250087477 L 34.76154704230098 11.070478064277456 L 35.50223643285769 10.54224365522511 L 35.95658351672999 11.323402931927157 L 36.399169667678386 11.300978356794973 L 36.59790848586593 11.740292542213737 L 36.35733306659027 12.385767178814374 L 35.81995120268518 12.822447873203382 L 36.20958821711099 13.217631133184078 L 36.302418786907374 14.270808087501571 L 37.532109613310666 14.454573889585687 L 38.39047816052844 15.102023644458644 L 38.83175754115196 15.03286457889306 L 40.55501851186591 16.25728827755851 L 41.34474670331656 15.7330041050508 L 43.44262181739321 17.15040084905971 L 44.45264554971891 18.393268960278277 L 47.30361938476563 19.457638251472243 L 47.29382359500203 19.71385498290914 L 46.90484495341166 19.555775693709975 L 45.82944280345803 19.930549398210044 L 45.182222404841156 20.792050102009338 L 45.38226799335357 21.4329161293079 L 43.79106065287436 22.686318204645495 L 43.6053995132816 23.365379827220362 L 42.62739664158843 24.134020046186247 L 41.63435094814017 24.124144454824652 L 40.93877007215677 25.856383031717012 L 40.154288912697616 26.67507953093792 L 39.340360531871724 26.54467184824084 L 38.41008969074762 27.415399745989095 L 38.63236035012898 28.609518347122705 L 39.12397532662532 29.176616699553605 L 38.954005406277105 29.873464361924146 L 38.55718614273746 30.40433226200625 L 38.06229925275592 30.5373834110779 L 38.15774336320206 31.072191572359834 L 37.296761275334525 31.72952689393919 L 37.51315645592692 32.11022595325622 L 36.700544820771896 32.244583872497934 L 36.68028489306327 32.76360106294613 L 37.139210660745654 33.068547353778364 L 37.19673848107831 33.77000362545098 L 37.71057852844359 34.30877199862236 L 37.441892584164044 36.01269057160001 L 36.770501922209895 35.76833452514183 L 37.09213700301203 37.00264379051369 L 36.56652604737685 37.37345728312431 L 35.89579375825814 37.07641146538135 L 35.34860612924346 37.61583821131016 L 35.228971804768065 39.11754656965058 L 34.985772869496664 39.518006787035596 L 34.74454905273156 39.444239112167935 L 34.17317120968763 40.543512134851014 L 34.34052758938609 41.89967023707323 L 33.70116776341047 42.367304426406704 L 33.903826892572646 42.629446512660564 L 33.53642492436177 43.34538698499685 L 32.91014277698093 43.68525695800781 L 32.28777096522874 43.418496287107075 L 31.83015196787124 42.58794907825225 L 31.998815117894576 42.33173234681535 L 31.167908698191248 42.22964466803298 L 31.647762741763675 42.07815908175302 L 31.352921440294562 41.671773509551045 L 30.948251579459647 41.663863061116956 L 30.83058239814457 42.17299468485875 L 30.38538270654642 42.280359321045445 L 30.731208001377805 41.38131141938248 L 30.263783238910715 40.927503057955235 L 29.41130014582789 41.102041666090386 L 28.781746084961863 41.60853979880242 L 28.061316622113775 41.2890993319617 L 27.204254845220877 41.64674536942353 L 27.006174399868772 40.915642372976514 L 26.606731620333374 41.37405934370583 L 25.292709218918414 41.49064119849668 L 25.158690445523362 40.29387913098851 L 24.82462608361589 40.21879471060597 L 24.587322577825425 39.69452051344307 L 24.480755956598827 39.97773052793499 L 23.755757785286658 39.96720653916077 L 22.45742660311624 38.77506305629947 L 21.83113448038941 38.87254212577977 L 21.928543733995863 38.42729261019924 L 21.53956509240549 38.14408259570732 L 21.455233517393822 37.201552166018914 L 20.03399609726282 36.527099152746125 L 19.89801218070745 37.382026104315834 L 19.149472192855473 36.61338588534995 L 18.9036696922803 36.883428444693074 L 18.302226156418158 36.8676075478249 L 18.284569794013304 36.05088616687631 L 17.64782350868744 35.12812687060071 L 16.926087275514476 35.18212341205557 L 15.749355560979758 34.24685503338861 L 16.34491364270695 33.73640666413195 L 16.775080487895995 34.05913899475986 L 17.050958656635373 33.21541435541143 L 17.322258141564678 33.44726131947826 L 17.8883989279631 33.066562260161234 L 18.6107935339715 32.06146646782645 L 16.729971973322684 31.74860972856013 L 14.26273972322083 30.396411838227355 L 13.196484965541359 29.40910208568825 L 12.652569250011876 27.561608374864726 L 11.626185950260206 27.070911188331248 L 10.520049759306941 26.695489086418547 L 9.146534394399007 28.150433028291133 L 8.628115663223655 28.056245822598036 L 7.883495986346316 28.593049052841906 L 7.102925162515812 29.76477300487776 L 6.581244493201258 29.90309113600893 L 6.48448363708425 30.541313696932917 L 5.816364888615297 30.648019960362177 L 5.757520322611768 29.982125792936102 L 5.258713121655595 29.944598545762048 L 5.320819625798326 29.5401980671772 L 5.662734585001066 29.57183986091354 L 5.322784768958641 28.130063374189746 L 4.25391647062941 28.1840599156446 L 3.6393952561724863 28.69978524230559 L 3.140588055216314 28.500876866800365 L 3.1732772640302764 28.207771310257232 L 2.664005925129079 27.963415263799057 L 2.7594500355752163 26.864790638528614 L 1.9017398611928755 25.50008366580449 L 2.326021252246969 24.84012482854018 L 2.1161698986249586 24.50026483087403 L 2.4894573209707893 23.983222758698155 L 2.286139818973175 23.669049273916958 L 2.863403116152056 23.05387973484816 L 2.6620407819687646 22.70610928874792 L 3.056904877694089 21.88609604401213 L 3.4216933052552094 22.05010068802825 L 3.7701421160823445 21.691137905051544 L 5.04232791640919 19.553172128714646 L 2.0220325585037005 18.094936323054863 L 0.9740725853725368 16.948230535801713 L 0 17.049659841826646 L 0.24710927090005408 16.639324033080033 L 1.5879454023400172 16.298147289899 L 3.2321118546878136 15.348384735223567 L 3.3883556989518033 15.00128263722558 L 3.2876745318601577 14.513877314479297 L 2.720885347972293 14.52636644618103 L 2.2782991970239 13.962569932882138 L 2.996763516711672 13.627976917275502 L 2.9562336859484346 12.919936918028487 L 2.3312483335464855 12.567557862626172 L 2.436508184448204 12.171706254543228 L 1.7141135784398027 11.24565509448043 L 2.4822650965109583 10.268879306060354 L 2.4835718668358373 9.448207688567125 L 3.0974347084573264 9.809813937918403 L 3.183083029139866 8.766512574962503 L 2.498604713244944 8.790902293022196 L 2.3475979256264625 8.194825563919146 L 2.7483375001407477 7.915565785971863 L 3.477265957773545 8.290329515127121 L 3.1935371917388995 8.030820919903025 L 3.5890496849536677 7.417626499106547 L 3.2510650120715576 6.553482328932686 L 3.828976706739882 6.245892571725882 L 4.440226007711613 5.069550035043141 L 5.36070105907212 4.6835839936666 L 6.17460948920603 5.0655997984985035 L 6.389697899473548 4.57886282385447 L 7.180722885903085 4.49060097297833 L 8.00248191333226 3.836567490530978 L 9.162874011132992 3.7812641789060546 L 9.661681212089164 3.198354904951796 L 9.995097176507192 3.2833248920407385 L 10.063079159438885 2.9276539728512274 L 10.856079264374728 2.884839792928036 L 11.420254907612833 3.5764204732390623 L 11.720323290381465 3.3827691044485424 L 12.05765956577413 3.6337188538259237 L 12.413290625715106 4.283143726971198 L 13.329845366100976 4.235750863780359 L 14.1274141795009 3.759547853255359 L 14.662172527410236 3.9920531900796226 L 14.843264958538914 4.42873388446863 L 16.860060460397104 4.262095749422752 L 17.18431905719499 5.1901220277578695 L 17.904748520043075 5.82901293678411 L 19.618213700993433 5.700570397014537 L 19.318145318224804 4.694167834509682 L 18.51077073971529 3.939353443450028 L 18.3911364152399 3.3933329946020043 L 18.644131140274908 2.228192770140546 L 19.550221742715753 1.7098439277946031 L 20.319680031111787 0 L 21.42842976271481 0.5091316237417886 L 22.33060005418102 1.877110509563492 Z" fill="rgb(0,0,0)"/>
        </svg>