<svg 
          width="55.44013977050781" 
          height="85.50291442871094" fill="none" 
          xmlns="http://www.w3.org/2000/svg">
          <path d="M 36.55543329668662 84.6545911105731 L 36.94114002304084 85.02276115626618 L 37.009131981009865 85.50291442871094 L 36.33707297392518 85.31851019481361 L 36.55543329668662 84.6545911105731 L 36.55543329668662 84.6545911105731 Z M 41.16825271980176 84.5446029528888 L 42.109646067432756 85.30203092431711 L 41.27808127866898 85.33034095438315 L 41.16825271980176 84.54458300219812 L 41.16825271980176 84.5446029528888 Z M 39.64633413948804 84.25938787901708 L 40.032040865842255 84.62165252027076 L 39.81433891591326 85.06952557520542 L 39.42208836261837 84.73692761098359 L 39.64633413948804 84.25938787901708 L 39.64633413948804 84.25938787901708 Z M 37.096077096276595 84.08156737304209 L 37.78445576932919 84.62231089306299 L 37.27128407247494 85.18677578429495 L 36.72343807311184 84.61770228351736 L 36.920211747245794 83.86552134373622 L 37.096077096276595 84.08156737304209 L 37.096077096276595 84.08156737304209 Z M 40.307919033329256 83.86815483490516 L 40.665515234807195 84.77379648734865 L 40.03465440648015 84.99510949899239 L 40.23926870252778 84.63152811215426 L 39.90194240401244 84.24029506804233 L 40.307919033329256 83.86815483490516 Z M 42.96080243563479 84.03875319085626 L 43.22165773212687 84.33579902429749 L 42.826135265361636 84.39176071163732 L 42.770572588441524 83.65408392397599 L 42.96080243563479 84.03873324016558 L 42.96080243563479 84.03875319085626 Z M 37.86030829990379 83.49998478921206 L 37.85244772729822 84.38453856161343 L 37.32096129528682 84.05389576507763 L 37.86030829990379 83.49998478921206 Z M 43.21772744582409 83.09227247460363 L 43.30403413895026 83.70547690315153 L 43.600182209399854 83.95246645369237 L 43.823749662745186 84.58015508366938 L 43.429543941644845 84.62624117912571 L 43.427588773839396 84.24027511735164 L 43.058880036977435 83.90041510172459 L 42.75684651241961 83.1653718052322 L 43.21772744582409 83.09225252391296 L 43.21772744582409 83.09227247460363 Z M 40.7590041770146 83.2220317667456 L 40.65113078595283 83.83655294087797 L 40.11766923544409 83.5184192273946 L 40.7590041770146 83.2220317667456 Z M 34.00124596717239 83.08305525551236 L 34.48044163573402 83.34454895817301 L 34.64453607654834 83.95049133531566 L 34.05878376258984 84.53207391914569 L 34.00124596717239 83.08305525551236 L 34.00124596717239 83.08305525551236 Z M 35.957910074511645 83.03826595494984 L 36.18540781415977 83.57442081611578 L 35.87030658641247 84.2679666760068 L 35.675488080083966 83.5105187538878 L 35.957910074511645 83.03826595494984 Z M 32.542750636384355 82.86439568572824 L 32.70814187217169 83.16868361988404 L 32.54993288546559 83.4387361688437 L 32.76436292192424 83.67453338191658 L 32.80554114998999 84.02426898942713 L 32.64537699547844 84.62628108050706 L 32.225674290139715 83.3603499051866 L 32.542750636384355 82.86439568572824 L 32.542750636384355 82.86439568572824 Z M 44.24018045461358 82.85452009384474 L 44.72985023641868 84.00254268728344 L 44.13559892771404 84.39245898581089 L 43.41581786562293 83.46969964076933 L 43.563572689777445 83.10480150834674 L 44.24018045461358 82.85452009384474 L 44.24018045461358 82.85452009384474 Z M 37.25753804576114 82.92368913841058 L 37.6223364470122 82.84266938358455 L 37.82760911589228 83.30833845460018 L 37.19608991473279 83.94195243970731 L 36.84372079453064 83.12654776118111 L 37.25753804576114 82.92368913841058 Z M 41.829179240810525 82.50873472308758 L 42.612363601735424 83.2464115107489 L 42.34630117465945 84.17575458371279 L 41.691898529899476 83.25828217169978 L 41.829179240810525 82.50873472308758 L 41.829179240810525 82.50873472308758 Z M 35.387180631548055 82.71488520981927 L 35.609451289920386 83.14695731774034 L 35.37149938772069 83.78583828518533 L 35.656534922786264 84.24755711944756 L 35.200222697825126 84.71651805442436 L 34.94132256913849 83.45914572540293 L 35.267556282961706 82.93027286633291 L 34.924982952478686 82.70764310910471 L 35.15052552432136 82.36449122951649 L 35.387180631548055 82.71488520981927 L 35.387180631548055 82.71488520981927 Z M 32.72120957536115 82.44024400200465 L 33.39783729088918 82.55352402365011 L 33.856763056488205 83.5829796624148 L 33.6632612958246 84.59400086299696 L 33.93325400920336 84.94176135213083 L 33.54493374221125 85.25331133769185 L 33.07880577683909 85.12157692717318 L 32.72120957536115 82.44024400200465 Z M 42.523463318663254 82.31641006499278 L 43.05560812350709 82.90918498629077 L 42.4659255232458 82.78997960951521 L 42.523463318663254 82.31641006499278 L 42.523463318663254 82.31641006499278 Z M 34.82758367466038 82.33745804365357 L 34.74325210003154 82.84857478802397 L 34.99754361889105 83.1311164693454 L 34.67917047767341 83.37744764709399 L 34.531435604210785 82.4507580159897 L 34.82758367466038 82.33745804365357 L 34.82758367466038 82.33745804365357 Z M 43.614546707562326 82.3071329938295 L 44.12839672794091 82.70626651144822 L 43.79107042942557 82.8880572048673 L 43.614546707562326 82.3071329938295 Z M 41.16954951477476 82.32686422690583 L 41.58663867947559 82.31170170199378 L 41.22904247799765 83.07375823365841 L 41.510806099592884 84.1078424326594 L 41.29833123093968 84.25274429902274 L 40.81522522676716 84.07885407911047 L 40.89889842856355 83.02831056030364 L 40.347800466422 83.1257896349355 L 40.63872145559581 82.51128841149382 L 41.16954951477476 82.32686422690583 L 41.16954951477476 82.32686422690583 Z M 37.712553475749274 82.02850164788012 L 38.22835866393331 82.73852677826766 L 38.05446843339985 83.23250587934932 L 37.63215218742322 82.36441142675379 L 37.712553475749274 82.02850164788012 L 37.712553475749274 82.02850164788012 Z M 43.13993969813593 81.95669911214536 L 43.640043691800706 82.79780028025931 L 43.48837853203529 82.93941028266148 L 42.75225785328438 82.16221117677549 L 43.13993969813593 81.95669911214536 Z M 38.08846441238436 81.84407746329212 L 38.21790450138173 82.46254887417788 L 37.977319107852246 82.2563983874462 L 37.83938002410875 81.94023979233953 L 38.08846441238436 81.84407746329212 L 38.08846441238436 81.84407746329212 Z M 36.154683748645596 81.86382864705912 L 36.13834413198578 82.62720192430821 L 35.688555783273436 82.91237709679858 L 35.74739037366389 82.17272519076054 L 36.154683748645596 81.86382864705912 Z M 39.545004575366946 81.59114260693052 L 40.13466722493635 82.30248448290251 L 40.045108569031726 82.71017684682027 L 40.23338324841955 82.79909707515311 L 40.182389279942775 83.28385895714351 L 39.72084997370585 83.37936291339867 L 39.98038852453304 83.79102546476051 L 39.14621019513137 83.50056335924161 L 39.25474195902559 82.52904452619345 L 39.545004575366946 81.59114260693052 Z M 37.196748287565235 81.54832842474468 L 37.57527276483822 81.88092638896651 L 37.579183100449114 82.65220013972241 L 36.85353653494166 82.89392270792537 L 36.6443335797588 82.13122775415918 L 37.196748287565235 81.54832842474468 Z M 35.516620720545426 81.53647771448449 L 35.80297300127589 81.70180908809773 L 35.51859583904277 82.57451215023889 L 35.184521503305874 81.9356311827939 L 35.516620720545426 81.53647771448449 L 35.516620720545426 81.53647771448449 Z M 43.423658487536606 81.52791886818545 L 43.65508651348752 81.52335016002117 L 43.74334837441914 82.21623764711997 L 43.29553514420413 81.8467508558424 L 43.423658487536606 81.52795876956681 L 43.423658487536606 81.52791886818545 Z M 41.0767189453998 81.64054051703869 L 41.10678463808152 82.19249632521822 L 40.566799211323996 82.43816913017459 L 40.98911545730062 81.36194907247067 L 41.0767189453998 81.64054051703869 Z M 42.62740642342224 81.00231792238593 L 43.1098740054542 81.3968627811497 L 42.94577956463988 81.87438256242552 L 42.271765389749746 82.14178166952559 L 42.09787515921629 81.5450565114742 L 42.62740642342224 81.00231792238593 L 42.62740642342224 81.00231792238593 Z M 37.84917581382788 80.96145890788613 L 38.051196519929505 81.25323775898948 L 37.99824738364729 81.71363984766725 L 37.62822190112043 81.44819590825321 L 37.84917581382788 80.96145890788613 L 37.84917581382788 80.96145890788613 Z M 34.29607729195709 81.04050354433545 L 34.60269947565015 81.79202611132435 L 34.94393610977639 81.88816848968108 L 34.90275788171064 82.17994734078444 L 34.436649867030376 82.29653917708174 L 34.33073164377405 82.82345686846574 L 33.826038990974034 82.69764781307717 L 33.56586201800629 81.67872613898821 L 34.29607729195709 81.04050354433545 Z M 41.460470503948564 80.7368739829719 L 41.748777952484474 80.9370991145735 L 42.22077142127298 82.63574081991658 L 41.291807354690896 81.86380869636845 L 41.460470503948564 80.7368739829719 L 41.460470503948564 80.7368739829719 Z M 31.618355278245613 80.59263048940079 L 32.10473319588847 81.52329030794915 L 32.07989458448254 82.55077082833714 L 31.706597188485343 83.47813878292433 L 31.861534261721097 83.91352270549723 L 31.23787563316718 84.26984204093013 L 30.31477707000144 83.92603178854966 L 30.246785112032416 83.54533270911347 L 30.74102360228085 81.99356798851042 L 31.618355278245613 80.59263048940079 L 31.618355278245613 80.59263048940079 Z M 40.566799211323996 80.89691842355658 L 41.036837512307045 80.37197585054929 L 41.281991614279875 80.63939490834002 L 40.592296195562376 81.63130334725675 L 40.48508117733305 81.10175216470383 L 40.566799211323996 80.89691842355658 Z M 43.14255323877382 80.31928607647997 L 43.82506640841008 80.72829518598219 L 43.650517805044174 81.33886612336116 L 42.83136234663742 81.04642889946555 L 43.14255323877382 80.31928607647997 L 43.14255323877382 80.31928607647997 Z M 38.251900480366245 80.25672071052713 L 38.68728442953234 80.696693291955 L 38.487897214760494 81.92573564021971 L 37.96227628616544 80.75927860859849 L 38.251900480366245 80.25672071052713 Z M 37.439947221732616 80.26065099658986 L 37.615792620071524 80.5438710013942 L 37.33991445258452 81.33357919033261 L 37.1150302535743 80.99898615704342 L 37.439947221732616 80.26065099658986 Z M 35.854605391893216 80.15130126100712 L 36.341641682368525 80.40423611736873 L 36.45212861406819 80.86791011931699 L 35.876192040520706 81.47518919273477 L 35.26362599665892 81.45348284128175 L 35.551933445194834 80.31138560297316 L 35.854605391893216 80.15134116238846 L 35.854605391893216 80.15130126100712 Z M 39.53389203998292 80.22771240628752 L 39.98497718366827 80.28106055314909 L 40.426246586942604 80.82246244596222 L 40.11441727266564 81.97904388569994 L 39.27762540262608 81.13862104106889 L 39.53389203998292 80.22771240628752 L 39.53389203998292 80.22771240628752 Z M 38.50292008575541 79.90365333767406 L 38.8788310223905 80.05184706799855 L 38.604269600568394 80.40555286295319 L 38.50292008575541 79.90365333767406 L 38.50292008575541 79.90365333767406 Z M 41.1930913312077 79.95897660291233 L 42.2684934762794 79.80683263583443 L 42.9758452573216 80.20728289903762 L 42.793456032042016 80.52607498531322 L 42.119441857151884 81.06089315020401 L 41.1930913312077 79.95897660291233 Z M 39.646972561628594 79.75148941990548 L 40.685126764937344 79.93196336774008 L 40.80345431855069 80.45295570399398 L 40.55241476246963 80.74407618230511 L 40.29157941666944 80.20728289903762 L 39.582910889962356 80.08741914946982 L 39.646972561628594 79.75148941990548 Z M 39.945095750575526 79.0447761041698 L 40.01765641698789 79.41294614986289 L 40.443902949267304 79.49791614144233 L 40.578570119540466 79.69089917232935 L 39.902600776844885 79.64219953639477 L 39.64828930729349 79.13371628319331 L 39.945095750575526 79.04481600555114 L 39.945095750575526 79.0447761041698 Z M 38.77684308543696 78.46121840196307 L 39.53977749409116 78.73585960977769 L 39.025269100880124 79.59012823373632 L 38.347983012519656 79.36552335813143 L 38.77684308543696 78.46121840196307 Z M 31.67914503644151 78.35518048103218 L 30.94172756271759 79.73963870964529 L 30.389971227743594 80.05184706799855 L 30.747567429221533 78.81556261901926 L 31.67914503644151 78.35518048103218 L 31.67914503644151 78.35518048103218 Z M 40.86751599021693 78.4579265380019 L 42.09526161857839 78.57252330523184 L 42.0167955473659 79.67246473414683 L 41.45590179550522 79.8061742630422 L 40.12814334868756 79.20942915430012 L 40.31641802807538 78.56462283172503 L 40.86751599021693 78.4579265380019 Z M 43.993729557667756 78.02848792124978 L 44.49710546480287 78.9387381832389 L 44.295763082225584 79.71396217074819 L 43.87669879902741 79.83777615706938 L 43.15039386068751 78.43815540354423 L 43.226226440570215 77.93035047382568 L 43.993729557667756 78.02848792124978 L 43.993729557667756 78.02848792124978 Z M 41.65856092374741 77.57796142445551 L 41.88410349559008 78.25175610057954 L 40.648517245314935 78.06669349388997 L 41.65856092374741 77.57796142445551 L 41.65856092374741 77.57796142445551 Z M 41.26108328917672 77.21374161551581 L 41.44476930942931 77.45019720138092 L 40.57661495173502 77.69718675192175 L 40.43867586799151 78.02980466683424 L 40.112442154168306 77.93364233778685 L 40.470038355646246 77.16368533261542 L 40.96493521872713 76.97662765685848 L 41.26108328917672 77.21374161551581 Z M 41.465697585224355 75.9168669189604 L 42.27633409819309 77.41067488315625 L 41.6814443673479 77.44754375952131 L 41.11267009218975 76.86661954848351 L 41.69058178423458 76.63740606333299 L 41.2309976458031 75.84506438322563 L 41.465697585224355 75.91684696826972 L 41.465697585224355 75.9168669189604 Z M 42.818953016280396 76.0393841103878 L 43.21970256432142 76.5438971761452 L 42.94577956463988 77.38827025752964 L 42.397275192444326 77.79005721700798 L 42.3874794027252 78.38678237505937 L 42.691468095088474 78.74509677955963 L 42.537189394685164 77.93035047382568 L 42.93205348861796 77.90269881655188 L 43.052994582869204 78.92557072739423 L 43.72176172579165 79.90299496488183 L 43.601479004372855 80.19345707040073 L 42.55680092481532 79.68894400464333 L 42.23449749729489 78.82743327997014 L 42.080218796891586 77.77886487954001 L 42.48096834493261 77.29344462475738 L 41.97693406496504 76.23434225965153 L 42.32994160730775 76.36080968783233 L 42.818953016280396 76.0393841103878 L 42.818953016280396 76.0393841103878 Z M 43.45635767154812 75.79831991497707 L 44.12055610602723 76.81329135231262 L 43.94469075699643 77.77886487954001 L 42.986957792705624 77.67480207698581 L 43.38770734074665 76.70394161672989 L 43.05560812350709 75.88326995586583 L 43.45635767154812 75.79831991497707 L 43.45635767154812 75.79831991497707 Z M 39.239040764506335 75.80354699593359 L 40.54457414055595 76.23825259502358 L 39.0952162266546 77.54171101950134 L 39.81695245655116 78.285971535085 L 39.69012590819168 78.61068897649069 L 38.79645461556711 78.29716387255296 L 38.423835543094256 77.1741793959098 L 39.239040764506335 75.80354699593359 L 39.239040764506335 75.80354699593359 Z M 41.40229428639056 76.52871470054248 L 40.38636515384985 77.09976331969678 L 39.8594474302818 77.90263896447986 L 39.63651839907702 77.8822493586113 L 39.363253772227914 77.57927817003997 L 40.86228890894114 76.17371211069405 L 41.14864118967161 76.11180511753345 L 41.40229428639056 76.52873465123315 L 41.40229428639056 76.52871470054248 Z M 42.71107962521862 75.41229400113099 L 42.90394296374168 75.82724841645398 L 42.49142250748419 76.1262693682719 L 42.39466165180644 75.85492002441845 L 42.42277217668271 75.53744468372732 L 42.71107962521862 75.41229400113099 L 42.71107962521862 75.41229400113099 Z M 40.864902449579034 74.5514615999407 L 41.04403971208018 75.17254655130472 L 40.671400688915426 75.40176003645526 L 40.9956592842413 75.97873401073964 L 40.55634504877242 76.07160447582588 L 39.990842687084616 75.67181258541491 L 40.04838048250207 75.32141860511213 L 40.864902449579034 74.5514615999407 L 40.864902449579034 74.5514615999407 Z M 41.25649463004149 73.62802393141624 L 41.945551626618425 73.66686792615799 L 42.21293079935929 74.21946215643909 L 42.56659671453445 74.31825797665542 L 42.67053981929343 75.20875705487755 L 42.10898769460031 75.44323752236595 L 42.25608414592238 76.1532427020628 L 40.86426402743848 75.43797054002808 L 41.170207887607205 75.2680305568692 L 40.965593591559575 73.95140467654679 L 41.25649463004149 73.62800398072557 L 41.25649463004149 73.62802393141624 Z M 43.22034098646198 73.08333017464194 L 43.205318115467065 73.92969832509377 L 43.748575455694926 74.34199929855717 L 43.34587073984846 74.5112809089238 L 44.34544030503746 75.81144746944038 L 44.368982121470395 76.56626190039044 L 44.746189853078484 76.45296192805431 L 44.276151552095435 76.8474868361274 L 43.69889823288305 75.70475117571725 L 43.052994582869204 75.64282423186599 L 42.813067562172165 74.9301855610002 L 43.04776750159341 72.81329757637295 L 43.22034098646198 73.08333017464194 L 43.22034098646198 73.08333017464194 Z M 41.97561731930015 70.81363985014457 L 41.95600578917 71.85430777706789 L 42.357413710043474 72.80208528821431 L 41.89717119877955 73.14392042221807 L 41.557231359626314 71.25624592274136 L 41.97561731930015 70.81363985014457 L 41.97561731930015 70.81363985014457 Z M 42.529348772771485 70.45797888750391 L 42.88171789297364 70.6180233280886 L 43.41059078434714 72.37330504425441 L 42.875174066032955 72.66508389535778 L 42.635247045335916 74.1589118102443 L 42.16127845805008 73.77492086684694 L 42.159981663077076 73.15908294713012 L 42.517577864555015 72.87059595998791 L 42.13971176011448 71.82136918676555 L 42.159981663077076 70.59695539873714 L 42.529348772771485 70.45797888750391 Z M 29.976792398653654 0.00004987672668433561 L 30.769792499989578 0.27800289919314985 L 30.919502491949544 1.1928617707279074 L 31.614424991942826 1.572234129234301 L 32.42180954213311 1.2738715502086053 L 32.92648224424123 1.5274548040171045 L 33.911028938435315 1.3911117839528047 L 34.175794570538294 1.755999941030067 L 35.65587654995382 2.1143043701849975 L 36.99670269996095 1.0584938690403074 L 36.87119289726636 0.6264217611192447 L 37.39483870736408 0.4630754812280456 L 38.21658775571684 0.47693123590095404 L 38.72846265759809 0.8694910009426859 L 39.11091742117385 0.5948298424373866 L 39.66006021550996 1.2376710219811144 L 40.03138249300981 1.0881605460721502 L 41.650061929001275 1.6967463897290764 L 41.71869230911086 4.116615538272987 L 42.32144261256162 3.429643430958959 L 42.796069572679905 3.8603987932955555 L 42.60713652045964 4.2575571925375835 L 42.915693921266254 4.538802078965214 L 43.77145889929542 4.290495782839918 L 44.06629022408012 4.853633953142078 L 44.66642698689299 5.002486056258809 L 44.826591141404535 5.889024922382201 L 45.223430353834665 6.323072148679963 L 46.92773815942797 6.188055849545467 L 48.59150615909608 5.427974436257539 L 48.781097584148796 5.817890734785002 L 49.57800802109561 5.927230495022402 L 49.71528873200667 6.351392154091329 L 51.07835990347373 6.20912377889693 L 51.939332012086794 6.8025670483324925 L 52.25313644486109 6.740660055171895 L 52.386506820161244 7.008059162271955 L 51.82493474477623 7.552104521599351 L 52.08185975496553 7.6884375663183135 L 52.444024664886804 7.700268325887838 L 52.65127245226422 7.363710149567279 L 53.37103356366344 7.640994823896174 L 53.784850814893936 7.423642024351176 L 54.02804974906132 7.990072058614502 L 54.477179724941216 7.75295809995717 L 55.15837614891258 7.925531574284972 L 55.423800153848 8.75871231820146 L 55.15967294388558 9.159182532095329 L 55.44013977050781 9.75985792690012 L 55.22766490185461 9.857337001531985 L 55.10017998066268 11.238523316874607 L 55.34599245546796 11.665986815250037 L 54.75305789242821 12.636827324815293 L 55.020437065169084 12.54064504507722 L 55.16360323018837 12.820573185920384 L 54.133309599485194 13.298092967196213 L 54.117608404965935 13.64058647399221 L 53.70247440807055 13.784849918253983 L 53.81361971260266 14.276853900958942 L 53.255319550687986 14.026572486456946 L 53.52401546909375 14.556123669009875 L 53.35599074197663 14.749745121998465 L 53.07686061171118 14.573899734400172 L 53.404371169815505 15.058003243598334 L 52.973555929092754 15.378770448250632 L 53.44947968418404 15.454503270048127 L 52.940876695773134 15.809505859896555 L 53.47890695472521 16.02489351641019 L 53.26840720456935 16.161894909266724 L 53.00100808113659 16.126322827795455 L 52.68852039402719 15.622448184139623 L 52.64602542029654 15.357682568208496 L 52.157692334848235 15.220681175351963 L 52.47279356259553 16.016334670111156 L 51.910563114378064 15.979465793746098 L 51.82820665824657 16.35619468573822 L 51.57062327522483 16.300232998398396 L 52.09492745815499 16.882473955020657 L 51.59743700512811 17.157135113525957 L 51.821004458473446 17.347484653244056 L 52.090358749711655 17.06426464843972 L 52.364261798701314 17.726866987095786 L 51.390189217750695 18.327542381900574 L 51.37514639606388 19.182469378651437 L 50.87111211609632 19.146897297180168 L 50.85477249943651 18.614712623458306 L 49.43352511041144 18.56601298752372 L 49.310628848354746 18.000889723499526 L 48.88438231607533 18.591689526420815 L 48.25549660624563 18.536386211873225 L 47.30624268600906 17.948219900120865 L 47.33435321088534 17.690038012112073 L 47.0120697340568 17.72102143472838 L 47.157849439713985 17.29750817310635 L 46.58255128830705 16.82393862858392 L 45.65488401669797 16.578265823627557 L 45.356122405610485 15.94662695689713 L 45.44242909873666 15.101595502720443 L 44.916169748001046 14.383669898826115 L 45.409091492584594 13.795503587073757 L 44.67951464077435 13.779024316577251 L 44.89981018064935 13.517530613916618 L 44.62066009969201 13.10193777649206 L 44.71285224692642 12.59477126887506 L 43.9943879305002 12.614522452642058 L 42.94512119180743 11.616010335112332 L 42.76795904780363 12.136344298573995 L 42.52607685930114 12.027014513681932 L 42.21815788063508 12.398496374026863 L 42.33648543424843 13.043302696601954 L 42.934667029255856 13.106506484656345 L 43.00004544658699 13.283030195737545 L 43.31514667433428 13.314671991146087 L 43.53741733270662 13.674961514023055 L 43.32167055058307 14.040498068547214 L 43.88912808007632 14.334252038027277 L 44.32453197993431 14.205829442160448 L 44.38727690593565 14.796629245081741 L 43.02815597146326 15.006729968566836 L 42.54109973029606 14.29211617932435 L 41.904353447860785 14.242039945733277 L 41.62913365320623 14.45806602434847 L 41.86056167915714 15.048207454477529 L 41.336257496226985 15.118034871835599 L 40.95904976461889 14.729435318892603 L 40.99172899793851 14.101746688915577 L 40.681196478634554 13.910738776405246 L 40.16997994958575 14.103063434500044 L 40.00065842749564 13.297534347857349 L 39.3874539614933 13.586021334999547 L 39.07821823716234 12.883238305326584 L 39.36391214506036 12.758765946213156 L 38.29503387623744 12.039523596734362 L 38.24274311278767 11.49349314368493 L 37.89364590605586 11.482320756907638 L 37.9184845174618 11.825472636495869 L 37.372613636596036 11.711534242058171 L 37.4262211457107 11.220168681454771 L 36.954866099062755 11.330176789829743 L 36.39917947778597 10.417293036671683 L 35.70621214559814 10.332981417884483 L 35.431630773084144 8.993950911935462 L 34.913870417094664 9.616372559574623 L 34.33204838943894 11.393400528574805 L 34.61772234664507 11.880795901734134 L 34.77788650115661 11.249157035003707 L 36.36061479035812 11.646973807037968 L 36.92936911482437 13.197441732747224 L 36.41224718097544 13.360119664500854 L 36.0141311242642 12.984687567402522 L 35.743480038052994 13.546518967465554 L 35.31723350577358 13.647948278850818 L 35.44274330846817 13.869261290494553 L 34.56084292406006 14.39550065839564 L 34.57197541013598 15.337372765102634 L 33.16640926493827 15.806313749388757 L 32.21717529539359 16.472207952005984 L 31.95111286831761 17.506292151006978 L 32.283870458389615 17.620230545444674 L 32.11716247693739 18.196546146936836 L 32.30870906979555 18.32959730303997 L 31.719026469534256 18.516654978796904 L 30.935842108609354 20.031530872344216 L 31.2313318062265 20.380608107062546 L 31.351614527645296 21.796708131084202 L 31.82492474209869 22.145126993010297 L 32.298234956552086 21.7644279135741 L 32.60354039458025 21.96728653634463 L 33.442945805257715 21.621501165587468 L 33.46778441666365 22.050939782339597 L 34.929571611613916 23.07710355714312 L 35.32116379207637 23.73509728625355 L 35.99974667540984 23.86946518794115 L 35.858535678196 24.83569708796077 L 36.592042816309025 25.074127792202567 L 36.544959183443154 25.43176387321993 L 37.65960433946706 26.226100622394657 L 38.089102834524915 26.109508786097354 L 38.642175915163804 26.658831103107953 L 39.312918176583594 26.765527396831086 L 39.48028453086826 26.353864845469253 L 40.27392305434474 26.425667381204022 L 40.18893310688346 25.98503642698393 L 40.839405465340654 26.008757798195 L 41.232314391467995 26.770814329859626 L 40.92832569910472 27.70344926678468 L 41.312715679794046 27.949122071741044 L 41.29507926816123 28.398331822950844 L 41.91023890196902 29.003615827301267 L 42.154096208968845 28.8060241868686 L 42.41558992760148 29.290786068858996 L 43.58775292835094 29.46006767922563 L 42.84051971421599 29.962605626606322 L 42.870585406897725 30.563959344894023 L 42.54175810312851 30.586383921211297 L 42.71369316585652 31.103406070021123 L 42.38027720295207 31.35963279034389 L 41.311418884821045 30.69176346934996 L 40.74855001446303 31.281904899479024 L 40.32687219062696 30.99802652188246 L 40.04053986058838 31.198251653484053 L 39.45478754662988 30.716781635454826 L 38.193704312116346 30.769471409524158 L 37.492237985182385 31.200226771860756 L 36.587454157173795 30.685159790736957 L 35.85069505628232 30.91832351264089 L 36.08080633656834 31.74097029188165 L 35.808858455384126 31.979400996123445 L 35.94679753912762 32.69140124488767 L 35.7232101350904 33.13137382631553 L 35.959206869484646 33.35202846516704 L 35.18779341677621 34.35778268341132 L 35.24335609369632 34.71212690046752 L 34.424878958813906 34.812897839060554 L 34.214359257966144 35.241678083020446 L 34.50986890627519 35.52094785107138 L 34.19801964130634 35.91876462310564 L 33.54493374221125 35.46694133141758 L 33.35861423062887 35.77386275674231 L 33.35534231715854 35.12773968858275 L 32.86830602668323 34.504659668151355 L 31.65953350631136 34.85702876683085 L 32.151796878062456 35.99320065000934 L 31.76806527020558 36.15587858176297 L 31.611153078472483 36.83428186743263 L 31.424195144749557 36.587950689684035 L 31.197994200074433 37.22551491154456 L 30.714229823069466 37.376342133037994 L 30.634466956883973 38.10216821043912 L 29.893119196857263 38.92744848084881 L 31.77131723298403 41.35588645103709 L 32.48587121379935 42.03494810949898 L 33.51420967669708 42.364274160450314 L 34.305234659535664 43.20074676832797 L 35.88469103526683 43.2936172334142 L 36.98363499677148 43.78825470728809 L 37.34384473888731 44.50552193839019 L 37.522962050696556 44.051723528325425 L 37.77138806613972 44.062237542310484 L 38.36695612050925 44.361278444819085 L 39.36195697725491 44.29276777304548 L 39.80256800769679 44.82626919235181 L 39.76530011524194 45.996676460726434 L 39.32075879849727 46.46827088687216 L 39.4671968769869 47.175662526090754 L 39.25474195902559 47.25865739929349 L 39.326644252605504 47.53659047106928 L 39.67771657783466 47.521427946157246 L 39.699283275770256 49.04488263669427 L 40.130756889325454 48.838712199271896 L 40.29876166575068 49.189784503057595 L 39.805839921167134 49.289238696066164 L 39.75877623899315 50.266004560761516 L 39.35607152314668 50.26795972844754 L 38.76182021444205 50.9404376589871 L 37.63083544175833 51.064929968791205 L 37.983204561960484 51.70841954578183 L 37.4059512427481 52.18001397192756 L 37.66876170704563 52.479693296537725 L 37.434720140456825 54.325890310103745 L 37.855719640768555 54.40820685982357 L 37.69751065406246 54.94434177029883 L 38.574842330027224 54.835011985406766 L 38.77031920918817 55.66292574698539 L 39.915668480034356 56.73850738258775 L 40.67662777019122 56.52772833561975 L 40.573343038264674 57.32799043992458 L 40.22227071303553 57.30622423639953 L 40.11441727266564 57.66188519904019 L 40.18175085780222 58.516812195791054 L 39.78754513670188 58.74798084862761 L 39.95948019942989 59.29269455609258 L 39.292648273621 59.49226131490194 L 39.606452706395295 60.14562648377606 L 40.65178915878528 60.6995574103323 L 40.889741060984974 60.68505325821249 L 40.94139340229419 60.17130302267316 L 41.41863390305037 60.56516955795402 L 42.2495403189817 60.48480817592022 L 42.32732806666986 60.80820887174145 L 43.36089361084337 60.74825704626688 L 43.18634500747746 61.210634253321345 L 42.90721487721202 61.082850079556074 L 42.3495531374379 62.03393940535434 L 41.65463063744462 62.481812460289 L 41.7003975246456 63.84785620141025 L 41.33559912339454 63.87614628078561 L 41.625861739735896 64.06783251677885 L 41.53696145666372 64.58024605604304 L 42.001114303538536 64.64941510060888 L 42.254109027425045 65.1242814400251 L 42.191364101423694 65.73814424136522 L 42.69408163572637 65.73750581926366 L 42.98827453837052 66.25518634086572 L 42.86406153064893 66.97508706313675 L 42.32732806666986 67.45853219954267 L 42.876470861005956 68.51434270068737 L 42.509737242641336 69.58266228488449 L 42.85360736809736 69.70122923955849 L 42.57836762275092 70.30782998949338 L 41.63829102078481 70.66548602120142 L 41.28133324144743 71.22927258895047 L 41.49053619663029 71.6251341932987 L 41.32644175581596 73.00235032119726 L 41.73896221207345 73.49172081273328 L 40.953822683343105 73.36856519920433 L 40.69232896471047 74.49286642143194 L 39.89539857707176 75.2233011083787 L 39.823496283491835 75.70082088965452 L 39.07821823716234 75.6448592023147 L 38.22181483699263 77.1413006576795 L 38.45978668988422 78.08119764600978 L 37.940051215397396 79.1251374862036 L 38.04922140143217 80.0367044937772 L 37.65699079882916 80.38119306964056 L 37.581158218946456 80.12233285814887 L 37.14379915128302 80.1717507189477 L 36.972522461387456 80.92195654035213 L 36.51032478231809 80.53796559695476 L 36.937868109570495 79.7831511660047 L 35.490485314166484 80.13157002793079 L 35.18583824897076 80.446411877453 L 35.09234930676335 81.72088194838182 L 34.726912483371734 81.73736121887832 L 34.58372636766055 80.861366292776 L 34.039172232459684 81.00692653193157 L 33.28932547768685 81.59377609809945 L 33.478258529907116 82.35912449372525 L 32.71859603472326 82.23134031995998 L 31.980520188166892 80.53335698740914 L 32.17076998605205 79.84376136427151 L 31.848466558531626 79.35504924552771 L 32.58915594572589 78.41844412115859 L 32.81012980912522 77.63795315131142 L 32.52443590122721 76.28114657997212 L 32.01124425368106 75.80823540824191 L 30.699187001382658 75.61459400456265 L 31.18229300555518 74.24130816272682 L 30.418081752619873 75.49471030430418 L 29.53813653601722 75.11534792114313 L 29.179881961706833 74.5377155740665 L 29.01121881244916 72.73762460664747 L 28.696117584701863 72.30952268617048 L 28.154157039447 72.21268203364018 L 28.954997762696603 73.32712761467498 L 28.924273697182432 74.89996026462948 L 29.86369192631609 75.77134658118618 L 31.60069891592091 76.01833613172701 L 32.33027576773115 77.2849256798397 L 30.59719906442912 78.55807900518406 L 30.471689261734536 78.59959639247609 L 29.476688404988874 80.85348576995987 L 28.777177245860358 81.69851722413657 L 28.23914698690828 81.80192165389852 L 26.868893566359976 83.25620729986971 L 26.370744740500648 83.18705820599455 L 25.499956891476568 83.8094798536337 L 22.657482064118312 84.52938057590474 L 22.337792177235784 83.99456241101394 L 22.504500158688007 83.07641167551802 L 22.122703767944685 82.75366935248901 L 22.132519508355706 82.28339167192776 L 21.126406116226022 82.29588080428951 L 20.879955219280195 81.91715684323002 L 19.65220959091873 81.50156400580545 L 19.275001859310642 79.42617345777958 L 18.353220041809795 79.14492857135194 L 18.22836861194766 79.77854255645907 L 17.341879568404323 80.11313558974827 L 17.356922390091132 80.81591861942123 L 16.47502200568303 80.74279933810199 L 16.033094229576257 80.1197193176706 L 16.53124305543559 78.91176484944802 L 16.302428570122572 78.14114947148435 L 15.476090862634582 77.51938619663743 L 13.761987267322148 77.34551592741583 L 13.191916197191004 76.47478798365137 L 12.16748806990417 76.62956544189821 L 12.267520839052262 75.56717121283118 L 12.873543055973366 75.62508806785704 L 12.996439318030054 75.5888775642842 L 13.326583367464162 75.59083273197024 L 13.45995374276432 75.23054320909327 L 13.487405894808152 74.8465522656959 L 13.548854025836496 75.06325666779401 L 14.497449573240623 75.02173928050196 L 14.504631822321857 74.3993176328628 L 13.724719374867295 73.94749434117475 L 13.926720130277031 72.88839197606889 L 12.808823011474681 72.45566149535559 L 12.578053358356218 71.70743079232786 L 13.178190121169088 71.7245684356166 L 13.306313464501565 71.3636205399474 L 12.776782200295616 70.27159953522988 L 11.294745053074644 70.22152330163881 L 10.831889001172826 68.77250463800549 L 9.755828483268669 68.07037998112476 L 9.308673625886108 68.35491673151355 L 8.070473834973068 67.23983272837721 L 8.298629947453637 65.99103919634548 L 8.712447198684133 65.45358754028575 L 8.298629947453637 65.05509244476859 L 8.81313834066467 64.66715126461783 L 9.00664010132828 64.89307288580719 L 9.469496153230097 64.74356240989823 L 9.769554559290585 64.104023069661 L 9.385822951433708 64.41686985011583 L 9.181847077526632 64.06450075143634 L 8.07179058063796 63.99203984290933 L 7.754714234393324 64.29832284613249 L 6.457699803781726 63.7173986350947 L 5.283561684534925 64.0355123978874 L 4.429133402862549 63.305736083732874 L 4.244769059085622 62.67673070817138 L 3.032724625243414 62.296031628735186 L 2.881717838310446 61.77503929248129 L 1.2127028066746546 61.98450159386482 L 0.42624653227941095 61.0182696938452 L 0.07126387143936606 61.00643893427568 L 0 59.992125869732355 L 0.7067133589016417 59.08714259008109 L 0.5465292536982066 58.47262141594873 L 0.9492339695446803 58.386993051577065 L 0.4994655715242244 57.798826739824705 L 0.5426189180873119 56.89847202040975 L 1.6082252734398932 57.131635742313684 L 3.0222704626918384 56.54805808941628 L 2.522804891167614 55.68062200961299 L 3.017043381416051 55.19915199158376 L 4.3572111585907365 55.43955781420226 L 4.3676653211423115 56.85565783822392 L 5.399934070342827 57.11120623506378 L 5.643133004510204 56.90571412112432 L 5.4502696659871495 57.41417742363511 L 5.703922762706102 57.65458324625361 L 6.187048717570517 57.33249929601684 L 6.481221669522771 57.647999518331275 L 6.67669854868372 57.52416558131941 L 6.483196788020111 57.29365530127508 L 7.4664267365493036 56.711414344652816 L 7.216683975441246 56.50526385792112 L 7.274880143691142 55.80774781058603 L 7.588664625773547 55.1899347724925 L 8.392118889661047 54.8191112849398 L 8.395390803131388 54.51218985961507 L 9.610707150443936 54.52206545149857 L 10.47233763188944 53.89042658476814 L 11.871339999454577 53.54069097725758 L 12.38912030613595 53.55186336403487 L 12.477362216375681 53.79424430503007 L 13.21543806293205 53.648025693082275 L 13.594620913037478 52.54347565462165 L 13.226570549007963 51.4902986446459 L 13.608346989059394 51.791294714840525 L 14.29935915344178 51.29863235934333 L 14.354263457529443 51.025287946422495 L 14.624914543740653 50.76249744886807 L 15.19105532756901 51.28875676745983 L 15.608802865102293 50.9818353421351 L 17.760923900910605 52.03565077421242 L 18.097611777285394 52.04552636609592 L 18.339493965787877 51.66813910131156 L 17.85375447028557 50.95811397092403 L 18.739585140996457 51.14846351064213 L 18.642824285318707 51.3500053878282 L 19.053389573770755 51.50083260932163 L 19.383533623204862 51.56998170319679 L 19.458707830255122 50.357418625428565 L 19.7626965226184 50.86787699700673 L 20.092840572052506 50.48388605360937 L 20.055572679597653 49.62698393848181 L 19.640438682702264 49.47023136185828 L 19.31815520587373 48.34327669777105 L 20.610600928041986 48.49609898833186 L 20.37851452925863 48.89523250595059 L 20.549811169846087 49.021699934131384 L 20.94335851811399 48.82342997021581 L 22.3299515553221 49.24035950391551 L 21.999807505887993 48.83661737675116 L 22.668594599502335 48.75691436750959 L 23.049074244580765 48.36370620502096 L 22.784947034618344 48.180598766017425 L 22.817646218629857 47.23148455859587 L 23.947972618481124 47.682011055390134 L 23.852528508468264 47.35926873236113 L 24.378129486371428 47.02533407186417 L 23.85514204910616 46.624883808660975 L 25.499956891476568 46.712487291409346 L 25.541135119542314 46.16645683835991 L 24.790649942628924 45.78444101333925 L 24.763836212725646 45.31945026580652 L 25.3881731648039 45.26015681312418 L 25.784334053709692 44.57385305394773 L 26.41323971423129 44.399962834035456 L 27.148702020149763 42.84951485901688 L 26.80287672688829 42.73028953155064 L 27.325205791321114 41.526963623564356 L 27.10293513294878 41.28260756419246 L 26.94538451907513 41.57767827925699 L 27.09836642450544 40.76225365004012 L 26.59301539887298 40.210317792551265 L 27.671031084582584 40.67335337239796 L 28.20644780289677 40.497488034109 L 28.51634190006017 40.02786872633997 L 28.007060588124926 39.77297870229234 L 28.401924682057718 39.74532704501854 L 28.16919986113381 39.533231252466074 L 28.5640639550666 39.051761234436846 L 28.197310386010088 38.81795909043135 L 28.391470519506143 38.10135023212149 L 27.555975444439575 37.85041044482726 L 27.25982737398998 37.43084741995863 L 27.52590975175785 37.10086299621507 L 27.494527313411233 37.47168648376777 L 27.757996150541207 37.455865586063496 L 28.06066809723959 37.01194276788223 L 27.9377718351829 36.569316744594765 L 28.359429708327077 36.54625374617593 L 28.229989619329707 36.1168151294238 L 29.38515463058691 35.459479773105606 L 29.291027266238945 34.95825857130938 L 28.065895178515376 33.46905921665916 L 26.69107304952373 32.5120445357308 L 26.84209978714859 30.553884246103785 L 27.513480470708934 30.87596819634055 L 27.323908996348113 30.344441895410924 L 27.78478992975259 29.68578979350826 L 26.792402613644825 28.85655928634517 L 26.859097776640848 28.25257207688854 L 26.54267980322866 28.165646917623082 L 26.451804401659142 27.75464273905348 L 26.756451466854863 27.153308971456457 L 27.13038728499261 27.312036666456688 L 27.474257410448633 26.850317832194456 L 27.879575666933004 26.8378286998327 L 28.095322449056546 26.06918844024574 L 28.365973535267756 26.247028896911406 L 28.73599901779461 25.76226701492101 L 29.55708969331492 25.935498862041044 L 29.56558868806105 26.272725386499175 L 29.806174081590534 26.403123100742704 L 29.850624223126623 26.154816804617404 L 30.12520559564062 26.52300680100117 L 30.710957909599127 26.60863516537284 L 30.74429551575119 26.252954252041505 L 30.236989322313285 25.75436654141421 L 30.035626989044104 24.99099326416512 L 30.490642419032238 24.29283879472846 L 30.234375781675393 24.232228596461656 L 30.41219629851164 23.41419042676653 L 29.2132195678589 22.895173208889336 L 28.821627387396447 22.184509656400248 L 28.35747454052163 22.20823102761132 L 28.522207403476514 21.52192726843486 L 28.150885125976657 21.311826544949763 L 28.52745443544419 20.958779122787362 L 27.32259225068322 20.658441425384968 L 27.061756904883033 20.03865326891474 L 27.420011479193416 19.68299230627408 L 27.58669950995375 18.019922682402267 L 28.55556496032047 17.30989755201474 L 28.80462939790419 17.646465703680636 L 28.897459967279154 17.41001011781554 L 29.31127721850965 17.45741295885633 L 29.25571454158954 16.378539459292803 L 29.92645680300933 16.548479442451672 L 30.259872765913777 15.985989669596409 L 30.70309733699355 16.01625486734846 L 31.72491192364249 14.837947125467045 L 32.680031347295404 14.396637847764042 L 33.74236578917765 13.29144938720186 L 33.40960819910565 12.874519853502163 L 32.99970128348605 12.963440081834996 L 32.901643632835295 12.678903331446199 L 33.414176907548985 12.253414951447468 L 32.882032102705146 11.864815398504472 L 32.844125788109736 11.418917461946512 L 32.399564520673174 11.484096368377601 L 32.19756376526344 11.199559617988804 L 32.94152506592804 10.559341954268671 L 32.91211774607876 10.258345884074043 L 32.05046731394136 10.48229238688671 L 31.737321253999514 10.886692886843303 L 31.19994936787988 10.509285671368273 L 31.201266113544776 10.503420168310194 L 31.190153578160754 10.451368816342422 L 31.978565020361444 8.965461325653369 L 32.35445600630464 6.891397498557294 L 32.15704391003013 5.450279308430774 L 31.648420970927337 4.94048928499018 L 31.78113297339505 4.60128764215535 L 31.430719020998346 4.144187392784088 L 31.628809440797188 3.603443872763195 L 31.04762583528202 3.314946910275661 L 30.83517091732071 2.8367787315529354 L 30.299095826174078 2.817685920578172 L 30.07223650866651 2.0312695956009152 L 29.668234997847033 1.756618412440953 L 30.048714642925464 0.7475623548901591 L 29.976792398653654 0 L 29.976792398653654 0.00004987672668433561 Z" fill="rgb(0,0,0)"/>
        </svg>